<?xml version="1.0" standalone="no"?>
<!DOCTYPE svg PUBLIC "-//W3C//DTD SVG 20010904//EN"
 "http://www.w3.org/TR/2001/REC-SVG-20010904/DTD/svg10.dtd">
<svg version="1.0" xmlns="http://www.w3.org/2000/svg"
 width="2492.000000pt" height="517.000000pt" viewBox="0 0 2492.000000 517.000000"
 preserveAspectRatio="xMidYMid meet">

<g transform="translate(0.000000,517.000000) scale(0.100000,-0.100000)"
fill="#FFFFFF" stroke="none">
<path d="M3001 5149 c-124 -44 -474 -110 -756 -143 -609 -72 -556 -69 -984
-64 -301 4 -457 11 -652 28 -291 26 -302 25 -327 -42 -13 -33 -13 -40 2 -63
38 -58 96 -67 590 -89 237 -11 311 -17 317 -27 44 -70 85 -372 111 -834 16
-281 16 -1377 0 -1720 -52 -1122 -88 -1518 -163 -1767 -23 -79 -32 -86 -142
-122 -208 -68 -591 -126 -828 -126 -112 0 -140 -14 -160 -81 -40 -131 82 -132
766 -4 384 72 444 82 631 105 426 52 863 70 1279 51 338 -15 523 -34 775 -77
279 -49 509 -84 545 -84 38 1 51 18 138 190 122 243 243 434 330 522 80 82 90
105 66 151 -19 36 -51 67 -70 67 -10 0 -64 -51 -124 -119 -58 -65 -125 -132
-148 -148 -175 -126 -483 -202 -1017 -252 -436 -41 -656 -53 -845 -46 -188 7
-371 27 -386 42 -31 31 -53 268 -70 743 -19 535 1 1952 36 2545 17 279 80 868
103 950 10 37 22 41 347 95 467 77 723 134 767 170 42 34 -2 171 -55 169 -12
0 -46 -9 -76 -20z"/>
<path d="M9957 4394 c-4 -4 -7 -85 -7 -179 l0 -172 -72 -7 c-331 -32 -686
-195 -938 -432 -321 -303 -490 -697 -490 -1149 0 -482 198 -868 575 -1125 219
-148 560 -249 848 -250 l77 0 0 -183 c0 -199 2 -207 55 -207 53 0 55 8 55 206
0 198 -1 194 58 194 47 0 204 37 297 70 241 85 507 267 676 463 438 510 559
1190 303 1700 -154 305 -471 552 -839 654 -104 28 -233 52 -320 58 -50 3 -109
8 -132 11 l-43 5 -2 172 -3 172 -45 3 c-25 2 -49 0 -53 -4z m-7 -997 l0 -512
-48 -18 c-67 -23 -132 -83 -167 -153 -40 -82 -46 -194 -15 -276 29 -79 104
-160 175 -189 l55 -23 0 -498 0 -498 -42 6 c-24 4 -79 18 -123 32 -247 76
-429 238 -562 501 -101 199 -157 423 -172 691 -37 669 172 1166 575 1368 87
44 205 75 302 81 l22 1 0 -513z m265 475 c129 -43 228 -106 331 -207 101 -100
165 -191 229 -329 110 -235 157 -469 157 -786 2 -535 -157 -947 -452 -1175
-107 -82 -270 -145 -377 -145 l-43 0 0 498 0 497 50 18 c61 22 137 94 169 162
32 67 40 183 17 253 -34 103 -124 196 -210 218 l-26 6 0 509 0 509 38 0 c20 0
73 -13 117 -28z"/>
<path d="M17525 4144 c-11 -3 -58 -14 -105 -26 -47 -11 -147 -44 -222 -74
-255 -99 -248 -98 -528 -91 -135 4 -303 11 -373 17 -117 10 -131 10 -148 -6
-24 -22 -25 -76 -1 -97 15 -14 40 -17 128 -17 159 -1 251 -27 278 -79 53 -103
85 -531 86 -1136 0 -499 -28 -1009 -66 -1192 -35 -171 -102 -234 -279 -262
-77 -12 -181 -1 -222 24 -30 18 -34 18 -49 3 -9 -9 -18 -36 -21 -59 -4 -36 -1
-48 15 -62 29 -26 133 -37 250 -27 173 16 235 33 398 110 l101 47 49 -19 c73
-28 351 -93 504 -119 175 -29 387 -31 510 -5 522 112 1004 509 1086 894 17 81
18 212 3 284 -62 290 -412 499 -927 554 l-64 7 101 53 c287 150 485 368 537
591 20 87 20 217 0 286 -55 190 -251 327 -546 383 -83 15 -451 29 -495 18z
m160 -159 c160 -42 284 -192 330 -400 22 -97 16 -318 -10 -405 -50 -163 -155
-278 -301 -332 -48 -18 -87 -22 -214 -26 -162 -4 -356 10 -373 27 -23 23 31
870 60 948 53 143 313 238 508 188z m-10 -1315 c349 -40 558 -200 620 -474 35
-155 26 -370 -21 -533 -67 -231 -204 -376 -404 -428 -85 -22 -244 -22 -330 0
-195 50 -365 198 -398 347 -21 91 -32 339 -32 720 0 341 1 367 18 371 35 9
459 7 547 -3z"/>
<path d="M20365 4129 c-160 -19 -453 -104 -638 -185 -78 -34 -78 -34 -230 -34
-84 1 -199 5 -257 10 -333 29 -370 26 -370 -30 0 -41 32 -55 165 -69 191 -21
259 -33 296 -52 41 -20 39 -12 65 -244 21 -179 31 -1328 15 -1627 -15 -275
-41 -480 -77 -600 -8 -26 -115 -54 -298 -78 -88 -11 -166 -26 -173 -32 -17
-13 -17 -62 0 -75 23 -19 52 -20 162 -7 249 29 564 37 890 23 397 -18 507 -18
529 0 19 16 21 54 4 69 -17 14 -112 29 -228 37 -118 7 -194 22 -242 46 -31 16
-38 25 -47 70 -22 102 -30 239 -37 617 l-7 382 120 0 c120 0 304 -20 378 -41
144 -41 285 -153 470 -374 143 -171 220 -282 346 -499 119 -206 252 -362 429
-505 122 -98 285 -206 375 -247 99 -45 272 -99 422 -131 121 -26 143 -27 393
-28 218 0 280 3 350 18 101 21 241 71 290 102 51 33 160 153 160 176 0 20 -24
6 -88 -49 -133 -114 -201 -139 -394 -148 -237 -11 -444 18 -613 86 -94 37
-347 176 -418 229 -110 81 -201 193 -309 376 -83 140 -99 171 -147 292 -99
249 -233 496 -311 574 -63 63 -157 131 -256 185 -93 50 -235 84 -359 84 l-70
0 132 69 c151 79 249 144 345 230 174 154 291 325 332 485 91 351 -90 674
-459 817 -171 67 -450 101 -640 78z m228 -147 c270 -133 411 -621 291 -1005
-14 -45 -47 -122 -72 -170 -85 -163 -181 -257 -302 -299 -61 -21 -82 -23 -310
-23 -200 0 -251 3 -275 15 l-30 16 3 239 c5 508 38 910 84 1027 18 47 112 126
202 169 117 56 167 69 263 66 68 -3 92 -9 146 -35z"/>
<path d="M3262 4098 c-29 -29 -3 -140 35 -152 31 -9 173 -25 313 -36 74 -6
199 -18 278 -27 122 -14 142 -18 137 -32 -3 -8 -69 -220 -146 -471 -144 -467
-235 -778 -333 -1142 -50 -184 -185 -596 -231 -702 -31 -73 -96 -165 -156
-220 -56 -52 -146 -103 -259 -147 -39 -15 -45 -21 -45 -45 l0 -29 85 5 c162
10 576 5 730 -8 188 -16 213 -10 321 70 90 67 115 93 99 103 -7 4 -58 4 -114
1 -126 -9 -180 3 -236 51 -75 64 -85 96 -85 268 0 159 15 254 86 540 54 216
40 191 117 209 144 35 467 46 742 26 210 -16 181 14 229 -233 47 -247 124
-681 145 -817 17 -115 17 -115 -88 -125 -67 -6 -75 -9 -80 -30 -3 -13 -2 -36
4 -50 10 -26 12 -26 73 -20 159 16 365 21 636 13 176 -5 299 -4 304 1 6 6 6
25 0 48 l-9 38 -100 -3 c-131 -4 -146 2 -172 75 -134 377 -492 2226 -492 2544
l0 68 33 5 c17 2 116 9 218 15 236 14 298 31 320 88 18 47 -17 78 -72 63 -42
-11 -283 -36 -489 -50 -198 -14 -761 -14 -950 0 -283 21 -573 60 -748 101 -98
23 -85 22 -100 7z m1234 -272 c8 -14 22 -49 30 -78 20 -76 85 -411 139 -713
25 -143 52 -294 59 -335 8 -41 12 -77 10 -79 -6 -6 -167 -29 -363 -51 -175
-20 -347 -48 -470 -76 -35 -8 -66 -13 -68 -10 -18 18 126 555 232 866 61 177
169 413 204 444 23 21 135 54 183 55 19 1 33 -7 44 -23z"/>
<path d="M22092 4068 c-29 -29 -3 -140 35 -152 81 -25 546 -55 871 -56 160 0
173 -1 168 -17 -3 -10 -91 -356 -195 -769 -284 -1125 -343 -1314 -512 -1645
-78 -153 -134 -208 -247 -242 -73 -22 -77 -25 -77 -53 l0 -29 230 3 c147 2
308 -2 447 -13 170 -12 226 -14 260 -5 66 18 245 151 232 172 -5 7 -44 8 -115
4 -166 -11 -241 20 -296 119 -24 44 -27 63 -31 162 -5 133 9 227 79 538 28
121 52 227 55 237 10 34 230 67 449 68 110 0 357 -15 406 -25 25 -6 27 -12 58
-183 77 -414 151 -842 157 -908 8 -83 12 -78 -98 -89 -58 -6 -67 -10 -72 -30
-3 -13 -2 -36 4 -50 10 -26 12 -26 73 -20 159 16 365 21 636 13 187 -5 299 -4
305 2 6 6 5 24 -3 51 l-12 41 -89 -7 c-124 -10 -147 -3 -170 50 -118 275 -500
2233 -500 2561 l0 73 33 5 c17 2 116 9 218 15 269 16 326 38 320 123 -2 26
-33 39 -72 28 -45 -12 -287 -37 -484 -49 -88 -6 -419 -13 -735 -16 -531 -5
-590 -4 -771 14 -184 19 -419 57 -499 81 -44 13 -43 13 -58 -2z m1493 -242
c30 -46 54 -161 203 -971 35 -187 37 -211 23 -216 -9 -4 -120 -23 -246 -43
-127 -21 -296 -50 -375 -66 -79 -16 -146 -28 -148 -25 -13 13 108 466 199 745
150 455 280 674 344 576z"/>
<path d="M7145 4064 c-150 -22 -235 -40 -325 -70 -284 -95 -499 -272 -606
-499 -59 -127 -77 -207 -77 -345 0 -202 41 -310 167 -435 121 -121 199 -155
573 -256 365 -98 466 -130 563 -180 196 -101 290 -254 293 -474 2 -162 -31
-257 -123 -358 -91 -100 -224 -147 -415 -147 -149 0 -263 29 -408 101 -220
111 -363 258 -482 497 -25 50 -46 81 -48 72 -3 -8 -12 -60 -20 -115 -20 -129
-91 -346 -159 -482 -29 -59 -54 -111 -56 -114 -4 -10 147 -66 268 -99 359
-100 759 -126 980 -65 398 110 743 443 842 813 28 108 35 266 14 367 -41 203
-178 362 -416 484 -114 59 -191 87 -370 136 -286 78 -383 107 -445 135 -230
103 -352 266 -344 458 5 101 40 173 123 249 65 60 126 92 228 119 79 20 310
14 403 -11 88 -24 231 -95 300 -149 132 -102 245 -275 282 -431 9 -38 17 -76
19 -82 4 -17 76 -17 92 -1 7 7 12 37 12 68 0 147 56 433 114 579 14 36 25 66
23 67 -12 12 -434 136 -507 149 -91 16 -427 29 -495 19z"/>
<path d="M13144 4045 c-718 -93 -1171 -539 -1269 -1250 -74 -536 32 -946 333
-1293 143 -165 392 -315 601 -363 217 -50 509 -8 541 77 6 15 9 28 7 31 -2 2
-46 5 -98 7 -119 5 -191 24 -306 82 -308 154 -521 545 -574 1053 -15 143 -6
484 15 599 80 432 269 743 536 881 93 48 126 59 215 70 148 18 273 -26 371
-132 85 -92 136 -204 171 -382 16 -81 18 -153 18 -695 0 -606 -9 -868 -41
-1190 -22 -217 -36 -279 -70 -307 -15 -12 -43 -24 -61 -28 -40 -7 -60 -44 -42
-77 10 -19 16 -20 63 -12 28 4 229 8 447 9 417 0 429 1 429 45 0 24 -18 37
-71 50 -68 17 -115 61 -133 121 -39 129 -50 534 -37 1304 11 601 18 738 47
850 56 221 244 410 450 452 148 30 334 -9 464 -97 116 -78 222 -241 285 -435
142 -440 117 -1157 -55 -1590 -155 -389 -396 -613 -649 -603 -67 2 -75 1 -89
-20 -12 -18 -13 -28 -4 -47 11 -23 16 -25 88 -25 208 0 480 98 676 242 298
222 529 614 613 1045 45 228 59 561 30 724 -61 348 -264 620 -581 777 -192 96
-382 136 -639 136 -168 0 -192 -3 -360 -37 -198 -41 -344 -82 -435 -123 l-59
-26 -48 35 c-93 68 -231 124 -357 146 -79 14 -296 12 -422 -4z"/>
</g>
</svg>
