<?xml version="1.0" standalone="no"?>
<!DOCTYPE svg PUBLIC "-//W3C//DTD SVG 20010904//EN"
 "http://www.w3.org/TR/2001/REC-SVG-20010904/DTD/svg10.dtd">
<svg version="1.0" xmlns="http://www.w3.org/2000/svg"
 width="2500.000000pt" height="620.000000pt" viewBox="0 0 2500.000000 620.000000"
 preserveAspectRatio="xMidYMid meet">

<g transform="translate(0.000000,620.000000) scale(0.100000,-0.100000)"
fill="#FFFFFF" stroke="none">
<path d="M12739 6157 c-43 -67 -56 -99 -74 -167 -22 -84 -22 -157 0 -218 l18
-50 -96 -603 c-98 -608 -141 -899 -172 -1150 -15 -122 -16 -174 -6 -485 10
-328 3 -860 -15 -1041 -3 -34 -3 -72 1 -83 4 -12 34 -34 75 -55 l68 -34 6 -58
c4 -32 13 -103 22 -159 11 -73 12 -108 5 -128 -16 -41 4 -59 43 -39 l29 15 -6
-68 c-3 -38 -15 -95 -27 -126 -12 -32 -19 -62 -15 -68 9 -15 35 -12 41 4 7 18
194 17 194 -1 0 -25 29 -12 64 29 37 43 76 131 76 172 0 18 10 29 38 43 26 13
44 34 61 68 24 47 25 58 32 339 4 160 17 415 28 566 11 151 23 349 27 440 l7
165 -43 34 -42 33 7 62 c3 33 22 153 40 266 19 113 40 258 47 323 6 64 15 117
18 117 4 0 22 -28 40 -62 152 -285 680 -1063 1472 -2164 l187 -261 51 9 c44 8
56 6 83 -11 24 -15 36 -17 50 -9 11 5 23 6 27 2 29 -31 187 -279 213 -335 32
-69 54 -86 64 -49 5 20 6 20 35 -1 22 -16 37 -19 62 -15 25 5 35 3 40 -9 7
-18 67 -20 84 -3 21 21 13 78 -18 133 -29 51 -29 53 -10 58 32 8 24 52 -20
118 -39 56 -70 76 -70 44 0 -8 -5 -15 -11 -15 -7 0 -8 7 -3 18 4 9 7 31 6 47
-3 71 0 104 14 168 9 37 21 67 27 67 22 0 92 -41 116 -67 18 -21 27 -24 40
-16 34 21 41 55 41 199 l0 141 -23 -4 c-32 -6 -50 19 -42 57 7 34 25 41 25 10
0 -13 7 -20 20 -20 37 0 13 71 -35 107 l-26 19 55 224 c140 574 277 963 411
1171 108 166 305 850 366 1269 22 153 45 569 35 625 -5 24 -25 56 -61 94 -57
63 -74 96 -56 114 6 6 11 17 11 24 0 16 -32 17 -47 2 -9 -9 -14 -1 -23 30 -13
49 -33 53 -51 9 -11 -31 -13 -31 -16 -10 -3 17 -10 22 -26 20 -30 -4 -79 -105
-114 -235 -15 -57 -30 -103 -34 -103 -4 0 -31 11 -60 24 -39 17 -72 24 -121
24 l-66 0 -17 -38 c-11 -24 -29 -43 -51 -54 -19 -9 -39 -27 -44 -42 l-10 -25
-32 22 -31 22 -17 -21 c-20 -24 -47 -135 -56 -227 -4 -40 0 -82 11 -125 25
-101 30 -273 10 -340 -9 -30 -18 -71 -19 -90 -1 -19 -8 -46 -15 -59 -12 -21
-11 -26 7 -40 19 -15 20 -21 11 -104 -23 -223 -120 -589 -277 -1042 -144 -415
-166 -474 -173 -469 -13 8 -362 435 -575 704 -267 336 -514 657 -829 1075
-137 182 -277 362 -310 400 -126 146 -212 288 -261 430 -23 68 -28 102 -33
230 -5 129 -8 150 -23 153 -10 2 -18 -4 -20 -18 -4 -26 -22 -28 -26 -3 -8 50
-14 63 -32 73 -14 8 -26 7 -41 -1 -17 -9 -25 -7 -42 9 -39 35 -63 43 -91 30
-20 -8 -32 -8 -51 0 -14 7 -27 12 -28 12 -1 0 -14 -19 -28 -43z m3723 -479
c-2 -10 -8 -18 -12 -18 -8 0 -20 51 -20 84 1 17 5 14 19 -14 9 -19 15 -43 13
-52z m-422 -62 c0 -25 -3 -47 -7 -49 -5 -3 -8 17 -8 44 0 27 3 49 7 49 5 0 8
-20 8 -44z m100 -667 c0 -17 -4 -28 -10 -24 -5 3 -10 17 -10 31 0 13 5 24 10
24 6 0 10 -14 10 -31z m-20 -69 c0 -16 -4 -30 -10 -30 -5 0 -10 14 -10 30 0
17 5 30 10 30 6 0 10 -13 10 -30z m-29 -83 c-8 -8 -11 -5 -11 9 0 27 14 41 18
19 2 -9 -1 -22 -7 -28z m-11 -72 c0 -8 -4 -15 -10 -15 -5 0 -7 7 -4 15 4 8 8
15 10 15 2 0 4 -7 4 -15z m-21 -42 c0 -5 -4 -17 -9 -28 -8 -18 -9 -17 -9 8 -1
15 4 27 9 27 6 0 10 -3 9 -7z m-19 -82 c0 -5 -7 -24 -15 -42 -10 -24 -14 -28
-14 -14 -1 30 10 65 20 65 5 0 9 -4 9 -9z m-2642 -569 c2 -12 -1 -22 -7 -22
-6 0 -11 4 -11 9 0 5 -3 17 -7 27 -4 12 -2 15 8 12 8 -2 15 -14 17 -26z m417
-613 c36 -61 42 -85 13 -52 -27 32 -70 113 -59 113 5 0 26 -28 46 -61z m170
-250 c9 -16 11 -29 6 -29 -10 0 -41 51 -41 65 0 13 21 -8 35 -36z m789 -162
c32 -37 56 -70 53 -73 -7 -7 -32 19 -133 138 -41 47 -74 90 -74 95 1 9 59 -52
154 -160z m-114 28 c0 -8 9 -23 20 -32 21 -18 27 -53 10 -53 -5 0 -10 9 -10
20 0 11 -9 25 -20 32 -21 13 -28 48 -10 48 6 0 10 -7 10 -15z m-435 -205 c18
-34 19 -44 5 -35 -16 10 -42 65 -31 65 6 0 17 -13 26 -30z m765 -94 c0 -6 -27
16 -60 49 -33 33 -60 64 -60 69 0 6 27 -16 60 -49 33 -33 60 -64 60 -69z m-65
-6 c69 -93 76 -110 46 -110 -12 0 -21 10 -26 27 -12 51 -55 76 -55 33 0 -11
-4 -20 -10 -20 -13 0 -13 26 -1 49 7 13 2 29 -20 62 -32 48 -40 80 -14 59 8
-7 44 -51 80 -100z m-319 -432 c8 -16 10 -28 4 -28 -5 0 -19 19 -31 42 -18 35
-19 40 -5 29 10 -8 24 -27 32 -43z m769 -173 c-3 -27 -8 -62 -11 -78 l-6 -27
-29 21 -29 20 0 -20 c0 -12 -4 -21 -10 -21 -13 0 -13 16 1 41 8 16 6 26 -14
52 -33 43 -77 132 -77 155 0 11 11 22 28 29 25 10 31 6 90 -56 l63 -66 -6 -50z
m-550 -125 c18 -34 19 -44 5 -35 -16 10 -42 65 -31 65 6 0 17 -13 26 -30z"/>
<path d="M21018 6168 c-38 -17 -68 -35 -68 -40 0 -5 7 -22 15 -38 l16 -30 -38
0 c-21 0 -122 5 -225 12 -153 9 -197 9 -243 -2 -30 -7 -59 -18 -64 -24 -5 -6
-12 -32 -15 -58 -4 -27 -19 -78 -34 -114 l-28 -66 -82 -30 c-136 -49 -178
-108 -137 -188 15 -29 15 -30 -10 -30 -24 0 -25 -2 -25 -70 0 -67 1 -70 23
-70 24 0 109 -27 159 -50 23 -11 25 -15 15 -31 -18 -29 -45 -23 -137 31 -53
31 -86 46 -89 38 -4 -13 68 -82 177 -171 81 -65 198 -195 278 -308 30 -42 54
-80 54 -83 0 -3 -16 -12 -36 -21 l-36 -15 20 -27 c27 -37 117 -123 287 -274
77 -68 175 -158 219 -199 94 -90 226 -245 226 -266 0 -16 -6 -14 -52 18 -25
17 -28 17 -28 3 0 -22 88 -113 171 -177 45 -33 99 -90 151 -158 338 -435 759
-870 1111 -1148 37 -30 67 -57 67 -60 0 -4 -118 -34 -263 -66 -325 -74 -1320
-321 -1347 -336 -11 -6 -24 -19 -29 -29 -15 -26 -82 -35 -127 -16 -56 23 -93
18 -181 -24 -57 -28 -220 -79 -549 -172 -258 -72 -475 -136 -481 -142 -7 -5
-13 -17 -13 -26 0 -14 -29 -23 -152 -50 -174 -37 -289 -72 -336 -101 -35 -22
-37 -34 -20 -124 2 -15 -8 -22 -48 -36 -76 -26 -190 -84 -238 -121 -85 -66
-144 -163 -145 -240 -1 -30 3 -38 22 -43 37 -9 193 -25 318 -32 129 -8 167 2
149 36 -15 28 -12 40 10 40 12 0 20 -7 20 -17 0 -14 11 -15 103 -10 56 4 116
11 133 16 28 8 33 6 44 -14 10 -18 8 -29 -9 -64 -19 -35 -20 -44 -9 -60 12
-17 16 -17 33 -5 24 18 57 18 100 0 31 -13 39 -13 70 0 53 22 90 18 114 -13
l21 -26 319 96 c175 53 363 113 417 135 168 67 692 166 1484 282 369 54 1280
234 1780 352 285 67 541 138 670 185 195 72 234 106 205 177 -9 21 -11 36 -5
36 19 0 10 33 -25 97 l-36 63 26 0 c21 0 25 5 25 30 0 25 -4 30 -24 30 -25 0
-56 23 -56 41 0 5 -21 -2 -46 -17 -34 -20 -48 -24 -54 -15 -5 10 -55 -1 -207
-43 l-199 -55 -67 15 c-44 10 -67 21 -67 30 0 8 8 14 19 14 35 0 90 30 115 63
29 38 34 91 15 177 -6 28 -9 53 -6 56 9 9 36 -9 43 -28 6 -21 1 -21 115 -2 33
6 37 4 43 -20 5 -19 13 -26 31 -26 24 0 25 2 25 78 0 99 -13 145 -50 176 -39
32 -47 73 -20 106 l20 25 0 -57 c0 -51 2 -56 20 -51 20 5 35 39 28 66 -3 16
-147 155 -480 463 -695 644 -1329 1179 -1843 1553 -106 76 -150 115 -180 159
l-41 57 -68 0 c-67 0 -69 1 -102 40 -18 22 -34 46 -34 54 0 15 7 15 255 -14
401 -46 1227 -16 1708 61 81 13 115 14 192 5 161 -19 167 -16 171 85 2 55 -2
80 -22 123 -17 37 -21 58 -14 65 5 5 10 18 10 28 0 15 9 18 63 18 l62 0 60
-65 60 -64 271 -12 c272 -13 462 -5 486 19 7 7 6 28 -1 62 -16 73 -14 80 19
92 19 6 32 19 36 35 10 40 -2 137 -24 187 -12 25 -17 46 -11 46 5 0 9 4 9 10
0 5 -24 16 -52 25 -180 53 -752 99 -1783 141 -304 12 -573 32 -1219 90 -456
41 -830 74 -830 74 -1 0 -31 -14 -68 -32z m52 -1783 c34 -44 66 -105 56 -105
-9 0 -115 138 -131 170 l-18 35 27 -25 c15 -13 44 -47 66 -75z m864 -348 c28
-21 16 -41 -12 -22 -22 16 -30 35 -14 35 5 0 16 -6 26 -13z m697 -619 c30 -23
99 -81 152 -127 93 -80 96 -85 80 -103 -15 -17 -15 -20 12 -48 46 -48 13 -35
-66 27 -154 118 -216 174 -234 211 -10 20 -22 45 -26 54 -5 10 -9 25 -9 33 0
20 17 11 91 -47z m-416 -403 c178 -163 293 -258 306 -250 6 4 29 -12 53 -38
34 -37 46 -44 68 -40 23 4 31 -2 67 -56 23 -34 37 -61 30 -61 -35 0 -213 130
-369 269 -120 107 -600 582 -600 594 0 5 73 -62 163 -149 89 -88 217 -209 282
-269z m1832 -661 c-3 -3 -16 -4 -29 -2 l-23 5 25 10 c23 10 41 1 27 -13z m-80
-9 c8 -22 4 -24 -53 -32 -46 -6 -48 -5 -34 11 27 34 77 45 87 21z m613 -390
c0 -10 -10 -15 -27 -15 l-28 1 25 14 c31 18 30 18 30 0z m-94 -30 c18 -15 18
-15 -10 -13 -16 2 -31 9 -34 16 -5 17 20 15 44 -3z m-102 -14 c6 -10 -16 -21
-41 -21 -13 0 -13 3 -3 15 14 17 36 20 44 6z m-96 -38 c2 -9 -7 -13 -27 -13
-30 0 -39 9 -24 24 11 10 46 3 51 -11z m-88 -2 c0 -11 -80 -44 -88 -36 -10 9
15 27 50 35 18 4 34 8 36 9 1 1 2 -3 2 -8z m-122 -53 c-3 -7 -15 -13 -28 -13
-13 0 -25 6 -27 13 -3 8 6 12 27 12 21 0 30 -4 28 -12z m-108 -17 c0 -11 -25
-21 -53 -21 -35 0 -1 22 46 29 4 0 7 -3 7 -8z m-130 -33 c0 -8 -13 -13 -30
-13 -17 0 -30 5 -30 13 0 7 13 12 30 12 17 0 30 -5 30 -12z m-110 -33 c0 -10
-10 -15 -27 -15 l-28 1 25 14 c31 18 30 18 30 0z m-150 -25 c-20 -13 -40 -13
-40 0 0 6 12 10 28 10 21 0 24 -2 12 -10z m-70 -8 c0 -9 -44 -32 -60 -32 -19
0 -10 21 13 30 29 11 47 12 47 2z m-100 -32 c0 -5 -17 -10 -37 -9 -34 1 -35 2
-13 9 36 11 50 11 50 0z m-125 -29 c-3 -6 -18 -11 -33 -10 l-27 1 30 13 c32
14 41 13 30 -4z m-125 -31 c-38 -21 -70 -26 -70 -10 0 5 12 12 28 16 15 3 32
7 37 9 32 11 35 1 5 -15z m-665 -129 c-6 -5 -28 -12 -50 -16 -37 -6 -39 -5
-21 9 21 17 87 23 71 7z m-165 -21 c0 -11 -76 -33 -93 -27 -17 5 43 36 71 37
12 0 22 -4 22 -10z m-280 -60 c-20 -13 -60 -13 -60 0 0 6 17 10 38 10 27 0 33
-3 22 -10z m-160 -19 c0 -10 -25 -21 -48 -21 -15 1 -14 3 2 15 22 17 46 20 46
6z m-268 -52 c-24 -11 -53 -19 -65 -17 -16 3 -9 8 28 20 69 23 89 21 37 -3z
m123 10 c-18 -5 -33 -5 -39 1 -7 7 4 10 30 9 39 -1 39 -1 9 -10z m-1139 -200
c6 -10 -11 -29 -26 -29 -3 0 -11 4 -19 9 -17 11 -5 31 19 31 10 0 22 -5 26
-11z m-100 -34 c-25 -19 -36 -19 -36 0 0 10 10 15 28 15 26 -1 26 -1 8 -15z
m-1016 -30 c0 -10 -10 -15 -32 -15 l-33 1 25 14 c32 18 40 18 40 0z m-90 0 c0
-5 -55 -35 -65 -35 -20 0 6 26 31 31 16 4 30 7 32 8 1 0 2 -1 2 -4z m945 -16
c-44 -20 -65 -24 -65 -10 0 12 48 29 80 29 21 0 19 -2 -15 -19z m-84 -34 c0
-5 -7 -12 -16 -13 -23 -5 -47 6 -40 19 8 13 56 8 56 -6z m-101 -30 c0 -8 -7
-15 -16 -15 -14 0 -14 3 -4 15 7 8 14 15 16 15 2 0 4 -7 4 -15z m-80 -20 c0
-14 -37 -35 -61 -35 -11 0 42 49 54 50 4 0 7 -7 7 -15z m-205 -65 c-3 -5 -13
-10 -21 -10 -8 0 -12 5 -9 10 3 6 13 10 21 10 8 0 12 -4 9 -10z"/>
<path d="M7035 5808 c-214 -324 -509 -745 -1055 -1508 -251 -349 -491 -695
-535 -768 -91 -153 -186 -276 -242 -315 -31 -22 -55 -28 -139 -36 -199 -18
-272 -80 -299 -248 l-7 -43 86 0 c67 0 86 -3 86 -14 0 -15 -26 -21 -145 -31
-120 -11 -253 -34 -290 -52 -28 -13 -35 -22 -35 -45 0 -40 28 -48 179 -48 70
0 169 -3 219 -6 91 -7 92 -7 92 -33 0 -18 -32 -70 -97 -158 -180 -242 -280
-422 -303 -543 -6 -29 -8 -56 -5 -59 3 -3 26 1 52 7 40 11 48 11 64 -4 11 -10
19 -24 19 -31 0 -17 38 -11 113 18 60 24 57 24 57 -6 0 -14 4 -25 9 -25 44 0
337 259 476 420 132 154 302 325 364 368 l54 37 851 0 c468 0 867 4 887 9 l36
8 47 -137 c105 -302 184 -612 301 -1180 36 -176 75 -359 86 -407 l21 -88 43 0
c28 0 62 -10 98 -29 42 -22 58 -26 66 -17 14 16 57 170 81 283 10 53 21 97 23
99 2 3 24 -7 48 -21 24 -13 48 -25 52 -25 4 0 15 16 23 35 8 19 17 35 20 35 3
0 22 -11 42 -25 20 -14 42 -25 49 -25 22 0 16 152 -11 263 l-23 97 27 0 27 0
-58 173 c-32 94 -71 237 -87 317 -29 145 -29 145 -56 142 -22 -2 -26 1 -26 21
0 20 4 23 25 19 38 -7 33 20 -31 179 -60 151 -94 259 -94 300 0 25 3 26 90 37
103 13 175 40 185 71 4 15 15 21 34 21 25 0 28 -3 23 -25 -4 -23 -1 -25 31
-25 44 0 57 20 57 86 0 36 -9 63 -40 119 -41 74 -40 95 2 95 13 0 18 8 18 25
0 25 -14 33 -25 15 -4 -6 -22 2 -45 20 -34 27 -41 29 -65 18 -21 -9 -28 -9
-34 0 -6 9 -24 10 -77 2 -38 -5 -110 -10 -160 -10 l-92 0 -21 98 c-64 280
-150 586 -241 847 -36 106 -46 157 -85 431 -67 472 -147 852 -234 1111 l-40
118 25 38 c29 44 25 55 -11 39 -41 -19 -48 -15 -41 23 9 47 -11 54 -61 21 -47
-33 -53 -32 -53 2 0 21 -16 41 -75 92 -41 36 -78 66 -83 67 -4 1 -79 -106
-167 -239z m19 -1558 c9 -66 68 -271 164 -573 l79 -248 -21 -14 c-35 -23 -178
-53 -386 -79 -262 -34 -611 -68 -660 -64 l-40 3 201 255 c661 838 649 825 663
720z m814 -337 c11 -40 16 -75 12 -78 -18 -11 -57 111 -46 141 9 23 11 19 34
-63z m69 -173 c13 -35 21 -65 19 -67 -5 -5 -31 38 -43 72 -6 17 -14 38 -19 49
-5 14 -3 17 7 14 7 -2 24 -33 36 -68z"/>
<path d="M12157 5862 c-9 -10 -32 -51 -51 -92 -35 -76 -166 -422 -166 -439 0
-5 -7 -14 -15 -21 -13 -11 -15 -7 -15 24 0 42 -9 44 -56 15 l-34 -21 0 21 c0
32 -35 27 -48 -6 -6 -16 -23 -59 -38 -98 -30 -77 -44 -100 -120 -193 -35 -43
-103 -162 -214 -380 -163 -318 -308 -591 -457 -862 -212 -385 -620 -1094 -633
-1098 -5 -2 -25 9 -45 23 -34 27 -35 27 -35 6 0 -11 -4 -21 -10 -21 -13 0 -13
16 1 55 9 25 9 38 -2 61 -18 36 -49 45 -49 14 0 -29 -24 -21 -28 9 -2 13 -12
26 -23 28 -10 3 -19 13 -19 22 0 32 13 32 26 1 13 -30 44 -42 44 -17 0 7 -68
125 -151 262 -381 628 -705 1229 -894 1655 -131 296 -247 514 -338 638 -25 32
-37 41 -54 37 -16 -4 -23 1 -28 15 -11 34 -41 44 -65 20 -14 -14 -27 -18 -48
-14 -26 5 -31 2 -45 -33 -27 -68 -49 -195 -43 -245 6 -43 5 -46 -13 -41 -64
17 -215 -166 -261 -316 l-20 -64 56 -126 c174 -392 352 -689 745 -1246 152
-216 232 -350 260 -434 30 -90 195 -412 309 -601 124 -207 350 -549 488 -739
62 -84 112 -162 112 -171 0 -10 -7 -54 -15 -97 -8 -43 -15 -91 -15 -108 0 -30
0 -30 63 -33 151 -7 256 -60 386 -198 44 -46 82 -84 86 -84 9 0 -22 55 -51 89
-41 49 -19 36 66 -38 l78 -69 42 9 c35 8 47 6 75 -11 18 -11 36 -20 40 -20 4
0 6 31 3 69 -3 53 -9 77 -31 109 -15 23 -27 55 -27 72 0 28 2 30 20 20 26 -14
27 7 4 53 -19 36 -23 38 79 -41 117 -91 72 -30 -98 132 -97 93 -174 171 -171
174 3 2 60 -48 126 -111 191 -183 307 -264 361 -252 21 5 37 1 59 -15 16 -12
35 -18 41 -14 17 10 1 91 -32 155 -25 50 -27 61 -17 89 11 32 9 33 -84 128
-111 114 -175 188 -286 333 l-81 106 95 188 c69 136 129 236 218 364 277 395
502 790 660 1153 51 118 53 133 30 201 -20 59 -16 67 125 261 60 82 119 170
132 194 20 41 21 49 10 93 -8 30 -10 61 -5 81 5 18 7 52 5 74 -2 39 0 43 40
70 34 23 45 38 55 74 6 25 54 151 107 280 108 267 230 588 230 606 0 24 -106
275 -113 267 -4 -4 -63 -133 -130 -286 -68 -152 -125 -276 -127 -274 -2 2 17
91 42 197 l46 194 -13 100 c-7 55 -18 101 -24 103 -6 2 -18 -5 -27 -15z
m-3380 -449 c4 -10 43 -83 89 -163 110 -196 200 -377 190 -387 -4 -4 -13 0
-21 10 -21 29 -285 534 -285 546 0 17 20 13 27 -6z m403 -794 c54 -118 143
-308 199 -422 95 -196 111 -237 93 -237 -4 0 -79 145 -167 321 -117 234 -171
333 -200 363 -26 27 -46 61 -58 100 -18 55 -18 59 -1 77 10 11 22 18 28 16 5
-2 53 -100 106 -218z m379 -751 c15 -42 6 -48 -13 -9 -18 35 -19 41 -7 41 5 0
14 -14 20 -32z m69 -99 c7 -12 11 -23 9 -25 -6 -6 -37 25 -37 37 0 16 15 10
28 -12z m66 -117 l17 -37 -31 33 c-32 34 -39 55 -17 46 8 -3 21 -22 31 -42z
m85 -158 c23 -48 55 -102 71 -121 17 -18 30 -42 30 -53 0 -34 -28 -11 -53 43
-13 29 -43 82 -65 120 -23 37 -42 74 -42 82 0 34 20 10 59 -71z m151 -260 c0
-14 -4 -23 -10 -19 -5 3 -10 15 -10 26 0 10 5 19 10 19 6 0 10 -12 10 -26z
m60 -116 c0 -18 -17 -7 -29 19 -13 28 -13 28 8 9 12 -11 21 -23 21 -28z m58
-60 c7 -7 12 -21 12 -32 0 -18 -1 -19 -20 -1 -20 18 -27 45 -12 45 4 0 13 -5
20 -12z m-620 -233 c16 -35 15 -37 -8 -25 -11 6 -20 20 -20 30 0 28 15 25 28
-5z"/>
<path d="M252 5853 c-24 -9 -52 -82 -68 -175 -15 -87 -19 -96 -66 -153 -88
-104 -136 -246 -109 -321 10 -27 10 -38 1 -49 -10 -12 -10 -22 0 -46 12 -28
16 -30 49 -26 20 3 49 9 65 13 22 5 28 4 24 -7 -2 -7 -15 -16 -28 -19 -22 -5
-22 -6 -6 -23 56 -56 263 -110 591 -157 83 -11 162 -23 178 -26 l27 -6 0 -276
c0 -152 5 -352 11 -445 7 -92 9 -170 6 -174 -4 -3 -34 1 -67 10 -77 22 -154
22 -190 0 -24 -14 -29 -25 -35 -72 -14 -115 -59 -171 -147 -186 -30 -5 -44
-15 -59 -39 -23 -36 -78 -210 -110 -348 l-22 -96 43 -74 c85 -143 168 -246
211 -260 10 -3 2 -40 -34 -154 -52 -167 -82 -277 -92 -347 l-7 -47 35 0 c20 0
48 -5 62 -12 21 -9 31 -9 46 0 31 19 58 14 71 -13 6 -14 17 -25 24 -25 6 0 70
18 140 40 70 22 130 37 133 35 6 -7 -16 -1390 -30 -1870 -6 -198 -9 -387 -7
-420 l3 -60 65 -12 c54 -10 71 -10 102 2 32 13 42 13 72 0 20 -8 38 -15 41
-15 3 0 5 33 5 73 0 39 5 168 12 285 l12 212 37 0 38 0 3 92 3 92 59 15 c47
11 63 11 78 2 16 -10 23 -9 39 5 16 15 19 31 19 117 0 55 5 211 11 346 9 192
9 321 -1 584 -7 185 -11 339 -9 341 2 2 171 -90 374 -206 868 -493 1591 -862
2020 -1030 55 -22 323 -151 595 -287 503 -251 710 -346 779 -357 36 -6 39 -4
50 26 6 18 11 72 11 120 0 78 -3 90 -30 133 -47 74 -72 128 -66 142 3 8 17 15
33 17 24 3 28 7 28 34 0 30 -6 34 -138 103 -114 59 -576 308 -585 316 -1 1 3
16 9 33 10 28 6 39 -35 115 -25 46 -46 87 -46 91 0 3 16 6 35 6 l35 0 0 73 c0
43 -5 80 -12 89 -14 18 -457 290 -711 437 -268 155 -375 207 -458 225 -77 17
-100 32 -123 79 -13 25 -28 33 -576 319 -358 186 -488 258 -533 292 -15 12
-17 27 -15 107 l3 92 240 120 c132 66 371 180 530 254 670 312 840 395 911
444 24 16 101 52 171 81 70 28 145 61 165 74 l38 24 0 80 0 80 48 -6 c26 -4
96 -17 156 -30 60 -13 111 -22 114 -19 3 3 0 22 -6 43 -11 34 -10 39 10 55 17
14 20 22 12 35 -7 11 -7 25 -1 43 9 24 3 39 -61 143 -40 64 -72 119 -72 121 0
3 27 5 61 5 l60 0 -3 32 -3 32 -975 298 c-536 164 -1063 321 -1170 349 -373
97 -669 189 -690 214 -12 15 -10 53 5 88 6 16 4 18 -16 15 -18 -2 -25 -10 -27
-30 -5 -41 -19 -34 -26 14 -4 23 -14 51 -23 60 -15 17 -18 17 -40 3 -21 -14
-25 -14 -39 0 -11 11 -20 12 -34 5 -22 -12 -30 -32 -30 -76 0 -19 -2 -34 -5
-34 -3 0 -121 24 -262 54 -524 110 -867 167 -911 149z m1024 -1080 c-7 -35
-34 -265 -42 -355 -3 -38 -10 -68 -15 -68 -5 0 -9 95 -9 225 l0 225 36 0 c33
0 35 -2 30 -27z m1119 -318 c121 -34 291 -79 378 -100 125 -30 157 -41 155
-53 -2 -10 -246 -120 -698 -314 -382 -164 -697 -298 -700 -298 -3 0 2 138 12
308 9 169 19 386 23 482 5 114 12 184 21 201 l13 27 288 -95 c158 -52 387
-123 508 -158z m-2021 -1271 c9 -3 16 -15 16 -25 0 -18 -1 -19 -25 -3 -38 25
-31 44 9 28z m436 -790 c0 -10 -7 -14 -22 -12 -32 5 -35 28 -4 28 17 0 26 -5
26 -16z m766 -174 c38 -22 88 -46 112 -52 35 -9 47 -18 63 -49 11 -22 15 -39
9 -39 -5 0 -58 30 -116 66 -59 36 -120 71 -136 76 -29 10 -39 38 -14 38 8 0
45 -18 82 -40z m449 -250 c11 -4 37 -22 59 -39 21 -17 43 -31 47 -31 5 0 9 -7
9 -15 0 -24 -21 -17 -94 30 -38 25 -78 45 -88 45 -10 0 -18 7 -18 16 0 12 7
14 33 9 17 -4 41 -11 52 -15z m317 -192 c37 -18 67 -39 67 -45 1 -20 -21 -15
-60 11 -20 14 -48 28 -63 32 -14 3 -26 12 -26 20 0 20 7 18 82 -18z m270 -150
c37 -18 67 -39 67 -45 1 -21 -25 -15 -76 17 -26 17 -53 30 -60 30 -13 0 -19
30 -5 30 4 1 37 -14 74 -32z m279 -150 c56 -31 77 -58 44 -58 -28 0 -135 60
-135 75 0 23 27 18 91 -17z m279 -164 c0 -18 -10 -18 -38 2 -32 22 -27 35 8
23 17 -6 30 -17 30 -25z m295 -137 c1 -1 7 -11 15 -21 15 -19 14 -19 -15 -3
-54 29 -64 39 -30 32 16 -4 30 -7 30 -8z"/>
<path d="M18474 5718 c-22 -4 -217 -7 -434 -5 -447 2 -436 4 -459 -72 -6 -23
-22 -48 -34 -55 -12 -8 -101 -42 -198 -74 -97 -33 -191 -67 -208 -76 -45 -24
-56 -58 -36 -114 8 -25 15 -54 15 -64 0 -35 -32 -83 -110 -163 -316 -328 -492
-783 -540 -1399 -5 -71 -10 -169 -10 -218 0 -83 1 -89 24 -99 45 -21 66 5 108
131 3 8 8 -16 12 -55 23 -245 93 -611 132 -688 29 -58 75 -97 134 -114 52 -15
70 -31 340 -297 293 -290 341 -329 492 -403 254 -124 744 -242 787 -189 8 9
10 28 6 48 -6 34 -6 34 45 47 49 13 52 12 66 -8 12 -16 25 -21 62 -21 67 1
187 24 256 50 l58 22 -6 41 c-4 23 -8 43 -10 44 -2 2 -22 7 -46 11 -42 7 -42
7 -24 28 13 14 63 33 154 58 74 21 171 53 215 71 44 19 100 39 125 46 68 18
114 78 49 64 -31 -7 -48 4 -49 31 0 6 33 33 73 61 78 55 229 190 292 263 22
25 70 77 106 117 141 150 243 330 313 551 55 176 75 288 79 455 3 136 2 147
-14 142 -21 -7 -27 3 -42 63 -11 45 -14 47 -49 50 l-38 3 0 259 c0 351 -21
456 -142 694 -240 477 -683 734 -1317 764 -76 4 -156 4 -177 0z m740 -703 c49
-14 72 -30 144 -99 107 -102 191 -214 247 -330 80 -166 105 -303 105 -597 0
-158 -2 -175 -40 -340 l-39 -173 -125 -125 c-68 -69 -126 -135 -128 -146 -3
-15 -11 -20 -34 -20 -25 0 -43 -12 -85 -55 -113 -115 -375 -274 -551 -334 -91
-31 -215 -56 -278 -56 -177 0 -572 91 -783 181 -114 48 -139 37 -57 -24 28
-21 50 -41 50 -46 0 -5 -18 -4 -41 2 -31 7 -50 22 -81 61 -51 65 -67 98 -50
104 6 2 12 8 12 13 0 5 -40 81 -89 169 -49 89 -102 191 -118 228 -27 65 -28
71 -27 242 0 146 4 188 22 256 28 104 63 196 111 292 21 42 44 101 51 130 25
108 145 243 330 372 51 36 122 87 159 114 109 80 215 119 423 155 113 20 113
20 255 -10 134 -28 151 -26 161 14 8 32 8 32 88 38 136 11 303 4 368 -16z
m-1574 -2612 c0 -11 -91 60 -101 79 -7 14 10 3 45 -26 31 -27 56 -50 56 -53z
m100 -32 c19 -13 53 -42 75 -62 22 -21 51 -39 65 -42 21 -4 20 -4 -7 -6 -23
-1 -42 8 -67 30 -19 16 -54 40 -77 52 -28 15 -43 30 -44 44 -2 24 1 23 55 -16z"/>
</g>
</svg>
