<?xml version="1.0" standalone="no"?>
<!DOCTYPE svg PUBLIC "-//W3C//DTD SVG 20010904//EN"
 "http://www.w3.org/TR/2001/REC-SVG-20010904/DTD/svg10.dtd">
<svg version="1.0" xmlns="http://www.w3.org/2000/svg"
 width="3433.000000pt" height="1728.000000pt" viewBox="0 0 3433.000000 1728.000000"
 preserveAspectRatio="xMidYMid meet">

<g transform="translate(0.000000,1728.000000) scale(0.100000,-0.100000)"
fill="#FFFFFF" stroke="none">
<path d="M16070 17124 c-490 -33 -1021 -137 -1475 -289 -447 -149 -778 -294
-1840 -808 -1050 -508 -2427 -1163 -3210 -1529 -537 -251 -826 -373 -910 -384
-25 -4 -45 -10 -45 -15 0 -13 23 -59 29 -59 3 -1 26 -5 50 -9 93 -18 248 22
501 130 172 73 445 200 1890 879 2025 952 2434 1141 2874 1330 1091 467 1846
659 2438 621 650 -43 1193 -258 1547 -612 230 -231 411 -555 495 -884 49 -193
60 -286 60 -505 0 -219 -11 -309 -59 -494 -179 -689 -802 -1427 -1653 -1958
-715 -446 -1602 -745 -2517 -847 -343 -39 -475 -45 -900 -45 -632 0 -1140 43
-1815 154 -257 43 -735 136 -756 148 -9 5 28 74 125 232 462 755 980 1487
1390 1965 125 145 213 276 280 415 72 149 74 175 19 185 -36 7 -62 -17 -215
-197 -571 -673 -1139 -1479 -1664 -2365 -63 -106 -120 -193 -127 -193 -20 0
-679 169 -1052 270 -184 50 -657 183 -1050 295 -1037 296 -1329 375 -1750 475
-1259 300 -2298 337 -3197 115 -1022 -253 -1969 -893 -2635 -1780 -232 -308
-455 -704 -596 -1055 -107 -268 -120 -334 -83 -417 39 -85 91 -95 285 -58 277
54 324 30 572 -297 58 -76 130 -165 161 -198 81 -87 184 -136 200 -94 7 18
-37 105 -128 254 -389 638 -390 1392 -4 2005 81 129 126 186 245 308 347 358
857 593 1462 671 393 52 846 39 1458 -39 1165 -150 3173 -525 4643 -866 144
-34 354 -80 467 -103 l205 -43 -138 -89 c-905 -583 -1078 -723 -1161 -942 -14
-37 -131 -377 -260 -757 -277 -816 -492 -1438 -611 -1770 -162 -447 -228 -653
-700 -2195 -393 -1281 -605 -1940 -722 -2235 -100 -254 -313 -654 -451 -850
-79 -110 -250 -281 -347 -344 -116 -76 -334 -182 -462 -224 -205 -68 -283 -81
-513 -81 -180 -1 -218 2 -309 22 -353 79 -659 266 -796 486 -68 109 -95 205
-104 361 -9 162 -24 194 -78 174 -54 -20 -83 -139 -83 -340 0 -289 61 -460
257 -721 192 -254 220 -316 188 -423 -25 -87 -58 -146 -105 -189 -23 -21 -39
-43 -36 -51 7 -18 159 -30 381 -29 263 0 440 40 696 154 228 101 534 306 1082
725 762 582 1259 1117 1478 1592 108 234 338 936 764 2333 314 1027 357 1151
785 2220 143 355 297 742 343 860 161 408 311 741 558 1230 182 362 309 594
419 765 42 66 96 153 120 193 23 40 46 75 51 78 10 6 178 -16 195 -25 7 -4
-39 -101 -128 -266 -383 -716 -773 -1536 -1053 -2215 -372 -901 -622 -1629
-1161 -3377 -135 -439 -321 -1041 -414 -1338 -356 -1144 -608 -1985 -889
-2965 -216 -756 -292 -1035 -289 -1060 2 -20 9 -26 34 -28 27 -3 39 5 89 60
70 75 162 213 215 323 52 109 154 480 434 1581 313 1233 536 1991 1166 3969
358 1122 513 1573 765 2225 388 1004 877 2072 1334 2917 73 134 85 152 104
148 12 -2 105 -14 207 -25 680 -74 1274 -103 2120 -104 601 -1 745 4 1140 40
1718 154 3084 706 4091 1650 480 451 860 972 1034 1418 287 733 197 1388 -265
1922 -268 309 -691 555 -1190 692 -307 84 -617 148 -860 177 -129 15 -523 27
-640 19z"/>
<path d="M27770 13514 c-594 -82 -823 -115 -1245 -180 -563 -86 -996 -158
-1240 -208 -800 -162 -1384 -347 -1654 -522 -103 -68 -217 -176 -314 -299 -89
-114 -145 -173 -179 -191 -57 -30 -35 -41 90 -48 272 -16 485 -57 580 -113 24
-14 62 -43 83 -65 22 -23 43 -38 46 -34 4 4 6 60 4 124 -5 211 49 376 164 501
110 119 196 165 485 259 579 190 1166 330 1813 432 362 57 457 68 457 52 0
-24 -111 -100 -353 -243 -160 -94 -465 -337 -608 -485 -206 -213 -330 -509
-519 -1233 -282 -1084 -403 -1551 -495 -1916 -58 -231 -113 -444 -121 -473
l-15 -52 -62 31 c-144 73 -244 101 -365 100 -161 0 -238 -36 -509 -240 -207
-155 -377 -271 -635 -431 -139 -86 -167 -109 -304 -245 -420 -418 -785 -1090
-939 -1728 -89 -369 -167 -1164 -168 -1712 -2 -564 54 -820 204 -945 88 -74
159 -104 250 -108 202 -10 403 115 783 488 267 262 445 467 607 700 41 58 82
117 92 130 l18 25 -6 -25 c-3 -14 -70 -220 -148 -459 -129 -396 -145 -437
-180 -477 -57 -65 -149 -106 -248 -112 -95 -6 -100 -16 -27 -63 94 -61 141
-56 518 54 391 114 822 178 996 148 83 -14 229 -83 298 -140 26 -23 52 -39 57
-36 4 3 22 33 39 67 61 120 137 217 222 284 60 47 162 99 214 110 30 6 31 4
63 -70 128 -293 366 -501 636 -557 211 -44 418 -5 678 128 138 71 285 169 497
333 153 118 180 135 282 176 461 185 802 538 1098 1139 257 519 435 1101 519
1690 68 473 79 1020 25 1243 -26 108 -87 224 -152 291 -209 214 -505 187
-1102 -100 -243 -117 -610 -319 -610 -335 0 -8 1 -14 3 -14 1 0 56 14 122 31
425 108 714 -19 829 -363 57 -173 47 -458 -34 -936 -95 -556 -264 -1131 -493
-1672 -75 -179 -298 -626 -367 -737 -62 -100 -143 -190 -211 -234 -49 -31 -52
-32 -137 -26 -48 3 -114 13 -147 22 -224 58 -419 241 -556 520 -109 223 -136
380 -119 679 33 568 59 766 147 1111 166 652 523 1323 941 1770 67 72 167 178
222 237 55 59 100 112 100 118 0 17 -32 11 -111 -19 -355 -137 -702 -370
-1038 -696 -694 -675 -1096 -1530 -1172 -2490 -13 -167 -7 -553 11 -705 11
-94 44 -299 56 -344 5 -23 5 -23 -118 -30 -365 -20 -771 -120 -1238 -306 -197
-79 -354 -132 -422 -145 -31 -6 -38 -4 -38 9 0 27 139 164 224 221 168 111
452 246 716 342 l132 47 -7 55 c-32 243 40 768 234 1731 161 798 400 1853 424
1876 7 6 52 26 101 44 102 39 235 113 319 177 87 67 183 190 164 209 -2 3 -43
-6 -89 -20 -126 -36 -362 -59 -395 -38 -9 6 10 95 78 357 146 568 475 1791
580 2160 220 770 452 1290 835 1873 181 275 180 275 942 383 92 13 141 38 156
82 8 23 6 31 -12 49 -28 28 -108 32 -252 12z m-3920 -5228 c272 -98 332 -116
450 -135 69 -11 158 -23 198 -26 41 -4 72 -12 72 -18 0 -6 -49 -211 -110 -456
-60 -245 -136 -561 -170 -701 -143 -602 -269 -965 -546 -1578 -261 -577 -376
-786 -521 -942 -115 -124 -242 -200 -336 -200 -56 0 -138 41 -177 88 -181 218
-241 797 -160 1538 43 385 132 747 296 1191 202 550 500 1148 616 1236 54 41
77 47 183 44 86 -3 115 -8 205 -41z"/>
<path d="M17479 9707 c-19 -13 -81 -71 -139 -128 -119 -119 -196 -166 -326
-199 -43 -11 -242 -40 -443 -65 -201 -25 -400 -53 -441 -61 -168 -35 -455
-162 -663 -293 -275 -173 -299 -200 -489 -542 -536 -966 -718 -1360 -1016
-2204 -105 -296 -127 -349 -142 -340 -6 4 -10 21 -10 40 0 41 100 440 255
1010 395 1460 465 1748 465 1894 0 120 -45 231 -117 290 -56 46 -121 64 -212
59 -73 -5 -86 -10 -311 -120 -361 -176 -556 -292 -735 -438 -137 -112 -134
-129 12 -74 184 70 320 55 368 -41 17 -35 20 -58 18 -175 -2 -219 -63 -537
-233 -1220 -173 -692 -525 -2024 -660 -2495 -176 -615 -216 -827 -179 -958 11
-39 39 -52 39 -17 0 29 72 103 144 149 116 73 290 153 516 238 403 152 413
160 449 359 13 72 143 556 242 904 242 845 441 1412 643 1825 277 569 480 821
782 977 172 89 355 141 699 197 99 16 253 41 342 56 198 32 324 65 405 105
136 68 203 141 294 322 70 140 191 345 355 604 140 222 168 274 169 315 0 26
-16 49 -36 49 -6 0 -26 -11 -45 -23z"/>
<path d="M33867 9542 c-209 -203 -240 -214 -792 -282 -411 -50 -468 -61 -608
-111 -286 -105 -657 -323 -780 -459 -43 -48 -188 -298 -404 -700 -387 -718
-546 -1078 -818 -1850 -53 -151 -103 -285 -111 -297 -21 -33 -34 -28 -34 12 0
47 121 523 323 1270 357 1319 405 1521 394 1675 -10 143 -64 238 -165 287 -49
24 -69 28 -142 28 l-85 -1 -267 -131 c-284 -139 -451 -233 -587 -331 -127 -91
-221 -174 -221 -195 0 -12 5 -17 13 -14 203 90 314 107 402 61 101 -53 110
-206 33 -624 -44 -242 -97 -474 -218 -955 -188 -747 -518 -1988 -645 -2430
-159 -551 -199 -772 -165 -897 15 -53 26 -54 48 -4 45 100 266 225 753 425 97
40 193 86 213 103 45 37 72 88 81 153 4 28 18 78 31 112 12 34 50 164 84 289
317 1175 581 1938 849 2459 227 440 400 666 625 816 237 159 412 211 1041 309
317 49 434 78 545 132 126 61 185 126 283 311 105 199 192 347 349 594 145
229 181 299 176 340 -2 23 -8 29 -35 31 -30 3 -45 -9 -166 -126z"/>
<path d="M11715 9203 c-266 -56 -638 -288 -1102 -686 -82 -70 -203 -166 -269
-214 -300 -217 -614 -527 -848 -838 -263 -349 -435 -696 -510 -1030 -166 -732
-157 -1616 21 -2205 94 -311 258 -597 444 -774 136 -130 262 -186 417 -186
139 0 272 46 409 142 97 68 535 450 673 587 99 98 145 135 220 179 193 112
416 271 530 378 194 183 298 396 551 1131 148 428 278 1124 330 1763 17 205
17 712 0 860 -51 456 -190 728 -433 851 -115 58 -282 75 -433 42z m-529 -694
c166 -30 276 -161 372 -439 48 -139 98 -345 112 -460 30 -250 0 -672 -86
-1180 -56 -331 -178 -929 -240 -1175 -114 -455 -283 -789 -522 -1037 l-105
-108 -57 0 c-144 0 -401 106 -556 230 -65 52 -149 155 -199 244 -159 286 -223
709 -197 1315 7 157 19 333 26 391 75 561 393 1460 626 1769 72 96 235 284
286 333 34 31 166 79 279 102 71 14 103 18 181 24 11 1 47 -3 80 -9z"/>
<path d="M18246 9066 c-158 -70 -638 -347 -1027 -592 -85 -53 -197 -119 -248
-146 -153 -80 -268 -164 -391 -288 -138 -137 -198 -224 -313 -455 -279 -560
-444 -1118 -524 -1775 -25 -205 -25 -825 0 -1018 53 -415 153 -670 337 -865
231 -246 551 -323 815 -197 90 43 168 101 353 262 92 81 291 248 442 372 l275
224 6 -136 c15 -309 83 -497 235 -643 111 -107 209 -150 339 -151 103 0 186
26 298 94 272 166 711 587 971 932 149 198 276 401 402 642 l69 131 1 -421 c1
-322 5 -457 18 -576 24 -221 61 -474 101 -685 49 -258 57 -322 45 -346 -8 -15
-7 -21 4 -25 9 -4 63 37 148 111 224 197 562 440 868 625 58 35 113 70 123 78
25 22 6 34 -32 21 -50 -17 -176 -6 -209 18 -74 54 -119 156 -147 324 -36 228
-44 883 -15 1349 48 770 187 1650 352 2215 27 94 60 188 73 210 42 73 115 130
256 200 140 70 189 106 189 138 0 17 -5 18 -47 13 -207 -25 -365 -13 -533 39
-47 15 -220 80 -385 145 -165 65 -325 126 -355 136 -181 60 -407 -37 -855
-366 -77 -56 -252 -177 -390 -268 -334 -220 -409 -278 -545 -418 -246 -254
-437 -561 -588 -947 -233 -594 -345 -1182 -382 -2017 l-10 -225 -76 -70 c-162
-148 -356 -267 -494 -301 -44 -11 -93 -15 -156 -12 -126 5 -212 47 -310 150
-137 144 -205 333 -274 762 -53 326 -73 747 -51 1046 17 230 11 212 94 249
166 73 516 280 776 459 536 368 900 705 1074 994 199 330 208 695 22 919 -61
73 -122 110 -191 115 -51 4 -69 1 -138 -30z m-676 -631 c98 -51 156 -242 131
-437 -52 -405 -418 -877 -890 -1147 -60 -34 -118 -65 -129 -68 -18 -4 -15 13
38 224 82 322 154 521 273 758 128 256 370 611 454 666 34 23 84 24 123 4z
m2600 -67 c58 -20 186 -71 284 -113 169 -72 306 -115 369 -115 16 0 27 -5 27
-13 0 -21 -42 -140 -94 -266 -85 -204 -123 -320 -387 -1171 -308 -991 -487
-1507 -620 -1789 -162 -342 -359 -531 -604 -582 -80 -16 -127 -6 -176 38 -114
103 -163 310 -163 693 0 289 39 723 110 1205 101 687 200 1030 434 1510 175
359 340 599 435 634 18 6 81 9 155 8 113 -3 135 -7 230 -39z"/>
</g>
</svg>
