<?xml version="1.0" standalone="no"?>
<!DOCTYPE svg PUBLIC "-//W3C//DTD SVG 20010904//EN"
 "http://www.w3.org/TR/2001/REC-SVG-20010904/DTD/svg10.dtd">
<svg version="1.0" xmlns="http://www.w3.org/2000/svg"
 width="2688.000000pt" height="527.000000pt" viewBox="0 0 2688.000000 527.000000"
 preserveAspectRatio="xMidYMid meet">

<g transform="translate(0.000000,527.000000) scale(0.100000,-0.100000)"
fill="#FFFFFF" stroke="none">
<path d="M0 2965 l0 -2305 583 2 582 3 3 383 2 382 -195 0 -195 0 0 1920 0
1920 -390 0 -390 0 0 -2305z"/>
<path d="M1170 4885 l0 -385 195 0 195 0 -2 -572 -3 -573 -192 -3 -193 -2 0
-385 0 -385 195 0 195 0 2 -1282 3 -1282 383 710 382 710 0 574 0 575 -192
193 -193 193 193 187 193 187 0 580 0 580 -193 382 -193 383 -387 0 -388 0 0
-385z"/>
<path d="M13050 2965 l0 -2305 385 0 385 0 2 1153 3 1152 193 3 192 2 0 380 0
380 -192 2 -193 3 -3 768 -2 767 -385 0 -385 0 0 -2305z"/>
<path d="M14600 2965 l0 -2305 390 0 390 0 0 2305 0 2305 -390 0 -390 0 0
-2305z"/>
<path d="M3181 4121 l-191 -380 0 -1540 0 -1541 385 0 385 0 0 770 0 770 195
0 195 0 0 385 0 385 -195 0 -195 0 0 765 0 765 -194 0 -195 0 -190 -379z"/>
<path d="M4152 4118 l3 -383 193 -3 192 -2 0 -1535 0 -1535 390 0 390 0 0
1920 0 1920 -585 0 -585 0 2 -382z"/>
<path d="M5980 2580 l0 -1920 385 0 385 0 2 1153 3 1152 190 -375 190 -375 3
379 2 378 -387 764 -387 764 -193 0 -193 0 0 -1920z"/>
<path d="M7530 2970 l0 -1531 195 -389 196 -390 194 0 195 0 0 1920 0 1920
-390 0 -390 0 0 -1530z"/>
<path d="M8960 2966 l0 -1534 196 -386 196 -386 386 2 387 3 3 383 2 382 -195
0 -195 0 0 1535 0 1535 -390 0 -390 0 0 -1534z"/>
<path d="M10520 2580 l0 -1920 193 2 192 3 192 380 192 380 0 1538 1 1537
-385 0 -385 0 0 -1920z"/>
<path d="M16226 4116 l-196 -384 2 -1534 3 -1533 388 -3 387 -2 0 770 0 770
195 0 195 0 0 385 0 385 -195 0 -195 0 0 765 0 765 -194 0 -194 0 -196 -384z"/>
<path d="M17200 4115 l0 -385 195 0 195 0 2 -1858 3 -1859 388 719 387 718 0
1525 0 1525 -585 0 -585 0 0 -385z"/>
<path d="M19221 4121 l-191 -380 1 -1163 1 -1163 191 -375 192 -375 388 -3
387 -2 0 385 0 385 -195 0 -195 0 0 1535 0 1535 -194 0 -195 0 -190 -379z"/>
<path d="M20192 4118 l3 -383 193 -3 192 -2 0 -1535 0 -1535 200 0 200 0 193
-96 c105 -53 279 -139 385 -190 l192 -93 0 480 0 480 -195 94 -195 94 0 1153
0 1153 -194 380 -194 380 -391 3 -391 2 2 -382z"/>
<path d="M22340 4115 l0 -385 390 0 390 0 0 385 0 385 -390 0 -390 0 0 -385z"/>
<path d="M23770 2580 l0 -1920 388 2 387 3 3 1533 2 1532 -196 385 -196 385
-194 0 -194 0 0 -1920z"/>
<path d="M26296 4116 l-196 -384 2 -1533 3 -1534 388 -3 387 -2 0 1920 0 1920
-194 0 -195 0 -195 -384z"/>
<path d="M22340 1678 c0 -920 4 -1668 8 -1663 5 6 180 342 390 748 l382 738 0
924 0 925 -390 0 -390 0 0 -1672z"/>
<path d="M24940 2381 l0 -574 192 -379 191 -379 89 173 c49 95 136 266 194
381 l104 207 -2 569 -3 569 -190 -373 -191 -373 -192 376 -192 377 0 -574z"/>
</g>
</svg>
