<?xml version="1.0" standalone="no"?>
<!DOCTYPE svg PUBLIC "-//W3C//DTD SVG 20010904//EN"
 "http://www.w3.org/TR/2001/REC-SVG-20010904/DTD/svg10.dtd">
<svg version="1.0" xmlns="http://www.w3.org/2000/svg"
 width="2906.000000pt" height="632.000000pt" viewBox="0 0 2906.000000 632.000000"
 preserveAspectRatio="xMidYMid meet">

<g transform="translate(0.000000,632.000000) scale(0.100000,-0.100000)"
fill="#FFFFFF" stroke="none">
<path d="M7457 5922 c-10 -10 -17 -21 -17 -25 0 -4 -11 -31 -25 -62 -14 -31
-37 -99 -50 -153 -13 -53 -36 -126 -50 -162 -14 -36 -32 -93 -40 -128 -8 -34
-27 -86 -41 -115 -15 -28 -35 -85 -46 -126 -10 -40 -27 -88 -38 -106 -11 -17
-31 -73 -44 -123 -14 -51 -34 -108 -46 -128 -12 -19 -31 -69 -41 -111 -11 -42
-31 -97 -44 -122 -14 -24 -33 -76 -42 -115 -8 -39 -28 -97 -44 -128 -16 -32
-34 -81 -40 -110 -6 -29 -24 -78 -40 -109 -15 -31 -37 -93 -48 -138 -11 -45
-30 -95 -41 -111 -12 -16 -30 -66 -41 -112 -12 -46 -32 -102 -45 -125 -13 -23
-32 -75 -41 -115 -8 -40 -30 -102 -48 -138 -19 -36 -36 -85 -40 -110 -4 -25
-24 -83 -45 -130 -21 -47 -41 -105 -45 -130 -4 -25 -20 -70 -36 -101 -15 -31
-35 -86 -43 -123 -9 -37 -29 -95 -46 -129 -16 -34 -34 -87 -40 -117 -5 -30
-23 -82 -40 -115 -16 -33 -37 -94 -45 -135 -9 -41 -28 -97 -44 -125 -16 -28
-34 -77 -41 -110 -8 -33 -28 -89 -45 -125 -18 -36 -38 -92 -45 -125 -8 -33
-27 -87 -43 -120 -16 -33 -36 -89 -43 -125 -8 -36 -25 -86 -39 -112 -14 -25
-35 -84 -46 -130 -11 -45 -29 -97 -39 -113 -10 -17 -30 -71 -43 -122 -14 -51
-34 -107 -46 -126 -11 -18 -28 -62 -37 -97 -24 -94 -90 -177 -179 -228 -85
-48 -99 -51 -300 -61 -182 -10 -225 -22 -250 -71 -32 -61 2 -100 88 -100 23 0
104 5 179 12 109 9 192 9 395 -1 142 -7 413 -15 603 -18 301 -5 350 -4 383 10
42 18 52 35 43 73 -10 38 -52 72 -99 79 -23 3 -139 9 -258 13 -205 7 -217 8
-250 31 -49 33 -79 83 -79 130 0 22 11 75 24 118 14 43 34 116 45 162 12 46
30 98 40 115 11 17 27 67 36 111 8 44 29 109 46 143 17 35 37 96 45 135 9 40
28 94 44 122 15 27 34 77 41 110 7 33 27 89 45 125 17 36 37 90 44 120 14 65
53 126 92 146 23 12 146 14 804 14 704 0 779 -1 803 -16 55 -35 74 -70 97
-179 8 -38 27 -97 43 -130 16 -33 34 -85 40 -115 15 -69 37 -134 55 -163 8
-12 22 -58 31 -101 9 -44 29 -109 45 -145 15 -36 35 -103 43 -148 9 -46 27
-102 41 -126 15 -24 34 -85 45 -139 10 -52 26 -109 35 -126 29 -57 19 -80 -53
-117 -106 -54 -243 -75 -486 -75 -240 -1 -286 -11 -318 -72 -21 -42 -16 -72
15 -89 30 -16 2426 -16 2456 0 28 15 28 50 1 85 -39 50 -66 56 -282 67 -111 6
-220 15 -241 21 -25 6 -60 29 -97 65 -46 44 -64 70 -85 127 -16 39 -36 83 -46
98 -11 15 -25 57 -33 92 -7 36 -27 93 -44 128 -18 34 -38 89 -46 123 -7 33
-27 87 -44 121 -16 33 -37 91 -45 128 -9 38 -25 80 -35 95 -20 28 -51 115 -51
141 0 9 -15 47 -34 86 -18 38 -39 94 -46 124 -7 30 -25 80 -41 111 -16 32 -36
88 -45 125 -10 38 -30 92 -46 120 -15 27 -32 75 -38 105 -6 30 -26 86 -46 126
-19 39 -38 89 -41 110 -3 21 -21 71 -40 112 -18 41 -40 101 -49 135 -8 34 -28
86 -43 116 -16 30 -34 80 -41 110 -7 30 -25 81 -41 112 -16 32 -35 85 -43 118
-8 34 -28 89 -44 123 -17 34 -38 91 -47 127 -9 36 -27 85 -41 109 -13 24 -31
71 -39 105 -8 34 -31 95 -49 136 -19 41 -39 100 -46 130 -7 30 -23 71 -36 90
-13 19 -32 70 -43 113 -11 43 -31 100 -45 128 -15 27 -33 78 -41 113 -8 35
-27 84 -41 110 -14 26 -35 82 -46 124 -11 42 -28 87 -37 102 -20 27 -32 62
-56 154 -9 33 -25 75 -37 94 -11 19 -29 64 -39 102 -9 37 -29 90 -42 117 -14
27 -33 78 -42 114 -9 35 -29 91 -46 124 -16 34 -36 91 -44 127 -7 36 -25 88
-39 114 -14 26 -31 73 -37 103 -19 86 -55 114 -92 73z m-188 -1451 c6 -10 13
-38 17 -62 4 -24 19 -71 34 -104 15 -33 34 -87 41 -120 7 -33 27 -91 45 -130
17 -38 37 -95 44 -125 7 -30 26 -81 41 -112 16 -32 36 -90 44 -129 8 -39 26
-90 40 -113 14 -23 32 -76 41 -117 9 -41 27 -93 41 -116 13 -24 33 -78 44
-120 10 -43 33 -106 49 -140 17 -34 35 -85 41 -115 6 -29 26 -84 45 -123 18
-38 40 -97 47 -130 8 -33 24 -80 36 -104 36 -69 76 -221 64 -240 -25 -40 -32
-41 -746 -41 -596 0 -692 2 -717 15 -34 17 -47 53 -31 83 6 11 16 44 22 74 6
29 25 80 41 113 16 33 36 90 44 128 7 37 27 95 43 128 17 32 35 87 42 122 7
34 27 92 45 129 18 37 36 89 39 115 4 27 24 86 45 134 20 47 40 107 45 134 4
27 20 76 37 108 16 33 38 92 48 133 11 41 30 93 43 117 14 23 30 67 37 97 7
30 27 85 45 121 18 37 39 93 46 125 7 33 24 84 39 114 15 30 30 69 34 85 14
63 28 85 52 85 13 0 28 -8 33 -19z"/>
<path d="M2305 5920 c-27 -4 -77 -15 -110 -24 -33 -8 -114 -22 -180 -31 -130
-16 -150 -21 -240 -59 -33 -14 -69 -26 -80 -26 -11 0 -45 -15 -76 -34 -31 -19
-82 -41 -113 -50 -31 -9 -77 -30 -103 -46 -26 -17 -52 -30 -59 -30 -6 0 -39
-21 -72 -47 -68 -53 -125 -95 -182 -133 -110 -73 -252 -208 -377 -355 -23 -28
-60 -71 -82 -97 -22 -26 -43 -57 -46 -69 -4 -12 -27 -51 -51 -86 -24 -35 -44
-70 -44 -78 0 -7 -11 -26 -24 -42 -13 -15 -36 -53 -51 -83 -15 -30 -37 -66
-50 -80 -12 -14 -30 -56 -40 -94 -10 -38 -28 -87 -41 -110 -13 -23 -30 -73
-39 -111 -9 -39 -30 -101 -47 -139 -20 -45 -34 -97 -40 -150 -8 -69 -35 -215
-70 -386 -5 -25 -12 -188 -15 -363 -6 -347 1 -442 43 -607 14 -52 31 -150 39
-218 12 -97 21 -134 45 -181 16 -33 34 -81 40 -108 6 -26 26 -80 45 -119 19
-39 39 -92 44 -118 5 -26 23 -67 40 -91 17 -23 36 -56 41 -71 11 -28 28 -55
127 -204 24 -36 43 -70 43 -76 0 -23 145 -194 315 -373 82 -85 254 -231 274
-231 6 0 28 -15 48 -34 21 -18 54 -41 73 -51 19 -10 51 -32 71 -49 50 -42 176
-112 219 -121 19 -4 60 -20 90 -36 30 -16 84 -38 120 -50 36 -11 84 -32 108
-45 31 -19 71 -29 157 -39 129 -16 138 -18 255 -53 78 -23 105 -25 338 -30
268 -5 396 5 512 38 36 10 103 26 150 35 50 9 114 30 156 50 39 19 92 39 118
44 26 5 66 22 89 39 23 16 60 37 81 46 22 9 54 27 70 39 17 13 52 35 78 50 26
15 53 33 60 40 7 7 33 28 57 45 45 33 78 39 111 22 31 -16 130 -158 144 -204
18 -59 99 -183 126 -191 25 -8 62 14 87 52 15 23 17 47 15 167 -2 78 -12 209
-24 291 -18 133 -20 180 -14 415 5 249 18 455 47 738 6 66 9 136 5 155 -9 47
-50 87 -91 87 -40 0 -61 -23 -74 -80 -6 -25 -21 -79 -34 -120 -14 -41 -30
-115 -37 -165 -8 -60 -23 -115 -45 -165 -19 -41 -41 -108 -49 -149 -8 -40 -26
-92 -39 -115 -13 -22 -32 -68 -42 -101 -11 -33 -29 -73 -41 -90 -12 -16 -34
-57 -49 -90 -14 -33 -34 -69 -44 -80 -10 -11 -26 -33 -34 -50 -23 -44 -287
-308 -328 -327 -19 -10 -52 -31 -73 -48 -22 -16 -44 -30 -51 -30 -6 0 -41 -18
-77 -39 -46 -28 -86 -43 -134 -52 -38 -6 -96 -22 -129 -34 -120 -47 -140 -49
-385 -48 -190 0 -246 4 -290 17 -104 32 -125 37 -206 55 -45 10 -97 28 -115
39 -19 12 -50 29 -69 38 -143 66 -174 85 -251 151 -27 24 -53 43 -58 43 -16 0
-219 209 -242 249 -12 23 -26 41 -30 41 -5 0 -20 21 -35 48 -15 26 -42 64 -60
84 -18 20 -38 56 -44 80 -7 24 -20 52 -30 63 -21 22 -59 102 -60 123 0 8 -16
39 -35 71 -19 31 -42 82 -50 114 -8 31 -26 83 -39 115 -14 33 -31 99 -39 148
-8 49 -27 118 -41 154 -32 77 -42 137 -56 335 -6 83 -19 188 -28 235 -14 70
-17 150 -17 445 0 327 2 371 22 485 12 69 25 172 28 230 9 165 26 271 52 329
13 30 30 93 38 140 8 46 26 108 40 137 14 29 30 77 36 106 19 95 29 125 52
159 12 19 31 54 41 79 11 25 32 61 47 81 15 20 32 54 38 75 6 22 26 62 45 89
20 27 38 60 41 74 3 15 18 40 33 58 15 17 63 73 107 125 128 149 307 302 381
324 23 7 72 28 108 47 37 20 88 38 118 42 29 4 98 19 153 33 92 25 116 27 295
27 175 0 202 -2 262 -22 36 -13 113 -30 170 -38 83 -13 114 -22 158 -49 30
-18 66 -37 80 -41 96 -29 355 -244 446 -371 24 -34 51 -67 58 -74 8 -6 22 -33
31 -60 9 -27 23 -54 31 -61 25 -20 45 -68 65 -150 10 -42 27 -94 38 -115 11
-22 27 -75 36 -119 9 -44 22 -93 30 -110 25 -54 45 -140 56 -246 16 -154 62
-239 127 -239 80 0 92 54 92 397 0 134 6 316 14 405 8 90 17 240 21 333 10
306 19 378 62 492 8 22 12 51 8 62 -18 58 -95 81 -135 41 -11 -11 -20 -24 -20
-28 0 -5 -18 -33 -40 -62 -22 -30 -45 -71 -50 -91 -11 -40 -52 -81 -107 -107
-31 -15 -38 -15 -91 2 -94 30 -111 38 -150 66 -21 15 -54 32 -74 39 -20 7 -57
28 -83 47 -25 20 -62 38 -82 41 -19 3 -58 21 -85 40 -28 18 -62 36 -77 39 -38
8 -102 35 -132 56 -27 18 -137 39 -404 78 -145 21 -479 27 -590 10z"/>
<path d="M24252 5880 c-92 -22 -1058 -33 -2360 -27 -1488 6 -1389 10 -1418
-58 -17 -41 -6 -78 28 -96 14 -8 87 -15 188 -19 191 -8 253 -23 306 -76 73
-73 66 149 72 -2437 5 -2449 5 -2422 -39 -2522 -22 -51 -71 -95 -103 -95 -61
0 -287 -21 -331 -31 -88 -20 -135 -53 -135 -94 0 -14 9 -29 20 -35 15 -8 313
-11 993 -12 1062 -2 1028 -3 1035 54 5 39 -14 67 -55 84 -27 12 -70 15 -177
12 -91 -1 -168 3 -216 12 -69 13 -79 18 -124 64 -88 90 -81 -29 -77 1306 3
950 6 1191 16 1217 22 52 53 55 434 50 264 -3 349 -8 397 -20 34 -9 114 -23
178 -30 109 -14 120 -17 181 -58 87 -57 151 -141 176 -229 10 -38 27 -83 38
-102 23 -39 36 -108 52 -276 14 -154 51 -326 76 -361 25 -33 68 -38 111 -11
49 30 54 56 37 173 -38 260 -45 403 -45 891 0 481 19 977 41 1083 20 99 -26
183 -100 183 -51 0 -80 -100 -121 -425 -15 -118 -27 -173 -45 -210 -13 -27
-34 -77 -46 -110 -12 -33 -37 -78 -55 -100 -19 -22 -44 -53 -56 -68 -19 -23
-51 -37 -168 -72 -135 -42 -157 -46 -320 -56 -246 -15 -711 -26 -737 -17 -12
4 -27 16 -32 27 -8 14 -11 354 -11 1107 -1 1082 -1 1087 20 1109 19 20 37 23
238 36 287 19 1028 19 1167 1 283 -38 310 -43 385 -77 41 -18 90 -36 107 -40
38 -8 181 -119 214 -167 13 -18 40 -53 60 -78 20 -25 47 -65 59 -90 12 -25 28
-52 35 -60 7 -8 22 -44 33 -80 11 -36 32 -92 47 -125 15 -34 35 -110 46 -175
25 -148 65 -278 96 -312 39 -44 105 -5 128 75 16 55 16 52 -31 297 -7 41 -18
156 -24 255 -13 239 -28 409 -46 525 -7 52 -14 120 -14 151 0 74 -16 116 -51
134 -31 16 -30 16 -77 5z"/>
<path d="M28280 5863 c-323 -11 -732 -13 -1843 -9 l-1427 6 -31 -28 c-39 -35
-44 -91 -11 -125 20 -20 35 -22 190 -28 92 -4 187 -12 210 -19 59 -15 132 -63
157 -102 l20 -33 0 -2415 c0 -2337 -1 -2416 -19 -2450 -26 -50 -65 -88 -100
-99 -17 -6 -101 -15 -186 -22 -168 -12 -240 -32 -280 -74 -27 -29 -21 -70 13
-81 12 -4 464 -7 1004 -7 935 0 984 1 1003 18 27 24 25 68 -4 102 l-24 28
-204 7 c-193 7 -269 15 -297 32 -7 5 -28 31 -47 60 -19 28 -42 62 -51 75 -17
23 -18 97 -18 1205 0 895 3 1189 12 1214 7 19 23 37 40 44 19 8 137 12 378 12
299 1 359 -1 410 -16 33 -9 114 -22 180 -29 66 -6 133 -18 148 -26 15 -8 61
-46 102 -84 54 -51 78 -83 91 -117 9 -26 31 -78 50 -117 26 -55 35 -92 44
-175 6 -58 20 -141 30 -185 10 -44 23 -118 29 -165 18 -137 21 -149 43 -170
32 -30 92 -27 125 6 l26 26 -7 157 c-4 86 -11 206 -16 266 -26 317 -22 910 11
1579 10 220 10 230 -9 255 -15 21 -29 27 -67 29 -81 5 -89 -9 -105 -193 -5
-60 -18 -144 -29 -185 -11 -41 -27 -120 -36 -175 -12 -80 -23 -111 -50 -157
-19 -31 -35 -64 -35 -73 0 -28 -128 -153 -164 -160 -17 -4 -78 -22 -136 -41
-95 -30 -123 -35 -295 -44 -104 -6 -311 -14 -460 -17 -270 -5 -270 -5 -290 17
-20 22 -20 38 -22 1109 -3 1059 -2 1087 17 1111 18 23 27 25 137 32 305 17
759 28 963 23 295 -8 601 -45 680 -81 30 -14 85 -36 122 -49 38 -13 86 -39
109 -59 24 -20 46 -36 50 -36 11 0 128 -147 138 -173 5 -13 20 -36 34 -53 30
-36 57 -88 57 -110 0 -10 15 -45 34 -79 22 -40 42 -98 55 -161 45 -212 97
-394 117 -409 24 -18 84 -19 108 -2 42 30 38 203 -9 446 -14 71 -29 200 -34
296 -6 94 -15 258 -22 365 -14 247 -21 289 -49 312 -26 21 20 21 -560 1z"/>
<path d="M10306 5837 c-34 -34 -35 -85 -3 -115 20 -19 38 -22 152 -27 212 -9
271 -21 331 -67 58 -43 70 -66 79 -153 3 -33 6 -1090 5 -2350 0 -1889 -3
-2304 -14 -2367 -15 -88 -59 -167 -102 -187 -23 -10 -136 -21 -361 -34 -49 -2
-68 -8 -88 -27 -32 -30 -34 -88 -5 -115 19 -17 35 -18 258 -9 309 11 1325 12
1514 0 130 -8 150 -7 172 8 20 12 26 25 26 52 0 49 -36 84 -88 84 -74 0 -367
31 -394 41 -15 6 -47 32 -71 58 -43 46 -44 48 -51 138 -10 140 -7 4668 4 4742
7 52 15 70 42 98 68 71 81 75 281 83 234 11 261 21 255 96 -2 26 -10 42 -28
54 -23 16 -43 17 -250 8 -226 -9 -1503 -3 -1592 8 -41 6 -50 3 -72 -19z"/>
<path d="M16385 5849 c-236 -4 -582 -13 -767 -20 -340 -12 -776 -9 -1523 11
-187 5 -514 9 -727 10 -426 0 -412 2 -422 -63 -3 -18 -8 -79 -11 -137 -3 -58
-13 -168 -21 -245 -47 -443 -71 -817 -59 -910 10 -80 54 -117 120 -101 38 10
53 42 75 161 12 61 30 154 41 207 11 54 24 122 29 152 5 30 22 83 39 120 17
36 31 70 31 76 0 16 48 108 61 115 6 4 19 27 29 50 10 24 31 58 47 75 41 47
178 159 210 171 16 6 61 27 101 46 69 32 80 35 230 43 146 8 386 23 577 35 86
5 113 -4 135 -45 12 -22 15 -4780 4 -4866 -12 -86 -45 -132 -123 -165 -35 -16
-82 -22 -228 -28 -178 -9 -186 -10 -230 -37 -56 -35 -72 -73 -41 -101 19 -17
59 -18 797 -15 427 2 873 -1 991 -7 193 -8 219 -8 250 7 31 15 35 22 38 58 3
36 -1 45 -28 68 -30 24 -38 26 -138 27 -59 0 -153 4 -209 8 -89 6 -107 11
-144 37 -57 39 -84 84 -108 179 -21 79 -21 87 -21 2446 0 1773 3 2374 11 2393
21 45 61 55 275 67 219 12 319 7 439 -21 75 -18 107 -24 247 -50 31 -6 62 -18
70 -27 7 -9 45 -31 84 -50 114 -55 240 -188 288 -305 11 -29 31 -69 43 -88 20
-32 37 -88 93 -301 10 -37 20 -111 24 -165 13 -195 13 -196 67 -263 39 -48 56
-61 78 -61 52 0 106 76 98 139 -3 20 -14 95 -25 166 -11 72 -28 247 -36 390
-15 236 -31 442 -55 690 -8 79 -12 92 -36 112 -24 21 -35 23 -133 21 -59 -1
-300 -5 -537 -9z"/>
<path d="M17853 5851 c-43 -11 -60 -26 -68 -61 -9 -39 8 -66 47 -79 18 -6 105
-15 193 -20 214 -12 286 -39 324 -121 15 -32 16 -246 19 -2357 2 -1938 0
-2342 -11 -2443 -22 -192 -44 -209 -286 -222 -213 -12 -232 -15 -265 -41 -22
-18 -29 -32 -30 -62 -2 -65 10 -68 284 -58 314 10 1346 10 1537 -1 141 -8 155
-8 173 9 25 23 26 75 2 105 -12 15 -32 23 -62 26 -413 37 -443 43 -486 100
-23 29 -28 48 -35 142 -12 153 -11 4617 1 4720 19 165 58 191 315 203 227 11
265 23 265 83 0 45 -20 67 -66 75 -21 4 -136 3 -254 -2 -200 -8 -1452 -2
-1530 8 -19 2 -50 0 -67 -4z"/>
</g>
</svg>
