<?xml version="1.0" standalone="no"?>
<!DOCTYPE svg PUBLIC "-//W3C//DTD SVG 20010904//EN"
 "http://www.w3.org/TR/2001/REC-SVG-20010904/DTD/svg10.dtd">
<svg version="1.0" xmlns="http://www.w3.org/2000/svg"
 width="4800.000000pt" height="1334.000000pt" viewBox="0 0 4800.000000 1334.000000"
 preserveAspectRatio="xMidYMid meet">

<g transform="translate(0.000000,1334.000000) scale(0.100000,-0.100000)"
fill="#FFFFFF" stroke="none">
<path d="M17826 12842 c0 -101 6 -166 17 -207 20 -75 38 -185 47 -295 3 -47
11 -96 17 -110 6 -14 13 -52 17 -85 6 -53 815 -4288 852 -4458 32 -150 35
-381 9 -627 -10 -89 -53 -269 -91 -381 -19 -57 -43 -144 -54 -192 -32 -147
-76 -223 -200 -352 -87 -90 -116 -127 -150 -196 -52 -103 -183 -292 -263 -378
-76 -82 -124 -157 -132 -207 -4 -21 -11 -52 -18 -68 -9 -24 -8 -31 8 -42 26
-19 62 -17 99 5 17 10 54 26 82 35 28 9 93 42 145 72 165 98 380 200 524 248
76 26 151 54 166 61 14 8 78 24 140 36 130 24 186 17 214 -25 9 -14 22 -77 31
-152 22 -195 32 -243 91 -449 88 -311 131 -570 153 -925 5 -91 16 -194 23
-229 11 -47 12 -87 5 -160 -5 -53 -7 -112 -5 -132 4 -34 92 -178 117 -194 19
-12 56 3 100 40 23 19 44 35 46 35 14 0 28 -65 50 -232 24 -184 54 -331 89
-427 8 -24 14 -45 13 -47 -2 -1 -102 -12 -223 -24 -801 -77 -1234 -151 -1660
-280 -500 -153 -710 -200 -892 -200 -117 0 -139 8 -152 57 -14 52 -24 292 -14
326 l8 28 65 -55 c94 -79 176 -126 223 -126 57 0 101 47 117 125 44 213 -47
465 -284 785 l-70 95 22 240 c126 1359 184 2028 242 2785 150 1976 190 3385
114 4010 -29 242 -85 440 -125 440 -23 0 -29 -87 -24 -340 l5 -265 -29 60
c-16 33 -50 134 -76 225 -26 91 -60 208 -76 260 -34 112 -116 274 -141 278
-20 4 -25 -14 -74 -246 -102 -488 -163 -1049 -189 -1752 -112 -2990 -124
-3397 -128 -4412 -1 -339 -5 -614 -9 -610 -26 29 -196 332 -273 487 -147 299
-238 545 -300 813 -46 200 -56 296 -65 622 -5 183 -15 361 -25 425 -36 256
-116 422 -419 875 -224 335 -410 574 -590 758 -115 117 -177 162 -227 162
-107 1 -234 124 -295 287 -81 215 -188 335 -274 308 -32 -10 -44 -44 -50 -140
-5 -87 -6 -90 -30 -93 -16 -2 -43 9 -70 28 -125 87 -150 102 -205 121 -39 14
-94 23 -156 27 -264 13 -581 -122 -1014 -432 -457 -327 -725 -444 -959 -418
-200 22 -367 -49 -555 -236 -259 -258 -500 -692 -776 -1402 -87 -223 -206
-571 -241 -704 -14 -53 -20 -65 -26 -50 -18 44 -451 1598 -572 2054 -230 868
-266 1069 -245 1360 12 163 44 299 113 490 110 299 156 490 156 640 0 73 -3
92 -21 114 -51 65 -128 18 -240 -147 -35 -51 -70 -98 -79 -105 -41 -34 -207
-106 -214 -94 -2 4 -20 70 -40 147 -80 302 -98 345 -151 345 -30 0 -50 -29
-64 -90 -21 -96 -43 -354 -50 -578 l-6 -233 -93 296 c-145 464 -162 500 -224
488 -147 -28 -206 -169 -195 -467 8 -215 37 -358 122 -612 56 -167 75 -275 75
-433 0 -231 -42 -423 -164 -751 -177 -472 -586 -1420 -1013 -2344 -333 -721
-563 -1253 -670 -1546 -25 -69 -64 -199 -88 -290 -24 -91 -53 -187 -64 -214
-24 -54 -58 -106 -70 -106 -56 0 -521 1478 -835 2650 -239 897 -362 1509 -406
2025 -20 239 -11 388 41 650 33 171 45 217 239 905 213 758 242 881 256 1085
8 104 -12 197 -46 215 -43 23 -99 12 -168 -33 -91 -59 -204 -152 -278 -229
-83 -85 -320 -416 -453 -630 -93 -152 -171 -219 -257 -221 -63 -2 -76 15 -192
232 -204 383 -328 585 -412 673 -39 40 -52 48 -82 48 -28 0 -42 -7 -57 -26
-52 -66 -8 -219 173 -600 170 -361 256 -625 256 -788 0 -46 -25 -142 -39 -150
-24 -15 -150 289 -230 555 -59 194 -108 314 -166 404 -38 60 -70 81 -108 71
-103 -25 -51 -380 139 -960 100 -303 124 -408 131 -571 14 -344 -157 -1097
-446 -1965 -302 -903 -646 -1732 -1253 -3014 -792 -1672 -1149 -2556 -1208
-2988 -15 -105 -6 -161 32 -198 16 -17 36 -30 43 -30 31 0 89 69 164 194 141
236 226 403 474 941 511 1106 1181 2504 1195 2490 3 -2 -140 -435 -316 -962
-176 -527 -330 -992 -341 -1033 -67 -250 -68 -430 -3 -504 68 -76 155 -98 205
-52 71 66 214 432 497 1271 310 922 553 1707 715 2315 205 768 480 1571 720
2100 84 185 180 350 204 350 34 0 168 -425 272 -864 177 -745 483 -1802 924
-3191 68 -214 129 -424 136 -465 31 -196 -15 -578 -128 -1080 -77 -341 -83
-383 -90 -571 -8 -247 19 -370 109 -495 37 -52 139 -124 175 -124 83 0 183
126 328 411 63 125 204 435 266 587 18 43 37 83 44 91 22 23 80 -15 173 -117
200 -218 218 -235 249 -227 15 3 31 12 36 18 17 25 -3 177 -47 349 -61 238
-146 675 -146 747 0 351 379 1386 1245 3401 252 586 381 906 425 1050 122 402
191 583 265 694 46 69 51 66 98 -52 44 -111 79 -232 166 -567 120 -464 259
-941 731 -2515 430 -1432 577 -1944 720 -2500 113 -441 235 -821 310 -971 61
-120 146 -201 248 -234 100 -33 134 4 135 150 0 123 -77 506 -272 1345 -49
212 -88 386 -86 388 2 2 25 -8 52 -21 109 -55 327 -112 538 -138 150 -20 638
-17 860 5 711 68 1126 158 1440 310 259 126 696 461 1340 1026 120 106 239
202 262 213 l43 21 30 -29 c36 -35 112 -180 170 -325 52 -129 171 -463 195
-545 36 -126 149 -415 207 -528 144 -282 218 -297 259 -52 10 58 13 173 12
419 -1 290 0 337 12 325 8 -8 124 -146 258 -307 l243 -294 13 -156 c16 -205
56 -524 86 -687 13 -71 23 -130 22 -131 -1 0 -76 -18 -167 -38 -319 -73 -768
-210 -1215 -371 -1027 -370 -1587 -641 -1573 -761 2 -23 10 -32 38 -41 109
-37 437 5 920 119 329 77 573 148 945 273 373 125 516 165 677 189 132 20 188
20 263 1 148 -39 207 -158 184 -368 -16 -138 -9 -241 18 -268 43 -43 125 -4
167 79 32 63 42 101 71 272 35 208 49 248 88 265 18 7 106 22 197 35 495 66
731 116 1763 375 449 113 825 205 834 205 25 0 13 -325 -18 -456 -17 -75 -19
-100 -11 -120 22 -46 50 -31 158 81 56 58 107 105 115 105 43 -1 58 -43 70
-200 7 -95 14 -131 28 -150 21 -29 62 -38 79 -17 8 10 15 143 21 436 5 232 10
424 13 426 2 2 91 22 198 44 218 44 318 74 565 168 226 87 311 128 560 268
116 65 267 149 337 185 117 61 127 68 115 84 -13 17 -17 17 -89 3 -174 -36
-350 -52 -1113 -102 -214 -14 -429 -28 -477 -31 l-88 -7 0 59 c0 121 21 453
36 571 11 88 13 138 6 180 -5 32 -10 315 -11 629 -2 544 -1 573 17 605 10 19
28 35 39 37 13 2 78 -36 174 -101 85 -57 215 -139 289 -182 140 -80 177 -105
375 -249 176 -129 193 -136 328 -139 108 -2 116 -4 188 -39 87 -44 179 -120
232 -192 72 -98 99 -126 137 -146 46 -24 64 -19 79 21 6 16 16 43 22 59 7 17
20 35 29 40 24 13 120 -16 141 -42 18 -23 -46 15 684 -408 668 -387 613 -357
795 -442 110 -51 144 -63 186 -63 28 0 58 6 67 14 23 18 23 111 0 159 -27 56
-120 143 -213 199 -47 29 -123 84 -169 123 -46 39 -111 90 -145 112 -33 23
-88 63 -121 88 -33 26 -113 79 -178 118 -65 40 -160 104 -211 144 -51 40 -121
93 -156 118 -63 45 -140 123 -192 194 -40 55 -38 98 6 142 51 51 86 47 183
-21 43 -30 141 -97 218 -149 77 -51 232 -159 345 -239 113 -80 243 -166 290
-192 47 -25 143 -79 214 -120 174 -101 306 -151 450 -170 33 -5 56 -14 72 -32
l23 -25 53 29 c69 37 79 64 49 127 -16 31 -43 61 -84 93 -34 26 -90 71 -125
100 -34 29 -101 74 -148 100 -46 26 -96 62 -110 80 -14 19 -67 65 -118 103
-52 38 -101 82 -111 96 -46 70 -239 298 -337 397 -69 70 -135 149 -176 212
-77 117 -326 374 -460 474 -48 37 -126 112 -190 183 -121 137 -185 189 -429
353 -95 63 -221 158 -280 210 -137 121 -183 145 -279 145 -120 0 -144 -22
-118 -110 25 -83 93 -169 290 -365 209 -207 244 -250 244 -301 0 -38 -29 -74
-60 -74 -55 0 -191 66 -320 156 -41 28 -111 70 -155 92 -46 23 -112 68 -155
107 -41 36 -102 82 -134 101 -57 34 -187 149 -345 304 -101 100 -207 185 -261
209 l-43 19 34 17 c19 10 1030 535 2248 1168 2049 1064 2220 1151 2288 1163
50 8 115 32 201 72 70 33 147 69 173 79 25 11 62 35 82 53 l37 32 0 105 0 105
-32 -5 c-123 -20 -184 -33 -264 -59 -55 -18 -105 -28 -130 -26 -34 3 -39 6
-42 31 -2 16 4 49 12 74 19 56 21 103 4 103 -22 0 -254 -116 -315 -158 -32
-21 -86 -54 -121 -71 -34 -17 -93 -50 -130 -73 -37 -23 -125 -74 -197 -114
-71 -39 -163 -90 -202 -112 -40 -22 -108 -54 -150 -72 -43 -17 -103 -46 -134
-65 -34 -21 -85 -41 -128 -50 -40 -8 -84 -21 -99 -29 -46 -24 -162 -56 -202
-56 -46 0 -58 13 -66 72 -6 43 -4 47 27 74 72 61 148 143 168 182 23 46 29
122 9 122 -22 -1 -150 -58 -189 -85 -20 -15 -58 -53 -84 -86 -26 -33 -66 -72
-89 -87 -22 -15 -47 -34 -53 -43 -7 -9 -39 -31 -70 -49 -32 -18 -125 -85 -208
-150 -230 -179 -252 -194 -370 -253 -122 -61 -175 -77 -175 -50 0 45 56 119
220 288 96 99 191 193 212 208 30 23 75 85 116 160 5 10 -27 -10 -203 -123
-66 -43 -154 -94 -195 -115 -105 -52 -131 -72 -341 -251 -307 -262 -487 -395
-724 -534 -43 -25 -98 -65 -124 -88 -25 -24 -83 -68 -129 -98 -45 -30 -98 -69
-117 -85 -77 -68 -505 -343 -625 -401 -69 -34 -208 -113 -310 -177 -249 -155
-348 -205 -439 -221 -56 -11 -80 -11 -105 -2 -18 7 -44 12 -59 12 -67 0 -6 62
178 182 193 127 330 232 420 323 44 44 119 106 166 137 48 31 96 69 107 85 11
16 44 42 74 58 29 16 79 50 112 76 32 26 151 98 265 160 271 147 406 234 704
454 53 39 76 78 61 102 -20 32 -49 25 -185 -44 -74 -37 -179 -88 -234 -112
-92 -41 -184 -90 -445 -237 -52 -29 -151 -73 -220 -97 -185 -65 -425 -162
-511 -207 -43 -22 -101 -45 -130 -51 -30 -6 -94 -23 -144 -39 -79 -24 -318
-60 -329 -49 -9 9 -1046 3588 -1046 3610 0 40 -48 218 -71 266 -29 61 -83 113
-115 113 -16 0 -37 -12 -54 -30 -43 -46 -65 -32 -123 81 -46 89 -49 101 -58
204 -4 61 -17 153 -28 207 -11 53 -36 186 -55 296 -45 253 -70 331 -165 517
-42 83 -89 178 -105 213 -31 67 -65 102 -100 102 -20 0 -21 -4 -20 -148z
m-582 -2788 c22 -52 30 -89 33 -149 4 -84 -14 -176 -35 -183 -29 -9 -45 70
-50 242 -5 194 3 208 52 90z m-3670 -1320 c81 -21 187 -73 261 -128 56 -42
290 -285 282 -293 -2 -1 -69 24 -148 57 -244 100 -414 132 -644 123 -90 -4
-105 -2 -144 19 -65 34 -71 49 -40 106 27 50 97 105 153 121 52 15 213 12 280
-5z m56 -544 c116 -32 203 -67 345 -136 284 -140 504 -344 571 -529 12 -33 29
-104 39 -158 16 -89 16 -100 2 -114 -37 -37 -153 23 -373 193 -308 238 -478
329 -709 379 -154 33 -561 29 -933 -10 -70 -7 -128 -12 -130 -10 -2 1 131 72
295 158 294 153 435 214 543 236 30 6 64 13 75 15 42 10 203 -4 275 -24z
m1263 -132 c41 -44 107 -187 107 -232 0 -41 -13 -45 -82 -26 -70 20 -128 121
-128 225 0 73 50 88 103 33z m-3345 -249 c17 -6 33 -18 36 -26 27 -70 -156
-368 -479 -778 -339 -432 -523 -689 -601 -844 -29 -58 -39 -90 -44 -147 -7
-90 -17 -103 -59 -78 -73 43 -80 159 -20 339 64 194 299 630 516 958 212 319
406 523 543 570 55 19 68 20 108 6z m1387 -129 c617 -29 807 -88 1111 -343
170 -142 468 -463 626 -674 240 -320 278 -495 159 -739 -80 -164 -216 -319
-436 -494 -219 -174 -1066 -803 -1072 -796 -1 1 53 144 122 317 68 172 135
353 149 401 168 583 54 1119 -345 1624 -36 45 -186 216 -334 381 -149 164
-276 306 -284 316 -12 16 -10 17 35 17 27 0 148 -5 269 -10z m-565 -195 c110
-39 246 -143 535 -410 293 -271 403 -403 440 -529 46 -155 70 -438 62 -745 -7
-295 -38 -484 -119 -721 -202 -596 -709 -1105 -1184 -1190 -108 -19 -298 -8
-404 23 -265 79 -423 201 -521 402 -87 180 -120 364 -120 665 0 254 28 531 80
787 55 268 193 543 506 1013 199 297 319 454 445 580 95 95 162 140 211 140
15 0 46 -7 69 -15z m3056 -252 c160 -167 245 -433 284 -883 15 -179 13 -402
-4 -426 -50 -66 -128 130 -220 551 -25 116 -64 282 -85 370 -64 260 -82 375
-65 419 11 28 43 17 90 -31z m1511 -157 c18 -73 35 -376 36 -641 0 -308 -22
-448 -78 -495 -8 -7 -18 -11 -20 -8 -28 28 -52 554 -36 782 26 355 64 497 98
362z m-5927 -488 c0 -84 -83 -325 -198 -578 -157 -348 -205 -576 -205 -970 1
-228 15 -383 59 -633 42 -243 138 -613 223 -857 l29 -85 -194 190 -194 190
-85 340 c-47 187 -106 418 -132 513 l-46 174 33 121 c120 441 437 1254 584
1495 61 101 126 152 126 100z m9445 -930 c61 -22 121 -46 135 -55 77 -50 170
-138 242 -227 105 -131 209 -238 278 -286 30 -21 64 -47 74 -59 19 -21 19 -21
-16 -21 -37 0 -46 4 -323 152 -222 118 -322 179 -375 225 -25 22 -69 53 -99
68 -29 14 -65 39 -78 53 -33 35 -73 115 -73 144 1 69 54 70 235 6z m-3613
-143 c77 -228 96 -548 53 -882 -16 -124 -82 -464 -92 -473 -6 -5 0 206 18 660
11 276 2 556 -21 710 -22 145 -22 141 1 90 11 -25 30 -72 41 -105z m-1863 -42
c-116 -187 -872 -976 -1094 -1141 -51 -38 -183 -112 -200 -112 -3 0 -5 10 -5
22 0 15 31 51 98 112 53 50 257 251 452 448 195 196 405 403 466 461 132 124
294 260 301 253 3 -3 -5 -22 -18 -43z m6794 -275 c12 -6 28 -19 35 -29 6 -9
25 -20 41 -24 16 -3 35 -13 42 -21 6 -8 21 -14 33 -14 12 0 40 -14 63 -30 22
-17 70 -41 106 -54 35 -14 86 -39 113 -55 26 -17 60 -31 74 -31 14 0 36 -7 48
-16 13 -9 59 -29 104 -45 94 -35 143 -67 182 -121 38 -53 43 -97 17 -151 -24
-49 -58 -72 -94 -63 -71 17 -246 159 -497 402 -74 72 -170 156 -212 187 -91
68 -117 99 -55 65z m-6773 -91 c0 -64 -115 -363 -193 -502 -172 -306 -594
-715 -1052 -1020 -261 -174 -506 -292 -732 -352 -157 -42 -383 -37 -383 9 0
22 73 75 197 143 276 151 652 419 1218 870 422 336 642 537 758 695 78 106
155 190 174 190 8 0 13 -13 13 -33z m-1460 -603 c0 -16 -108 -159 -177 -234
-234 -254 -534 -499 -963 -786 -107 -72 -202 -134 -210 -139 -37 -22 70 96
249 275 292 292 712 653 931 800 106 71 170 103 170 84z m2856 -536 c45 -34
96 -94 163 -193 l61 -89 0 -90 -1 -91 -27 34 c-131 162 -242 354 -242 417 0
40 6 42 46 12z m-4252 -244 c71 -27 -124 -173 -273 -205 -80 -17 -151 1 -207
53 -58 53 -58 80 -3 108 22 12 79 27 127 35 89 13 328 20 356 9z m-1093 -429
c499 -175 504 -177 504 -195 0 -23 -87 -41 -195 -42 -116 0 -211 27 -375 109
-80 40 -320 185 -341 207 -4 4 -15 66 -12 66 3 0 191 -65 419 -145z m4435
-1747 c22 -35 -207 -166 -371 -213 -111 -32 -251 -55 -330 -55 l-60 0 25 20
c35 27 327 161 435 200 152 54 284 75 301 48z"/>
<path d="M25623 12003 c-14 -40 2 -120 33 -166 14 -22 47 -102 73 -177 34 -97
62 -159 97 -211 26 -41 65 -105 85 -144 490 -954 1115 -2167 1129 -2190 34
-59 43 -120 37 -259 l-5 -133 -457 -1134 c-252 -624 -460 -1139 -464 -1146 -4
-8 -29 -2 -86 23 -115 50 -232 85 -289 86 -72 2 -87 -26 -61 -109 5 -16 1 -25
-18 -38 -43 -28 -122 -30 -222 -5 -49 12 -146 28 -215 36 -69 7 -150 18 -180
23 -30 5 -116 18 -190 30 -74 11 -169 30 -210 42 -76 21 -209 33 -267 23 -31
-5 -32 -7 -35 -57 l-3 -52 -60 -13 c-45 -9 -124 -11 -310 -6 -238 6 -255 5
-343 -17 -89 -21 -92 -23 -92 -51 0 -60 83 -104 222 -119 121 -12 335 -72 423
-117 105 -54 196 -150 270 -287 33 -60 72 -124 88 -142 34 -39 123 -97 136
-88 20 12 23 73 7 128 -9 30 -16 77 -16 104 l0 49 79 13 c59 10 97 10 148 3
37 -6 127 -13 198 -17 72 -3 155 -12 185 -21 63 -17 222 -34 360 -38 107 -3
208 -15 215 -26 3 -4 -270 -689 -606 -1521 -336 -833 -619 -1545 -629 -1584
-9 -38 -51 -144 -92 -235 -41 -91 -89 -201 -106 -245 -48 -126 -108 -374 -136
-560 -14 -93 -30 -197 -36 -230 -6 -33 -9 -112 -8 -175 2 -63 -1 -156 -6 -207
-7 -69 -6 -99 4 -123 25 -61 120 -81 165 -35 29 29 28 16 30 275 1 218 18 485
33 535 11 33 121 257 199 406 68 126 107 241 149 427 18 84 37 160 42 170 5 9
25 73 45 142 19 69 68 202 107 295 40 94 76 186 81 207 17 68 75 183 108 211
40 33 155 70 194 61 42 -9 67 -68 67 -164 0 -91 -26 -191 -78 -298 -31 -64
-37 -88 -37 -141 0 -80 12 -91 82 -73 104 28 145 87 163 237 11 87 71 288 111
366 10 20 45 80 79 133 66 105 95 165 145 301 18 50 42 106 54 126 12 20 28
62 36 93 8 31 27 80 41 108 15 29 34 75 44 103 28 80 491 1209 500 1219 5 5
258 -49 602 -129 326 -76 607 -139 623 -141 57 -4 190 -23 268 -39 43 -8 119
-15 168 -15 89 0 90 0 99 28 17 47 25 56 64 76 32 16 59 19 162 18 68 -1 132
-6 142 -11 19 -10 799 -1582 847 -1706 29 -75 149 -310 225 -440 25 -44 66
-125 89 -180 23 -55 56 -122 72 -148 36 -59 92 -198 149 -372 53 -160 70 -195
126 -255 45 -48 104 -139 196 -302 l50 -88 45 0 c39 0 50 5 79 36 36 37 77 54
132 54 51 0 85 -24 116 -80 24 -44 28 -64 30 -143 3 -107 36 -202 87 -250 40
-36 69 -32 92 13 26 50 18 113 -43 341 -51 187 -120 378 -217 599 -25 58 -61
154 -80 214 -27 90 -136 314 -629 1293 -328 652 -594 1186 -592 1188 5 5 65
-11 217 -59 72 -23 133 -36 168 -36 31 0 117 -11 192 -24 167 -30 357 -57 433
-63 66 -5 101 9 96 40 -5 36 -60 59 -161 67 -51 5 -128 15 -172 23 -90 16
-461 99 -575 128 -97 26 -175 67 -175 94 0 18 8 20 88 25 63 4 90 9 97 20 13
21 13 25 -8 50 -16 20 -32 24 -123 31 -57 5 -120 12 -139 15 -51 10 -53 11
-72 12 -14 2 -78 82 -78 99 0 3 -15 26 -34 52 -18 25 -50 80 -71 121 -20 41
-43 82 -50 90 -21 24 -151 279 -209 407 -29 66 -89 187 -133 269 -44 82 -83
159 -87 172 -11 34 -93 203 -114 232 -9 14 -26 41 -37 59 -24 41 -155 237
-231 346 -30 44 -86 144 -124 223 -38 78 -85 170 -106 205 -51 85 -199 293
-244 342 -31 35 -38 52 -49 117 -21 132 -15 148 395 1058 202 448 372 821 378
829 5 7 22 43 37 80 14 36 61 149 104 251 110 261 160 477 120 510 -40 33
-107 -2 -152 -78 -22 -36 -29 -65 -34 -127 -17 -211 -38 -270 -140 -405 -36
-47 -85 -114 -109 -150 -70 -103 -203 -230 -286 -273 -109 -56 -152 -48 -174
33 -15 54 -51 80 -112 80 -67 0 -102 -34 -111 -106 -3 -28 -24 -93 -47 -145
-23 -52 -60 -137 -82 -189 -22 -52 -45 -101 -52 -109 -6 -8 -40 -28 -76 -44
-53 -25 -82 -31 -158 -35 -57 -3 -110 0 -137 8 -52 15 -137 67 -163 101 -11
13 -262 474 -560 1024 -397 734 -554 1035 -591 1130 -72 181 -109 249 -163
301 -55 51 -82 56 -95 17z m2025 -4520 c72 -41 112 -83 149 -157 20 -39 54
-98 77 -131 35 -51 246 -458 350 -675 17 -36 111 -226 209 -424 98 -197 176
-360 174 -362 -4 -4 -1690 470 -1719 483 -14 7 16 87 223 593 132 322 252 602
266 623 33 47 69 74 108 80 52 8 119 -4 163 -30z m-2323 -1259 c39 -14 103
-38 143 -52 60 -21 72 -29 72 -48 0 -13 -12 -32 -27 -44 -27 -21 -36 -22 -203
-18 -185 4 -212 10 -267 61 -40 36 -20 99 37 120 8 3 51 6 95 6 62 0 96 -5
150 -25z"/>
<path d="M34576 11725 c-13 -14 -31 -49 -40 -79 -15 -47 -16 -69 -6 -171 12
-130 20 -173 49 -256 49 -142 51 -381 6 -594 -35 -166 -53 -196 -229 -372 -83
-83 -184 -185 -224 -227 -40 -42 -92 -85 -115 -96 -49 -23 -133 -122 -153
-180 -17 -49 -5 -86 33 -101 34 -13 170 28 253 75 110 64 145 70 251 48 l84
-18 18 -55 c41 -121 57 -234 72 -498 10 -185 11 -304 5 -395 -5 -72 -12 -389
-16 -704 l-6 -573 -246 -342 c-1023 -1425 -1276 -1791 -1507 -2186 -134 -229
-180 -301 -267 -419 -118 -157 -161 -175 -235 -95 -58 62 -170 292 -261 533
-86 229 -128 322 -293 653 -170 338 -394 765 -739 1407 -466 867 -628 1177
-795 1530 -190 399 -313 703 -351 870 -19 79 -86 225 -144 310 -86 127 -162
179 -260 180 -74 0 -125 -15 -163 -50 -31 -27 -32 -32 -35 -117 -7 -169 63
-506 174 -846 155 -473 391 -1060 799 -1987 1098 -2495 1622 -3838 1690 -4333
28 -204 35 -249 46 -269 10 -19 11 -19 36 4 13 12 41 50 61 83 77 129 142 195
192 195 36 0 49 -12 79 -66 20 -39 31 -49 51 -49 29 0 39 17 102 179 24 60 50
114 59 119 31 19 66 -2 130 -80 115 -140 194 -203 252 -203 13 0 34 12 48 26
21 22 24 35 23 92 -1 80 -23 147 -104 322 -100 214 -116 336 -66 486 111 335
756 1401 1320 2184 49 69 157 224 239 345 l149 220 -6 -330 c-3 -197 -2 -346
4 -370 6 -27 5 -91 -5 -200 -8 -88 -15 -257 -16 -375 -2 -190 0 -221 17 -270
22 -64 24 -221 5 -400 -12 -121 0 -222 39 -303 41 -87 57 -74 89 75 27 126 54
193 77 184 8 -3 18 -6 20 -6 2 0 4 -93 5 -207 0 -115 1 -260 2 -323 3 -192
-62 -2678 -73 -2777 -13 -117 -13 -229 0 -253 8 -16 14 -17 42 -8 56 18 63 24
75 62 24 70 33 210 33 521 0 205 8 433 24 672 20 325 25 365 42 384 30 33 63
42 90 24 22 -14 24 -22 24 -98 l0 -83 41 4 c30 3 42 10 49 26 7 20 10 125 10
336 0 36 29 580 65 1210 36 630 65 1149 65 1154 0 15 303 -1 568 -29 261 -28
769 -99 779 -108 5 -6 -77 -145 -653 -1102 -464 -770 -603 -1017 -652 -1164
-40 -120 -16 -104 161 102 165 191 325 392 422 533 47 67 92 127 100 134 8 7
15 18 15 25 0 6 9 20 20 30 11 10 20 22 20 28 0 5 14 26 30 47 17 21 30 41 30
45 0 4 14 24 30 45 17 21 30 42 30 46 0 4 13 22 29 39 16 16 151 208 301 425
428 619 464 668 468 637 5 -37 -53 -237 -93 -323 -38 -84 -81 -149 -142 -217
-69 -79 -138 -191 -227 -372 -174 -352 -305 -737 -282 -828 14 -58 65 -73 123
-37 18 10 69 57 114 102 65 65 83 79 87 65 5 -25 -4 -47 -135 -315 -197 -404
-286 -657 -263 -752 13 -55 93 -29 197 65 57 51 132 88 158 79 9 -4 19 -19 22
-35 3 -16 9 -29 12 -29 16 0 95 94 164 195 255 376 983 1741 1393 2611 l99
212 75 7 c41 3 359 33 705 65 888 83 896 84 1235 84 422 1 551 -20 642 -102
45 -41 62 -71 111 -197 61 -160 248 -515 520 -990 494 -863 836 -1357 957
-1382 19 -3 30 -12 30 -22 0 -9 9 -95 20 -191 49 -434 80 -520 185 -520 109 0
236 115 269 244 62 235 112 1482 151 3736 20 1146 38 1759 66 2200 10 160 36
420 43 427 7 7 181 -280 467 -769 315 -538 539 -913 767 -1283 221 -359 286
-472 427 -755 198 -396 309 -556 690 -995 432 -498 673 -854 789 -1166 79
-214 130 -445 191 -874 92 -642 147 -865 216 -873 56 -6 119 83 154 218 21 78
23 204 11 606 -5 154 -6 297 -2 317 10 54 34 48 84 -23 67 -95 113 -112 126
-48 3 17 6 67 6 112 0 44 8 160 17 256 16 156 18 320 18 1520 -1 1302 -5 1649
-40 2830 -39 1334 -89 2360 -126 2589 -14 87 -24 105 -39 67 -6 -16 -33 -53
-59 -82 -55 -60 -80 -123 -105 -264 -34 -191 -41 -339 -41 -885 1 -519 8 -773
41 -1360 21 -378 29 -1282 15 -1635 -21 -506 -56 -935 -106 -1297 -32 -225
-66 -423 -75 -423 -3 0 -33 39 -66 87 -166 246 -714 1002 -1245 1718 -502 677
-743 1033 -1034 1530 -243 415 -376 682 -678 1365 -303 684 -492 1100 -617
1356 -122 248 -123 249 -268 325 l-84 43 -71 -12 c-58 -10 -78 -19 -105 -45
-71 -67 -92 -137 -117 -377 -75 -743 -82 -1625 -30 -3915 39 -1705 64 -2391
121 -3345 l6 -95 -62 110 c-187 337 -277 568 -350 895 -71 320 -118 463 -257
789 -119 280 -147 358 -163 456 -6 39 -24 116 -41 171 -16 56 -29 118 -29 137
0 47 30 82 85 97 45 13 56 24 33 34 -17 6 19 36 44 36 10 0 18 1 18 3 0 1 -11
34 -25 72 -31 88 -32 137 -3 178 29 42 27 41 125 67 50 13 96 32 114 47 20 18
46 27 82 30 63 6 87 18 87 43 0 14 -9 20 -32 24 -354 56 -507 86 -658 132 -95
29 -206 82 -232 111 -10 11 -26 53 -37 94 -41 162 -231 595 -596 1364 -368
775 -428 907 -561 1237 -214 531 -300 870 -311 1218 -8 264 12 383 121 739 30
96 33 147 10 180 -15 20 -23 23 -66 19 -89 -9 -151 -91 -208 -278 -38 -122
-65 -180 -84 -180 -30 0 -110 160 -186 375 -134 373 -205 538 -255 585 -23 21
-25 22 -31 5 -11 -27 49 -305 115 -541 127 -447 141 -523 101 -544 -29 -15
-75 -5 -228 51 -211 78 -315 87 -369 32 -23 -22 -25 -31 -20 -73 8 -67 67
-183 159 -314 143 -202 195 -341 205 -542 16 -321 -113 -694 -566 -1634 -162
-336 -1215 -2396 -1235 -2416 -6 -6 -123 -32 -261 -58 -491 -92 -922 -189
-1170 -262 -139 -41 -279 -104 -288 -128 -8 -19 -81 -55 -113 -56 -19 0 -20 5
-17 53 2 28 35 612 74 1296 38 684 73 1249 78 1255 20 26 308 590 406 794 374
787 547 1277 549 1557 1 112 -10 155 -38 155 -29 0 -154 -153 -281 -345 -73
-110 -225 -355 -338 -545 -233 -392 -479 -791 -484 -786 -6 6 17 283 26 312
23 71 43 564 37 922 -3 194 -8 358 -12 363 -3 5 -7 40 -8 77 -8 155 -61 304
-124 347 -53 36 -88 33 -134 -12 -36 -35 -39 -36 -55 -20 -11 11 -17 32 -17
60 0 23 2 101 3 173 3 157 -9 195 -89 300 -64 83 -134 225 -154 314 -8 36 -20
124 -26 195 -7 80 -17 139 -26 153 -19 30 -59 28 -88 -3z m8322 -2161 c60 -73
273 -515 342 -711 57 -161 85 -303 61 -303 -17 0 -56 59 -167 255 -185 326
-293 569 -310 695 -13 101 20 130 74 64z m-8046 -204 c42 -32 51 -70 46 -178
-6 -117 -48 -342 -72 -389 -11 -21 -13 -22 -32 -8 -18 12 -22 29 -28 109 -3
53 -11 108 -17 123 -5 15 -13 82 -16 148 -5 108 -3 126 15 168 18 41 25 47 50
47 16 0 41 -9 54 -20z m4430 -622 c72 -78 188 -333 298 -658 84 -249 181 -472
430 -995 272 -570 450 -993 450 -1070 0 -25 -241 -76 -510 -109 -172 -22 -545
-52 -850 -70 -344 -21 -790 -39 -796 -34 -7 8 94 380 135 495 21 59 96 259
166 443 291 764 478 1326 536 1607 24 113 29 234 15 339 -7 50 -6 63 9 77 30
31 74 22 117 -25z m-9512 -20 c71 -75 200 -392 200 -493 0 -178 -196 128 -255
398 -27 123 -6 158 55 95z m12889 -1555 c24 -604 33 -1429 22 -2040 -10 -540
-36 -1387 -45 -1438 -2 -11 -3 887 -3 1995 0 1108 3 1957 8 1885 4 -71 12
-252 18 -402z m-8528 -654 c16 -30 -34 -127 -109 -209 -70 -77 -410 -402 -397
-380 21 38 237 345 302 432 79 103 153 178 177 178 9 0 20 -9 27 -21z m-524
-715 c-20 -124 -453 -892 -792 -1404 -139 -210 -206 -292 -226 -273 -37 36
152 396 571 1084 210 345 410 629 442 629 7 0 9 -13 5 -36z m11614 -370 c64
-47 181 -173 252 -271 32 -45 101 -155 154 -245 113 -191 115 -196 143 -268
l21 -55 -43 46 c-376 403 -648 743 -648 809 0 48 41 43 121 -16z m1685 -1121
c33 -129 33 -261 0 -396 -25 -104 -29 -113 -45 -103 -32 20 -46 191 -32 407
11 174 24 239 42 206 6 -10 21 -61 35 -114z"/>
</g>
</svg>
