<?xml version="1.0" encoding="UTF-8"?>
<!DOCTYPE svg PUBLIC "-//W3C//DTD SVG 1.1//EN" "http://www.w3.org/Graphics/SVG/1.1/DTD/svg11.dtd">
<svg xmlns="http://www.w3.org/2000/svg" version="1.1" width="2824px" height="327px" style="shape-rendering:geometricPrecision; text-rendering:geometricPrecision; image-rendering:optimizeQuality; fill-rule:evenodd; clip-rule:evenodd" xmlns:xlink="http://www.w3.org/1999/xlink">
<g><path style="opacity:1" fill="#FFFFFF" d="M 1988.5,-0.5 C 1998.83,-0.5 2009.17,-0.5 2019.5,-0.5C 2049.82,4.63962 2071.32,21.3063 2084,49.5C 2088.71,58.653 2091.04,68.3197 2091,78.5C 2078.52,84.0508 2065.68,88.7174 2052.5,92.5C 2051.33,92.0814 2050.33,91.4147 2049.5,90.5C 2044.38,77.75 2037.38,66.25 2028.5,56C 2012.88,44.1355 1996.21,42.4689 1978.5,51C 1962.86,62.3595 1957.36,77.5262 1962,96.5C 1963.89,103.05 1967.39,108.55 1972.5,113C 1996.84,128.169 2020.84,143.836 2044.5,160C 2089.86,194.089 2101.36,237.256 2079,289.5C 2067.68,306.922 2051.85,318.088 2031.5,323C 2025.38,324.293 2019.38,325.46 2013.5,326.5C 2002.83,326.5 1992.17,326.5 1981.5,326.5C 1952.46,320.03 1931.96,303.03 1920,275.5C 1915.3,264.719 1911.8,253.552 1909.5,242C 1909.91,239.786 1911.24,238.453 1913.5,238C 1924.5,234.333 1935.5,230.667 1946.5,227C 1948.58,226.192 1950.58,226.359 1952.5,227.5C 1956.35,244.696 1964.01,259.862 1975.5,273C 1985.49,282.038 1997.16,285.038 2010.5,282C 2036.26,275.314 2047.09,258.814 2043,232.5C 2040.64,224.774 2036.97,217.774 2032,211.5C 2024.97,204.41 2017.47,197.91 2009.5,192C 1989.62,179.447 1970.28,166.114 1951.5,152C 1917.71,123.014 1908.54,87.5137 1924,45.5C 1937.18,18.4951 1958.68,3.16174 1988.5,-0.5 Z"/></g>
<g><path style="opacity:1" fill="#FFFFFF" d="M -0.5,43.5 C -0.5,31.1667 -0.5,18.8333 -0.5,6.5C 0.626561,5.87833 1.62656,5.04499 2.5,4C 61.5,3.33333 120.5,3.33333 179.5,4C 181.049,5.21398 182.215,6.71398 183,8.5C 183.667,19.5 183.667,30.5 183,41.5C 181.878,43.6238 180.378,45.4571 178.5,47C 157.169,47.5 135.836,47.6666 114.5,47.5C 114.976,137.834 115.143,228.167 115,318.5C 113.387,320.777 111.22,322.277 108.5,323C 97.8333,323.667 87.1667,323.667 76.5,323C 73.8366,321.199 72.0033,318.699 71,315.5C 70.5,226.167 70.3333,136.834 70.5,47.5C 48.4975,47.6666 26.4975,47.5 4.5,47C 2.67694,46.0027 1.01027,44.8361 -0.5,43.5 Z"/></g>
<g><path style="opacity:1" fill="#FFFFFF" d="M 279.5,3.5 C 290.172,3.3335 300.839,3.50016 311.5,4C 313.754,5.37667 315.92,6.87667 318,8.5C 318.5,53.4988 318.667,98.4988 318.5,143.5C 332.833,143.5 347.167,143.5 361.5,143.5C 361.5,157.833 361.5,172.167 361.5,186.5C 347.167,186.5 332.833,186.5 318.5,186.5C 318.984,230.894 318.484,275.227 317,319.5C 316.167,321 315,322.167 313.5,323C 302.167,323.667 290.833,323.667 279.5,323C 276.481,320.973 274.648,318.139 274,314.5C 273.333,213.5 273.333,112.5 274,11.5C 274.625,7.89071 276.458,5.22405 279.5,3.5 Z"/></g>
<g><path style="opacity:1" fill="#FFFFFF" d="M 418.5,3.5 C 431.171,3.33345 443.838,3.50012 456.5,4C 457.701,4.90252 458.535,6.06919 459,7.5C 459.667,110.833 459.667,214.167 459,317.5C 458.208,319.587 457.041,321.421 455.5,323C 443.833,323.667 432.167,323.667 420.5,323C 417.533,320.9 415.7,318.066 415,314.5C 414.333,213.167 414.333,111.833 415,10.5C 415.133,7.59578 416.3,5.26244 418.5,3.5 Z"/></g>
<g><path style="opacity:1" fill="#FFFFFF" d="M 560.5,3.5 C 616.834,3.33334 673.168,3.50001 729.5,4C 730.333,4.83333 731.167,5.66667 732,6.5C 732.667,18.8333 732.667,31.1667 732,43.5C 730.992,45.259 729.492,46.4257 727.5,47C 672.167,47.6667 616.833,47.6667 561.5,47C 558.898,46.065 557.398,44.2317 557,41.5C 556.333,30.5 556.333,19.5 557,8.5C 557.997,6.67694 559.164,5.01027 560.5,3.5 Z"/></g>
<g><path style="opacity:1" fill="#FFFFFF" d="M 978.5,3.5 C 992.504,3.33343 1006.5,3.50009 1020.5,4C 1023.58,4.78597 1025.75,6.61931 1027,9.5C 1052.41,89.4081 1078.41,169.075 1105,248.5C 1133.8,168.424 1162.8,88.4236 1192,8.5C 1193.54,6.62173 1195.38,5.12173 1197.5,4C 1209.5,3.33333 1221.5,3.33333 1233.5,4C 1234.93,4.46524 1236.1,5.29857 1237,6.5C 1238.66,108.11 1238.99,209.777 1238,311.5C 1237.26,316.151 1235.09,319.984 1231.5,323C 1221.83,323.667 1212.17,323.667 1202.5,323C 1200.65,321.482 1199.15,319.649 1198,317.5C 1197.12,239.479 1197.45,161.479 1199,83.5C 1188.94,111.673 1179.28,140.007 1170,168.5C 1153.81,220.606 1137.31,272.606 1120.5,324.5C 1108.21,323.686 1095.88,323.186 1083.5,323C 1083,322.5 1082.5,322 1082,321.5C 1061.39,258.321 1042.39,194.655 1025,130.5C 1021.74,114.216 1018.74,97.8831 1016,81.5C 1017.55,159.813 1018.22,238.147 1018,316.5C 1017.59,319.494 1016.09,321.661 1013.5,323C 1002.17,323.667 990.833,323.667 979.5,323C 977.652,321.482 976.152,319.649 975,317.5C 974.333,214.167 974.333,110.833 975,7.5C 975.69,5.64977 976.856,4.31643 978.5,3.5 Z"/></g>
<g><path style="opacity:1" fill="#FFFFFF" d="M 1494.5,3.5 C 1505.51,3.33349 1516.51,3.50015 1527.5,4C 1528.42,4.37424 1529.25,4.87424 1530,5.5C 1565.53,84.4164 1600.86,163.416 1636,242.5C 1634.23,218.874 1632.57,195.207 1631,171.5C 1630.33,116.5 1630.33,61.5 1631,6.5C 1631.83,5.66667 1632.67,4.83333 1633.5,4C 1645.5,3.33333 1657.5,3.33333 1669.5,4C 1670.33,4.83333 1671.17,5.66667 1672,6.5C 1673.66,109.457 1673.99,212.457 1673,315.5C 1672.85,318.119 1672.02,320.453 1670.5,322.5C 1656.97,323.826 1643.47,323.826 1630,322.5C 1596.61,252.711 1562.94,183.045 1529,113.5C 1533.32,182.398 1534.65,251.398 1533,320.5C 1532.17,321.333 1531.33,322.167 1530.5,323C 1518.5,323.667 1506.5,323.667 1494.5,323C 1492.23,320.656 1491.06,317.822 1491,314.5C 1490.33,212.5 1490.33,110.5 1491,8.5C 1491.67,6.40983 1492.84,4.74317 1494.5,3.5 Z"/></g>
<g><path style="opacity:1" fill="#FFFFFF" d="M 1786.5,3.5 C 1797.51,3.33349 1808.51,3.50015 1819.5,4C 1822.14,4.89649 1824.31,6.39649 1826,8.5C 1826.67,83.5 1826.67,158.5 1826,233.5C 1825.28,236.22 1823.78,238.387 1821.5,240C 1809.83,240.667 1798.17,240.667 1786.5,240C 1784.33,239.167 1782.83,237.667 1782,235.5C 1781.33,159.5 1781.33,83.5 1782,7.5C 1783.4,5.92975 1784.9,4.59641 1786.5,3.5 Z"/></g>
<g><path style="opacity:1" fill="#FFFFFF" d="M 2147.5,3.5 C 2206.17,3.33334 2264.83,3.50001 2323.5,4C 2326.1,4.93498 2327.6,6.76831 2328,9.5C 2328.91,20.892 2328.58,32.2253 2327,43.5C 2325.83,44.6667 2324.67,45.8333 2323.5,47C 2302.17,47.5 2280.84,47.6666 2259.5,47.5C 2259.45,137.171 2259.62,226.838 2260,316.5C 2259.19,319.973 2257.03,322.14 2253.5,323C 2248.17,323.167 2242.83,323.333 2237.5,323.5C 2231.4,323.624 2225.4,323.124 2219.5,322C 2216.77,319.044 2215.27,315.544 2215,311.5C 2214.5,223.501 2214.33,135.501 2214.5,47.5C 2192.5,47.6666 2170.5,47.5 2148.5,47C 2146.62,45.4571 2145.12,43.6238 2144,41.5C 2143.33,30.5 2143.33,19.5 2144,8.5C 2144.7,6.4156 2145.86,4.74894 2147.5,3.5 Z"/></g>
<g><path style="opacity:1" fill="#FFFFFF" d="M 2408.5,3.5 C 2437.84,3.33335 2467.17,3.50002 2496.5,4C 2529.88,8.40258 2554.04,25.5692 2569,55.5C 2582.15,87.5853 2582.81,119.919 2571,152.5C 2564.48,168.678 2553.98,181.512 2539.5,191C 2554.73,234.854 2570.06,278.688 2585.5,322.5C 2569.5,323.833 2553.5,323.833 2537.5,322.5C 2519.5,269.5 2501.5,216.5 2483.5,163.5C 2494.78,161.508 2505.45,157.675 2515.5,152C 2523.61,145.273 2528.78,136.773 2531,126.5C 2534.46,108.574 2533.12,90.9077 2527,73.5C 2518.02,58.9124 2504.86,50.7457 2487.5,49C 2473.87,47.544 2460.2,46.7106 2446.5,46.5C 2446.67,138.501 2446.5,230.501 2446,322.5C 2433.33,323.833 2420.67,323.833 2408,322.5C 2406.84,269.415 2406.34,216.248 2406.5,163C 2406.67,110.5 2406.83,58 2407,5.5C 2407.72,4.9558 2408.22,4.28913 2408.5,3.5 Z"/></g>
<g><path style="opacity:1" fill="#FFFFFF" d="M 2823.5,3.5 C 2823.5,5.16667 2823.5,6.83333 2823.5,8.5C 2799.11,65.6288 2774.94,122.962 2751,180.5C 2750.67,227.833 2750.33,275.167 2750,322.5C 2743.24,323.158 2736.41,323.491 2729.5,323.5C 2722.59,323.491 2715.76,323.158 2709,322.5C 2708.67,274.833 2708.33,227.167 2708,179.5C 2684.36,121.586 2660.53,63.7526 2636.5,6C 2636.64,5.22797 2636.98,4.5613 2637.5,4C 2651.5,3.33333 2665.5,3.33333 2679.5,4C 2680.33,4.83333 2681.17,5.66667 2682,6.5C 2694.55,36.9434 2706.55,67.6101 2718,98.5C 2722.94,114.937 2726.94,131.604 2730,148.5C 2731.72,140.328 2734.06,132.328 2737,124.5C 2751.17,84.8333 2765.33,45.1667 2779.5,5.5C 2780.03,4.80762 2780.69,4.30762 2781.5,4C 2795.5,3.50009 2809.5,3.33343 2823.5,3.5 Z"/></g>
<g><path style="opacity:1" fill="#FFFFFF" d="M 560.5,145.5 C 610.834,145.333 661.168,145.5 711.5,146C 712.333,146.833 713.167,147.667 714,148.5C 714.667,160.167 714.667,171.833 714,183.5C 713.5,185.333 712.333,186.5 710.5,187C 660.5,187.667 610.5,187.667 560.5,187C 558.741,185.992 557.574,184.492 557,182.5C 556.333,171.833 556.333,161.167 557,150.5C 557.697,148.416 558.864,146.749 560.5,145.5 Z"/></g>
<g><path style="opacity:1" fill="#FFFFFF" d="M 560.5,279.5 C 616.834,279.333 673.168,279.5 729.5,280C 730.333,280.833 731.167,281.667 732,282.5C 732.667,294.833 732.667,307.167 732,319.5C 731.167,321 730,322.167 728.5,323C 672.833,323.667 617.167,323.667 561.5,323C 558.898,322.065 557.398,320.232 557,317.5C 556.333,306.5 556.333,295.5 557,284.5C 557.997,282.677 559.164,281.01 560.5,279.5 Z"/></g>
</svg>
