<?xml version="1.0" encoding="UTF-8"?>
<!DOCTYPE svg PUBLIC "-//W3C//DTD SVG 1.1//EN" "http://www.w3.org/Graphics/SVG/1.1/DTD/svg11.dtd">
<svg xmlns="http://www.w3.org/2000/svg" version="1.1" width="2500px" height="900px" style="shape-rendering:geometricPrecision; text-rendering:geometricPrecision; image-rendering:optimizeQuality; fill-rule:evenodd; clip-rule:evenodd" xmlns:xlink="http://www.w3.org/1999/xlink">
<g><path style="opacity:1" fill="#FFFFFF" d="M 952.5,-0.5 C 953.167,-0.5 953.833,-0.5 954.5,-0.5C 954.5,256.5 954.5,513.5 954.5,770.5C 1054.17,770.167 1153.84,770.5 1253.5,771.5C 1237.63,785.911 1224.13,802.244 1213,820.5C 1203.82,836.862 1197.32,854.195 1193.5,872.5C 1074.83,872.5 956.167,872.5 837.5,872.5C 837.333,701.833 837.5,531.166 838,360.5C 849.171,343.649 864.671,332.816 884.5,328C 868.837,327.5 853.17,327.333 837.5,327.5C 837.167,255.164 837.5,182.83 838.5,110.5C 886.394,83.605 924.394,46.605 952.5,-0.5 Z"/></g>
<g><path style="opacity:1" fill="#FFFFFF" d="M 1411.5,-0.5 C 1412.17,-0.5 1412.83,-0.5 1413.5,-0.5C 1413.67,186.167 1413.5,372.834 1413,559.5C 1411.77,601.557 1397.77,638.557 1371,670.5C 1341.52,700.317 1305.69,716.817 1263.5,720C 1221.13,725.072 1180.46,719.072 1141.5,702C 1096.08,676.738 1069.25,638.238 1061,586.5C 1059.63,577.877 1058.63,569.21 1058,560.5C 1057.5,385.834 1057.33,211.167 1057.5,36.5C 1096.5,36.5 1135.5,36.5 1174.5,36.5C 1174.33,211.167 1174.5,385.834 1175,560.5C 1180.59,605.9 1206.09,625.067 1251.5,618C 1275.16,612.343 1289.32,597.509 1294,573.5C 1294.83,568.857 1295.5,564.19 1296,559.5C 1296.17,409.832 1296.67,260.166 1297.5,110.5C 1331.59,92.2628 1360.75,67.9295 1385,37.5C 1394.59,25.2993 1403.43,12.6326 1411.5,-0.5 Z"/></g>
<g><path style="opacity:1" fill="#FFFFFF" d="M -0.5,546.5 C -0.5,542.167 -0.5,537.833 -0.5,533.5C 36.5026,528.166 73.5026,522.833 110.5,517.5C 110.999,542.829 116.832,566.829 128,589.5C 139.581,609.711 157.081,619.711 180.5,619.5C 227.998,618.854 249.498,594.854 245,547.5C 240.905,524.649 231.905,503.982 218,485.5C 205.613,469.441 192.113,454.274 177.5,440C 141.704,409.206 106.204,378.039 71,346.5C 70.3333,345.833 70.3333,345.167 71,344.5C 80.5736,336.461 91.4069,330.628 103.5,327C 87.1667,326.667 70.8333,326.333 54.5,326C 9.65486,263.784 -1.17847,195.95 22,122.5C 37.9595,83.2076 65.7929,56.0409 105.5,41C 146.275,26.9723 187.942,23.6389 230.5,31C 270.63,40.1275 301.13,62.2942 322,97.5C 342.02,133.914 352.187,172.914 352.5,214.5C 326.924,217.637 302.924,225.47 280.5,238C 268.631,245.366 256.631,252.532 244.5,259.5C 243.048,241.525 241.882,223.525 241,205.5C 239.493,184.31 232.826,164.977 221,147.5C 205.809,131.735 187.309,125.901 165.5,130C 140.255,135.249 126.089,150.749 123,176.5C 119.42,197.023 122.754,216.356 133,234.5C 142.733,251.902 154.4,267.902 168,282.5C 177.833,292.333 187.667,302.167 197.5,312C 231.298,341.462 264.798,371.296 298,401.5C 325.253,432.001 343.587,467.334 353,507.5C 361.712,552.133 356.712,595.133 338,636.5C 314.131,677.55 278.964,703.717 232.5,715C 195.047,723.927 157.714,723.593 120.5,714C 80.3845,700.219 49.5512,675.052 28,638.5C 11.9224,609.773 2.42241,579.107 -0.5,546.5 Z"/></g>
<g><path style="opacity:1" fill="#FFFFFF" d="M 2499.5,35.5 C 2499.5,323.167 2499.5,610.833 2499.5,898.5C 2481.75,870.894 2460.75,845.727 2436.5,823C 2420.31,808.985 2402.81,796.818 2384,786.5C 2383.33,644.5 2383.33,502.5 2384,360.5C 2394.94,343.931 2410.1,333.097 2429.5,328C 2414.17,327.5 2398.84,327.333 2383.5,327.5C 2383.5,230.167 2383.5,132.833 2383.5,35.5C 2422.17,35.5 2460.83,35.5 2499.5,35.5 Z"/></g>
<g><path style="opacity:1" fill="#FFFFFF" d="M 497.5,36.5 C 545.833,36.5 594.167,36.5 642.5,36.5C 695.45,323.871 748.283,611.204 801,898.5C 768.357,841.857 722.357,799.857 663,772.5C 651.559,699.518 640.225,626.518 629,553.5C 606.757,507.901 572.091,476.567 525,459.5C 511.948,543.812 499.115,628.145 486.5,712.5C 448.499,712.667 410.499,712.5 372.5,712C 414.226,486.866 455.893,261.7 497.5,36.5 Z M 569.5,171.5 C 584.895,266.255 599.562,361.255 613.5,456.5C 584.167,456.5 554.833,456.5 525.5,456.5C 540.167,361.5 554.833,266.5 569.5,171.5 Z"/></g>
<g><path style="opacity:1" fill="#FFFFFF" d="M 1617.5,899.5 C 1616.83,899.5 1616.17,899.5 1615.5,899.5C 1586.14,853.129 1548.14,815.462 1501.5,786.5C 1500.5,536.501 1500.17,286.501 1500.5,36.5C 1564.5,36.3333 1628.5,36.5 1692.5,37C 1728.29,38.1924 1761.29,48.1924 1791.5,67C 1821.21,89.2114 1839.71,118.711 1847,155.5C 1852.94,186.044 1854.27,216.71 1851,247.5C 1850.47,251.305 1849.47,254.971 1848,258.5C 1846.51,260.004 1844.68,260.837 1842.5,261C 1807.83,263.556 1775.5,273.556 1745.5,291C 1732.99,299.086 1720.66,307.419 1708.5,316C 1784,326.83 1833.17,368.663 1856,441.5C 1868.85,489.56 1869.85,537.893 1859,586.5C 1840.06,664.086 1790.56,705.586 1710.5,711C 1692.85,712.026 1675.18,712.526 1657.5,712.5C 1653.36,677.239 1640.19,645.905 1618,618.5C 1617.5,712.166 1617.33,805.833 1617.5,899.5 Z M 1617.5,132.5 C 1637.2,132.121 1656.86,132.621 1676.5,134C 1702.59,138.756 1720.09,153.59 1729,178.5C 1741.34,219.78 1737.34,259.447 1717,297.5C 1713.88,303.582 1710.38,309.415 1706.5,315C 1676.87,313.694 1647.21,313.194 1617.5,313.5C 1617.5,253.167 1617.5,192.833 1617.5,132.5 Z M 1617.5,409.5 C 1637.2,409.121 1656.86,409.621 1676.5,411C 1714.83,417.911 1738,440.411 1746,478.5C 1751.57,509.35 1749.57,539.684 1740,569.5C 1728.62,596.87 1708.12,612.036 1678.5,615C 1658.17,615.5 1637.84,615.667 1617.5,615.5C 1617.5,546.833 1617.5,478.167 1617.5,409.5 Z"/></g>
<g><path style="opacity:1" fill="#FFFFFF" d="M 1928.5,36.5 C 1989.83,36.3333 2051.17,36.5 2112.5,37C 2148.54,37.8433 2182.54,46.51 2214.5,63C 2248.3,84.1762 2269.8,114.343 2279,153.5C 2290.09,202.213 2291.42,251.213 2283,300.5C 2277.81,330.878 2265.14,357.544 2245,380.5C 2233.89,391.277 2221.39,400.11 2207.5,407C 2259.96,570.043 2311.79,733.21 2363,896.5C 2350.04,880.539 2336.71,864.873 2323,849.5C 2304.01,827.491 2281.85,809.658 2256.5,796C 2237.74,786.954 2219.08,777.954 2200.5,769C 2166.85,649.574 2132.35,530.407 2097,411.5C 2092.51,402.507 2087.51,393.84 2082,385.5C 2070.76,370.252 2058.76,355.586 2046,341.5C 2045.5,465.166 2045.33,588.833 2045.5,712.5C 2006.5,712.5 1967.5,712.5 1928.5,712.5C 1928.5,487.167 1928.5,261.833 1928.5,36.5 Z M 2045.5,132.5 C 2065.53,132.15 2085.53,132.65 2105.5,134C 2137.16,136.713 2157.33,153.213 2166,183.5C 2171.65,211.268 2172.99,239.268 2170,267.5C 2168.74,288.66 2160.9,306.826 2146.5,322C 2130.12,333.681 2111.78,339.348 2091.5,339C 2076.17,339.5 2060.84,339.667 2045.5,339.5C 2045.5,270.5 2045.5,201.5 2045.5,132.5 Z"/></g>
</svg>
