<?xml version="1.0" standalone="no"?>
<!DOCTYPE svg PUBLIC "-//W3C//DTD SVG 20010904//EN"
 "http://www.w3.org/TR/2001/REC-SVG-20010904/DTD/svg10.dtd">
<svg version="1.0" xmlns="http://www.w3.org/2000/svg"
 width="4800.000000pt" height="632.000000pt" viewBox="0 0 4800.000000 632.000000"
 preserveAspectRatio="xMidYMid meet">

<g transform="translate(0.000000,632.000000) scale(0.100000,-0.100000)"
fill="#FFFFFF" stroke="none">
<path d="M33575 5930 c-22 -4 -92 -15 -155 -24 -63 -9 -137 -23 -165 -31 -27
-8 -95 -26 -150 -40 -55 -15 -124 -40 -154 -57 -30 -16 -79 -36 -110 -44 -30
-8 -69 -25 -86 -37 -16 -13 -51 -31 -78 -41 -26 -10 -65 -32 -87 -49 -21 -18
-58 -45 -82 -60 -48 -31 -129 -91 -210 -153 -119 -93 -398 -401 -445 -493 -13
-25 -33 -59 -44 -76 -40 -59 -89 -141 -108 -183 -12 -24 -34 -62 -50 -86 -17
-24 -37 -73 -45 -110 -9 -37 -27 -86 -40 -109 -13 -23 -32 -73 -41 -112 -9
-38 -30 -100 -46 -136 -23 -54 -31 -92 -39 -190 -6 -68 -22 -173 -36 -234 -32
-138 -46 -350 -38 -585 7 -182 8 -197 42 -345 11 -49 26 -144 32 -209 8 -87
18 -136 36 -180 14 -34 34 -90 44 -126 10 -36 30 -92 45 -125 15 -33 33 -87
41 -120 8 -33 23 -72 33 -86 11 -14 35 -57 55 -96 19 -40 40 -75 47 -78 6 -4
19 -26 28 -49 10 -22 34 -62 53 -87 20 -25 41 -62 47 -82 7 -20 15 -37 19 -39
4 -2 19 -19 32 -38 46 -67 104 -132 301 -339 61 -65 244 -214 313 -255 17 -10
46 -31 64 -47 18 -16 47 -36 65 -45 17 -9 46 -26 62 -39 17 -12 55 -29 86 -38
30 -9 71 -27 91 -40 19 -14 65 -34 101 -46 37 -13 70 -27 73 -33 12 -19 76
-39 153 -48 81 -9 222 -41 306 -68 75 -25 603 -25 690 0 150 44 213 58 287 68
58 7 95 18 141 44 34 18 75 37 91 40 16 4 53 23 82 42 30 18 71 38 92 42 37 9
151 82 260 168 31 24 82 63 112 86 120 92 424 417 465 499 10 19 26 43 36 55
10 11 32 47 48 80 16 32 41 74 55 93 14 19 26 39 26 45 0 5 18 37 39 70 22 34
50 90 62 126 12 36 30 76 39 90 10 14 23 52 30 85 6 33 28 95 47 137 23 52 39
109 49 175 8 53 26 146 39 205 33 142 45 293 45 583 0 273 -12 441 -41 564
-11 46 -29 140 -40 208 -13 82 -30 145 -50 190 -17 38 -37 95 -44 128 -7 33
-27 89 -43 125 -17 36 -36 84 -42 107 -6 23 -25 62 -44 85 -18 24 -37 57 -43
73 -6 17 -29 57 -52 89 -22 33 -41 64 -41 71 0 6 -12 27 -26 46 -14 19 -31 48
-39 64 -32 72 -347 425 -434 485 -31 22 -83 63 -116 90 -33 27 -80 64 -105 81
-25 18 -56 42 -70 54 -14 12 -46 30 -72 39 -26 10 -64 29 -84 42 -21 14 -62
33 -93 43 -31 10 -72 29 -93 43 -20 14 -58 31 -85 38 -26 7 -101 28 -166 46
-66 19 -132 34 -147 34 -16 0 -74 9 -130 20 -85 17 -138 20 -328 19 -125 -1
-245 -5 -267 -9z m545 -154 c47 -15 110 -32 140 -37 30 -6 80 -26 110 -45 30
-18 75 -40 99 -49 24 -8 61 -31 82 -50 22 -19 43 -35 47 -35 5 0 52 -44 106
-97 89 -88 131 -141 190 -237 11 -17 36 -53 57 -81 21 -27 41 -63 45 -80 4
-16 24 -60 45 -97 22 -36 39 -74 39 -84 0 -9 16 -47 36 -83 20 -36 44 -91 54
-121 10 -30 28 -76 40 -103 11 -26 27 -84 34 -130 8 -45 30 -131 49 -192 26
-81 40 -148 51 -255 9 -80 25 -199 36 -265 11 -66 25 -183 30 -260 13 -181 13
-562 0 -736 -18 -247 -77 -646 -116 -784 -15 -49 -33 -123 -41 -164 -8 -41
-30 -106 -48 -145 -19 -39 -39 -92 -44 -117 -6 -26 -26 -79 -46 -120 -19 -40
-35 -79 -35 -87 0 -7 -17 -39 -39 -70 -21 -31 -42 -68 -46 -82 -23 -78 -300
-381 -389 -426 -26 -14 -66 -39 -89 -55 -22 -16 -45 -29 -52 -29 -6 0 -38 -13
-71 -29 -55 -27 -103 -41 -264 -73 -40 -8 -133 -13 -240 -12 -202 0 -356 24
-487 74 -43 17 -83 30 -89 30 -7 0 -35 16 -64 36 -28 19 -71 44 -94 54 -62 26
-127 77 -246 194 -119 117 -179 186 -204 235 -10 18 -33 54 -51 80 -18 25 -36
56 -39 69 -4 12 -18 35 -32 51 -13 16 -33 57 -44 92 -11 35 -33 90 -49 121
-17 31 -33 74 -37 95 -3 21 -19 63 -34 93 -28 56 -44 117 -55 205 -4 28 -22
102 -40 165 -28 95 -36 143 -44 265 -5 83 -19 222 -31 310 -20 145 -21 193
-17 515 3 270 8 377 21 445 9 50 23 179 31 288 16 217 17 218 51 327 12 41 28
102 34 135 6 33 24 94 40 135 16 41 34 107 40 145 7 48 21 87 44 125 18 30 39
71 45 90 6 19 20 49 32 65 11 17 38 66 60 110 74 148 89 170 218 319 66 75
189 179 265 223 66 38 181 87 246 105 41 11 91 24 110 29 110 30 192 38 375
35 174 -3 197 -5 275 -30z"/>
<path d="M39380 5930 c-25 -4 -88 -13 -140 -20 -103 -13 -427 -93 -471 -116
-15 -7 -30 -18 -34 -24 -3 -5 -35 -18 -70 -29 -36 -11 -95 -36 -132 -55 -38
-19 -78 -37 -91 -41 -12 -4 -43 -24 -68 -46 -25 -21 -49 -39 -54 -39 -5 0 -29
-17 -53 -37 -24 -21 -57 -46 -73 -55 -107 -64 -200 -150 -366 -335 -106 -118
-174 -210 -207 -280 -11 -22 -33 -60 -50 -84 -17 -23 -31 -48 -31 -55 0 -7
-16 -34 -37 -60 -20 -27 -46 -73 -58 -104 -12 -30 -34 -80 -47 -110 -14 -30
-31 -80 -38 -110 -7 -30 -24 -76 -37 -103 -24 -47 -48 -136 -93 -346 -75 -351
-77 -975 -4 -1311 14 -63 34 -157 44 -209 11 -53 34 -126 54 -165 18 -39 36
-89 40 -111 3 -22 19 -67 35 -100 16 -33 37 -82 47 -110 10 -27 28 -63 40 -80
12 -16 31 -49 43 -73 12 -24 37 -63 56 -88 19 -25 35 -51 35 -57 0 -12 97
-160 145 -221 93 -118 308 -346 353 -371 17 -11 32 -22 32 -26 0 -4 24 -22 53
-39 28 -18 68 -46 87 -62 104 -87 145 -118 155 -118 7 0 32 -15 57 -34 25 -19
69 -41 99 -49 30 -8 72 -26 93 -41 22 -14 65 -34 95 -43 31 -9 72 -26 92 -38
42 -27 101 -45 149 -45 36 0 190 -35 295 -67 52 -16 99 -18 355 -18 252 0 302
2 345 17 85 29 201 57 262 64 72 7 147 30 164 50 6 8 37 22 68 30 30 9 76 31
102 49 26 18 68 37 93 44 26 6 67 27 92 46 25 19 50 35 54 35 5 0 32 19 60 42
71 61 138 114 189 151 99 73 125 97 213 199 171 196 244 291 281 365 15 28 31
55 37 58 6 4 24 32 39 63 15 32 40 75 54 96 15 21 27 43 27 48 0 5 17 40 39
76 21 37 44 93 51 125 6 32 23 80 37 107 14 27 36 86 49 132 12 46 32 109 44
141 12 34 27 117 36 200 8 78 24 185 35 237 19 83 21 129 21 365 1 249 -1 280
-25 405 -14 74 -29 173 -32 220 -8 97 -31 218 -45 235 -5 6 -21 56 -35 111
-15 54 -35 113 -46 130 -10 17 -27 65 -38 105 -19 77 -82 210 -137 292 -18 26
-36 58 -40 70 -3 12 -16 36 -29 52 -12 17 -36 58 -53 92 -18 34 -36 64 -42 68
-6 4 -22 24 -35 46 -33 51 -183 225 -273 316 -69 69 -123 114 -232 193 -69 50
-119 89 -168 131 -23 20 -57 40 -75 43 -17 4 -52 20 -76 36 -24 17 -65 36 -90
44 -26 7 -64 25 -85 40 -21 14 -71 35 -110 46 -39 11 -111 31 -159 45 -48 14
-120 30 -160 35 -40 6 -108 16 -152 25 -85 15 -468 19 -555 5z m530 -152 c47
-15 111 -31 144 -38 32 -7 82 -27 110 -45 28 -18 66 -36 84 -40 18 -4 54 -25
80 -47 218 -183 232 -198 337 -347 21 -31 47 -65 57 -75 10 -11 21 -29 24 -40
4 -11 24 -48 45 -82 21 -34 43 -80 48 -101 6 -21 23 -58 37 -83 15 -25 35 -70
45 -100 11 -30 31 -71 45 -91 16 -24 30 -65 39 -115 8 -44 27 -117 43 -164 16
-47 35 -116 41 -155 7 -38 20 -97 31 -130 28 -87 38 -159 50 -346 6 -91 15
-190 21 -220 6 -30 13 -196 16 -369 4 -253 2 -346 -11 -465 -9 -83 -21 -224
-26 -315 -7 -125 -16 -183 -34 -240 -13 -41 -29 -109 -36 -150 -25 -155 -40
-221 -59 -258 -11 -21 -27 -67 -36 -103 -9 -35 -31 -95 -49 -134 -19 -38 -36
-87 -39 -107 -3 -20 -22 -60 -41 -90 -20 -29 -36 -60 -36 -68 0 -16 -79 -143
-142 -230 -18 -24 -80 -93 -137 -152 -77 -80 -117 -114 -160 -134 -31 -14 -68
-37 -82 -50 -14 -14 -48 -33 -75 -43 -27 -11 -72 -29 -101 -40 -218 -87 -678
-88 -913 -3 -132 48 -179 69 -212 94 -19 15 -48 30 -63 34 -37 9 -149 101
-275 226 -140 140 -217 245 -296 408 -20 41 -43 82 -51 91 -7 9 -23 50 -35 90
-11 41 -36 104 -54 140 -19 36 -34 75 -34 87 0 12 -11 56 -25 99 -34 103 -52
176 -60 244 -3 31 -13 81 -21 110 -80 294 -98 1273 -30 1704 14 88 33 210 42
270 17 116 32 175 58 238 9 21 23 75 32 120 15 82 104 329 129 357 7 8 27 45
43 83 17 37 40 80 51 95 11 16 23 41 27 56 17 71 285 384 351 412 18 8 47 27
65 42 63 55 214 118 368 156 192 46 178 44 395 42 171 -3 199 -6 275 -28z"/>
<path d="M22095 5854 c-54 -18 -79 -46 -71 -77 9 -36 46 -44 211 -51 181 -6
302 -43 365 -110 24 -26 24 -31 32 -264 5 -130 7 -1207 6 -2392 l-3 -2155 -27
-57 c-14 -31 -37 -64 -51 -73 -33 -21 -118 -34 -293 -44 -113 -6 -148 -11
-175 -27 -44 -26 -60 -67 -36 -92 16 -16 78 -17 860 -22 1065 -6 1393 4 1564
51 40 11 114 26 165 34 51 8 129 26 173 40 44 14 110 32 147 41 37 8 78 24 92
35 13 10 54 33 91 49 37 17 81 41 97 55 16 14 36 25 43 25 8 0 73 53 144 118
130 117 218 224 262 317 12 25 25 45 29 45 13 0 50 83 50 111 0 14 18 81 41
149 l41 124 -4 246 c-4 218 -7 251 -26 300 -11 30 -30 93 -42 140 -12 50 -37
112 -60 150 -21 36 -41 76 -45 90 -17 56 -243 308 -304 339 -20 11 -44 28 -54
39 -10 11 -33 26 -50 33 -18 7 -59 30 -91 51 -33 21 -69 38 -82 38 -13 0 -57
18 -99 40 -56 29 -94 42 -138 47 -34 3 -109 21 -167 40 -90 30 -126 36 -255
44 -188 11 -233 17 -241 31 -12 18 30 43 92 57 33 7 91 23 129 36 74 24 141
40 215 50 25 3 76 21 115 40 38 18 93 38 120 44 28 7 68 24 90 40 22 15 55 33
73 41 18 7 50 25 71 41 21 15 56 36 77 47 50 26 203 169 257 240 79 103 148
233 178 337 16 55 37 125 46 155 13 42 17 92 17 210 0 149 -1 160 -36 280 -21
69 -40 137 -43 151 -2 15 -20 49 -39 77 -18 27 -37 63 -40 78 -15 57 -289 334
-330 334 -7 0 -33 16 -57 35 -24 19 -65 39 -94 46 -27 7 -73 25 -102 41 -33
18 -84 35 -135 44 -46 8 -119 26 -163 40 -134 42 -431 64 -905 65 -168 0 -447
4 -620 9 -658 17 -975 18 -1015 4z m1999 -179 c32 -9 104 -20 160 -26 83 -9
108 -16 141 -39 22 -15 61 -39 87 -54 51 -28 163 -163 199 -238 11 -24 26 -55
34 -69 15 -27 61 -206 90 -349 23 -113 31 -404 15 -524 -7 -50 -23 -129 -37
-176 -13 -47 -29 -109 -34 -138 -6 -29 -23 -72 -40 -97 -16 -24 -36 -62 -44
-85 -8 -24 -30 -60 -48 -82 -74 -89 -144 -161 -169 -174 -15 -8 -42 -27 -60
-43 -18 -15 -63 -38 -100 -50 -36 -12 -72 -28 -78 -36 -22 -26 -154 -44 -400
-55 -135 -5 -273 -13 -306 -16 -55 -5 -64 -3 -83 17 -12 13 -21 32 -21 43 -1
12 0 446 0 966 0 931 1 946 21 1008 20 62 21 65 4 102 -21 46 -14 87 18 100
69 31 549 41 651 15z m-159 -2430 c83 -8 175 -22 205 -30 30 -8 84 -20 119
-26 36 -6 102 -28 148 -50 45 -21 86 -39 91 -39 5 0 17 -9 28 -21 10 -12 40
-32 65 -45 52 -26 222 -192 246 -239 8 -16 26 -45 40 -63 13 -17 33 -58 44
-89 10 -31 25 -66 32 -77 24 -38 45 -111 52 -176 4 -36 13 -90 21 -120 8 -31
17 -131 21 -230 5 -150 3 -193 -15 -300 -11 -69 -24 -156 -27 -194 -4 -40 -18
-94 -32 -125 -14 -31 -33 -83 -44 -117 -10 -33 -30 -76 -44 -95 -13 -19 -33
-52 -44 -74 -41 -86 -214 -260 -306 -308 -16 -8 -47 -29 -68 -45 -21 -17 -60
-35 -89 -42 -28 -6 -66 -19 -83 -30 -72 -45 -151 -54 -465 -55 l-295 0 -45 25
c-28 16 -53 40 -67 66 l-23 41 0 1174 c0 646 0 1195 0 1222 0 35 6 53 22 69
20 20 26 21 192 15 94 -4 239 -13 321 -22z"/>
<path d="M26704 5836 c-39 -39 -41 -46 -16 -76 22 -28 81 -39 210 -39 101 -1
221 -16 264 -33 15 -6 43 -27 62 -48 27 -30 36 -51 45 -106 9 -52 11 -648 9
-2399 l-3 -2330 -33 -58 c-19 -32 -44 -64 -56 -72 -13 -9 -94 -22 -212 -34
-192 -20 -235 -30 -266 -58 -24 -22 -23 -70 1 -83 13 -7 334 -10 963 -11 519
-1 1323 -4 1788 -8 719 -7 870 -11 1016 -26 164 -18 173 -18 198 -1 15 9 31
27 36 40 18 47 30 366 31 836 l1 484 -36 33 c-48 44 -77 43 -113 -3 -24 -32
-29 -52 -40 -153 -7 -64 -19 -143 -27 -176 -8 -33 -19 -95 -25 -137 -6 -44
-23 -106 -40 -142 -16 -36 -32 -77 -35 -93 -8 -35 -92 -149 -144 -194 -130
-114 -286 -190 -428 -208 -38 -5 -109 -16 -159 -25 -246 -42 -374 -49 -1000
-53 l-610 -5 -20 22 c-20 22 -20 45 -23 2304 -1 1254 2 2359 6 2453 10 197 8
192 103 243 52 27 74 32 177 40 64 5 154 10 200 10 68 0 85 3 102 20 27 27 25
46 -8 80 -39 39 -116 46 -329 30 -282 -21 -1041 -24 -1298 -6 -121 9 -228 16
-238 16 -11 0 -34 -15 -53 -34z"/>
<path d="M42883 5851 c-55 -34 -56 -91 -1 -110 17 -6 79 -11 137 -11 143 0
292 -22 328 -48 54 -38 76 -72 92 -134 13 -56 15 -327 17 -2348 1 -1257 -1
-2314 -5 -2349 -7 -62 -9 -66 -68 -121 -41 -39 -72 -59 -97 -64 -52 -10 -232
-25 -301 -26 -77 0 -131 -16 -161 -45 -27 -27 -31 -66 -10 -84 11 -9 318 -13
1283 -13 1129 -1 1278 1 1358 15 216 39 265 47 355 56 70 7 116 19 177 44 46
20 106 38 135 42 56 8 153 39 173 55 7 6 38 19 69 30 32 11 70 30 86 43 15 13
52 32 81 41 30 10 70 31 89 46 20 16 48 32 61 35 14 4 50 26 80 51 30 24 57
44 61 44 4 0 30 20 58 45 28 25 55 45 59 45 11 0 321 308 321 318 0 5 34 51
76 103 42 52 87 117 100 145 13 28 33 59 43 68 10 9 31 45 46 79 16 34 36 73
46 86 11 13 24 42 30 65 6 22 26 73 45 111 18 39 39 96 45 128 6 33 24 93 40
134 21 52 33 105 40 172 5 53 21 148 35 211 45 203 50 632 10 834 -9 44 -23
138 -32 210 -10 82 -26 155 -41 196 -14 36 -35 111 -47 167 -14 65 -32 116
-48 140 -15 21 -33 61 -41 88 -8 28 -31 80 -51 116 -20 36 -36 73 -36 81 0 9
-16 40 -36 69 -20 30 -47 74 -61 99 -56 104 -142 217 -282 373 -63 70 -118
127 -122 127 -3 0 -33 24 -66 53 -102 89 -150 128 -196 157 -25 15 -47 33 -51
38 -3 6 -19 13 -36 17 -16 3 -55 23 -87 44 -32 20 -80 45 -108 55 -27 11 -68
29 -90 42 -23 13 -70 30 -105 38 -36 8 -95 26 -133 40 -41 16 -116 32 -194 41
-69 9 -151 23 -182 31 -113 29 -503 61 -901 73 -129 4 -547 8 -929 9 -381 2
-752 7 -825 12 -183 13 -197 12 -233 -9z m2367 -189 c41 -6 131 -19 199 -27
76 -10 146 -25 180 -40 31 -13 74 -26 96 -31 22 -4 67 -20 100 -36 33 -17 88
-38 121 -47 34 -10 75 -28 90 -40 29 -22 79 -57 184 -127 114 -77 190 -152
319 -317 24 -31 54 -78 66 -105 13 -27 27 -52 33 -56 5 -3 20 -34 32 -68 13
-35 34 -76 47 -91 12 -15 32 -58 43 -94 11 -37 24 -71 29 -77 14 -19 39 -107
56 -201 9 -49 24 -106 32 -125 32 -75 42 -128 48 -244 4 -67 16 -188 28 -271
18 -128 21 -197 21 -470 0 -273 -4 -341 -21 -460 -12 -77 -24 -201 -28 -275
-5 -115 -11 -150 -40 -235 -18 -55 -38 -131 -45 -170 -7 -38 -26 -101 -41
-140 -15 -38 -34 -95 -43 -125 -8 -30 -27 -71 -41 -89 -14 -19 -34 -60 -46
-90 -11 -31 -29 -65 -39 -76 -10 -11 -26 -40 -36 -65 -46 -120 -322 -423 -440
-483 -17 -9 -36 -23 -43 -31 -8 -9 -39 -30 -70 -47 -31 -18 -65 -40 -76 -49
-11 -10 -47 -25 -80 -35 -33 -9 -80 -30 -103 -45 -24 -16 -69 -34 -100 -40
-32 -6 -111 -26 -177 -43 l-120 -32 -330 -3 c-389 -4 -536 9 -675 59 -96 35
-133 67 -150 128 -7 28 -10 721 -8 2338 3 2121 4 2300 20 2328 9 17 38 51 66
77 47 45 52 46 128 53 43 4 113 13 154 20 91 17 544 14 660 -3z"/>
<path d="M4209 5846 c-2 -2 -422 -9 -932 -15 -687 -9 -1190 -9 -1938 0 -556 6
-1021 8 -1034 5 -38 -10 -45 -36 -51 -183 -5 -147 -25 -410 -49 -638 -25 -245
-37 -444 -30 -492 8 -57 50 -103 93 -103 54 0 65 28 106 260 48 272 105 457
172 550 17 25 41 63 52 86 37 74 272 264 327 264 12 0 52 11 88 24 82 32 363
56 639 56 192 0 239 -8 249 -42 2 -7 2 -1093 -1 -2413 l-5 -2400 -22 -59 c-23
-64 -31 -71 -108 -99 -102 -37 -152 -47 -245 -47 -220 0 -335 -46 -248 -100
33 -20 41 -20 738 -14 486 5 788 3 973 -5 255 -12 270 -11 300 6 43 26 48 65
11 90 -22 14 -60 19 -193 25 -176 8 -240 22 -326 73 -40 23 -44 30 -78 133
l-37 109 0 2349 c0 1292 4 2354 8 2360 22 34 71 43 297 55 199 10 244 9 364
-5 199 -24 249 -35 320 -67 35 -16 69 -29 76 -29 18 0 153 -93 200 -138 58
-55 110 -122 135 -173 12 -24 26 -51 31 -59 23 -36 59 -122 59 -140 0 -11 13
-56 30 -101 31 -85 45 -175 56 -341 5 -87 9 -102 42 -159 21 -35 49 -70 64
-78 24 -14 30 -14 63 2 57 27 60 46 36 198 -12 74 -27 213 -32 309 -5 96 -16
245 -24 330 -23 237 -35 389 -36 455 -1 78 -14 120 -46 145 -22 17 -82 28 -94
16z"/>
<path d="M12370 5839 c-129 -6 -537 -7 -907 -4 -670 6 -672 6 -692 -14 -61
-61 15 -100 193 -101 91 0 313 -57 347 -89 28 -26 29 -28 39 -201 14 -215 7
-4479 -7 -4615 -5 -49 -14 -100 -21 -111 -21 -38 -195 -94 -293 -94 -87 0
-232 -20 -256 -36 -31 -20 -30 -59 3 -80 23 -16 50 -16 302 -8 348 11 1301 8
1447 -5 122 -11 192 -2 220 29 23 26 11 57 -28 69 -18 5 -89 15 -159 20 -69 6
-152 18 -185 27 -32 9 -83 22 -113 30 -64 16 -82 34 -107 112 -17 54 -18 166
-18 2392 0 2258 1 2337 19 2395 10 33 27 70 38 82 30 33 139 61 304 78 194 20
238 32 242 67 3 21 -3 30 -26 42 -44 23 -84 25 -342 15z"/>
<path d="M5074 5834 c-32 -7 -57 -39 -49 -62 9 -29 55 -42 190 -52 217 -17
324 -40 358 -78 9 -9 23 -48 31 -85 14 -61 16 -313 16 -2410 0 -2451 0 -2413
-40 -2462 -24 -29 -171 -64 -315 -76 -166 -13 -230 -33 -230 -69 0 -18 9 -29
31 -41 27 -13 139 -15 951 -14 861 1 922 2 947 19 19 12 26 24 24 39 -4 30
-55 45 -208 63 -148 16 -306 56 -333 82 -20 21 -30 55 -52 182 -12 71 -15 279
-15 1233 -1 856 2 1152 11 1163 6 7 28 18 48 24 23 6 426 10 1139 10 1089 0
1102 0 1122 -20 11 -11 20 -26 20 -32 0 -7 0 -575 0 -1262 -1 -1432 10 -1288
-100 -1344 -56 -28 -81 -34 -180 -42 -63 -5 -149 -13 -190 -16 -112 -9 -150
-44 -99 -90 19 -17 36 -19 163 -17 77 2 497 4 932 5 763 3 793 4 813 22 27 24
27 48 0 72 -18 16 -43 20 -173 25 -153 6 -246 23 -316 59 -51 26 -69 50 -80
111 -7 36 -9 871 -8 2436 3 2377 3 2382 23 2409 12 15 44 40 72 56 47 26 65
30 195 39 79 5 174 15 213 22 62 11 71 15 79 40 8 21 6 31 -7 44 -15 16 -85
17 -914 15 -494 0 -917 -1 -939 -2 -56 0 -89 -27 -80 -63 11 -44 51 -57 173
-57 59 -1 126 -5 148 -9 22 -5 67 -14 100 -21 80 -16 118 -46 147 -117 l23
-58 0 -997 c0 -893 -2 -999 -16 -1013 -14 -14 -130 -16 -1131 -16 -821 1
-1123 4 -1141 12 -14 6 -31 23 -37 38 -7 19 -10 309 -8 986 3 903 4 964 22
1030 10 39 28 80 41 93 29 31 126 51 296 62 106 6 146 13 177 29 47 24 62 55
38 80 -15 15 -88 16 -799 16 -430 0 -845 3 -922 7 -77 4 -150 5 -161 2z"/>
<path d="M16620 5833 c-23 -9 -50 -35 -50 -49 0 -25 42 -52 98 -63 31 -6 145
-13 252 -17 175 -6 201 -9 258 -32 34 -13 69 -34 77 -45 13 -19 15 -254 15
-1842 0 -1490 -2 -1824 -13 -1839 -22 -30 -50 -15 -82 45 -16 30 -40 69 -52
86 -13 17 -23 35 -23 40 0 4 -10 19 -21 33 -23 28 -99 138 -144 210 -70 110
-129 196 -140 205 -7 6 -22 28 -34 50 -25 46 -98 156 -135 201 -14 17 -30 42
-35 55 -5 13 -23 42 -41 64 -18 22 -39 54 -47 70 -9 17 -25 40 -36 53 -12 12
-33 42 -47 66 -41 71 -118 183 -129 191 -6 3 -23 27 -36 53 -24 45 -54 91
-130 197 -19 28 -63 93 -97 145 -33 52 -74 110 -89 128 -16 18 -29 39 -29 47
0 8 -13 29 -28 47 -16 18 -41 54 -56 80 -15 25 -34 52 -42 59 -9 7 -27 33 -40
58 -27 50 -80 130 -116 175 -13 16 -36 50 -53 77 -54 85 -89 138 -130 194 -22
29 -58 84 -80 120 -22 36 -58 89 -80 118 -22 28 -49 68 -60 88 -18 32 -66 104
-138 205 -12 18 -30 45 -40 60 -23 38 -85 131 -120 180 -65 91 -98 140 -106
159 -5 11 -28 46 -52 77 -24 32 -62 88 -84 124 -22 36 -49 77 -61 91 l-20 25
-715 3 c-764 3 -759 3 -759 -46 0 -28 43 -64 93 -78 23 -6 105 -16 182 -22
187 -13 274 -24 309 -38 34 -14 155 -117 164 -140 4 -9 23 -43 42 -76 34 -59
46 -104 92 -330 l23 -110 0 -2065 0 -2065 -22 -68 c-12 -37 -27 -76 -33 -87
-33 -61 -142 -85 -445 -100 -110 -5 -202 -14 -218 -21 -56 -25 -39 -79 32 -99
55 -15 403 -12 607 6 167 14 208 14 463 0 153 -9 313 -16 356 -16 77 0 160 15
183 33 20 16 15 65 -10 78 -12 7 -109 15 -232 20 -317 14 -417 41 -460 124
l-21 40 -5 2095 c-3 1152 -1 2110 3 2128 11 43 42 43 65 1 9 -17 32 -49 50
-71 17 -22 32 -43 32 -48 0 -4 23 -38 50 -75 28 -37 50 -71 50 -76 0 -9 90
-144 133 -200 15 -20 27 -41 27 -47 0 -6 15 -30 33 -54 18 -24 43 -61 57 -83
13 -22 36 -55 52 -73 15 -18 28 -38 28 -45 0 -7 21 -42 48 -79 47 -65 64 -92
112 -174 14 -23 39 -60 56 -81 17 -21 39 -54 49 -73 10 -19 27 -46 37 -60 25
-33 97 -142 128 -195 14 -24 32 -51 41 -62 9 -10 26 -36 38 -58 13 -22 36 -58
52 -80 43 -59 119 -174 119 -180 0 -3 21 -34 48 -69 26 -35 55 -76 64 -92 48
-78 80 -128 115 -172 21 -27 46 -62 55 -78 10 -16 34 -54 55 -85 21 -31 52
-79 70 -105 18 -27 45 -67 61 -89 16 -22 35 -51 42 -65 7 -13 29 -45 49 -71
20 -26 44 -59 54 -75 30 -49 89 -138 152 -228 33 -47 67 -99 76 -115 8 -15 29
-46 45 -67 17 -21 43 -60 60 -86 16 -27 32 -48 36 -48 4 0 16 -17 27 -38 25
-48 107 -170 134 -200 12 -12 33 -42 47 -66 41 -70 101 -158 137 -200 18 -22
33 -44 33 -50 0 -6 16 -31 35 -55 19 -24 35 -48 35 -52 0 -5 20 -33 44 -63 25
-29 54 -71 66 -92 24 -45 52 -87 109 -164 23 -30 72 -102 110 -160 38 -58 85
-123 103 -144 29 -33 38 -38 61 -32 15 3 35 18 44 33 17 26 18 164 23 2593 5
2542 5 2565 25 2599 11 19 33 43 48 55 28 20 38 21 267 18 255 -3 285 1 310
47 16 30 12 40 -22 61 -32 19 -54 20 -753 19 -396 0 -727 -3 -735 -6z"/>
<path d="M18637 3182 c-15 -16 -17 -50 -17 -275 0 -244 1 -258 20 -277 20 -20
33 -20 1503 -20 1326 0 1485 2 1505 16 22 15 22 18 22 278 0 242 -1 264 -18
279 -17 16 -136 17 -1509 17 -1431 0 -1491 -1 -1506 -18z"/>
</g>
</svg>
