<?xml version="1.0" encoding="UTF-8"?>
<!DOCTYPE svg PUBLIC "-//W3C//DTD SVG 1.1//EN" "http://www.w3.org/Graphics/SVG/1.1/DTD/svg11.dtd">
<svg xmlns="http://www.w3.org/2000/svg" version="1.1" width="1600px" height="369px" style="shape-rendering:geometricPrecision; text-rendering:geometricPrecision; image-rendering:optimizeQuality; fill-rule:evenodd; clip-rule:evenodd" xmlns:xlink="http://www.w3.org/1999/xlink">
<g><path style="opacity:1" fill="#FFFFFF" d="M 1401.5,-0.5 C 1404.5,-0.5 1407.5,-0.5 1410.5,-0.5C 1363.31,90.052 1315.97,180.552 1268.5,271C 1274.76,294.261 1289.43,309.261 1312.5,316C 1325.66,315.838 1336.49,310.671 1345,300.5C 1360.29,280.469 1368.12,257.803 1368.5,232.5C 1379.38,235.068 1389.71,238.902 1399.5,244C 1395.66,271.208 1386.49,296.374 1372,319.5C 1353.41,343.033 1329.25,351.533 1299.5,345C 1277.95,344.138 1259.45,336.305 1244,321.5C 1236.83,331.333 1229.67,341.167 1222.5,351C 1212.62,356.106 1202.62,360.939 1192.5,365.5C 1192.17,365.167 1191.83,364.833 1191.5,364.5C 1201.64,343.712 1211.64,322.879 1221.5,302C 1183.43,236.446 1176.26,167.612 1200,95.5C 1210.63,64.7035 1229.13,39.8702 1255.5,21C 1278.72,6.74089 1303.72,2.07422 1330.5,7C 1340.44,10.2023 1350.44,13.2023 1360.5,16C 1370.99,18.9594 1380.66,17.2927 1389.5,11C 1394,7.66419 1398,3.83085 1401.5,-0.5 Z M 1307.5,30.5 C 1323.36,29.8514 1333.53,37.1848 1338,52.5C 1339.91,61.8869 1339.57,71.2203 1337,80.5C 1332.02,99.4412 1324.69,117.441 1315,134.5C 1303.73,154.096 1292.06,173.429 1280,192.5C 1273.16,204.184 1266.82,216.184 1261,228.5C 1258.92,222.397 1257.59,216.063 1257,209.5C 1252.73,172.237 1254.4,135.237 1262,98.5C 1265.69,79.7493 1272.69,62.416 1283,46.5C 1289.52,38.4462 1297.69,33.1128 1307.5,30.5 Z"/></g>
<g><path style="opacity:1" fill="#FFFFFF" d="M 693.5,2.5 C 696.673,3.16972 699.673,4.33639 702.5,6C 721.158,20.3242 736.658,37.4908 749,57.5C 765.9,39.3559 782.567,21.0226 799,2.5C 859.83,54.9788 882.496,120.979 867,200.5C 859.448,234.821 849.281,268.321 836.5,301C 852.677,303.791 868.511,302.624 884,297.5C 885.174,301.046 885.84,304.713 886,308.5C 886.667,317.167 886.667,325.833 886,334.5C 884.475,335.72 882.641,336.387 880.5,336.5C 854.051,335.517 827.718,335.184 801.5,335.5C 812.342,301.792 819.008,267.292 821.5,232C 819.381,189.395 809.881,148.562 793,109.5C 787.556,97.7225 779.056,88.8892 767.5,83C 765.167,82.3333 762.833,82.3333 760.5,83C 756.833,85.5 753.167,88 749.5,90.5C 748.833,172.167 748.167,253.833 747.5,335.5C 725.036,346.068 702.369,356.068 679.5,365.5C 680.332,273.834 680.498,182.168 680,90.5C 678.562,81.4559 674.396,73.9559 667.5,68C 662.349,65.0952 657.015,64.7619 651.5,67C 642.1,71.7322 634.6,78.5656 629,87.5C 628.866,170.175 628.033,252.842 626.5,335.5C 606.045,346.062 585.378,356.062 564.5,365.5C 564.667,256.833 564.5,148.166 564,39.5C 561.852,29.3741 557.686,20.2075 551.5,12C 576.831,11.5 602.164,11.3334 627.5,11.5C 627.167,26.8478 627.501,42.1811 628.5,57.5C 650.423,39.386 672.09,21.0527 693.5,2.5 Z"/></g>
<g><path style="opacity:1" fill="#FFFFFF" d="M 1096.5,2.5 C 1098.53,2.33788 1100.53,2.50454 1102.5,3C 1126.14,19.4617 1148.14,37.9617 1168.5,58.5C 1158.27,74.2991 1146.6,88.9657 1133.5,102.5C 1113.85,84.0156 1094.35,65.3489 1075,46.5C 1062.67,54.1514 1058.67,64.8181 1063,78.5C 1070.68,90.1836 1079.84,100.684 1090.5,110C 1113.95,129.12 1135.79,149.953 1156,172.5C 1169.13,187.929 1176.63,205.762 1178.5,226C 1177.65,238.207 1173.82,249.374 1167,259.5C 1156.36,275.151 1143.86,289.317 1129.5,302C 1112.37,316.797 1095.53,331.963 1079,347.5C 1052.29,325.786 1025.29,304.452 998,283.5C 997.333,282.5 997.333,281.5 998,280.5C 1010.92,262.407 1024.42,244.74 1038.5,227.5C 1061.83,246.5 1085.17,265.5 1108.5,284.5C 1120.55,277.726 1125.72,267.393 1124,253.5C 1120.28,243.796 1114.95,235.129 1108,227.5C 1086.36,205.526 1064.36,183.859 1042,162.5C 1034.67,153.833 1027.33,145.167 1020,136.5C 1013.42,127.337 1008.42,117.337 1005,106.5C 1001.99,94.2675 1003.32,82.6008 1009,71.5C 1013.47,66.0319 1018.3,60.8653 1023.5,56C 1046.89,36.7582 1071.23,18.9248 1096.5,2.5 Z"/></g>
<g><path style="opacity:1" fill="#FFFFFF" d="M -0.5,89.5 C -0.5,87.1667 -0.5,84.8333 -0.5,82.5C 24.9618,22.5831 70.2952,-2.91689 135.5,6C 158.856,10.3449 179.19,20.5115 196.5,36.5C 197.583,37.365 197.749,38.365 197,39.5C 187.209,56.251 177.043,72.751 166.5,89C 163.5,89.6667 160.5,89.6667 157.5,89C 146.348,77.6697 133.182,69.503 118,64.5C 116.395,65.1007 115.062,66.1007 114,67.5C 104.296,82.5929 97.2959,98.9262 93,116.5C 81.4342,163.095 79.4342,210.095 87,257.5C 90.249,274.657 97.249,289.99 108,303.5C 120.853,315.448 136.02,319.948 153.5,317C 166.537,314.065 177.037,307.232 185,296.5C 190.917,287.669 196.583,278.669 202,269.5C 203.444,267.845 205.278,267.178 207.5,267.5C 207.779,299.494 196.445,326.66 173.5,349C 153.82,364.504 131.486,370.171 106.5,366C 64.6408,359.327 35.4741,336.493 19,297.5C 10.0381,272.842 7.37145,247.509 11,221.5C 18.9213,166.354 39.9213,117.02 74,73.5C 79.2392,67.5901 85.0725,62.4234 91.5,58C 68.4417,56.8474 46.775,61.8474 26.5,73C 17.4443,78.5223 8.44426,84.0223 -0.5,89.5 Z"/></g>
<g><path style="opacity:1" fill="#FFFFFF" d="M 263.5,8.5 C 273.172,8.33353 282.839,8.5002 292.5,9C 317.402,12.9622 342.402,16.1289 367.5,18.5C 380.767,17.5796 393.767,15.2463 406.5,11.5C 406.789,17.2449 406.289,22.9116 405,28.5C 399.726,43.6555 394.06,58.6555 388,73.5C 373.484,105.533 358.15,137.2 342,168.5C 321.423,202.654 303.757,238.321 289,275.5C 285.968,284.46 283.802,293.626 282.5,303C 282.585,304.107 282.919,305.107 283.5,306C 311.831,313.608 338.498,309.942 363.5,295C 370.98,288.877 374.147,281.044 373,271.5C 372.127,265.752 370.127,260.419 367,255.5C 362.729,249.392 357.896,243.726 352.5,238.5C 367.456,226.023 383.123,214.523 399.5,204C 405.951,202.972 411.118,205.139 415,210.5C 424.622,223.413 431.289,237.747 435,253.5C 435.279,267.382 431.946,280.382 425,292.5C 421.597,297.726 418.43,303.06 415.5,308.5C 419.5,315.5 423.5,322.5 427.5,329.5C 426.119,336.764 422.786,342.93 417.5,348C 414.002,349.967 410.668,349.633 407.5,347C 403.186,343.176 398.519,339.843 393.5,337C 330.168,336.5 266.834,336.333 203.5,336.5C 202.862,325.858 204.362,315.524 208,305.5C 229.984,238.205 259.984,174.872 298,115.5C 308.624,96.9186 317.624,77.5853 325,57.5C 327.426,50.7478 328.259,43.9145 327.5,37C 315.743,33.3731 303.743,31.7065 291.5,32C 272.77,39.6329 266.603,53.1329 273,72.5C 275.422,77.3433 277.755,82.0099 280,86.5C 265.837,98.3081 250.337,108.141 233.5,116C 230.923,117.25 228.257,117.584 225.5,117C 206.918,96.6002 201.084,73.1002 208,46.5C 215.298,30.7588 227.132,19.9254 243.5,14C 250.142,11.581 256.809,9.7477 263.5,8.5 Z"/></g>
<g><path style="opacity:1" fill="#FFFFFF" d="M 434.5,10.5 C 468.833,10.5 503.167,10.5 537.5,10.5C 537.829,16.5368 537.496,22.5368 536.5,28.5C 530.555,29.8539 524.722,31.5205 519,33.5C 518.667,134.5 518.333,235.5 518,336.5C 497.444,346.848 476.611,356.514 455.5,365.5C 455.833,255.165 455.5,144.831 454.5,34.5C 452.473,32.661 450.14,32.161 447.5,33C 440.902,38.9911 433.568,40.3244 425.5,37C 420.095,32.5677 418.929,27.401 422,21.5C 425.716,17.2815 429.883,13.6149 434.5,10.5 Z"/></g>
<g><path style="opacity:1" fill="#FFFFFF" d="M 870.5,10.5 C 913.5,10.5 956.5,10.5 999.5,10.5C 999.829,16.5368 999.496,22.5368 998.5,28.5C 992.582,30.2169 986.582,31.5502 980.5,32.5C 980.667,133.834 980.5,235.167 980,336.5C 959.33,346.586 938.496,356.253 917.5,365.5C 917.667,255.499 917.5,145.499 917,35.5C 916.167,34.6667 915.333,33.8333 914.5,33C 904.167,32.3333 893.833,32.3333 883.5,33C 875.574,40.5499 867.407,41.0499 859,34.5C 856.755,31.1191 856.088,27.4525 857,23.5C 860.736,18.2624 865.236,13.929 870.5,10.5 Z"/></g>
<g><path style="opacity:1" fill="#FFFFFF" d="M 1497.5,11.5 C 1529.5,11.5 1561.5,11.5 1593.5,11.5C 1593.4,27.179 1593.73,42.8457 1594.5,58.5C 1593.45,58.6495 1592.45,58.4828 1591.5,58C 1569.07,37.6296 1543.07,30.2963 1513.5,36C 1504.05,40.4452 1496.89,47.2785 1492,56.5C 1484.96,71.7149 1480.96,87.7149 1480,104.5C 1478.89,118.512 1478.73,132.512 1479.5,146.5C 1514.17,146.167 1548.84,146.5 1583.5,147.5C 1575.43,168.872 1567.26,190.206 1559,211.5C 1557.39,202.346 1554.39,193.68 1550,185.5C 1548.06,182.894 1545.56,181.061 1542.5,180C 1521.17,179.5 1499.84,179.333 1478.5,179.5C 1477.9,204.227 1478.73,228.894 1481,253.5C 1482.76,272.156 1490.26,287.989 1503.5,301C 1524.37,313.609 1545.37,313.609 1566.5,301C 1577.56,293.937 1588.06,286.103 1598,277.5C 1598.5,297.164 1598.67,316.831 1598.5,336.5C 1572.17,337.47 1545.84,337.636 1519.5,337C 1454.54,331.878 1416.87,297.045 1406.5,232.5C 1397.91,182.157 1401.74,132.824 1418,84.5C 1424.88,65.3154 1435.38,48.482 1449.5,34C 1463.16,21.3971 1479.16,13.8971 1497.5,11.5 Z"/></g>
</svg>
