<?xml version="1.0" encoding="UTF-8"?>
<!DOCTYPE svg PUBLIC "-//W3C//DTD SVG 1.1//EN" "http://www.w3.org/Graphics/SVG/1.1/DTD/svg11.dtd">
<svg xmlns="http://www.w3.org/2000/svg" version="1.1" width="4117px" height="2100px" style="shape-rendering:geometricPrecision; text-rendering:geometricPrecision; image-rendering:optimizeQuality; fill-rule:evenodd; clip-rule:evenodd" xmlns:xlink="http://www.w3.org/1999/xlink">
<g><path style="opacity:0.985" fill="#FFFFFF" d="M 777.5,27.5 C 779.511,29.667 780.678,32.3337 781,35.5C 786.591,68.8811 779.925,99.5478 761,127.5C 758.203,131.299 755.036,134.799 751.5,138C 688.5,193.667 625.5,249.333 562.5,305C 433.833,305.333 305.167,305.667 176.5,306C 143.36,313.47 122.194,333.637 113,366.5C 111.039,375.827 111.039,385.161 113,394.5C 121.763,436.898 143.263,471.064 177.5,497C 206.748,514.584 238.081,519.75 271.5,512.5C 271.833,512.833 272.167,513.167 272.5,513.5C 250.169,530.007 226.503,544.507 201.5,557C 177.81,568.738 152.81,573.405 126.5,571C 90.7097,564.699 67.543,544.199 57,509.5C 43.9734,453.976 53.3067,402.643 85,355.5C 153.078,271.418 221.912,187.918 291.5,105C 292.908,104.685 294.241,105.018 295.5,106C 318.867,123.346 345.201,132.346 374.5,133C 478.5,133.667 582.5,133.667 686.5,133C 728.038,122.466 756.872,97.2994 773,57.5C 776.343,47.7753 777.843,37.7753 777.5,27.5 Z"/></g>
<g><path style="opacity:0.991" fill="#FFFFFF" d="M 823.5,136.5 C 880.547,164.184 935.88,194.684 989.5,228C 1035.91,259.731 1072.41,300.231 1099,349.5C 1107.79,368.214 1113.13,387.881 1115,408.5C 1115.67,482.833 1115.67,557.167 1115,631.5C 1113.33,649.849 1107.66,666.849 1098,682.5C 1085.73,700.779 1071.23,717.279 1054.5,732C 998.703,780.401 937.036,820.068 869.5,851C 861.035,854.565 852.369,857.565 843.5,860C 934.499,860.5 1025.5,860.667 1116.5,860.5C 1119.54,973.802 1121.87,1087.14 1123.5,1200.5C 1126.78,1271.36 1110.62,1337.36 1075,1398.5C 1065.16,1414.18 1054.83,1429.51 1044,1444.5C 1014.09,1482.94 982.761,1520.28 950,1556.5C 886.849,1623.85 810.016,1668.18 719.5,1689.5C 604.869,1595.13 473.203,1554.3 324.5,1567C 274.165,1572.77 228.165,1589.77 186.5,1618C 119.619,1669.33 100.452,1734.83 129,1814.5C 144.445,1849.08 165.112,1880.08 191,1907.5C 193.077,1912.15 193.411,1916.82 192,1921.5C 190.537,1923.89 188.371,1924.89 185.5,1924.5C 179.704,1923.6 174.704,1921.1 170.5,1917C 114.918,1858.98 84.9176,1789.64 80.5,1709C 81.1908,1657.49 97.0241,1611.32 128,1570.5C 164.056,1526.43 207.222,1491.26 257.5,1465C 370.693,1404.69 490.693,1385.02 617.5,1406C 648.377,1410.47 678.71,1417.3 708.5,1426.5C 709.5,1248.5 709.833,1070.5 709.5,892.5C 692.833,892.5 676.167,892.5 659.5,892.5C 659.667,970.834 659.5,1049.17 659,1127.5C 657.221,1156.4 648.554,1183.06 633,1207.5C 582.67,1281.17 517.503,1337.67 437.5,1377C 436.365,1377.75 435.365,1377.58 434.5,1376.5C 452.527,1346.73 461.693,1314.4 462,1279.5C 462.5,1179.5 462.667,1079.5 462.5,979.5C 408.485,979.078 354.485,979.578 300.5,981C 274.357,983.434 250.691,992.267 229.5,1007.5C 226.977,976.563 228.81,945.897 235,915.5C 242.101,884.397 260.601,863.231 290.5,852C 302.487,847.587 314.821,844.587 327.5,843C 372.478,841.553 417.478,841.053 462.5,841.5C 462.5,825.833 462.5,810.167 462.5,794.5C 408.499,794.333 354.499,794.5 300.5,795C 274.499,797.831 250.832,806.664 229.5,821.5C 227.238,792.295 228.738,763.295 234,734.5C 241.189,697.309 263.022,673.476 299.5,663C 309.035,660.36 318.702,658.36 328.5,657C 373.144,655.554 417.811,655.054 462.5,655.5C 462.667,622.165 462.5,588.832 462,555.5C 461.831,533.316 456.831,512.316 447,492.5C 443.816,487.47 440.149,482.804 436,478.5C 435.333,477.5 435.333,476.5 436,475.5C 565.145,362.365 694.312,249.365 823.5,136.5 Z M 699.5,302.5 C 702.836,302.467 706.003,303.134 709,304.5C 709.5,488.833 709.667,673.166 709.5,857.5C 692.833,857.5 676.167,857.5 659.5,857.5C 659.333,686.166 659.5,514.833 660,343.5C 660.601,340.363 661.601,337.363 663,334.5C 672.545,324.655 682.378,315.155 692.5,306C 694.925,304.787 697.259,303.621 699.5,302.5 Z M 735.5,319.5 C 741.264,322.748 746.931,326.248 752.5,330C 793.676,359.088 834.676,388.421 875.5,418C 893.483,432.8 904.649,451.633 909,474.5C 910.136,505.808 910.636,537.141 910.5,568.5C 922.054,649.613 903.888,722.946 856,788.5C 844.103,805.119 830.269,819.952 814.5,833C 790.583,848.693 764.25,856.859 735.5,857.5C 735.5,678.167 735.5,498.833 735.5,319.5 Z M 735.5,892.5 C 774.835,892.333 814.168,892.5 853.5,893C 868.461,893.486 882.128,897.819 894.5,906C 899.956,911.41 903.456,917.91 905,925.5C 906.658,1084.14 906.991,1242.8 906,1401.5C 905.659,1438.92 901.659,1475.92 894,1512.5C 892.647,1517.4 890.814,1522.06 888.5,1526.5C 843.478,1486.89 792.645,1456.55 736,1435.5C 735.5,1254.5 735.333,1073.5 735.5,892.5 Z"/></g>
<g><path style="opacity:0.994" fill="#FFFFFF" d="M 3448.5,257.5 C 3509.41,283.622 3570.08,310.289 3630.5,337.5C 3612.73,357.296 3603.9,380.629 3604,407.5C 3603.33,501.833 3603.33,596.167 3604,690.5C 3604.85,699.053 3608.01,706.553 3613.5,713C 3619.79,717.657 3626.13,717.657 3632.5,713C 3664.09,686.741 3692.26,657.241 3717,624.5C 3723.35,617.985 3729.85,611.652 3736.5,605.5C 3812.74,642.788 3889.08,679.788 3965.5,716.5C 3947.31,736.893 3938.48,760.893 3939,788.5C 3938.33,1007.17 3938.33,1225.83 3939,1444.5C 3944.99,1474.5 3962.49,1494.67 3991.5,1505C 4003.79,1509.46 4016.45,1512.12 4029.5,1513C 4040.91,1513.38 4052.24,1513.55 4063.5,1513.5C 4037.43,1544.74 4009.76,1574.57 3980.5,1603C 3966.38,1615.57 3950.71,1625.9 3933.5,1634C 3913.91,1642.04 3893.58,1644.71 3872.5,1642C 3820.55,1634.24 3771.38,1618.07 3725,1593.5C 3725.04,1591.72 3725.71,1590.05 3727,1588.5C 3740.2,1575.1 3751.2,1560.1 3760,1543.5C 3765.49,1530.37 3768.83,1516.7 3770,1502.5C 3771.15,1394.18 3771.65,1285.84 3771.5,1177.5C 3771.65,1071.48 3771.15,965.483 3770,859.5C 3768.55,844.764 3762.05,832.931 3750.5,824C 3719.75,804.289 3687.75,786.622 3654.5,771C 3632.77,759.683 3617.27,765.183 3608,787.5C 3606.03,793.361 3604.7,799.361 3604,805.5C 3603.33,1073.17 3603.33,1340.83 3604,1608.5C 3608.62,1633.22 3622.12,1651.39 3644.5,1663C 3656.87,1669.01 3669.87,1673.01 3683.5,1675C 3698.74,1676.38 3713.74,1676.88 3728.5,1676.5C 3714.52,1692.98 3700.35,1709.31 3686,1725.5C 3667.69,1746.48 3647.53,1765.31 3625.5,1782C 3592.07,1805.62 3555.4,1812.28 3515.5,1802C 3471.52,1792.56 3429.69,1777.4 3390,1756.5C 3389.33,1755.83 3389.33,1755.17 3390,1754.5C 3403.6,1739.9 3415.27,1723.9 3425,1706.5C 3432.65,1686.91 3436.32,1666.58 3436,1645.5C 3436.67,1609.83 3436.67,1574.17 3436,1538.5C 3409.46,1576.04 3377.29,1607.88 3339.5,1634C 3310.49,1650.97 3279.82,1654.64 3247.5,1645C 3218.97,1635.74 3191.64,1623.74 3165.5,1609C 3136.4,1592.7 3107.23,1576.53 3078,1560.5C 3050.89,1584.95 3022.05,1607.12 2991.5,1627C 2973.24,1638.46 2953.9,1647.8 2933.5,1655C 2907.67,1661.46 2882,1660.79 2856.5,1653C 2843.68,1648.73 2831.01,1644.06 2818.5,1639C 2783.28,1623.22 2747.94,1607.72 2712.5,1592.5C 2729.38,1581.44 2741.55,1566.44 2749,1547.5C 2755.91,1530.43 2760.58,1512.76 2763,1494.5C 2764.65,1404.19 2764.98,1313.86 2764,1223.5C 2761.61,1199.78 2750.78,1180.95 2731.5,1167C 2720.83,1160 2709.83,1153.5 2698.5,1147.5C 2745.93,1138.41 2790.59,1121.91 2832.5,1098C 2893.7,1063.49 2947.86,1019.99 2995,967.5C 3005.05,955.118 3014.72,942.451 3024,929.5C 3026.14,932.939 3028.64,936.106 3031.5,939C 3055.94,956.887 3082.94,969.387 3112.5,976.5C 3113.08,928.137 3112.25,879.804 3110,831.5C 3104.98,796.308 3085.82,772.475 3052.5,760C 3031.69,752.569 3010.36,750.569 2988.5,754C 2938.84,759.749 2889.18,765.415 2839.5,771C 2874.62,789.117 2903.12,814.617 2925,847.5C 2950.06,895.144 2946.4,940.477 2914,983.5C 2889.52,1008.78 2859.52,1020.78 2824,1019.5C 2800.11,1019.27 2776.95,1015.1 2754.5,1007C 2782.87,1001.23 2805.71,986.729 2823,963.5C 2849.91,924.191 2858.91,881.191 2850,834.5C 2841.9,815.393 2829.06,800.226 2811.5,789C 2793.83,778.167 2776.17,767.333 2758.5,756.5C 2768.34,751.418 2777.67,745.584 2786.5,739C 2819.8,712.379 2851.3,683.545 2881,652.5C 2892.87,640.3 2904.37,627.8 2915.5,615C 2964.15,609.868 3012.82,604.868 3061.5,600C 3132.11,596.621 3187.94,623.454 3229,680.5C 3251.95,712.738 3266.95,748.404 3274,787.5C 3274.33,986.833 3274.67,1186.17 3275,1385.5C 3275.15,1403.71 3277.15,1421.71 3281,1439.5C 3283.79,1452.28 3289.96,1463.12 3299.5,1472C 3334.26,1496.21 3371.93,1514.88 3412.5,1528C 3420.37,1530.47 3428.37,1532.3 3436.5,1533.5C 3436.67,1436.17 3436.5,1338.83 3436,1241.5C 3436.71,1218.63 3430.04,1198.29 3416,1180.5C 3403.01,1166.84 3388.85,1154.67 3373.5,1144C 3392.53,1140.48 3409.86,1133.15 3425.5,1122C 3429.67,1119.17 3433.17,1115.67 3436,1111.5C 3436.99,901.152 3436.65,690.818 3435,480.5C 3432.26,455.169 3418.76,438.669 3394.5,431C 3365.44,420.981 3336.78,409.981 3308.5,398C 3355.37,351.299 3402.03,304.465 3448.5,257.5 Z M 2955.5,1079.5 C 2962.46,1080.21 2969.13,1082.04 2975.5,1085C 3014.5,1102.67 3053.5,1120.33 3092.5,1138C 3104.56,1146.63 3110.4,1158.46 3110,1173.5C 3110.17,1185.17 3110.33,1196.83 3110.5,1208.5C 3110.11,1298.52 3108.94,1388.52 3107,1478.5C 3104.34,1500.67 3093.5,1517.51 3074.5,1529C 3035.23,1519.8 2999.23,1503.47 2966.5,1480C 2956.02,1472.53 2948.86,1462.7 2945,1450.5C 2943.34,1331.53 2943.01,1212.53 2944,1093.5C 2944.82,1086.12 2948.65,1081.45 2955.5,1079.5 Z"/></g>
<g><path style="opacity:0.991" fill="#FFFFFF" d="M 1575.5,599.5 C 1576.87,599.343 1578.21,599.51 1579.5,600C 1635.34,628.875 1692.01,655.709 1749.5,680.5C 1720.17,721.15 1691.34,762.15 1663,803.5C 1653.45,817.931 1646.62,833.598 1642.5,850.5C 1599.67,826.253 1557,801.753 1514.5,777C 1503.8,769.655 1491.96,765.488 1479,764.5C 1460.39,765.122 1449.05,774.456 1445,792.5C 1444.33,1017.83 1444.33,1243.17 1445,1468.5C 1450.26,1492.42 1463.76,1509.92 1485.5,1521C 1498.17,1527.17 1511.5,1531.17 1525.5,1533C 1540.26,1534.38 1554.93,1534.88 1569.5,1534.5C 1544.15,1565.02 1517.15,1594.19 1488.5,1622C 1470.31,1639.17 1449.31,1651.83 1425.5,1660C 1415.47,1662.51 1405.3,1664.01 1395,1664.5C 1336.51,1658.56 1281.35,1641.73 1229.5,1614C 1241.42,1600.64 1252.26,1586.48 1262,1571.5C 1269.11,1558.38 1273.45,1544.38 1275,1529.5C 1276.64,1432.19 1276.98,1334.85 1276,1237.5C 1276.87,1215.45 1270.21,1196.12 1256,1179.5C 1243,1166.76 1229.17,1155.1 1214.5,1144.5C 1233.9,1140.47 1251.56,1132.63 1267.5,1121C 1270.33,1118.17 1273.17,1115.33 1276,1112.5C 1276.98,1026.47 1276.65,940.474 1275,854.5C 1271.8,835.247 1261.3,821.747 1243.5,814C 1211.88,802.517 1180.55,790.35 1149.5,777.5C 1195.65,730.847 1241.99,684.347 1288.5,638C 1293.03,638.415 1297.36,639.748 1301.5,642C 1357.74,666.705 1413.91,691.538 1470,716.5C 1505.74,677.928 1540.91,638.928 1575.5,599.5 Z"/></g>
<g><path style="opacity:0.992" fill="#FFFFFF" d="M 2125.5,619.5 C 2129.32,620.074 2132.99,621.241 2136.5,623C 2194.06,648.233 2251.4,673.733 2308.5,699.5C 2293.73,716.297 2285.9,735.964 2285,758.5C 2284.33,984.167 2284.33,1209.83 2285,1435.5C 2288.67,1462.67 2300.17,1485.84 2319.5,1505C 2264.07,1528.21 2210.41,1554.88 2158.5,1585C 2113.95,1613.79 2067.61,1639.79 2019.5,1663C 2003.36,1669.56 1986.7,1671.23 1969.5,1668C 1923.51,1656.34 1878.51,1641.67 1834.5,1624C 1802.68,1611.77 1773.35,1595.43 1746.5,1575C 1734.92,1565.43 1724.76,1554.59 1716,1542.5C 1691.74,1510.34 1670.74,1476 1653,1439.5C 1644.94,1422.5 1638.78,1404.83 1634.5,1386.5C 1635.55,1382.22 1636.38,1377.89 1637,1373.5C 1637.69,1370.73 1639.19,1370.07 1641.5,1371.5C 1649.87,1384.7 1658.03,1398.03 1666,1411.5C 1682.46,1436.96 1703.29,1458.12 1728.5,1475C 1737.16,1480.08 1746.33,1483.91 1756,1486.5C 1767.47,1477.8 1773.47,1466.14 1774,1451.5C 1775.13,1416.02 1775.63,1380.52 1775.5,1345C 1775.56,1303.16 1775.06,1261.32 1774,1219.5C 1771.49,1204.82 1765.49,1191.82 1756,1180.5C 1743.01,1166.84 1728.85,1154.67 1713.5,1144C 1736.71,1140.15 1756.87,1130.31 1774,1114.5C 1774.67,1039.83 1774.67,965.167 1774,890.5C 1768.68,854.499 1749.51,828.666 1716.5,813C 1781.61,793.443 1842.28,764.776 1898.5,727C 1920.21,711.372 1940.04,693.539 1958,673.5C 1946.53,720.383 1940.53,768.05 1940,816.5C 1939.33,1013.83 1939.33,1211.17 1940,1408.5C 1942.86,1449.74 1961.69,1481.24 1996.5,1503C 2021.69,1519.18 2049.19,1528.68 2079,1531.5C 2096.04,1532.15 2106.38,1524.15 2110,1507.5C 2112.23,1497.29 2113.57,1486.95 2114,1476.5C 2114.99,1264.48 2114.66,1052.48 2113,840.5C 2111.39,822.918 2103.22,809.418 2088.5,800C 2054.38,786.772 2020.38,773.272 1986.5,759.5C 2032.85,712.812 2079.19,666.146 2125.5,619.5 Z"/></g>
<g><path style="opacity:0.991" fill="#FFFFFF" d="M 2478.5,619.5 C 2539.7,645.102 2600.36,671.769 2660.5,699.5C 2645.31,716.889 2637.48,737.222 2637,760.5C 2636.33,1159.83 2636.33,1559.17 2637,1958.5C 2638.41,1974.72 2643.41,1989.72 2652,2003.5C 2658.69,2012.03 2665.19,2020.69 2671.5,2029.5C 2671.29,2030.09 2670.96,2030.59 2670.5,2031C 2645.1,2034.95 2619.77,2039.28 2594.5,2044C 2555.96,2052.3 2517.29,2059.97 2478.5,2067C 2453.6,2070.29 2428.6,2071.29 2403.5,2070C 2382.69,2066.59 2363.35,2059.26 2345.5,2048C 2309.86,2024.37 2276.52,1997.71 2245.5,1968C 2217.97,1940.81 2190.81,1913.31 2164,1885.5C 2131.94,1849.38 2111.61,1807.38 2103,1759.5C 2098.23,1730.65 2101.9,1702.99 2114,1676.5C 2131.34,1646.4 2157.5,1631.07 2192.5,1630.5C 2216.88,1631.46 2239.88,1637.63 2261.5,1649C 2292.52,1666.09 2321.35,1686.26 2348,1709.5C 2351.86,1713.42 2353.53,1718.08 2353,1723.5C 2352.5,1725.33 2351.33,1726.5 2349.5,1727C 2346.83,1727.67 2344.17,1727.67 2341.5,1727C 2299.09,1700.9 2253.09,1689.9 2203.5,1694C 2172.21,1699.62 2154.04,1718.12 2149,1749.5C 2142.32,1789.11 2151.98,1824.11 2178,1854.5C 2204.28,1883.75 2236.44,1903.59 2274.5,1914C 2323.35,1917.6 2371.02,1911.6 2417.5,1896C 2433.76,1891.79 2447.59,1883.63 2459,1871.5C 2465.95,1859.29 2468.79,1846.12 2467.5,1832C 2467,1629.82 2466.17,1427.66 2465,1225.5C 2463.64,1209.4 2457.97,1195.07 2448,1182.5C 2434.46,1168.15 2419.63,1155.32 2403.5,1144C 2427.71,1139.98 2448.55,1129.48 2466,1112.5C 2466.98,1021.48 2466.64,930.479 2465,839.5C 2462.51,817.676 2451.01,802.843 2430.5,795C 2399.36,784.09 2368.69,772.09 2338.5,759C 2385.67,712.993 2432.34,666.493 2478.5,619.5 Z"/></g>
</svg>
