<?xml version="1.0" encoding="UTF-8"?>
<!DOCTYPE svg PUBLIC "-//W3C//DTD SVG 1.1//EN" "http://www.w3.org/Graphics/SVG/1.1/DTD/svg11.dtd">
<svg xmlns="http://www.w3.org/2000/svg" version="1.1" width="4800px" height="1350px" style="shape-rendering:geometricPrecision; text-rendering:geometricPrecision; image-rendering:optimizeQuality; fill-rule:evenodd; clip-rule:evenodd" xmlns:xlink="http://www.w3.org/1999/xlink">
<g><path style="opacity:0.985" fill="#FFFFFF" d="M 362.5,859.5 C 364.366,858.986 366.2,858.32 368,857.5C 368.5,857.833 369,858.167 369.5,858.5C 372.74,863.386 374.907,868.719 376,874.5C 378.723,877.557 381.056,880.89 383,884.5C 393.53,874.824 404.697,865.99 416.5,858C 427.086,853.471 437.753,849.138 448.5,845C 450.504,839.667 453.337,834.834 457,830.5C 457.829,823.488 461.329,818.155 467.5,814.5C 470.035,807.588 474.702,802.755 481.5,800C 489.087,787.125 500.253,781.291 515,782.5C 518.252,777.666 521.252,772.666 524,767.5C 535.144,756.933 546.477,746.6 558,736.5C 563.833,729.333 569.667,722.167 575.5,715C 581.967,711.207 588.967,709.541 596.5,710C 600.239,706.383 604.072,702.883 608,699.5C 609.577,690.756 613.077,682.923 618.5,676C 625.605,670.233 633.605,666.233 642.5,664C 645.339,662.08 648.339,660.413 651.5,659C 654.034,653.129 658.034,648.462 663.5,645C 668.834,641.832 674.501,639.499 680.5,638C 686.608,625.895 694.275,614.895 703.5,605C 713.474,598.019 723.141,590.686 732.5,583C 752.078,577.148 771.245,572.315 790,568.5C 790.333,569.833 790.667,571.167 791,572.5C 796.041,577.709 801.208,582.709 806.5,587.5C 803.255,598.668 799.422,609.668 795,620.5C 792.132,633.842 788.632,647.009 784.5,660C 786.491,669.104 787.658,678.27 788,687.5C 786,692.167 784,696.833 782,701.5C 782.878,708.42 781.212,714.753 777,720.5C 776.043,724.956 774.71,729.289 773,733.5C 771.622,735.213 769.955,736.547 768,737.5C 767.163,740.365 766.33,743.198 765.5,746C 766.632,750.413 766.799,754.913 766,759.5C 765.667,759.833 765.333,760.167 765,760.5C 764.71,758.048 764.044,755.715 763,753.5C 761.247,761.449 760.747,769.449 761.5,777.5C 760.692,782.376 759.692,787.209 758.5,792C 759.022,792.95 759.689,793.784 760.5,794.5C 757.171,801.153 755.005,808.153 754,815.5C 753.07,818.362 751.403,820.695 749,822.5C 749.182,830.441 747.182,837.774 743,844.5C 742.054,853.574 739.721,862.24 736,870.5C 734.927,876.449 734.26,882.449 734,888.5C 733.139,891.368 731.472,893.702 729,895.5C 729.068,906.229 727.068,916.562 723,926.5C 719.692,932.285 716.525,938.118 713.5,944C 715.699,951.851 717.366,959.851 718.5,968C 717.311,973.88 715.144,979.38 712,984.5C 711.827,989.584 711.161,994.584 710,999.5C 706.644,1003.9 704.644,1008.9 704,1014.5C 700.421,1019.22 697.588,1024.38 695.5,1030C 696.961,1034.91 696.795,1039.75 695,1044.5C 694.751,1041.82 693.751,1039.49 692,1037.5C 690.958,1045.35 690.792,1053.18 691.5,1061C 690.564,1065.85 689.564,1070.68 688.5,1075.5C 688.818,1076.65 689.484,1077.48 690.5,1078C 689.41,1081.68 687.91,1085.18 686,1088.5C 686.089,1095.51 683.755,1101.51 679,1106.5C 678.885,1114.09 676.885,1121.09 673,1127.5C 672.014,1138.44 669.014,1148.77 664,1158.5C 664.245,1162.81 664.245,1167.15 664,1171.5C 663.347,1174.81 661.681,1177.47 659,1179.5C 658.53,1196.74 653.363,1212.41 643.5,1226.5C 642.624,1227.25 641.624,1227.75 640.5,1228C 641.916,1230.63 642.583,1233.46 642.5,1236.5C 639.526,1261.93 634.36,1286.93 627,1311.5C 621.998,1316.25 616.164,1319.25 609.5,1320.5C 607.291,1320.4 605.124,1320.06 603,1319.5C 594.232,1320.89 585.398,1321.73 576.5,1322C 573.232,1323.14 569.898,1323.97 566.5,1324.5C 561.321,1323.25 556.321,1321.41 551.5,1319C 549.683,1317.2 548.516,1315.03 548,1312.5C 548.649,1304.13 546.649,1296.47 542,1289.5C 537.711,1283.54 533.044,1277.88 528,1272.5C 523.048,1261.58 516.381,1251.91 508,1243.5C 498.149,1230.96 491.982,1216.79 489.5,1201C 489.788,1198.81 490.122,1196.65 490.5,1194.5C 486.033,1194.87 481.7,1194.37 477.5,1193C 466.043,1176.59 455.21,1159.76 445,1142.5C 443.333,1138.17 441.667,1133.83 440,1129.5C 434.777,1126.94 430.11,1123.61 426,1119.5C 408.874,1091.43 391.207,1064.43 373,1038.5C 368.747,1031.66 364.747,1024.66 361,1017.5C 357.833,1020 354.667,1022.5 351.5,1025C 344.139,1034.36 335.472,1042.36 325.5,1049C 312.352,1065.15 297.019,1078.82 279.5,1090C 273.079,1092.81 266.412,1094.81 259.5,1096C 252.393,1100.43 247.56,1106.6 245,1114.5C 235.9,1125.79 224.733,1134.29 211.5,1140C 198.2,1150.97 185.867,1162.97 174.5,1176C 165.83,1174.73 157.163,1173.07 148.5,1171C 148,1170.5 147.5,1170 147,1169.5C 141.333,1153.83 135.667,1138.17 130,1122.5C 129.697,1115.65 130.697,1108.98 133,1102.5C 143.249,1095.62 153.749,1089.12 164.5,1083C 168.649,1077.68 173.315,1072.85 178.5,1068.5C 179.592,1060.82 182.925,1054.32 188.5,1049C 198.5,1041.67 208.5,1034.33 218.5,1027C 222.925,1024.36 227.592,1022.19 232.5,1020.5C 237.285,1008.42 243.951,997.582 252.5,988C 252.355,987.228 252.022,986.561 251.5,986C 270.902,974.286 288.902,960.619 305.5,945C 310.262,945.081 314.928,945.915 319.5,947.5C 317.501,943.303 315.668,938.969 314,934.5C 314.032,929.111 313.865,923.778 313.5,918.5C 310.832,917.262 308.166,917.262 305.5,918.5C 300.806,915.973 297.306,912.306 295,907.5C 290.314,895.795 284.314,884.795 277,874.5C 265.398,862.566 255.731,849.232 248,834.5C 243.612,830.778 239.945,826.445 237,821.5C 232.873,811.723 226.873,803.39 219,796.5C 211.245,785.331 204.245,773.664 198,761.5C 195.532,751.572 193.532,741.572 192,731.5C 188.947,729.57 186.447,727.07 184.5,724C 183.167,723.667 181.833,723.333 180.5,723C 170.129,712.762 162.962,700.596 159,686.5C 150.802,672.105 141.135,658.772 130,646.5C 128.699,644.635 128.365,642.635 129,640.5C 132.333,633.167 135.667,625.833 139,618.5C 140.067,617.809 141.234,617.309 142.5,617C 159.504,615.718 176.504,614.384 193.5,613C 193.095,606.344 194.262,599.844 197,593.5C 205.286,582.213 213.952,571.213 223,560.5C 226,558.167 229,555.833 232,553.5C 233.976,546.261 235.642,538.928 237,531.5C 238.207,526.204 240.373,521.371 243.5,517C 243.265,516.127 242.931,515.293 242.5,514.5C 257.823,498.338 271.49,480.838 283.5,462C 292.489,462.273 301.489,462.273 310.5,462C 307.056,458.112 302.723,456.112 297.5,456C 303.563,453.271 308.397,449.104 312,443.5C 312.622,435.799 315.122,428.799 319.5,422.5C 318.352,420.851 317.019,419.351 315.5,418C 318.955,412.211 323.455,407.378 329,403.5C 340.231,383.935 353.398,365.768 368.5,349C 376.596,343.869 384.429,338.369 392,332.5C 392.886,326.84 394.386,321.34 396.5,316C 395.251,309.301 397.084,303.468 402,298.5C 402.637,291.559 405.637,285.893 411,281.5C 415.158,267.508 424.325,258.841 438.5,255.5C 440.438,250.653 441.938,245.653 443,240.5C 449.75,229.331 456.75,218.331 464,207.5C 468.824,198.854 472.824,189.854 476,180.5C 481.121,172.69 488.287,168.023 497.5,166.5C 499.506,162.487 502.006,158.82 505,155.5C 502.493,135.345 510.326,120.845 528.5,112C 530.667,109.833 532.833,107.667 535,105.5C 538.572,93.0859 546.072,83.7526 557.5,77.5C 560.245,58.052 568.412,41.3853 582,27.5C 586.696,12.6526 596.362,7.98597 611,13.5C 612.438,12.2815 614.105,11.6148 616,11.5C 625.2,14.2372 634.034,17.0705 642.5,20C 646.52,23.011 649.353,26.8443 651,31.5C 654.297,33.7954 657.297,36.462 660,39.5C 661.941,43.0477 663.607,46.7143 665,50.5C 672.353,52.8376 678.353,57.1709 683,63.5C 689.807,74.0884 697.807,83.7551 707,92.5C 711.935,100.701 717.601,108.368 724,115.5C 727.142,120.118 729.476,125.118 731,130.5C 736.175,134.503 740.008,139.503 742.5,145.5C 749.461,147.397 755.628,150.73 761,155.5C 767.249,169.436 776.249,181.436 788,191.5C 791.445,196.055 794.112,201.055 796,206.5C 803.116,210.283 808.116,215.95 811,223.5C 818.868,230.921 825.535,239.254 831,248.5C 833.071,255.084 832.405,261.417 829,267.5C 819.246,282.008 809.246,296.341 799,310.5C 789.712,320.766 779.378,322.099 768,314.5C 765.758,308.666 762.091,303.999 757,300.5C 754.277,297.443 751.944,294.11 750,290.5C 743.054,284.044 736.387,277.377 730,270.5C 729.333,269.5 729.333,268.5 730,267.5C 732.047,263.239 734.213,259.072 736.5,255C 733.363,248.587 728.363,244.253 721.5,242C 711.477,240.905 702.977,236.738 696,229.5C 694.08,226.661 692.413,223.661 691,220.5C 688,218.833 685.667,216.5 684,213.5C 682.106,208.608 679.772,203.941 677,199.5C 666.667,187.833 656.333,176.167 646,164.5C 643.089,159.438 640.755,154.105 639,148.5C 635.918,145.341 633.584,141.675 632,137.5C 627.116,135.28 622.782,132.28 619,128.5C 612.622,139.717 604.455,149.55 594.5,158C 590.167,160.333 585.833,162.667 581.5,165C 583.513,167.87 584.846,171.037 585.5,174.5C 583.685,178.13 581.851,181.797 580,185.5C 570.276,198.892 560.942,212.559 552,226.5C 548.478,229.266 545.145,232.266 542,235.5C 542.347,242.373 540.681,248.706 537,254.5C 518.958,279.943 501.958,305.943 486,332.5C 469.595,354.308 453.928,376.642 439,399.5C 437.144,409.692 431.311,416.525 421.5,420C 419.743,422.846 417.743,425.512 415.5,428C 410.071,431.028 404.571,433.861 399,436.5C 399.745,439.383 400.579,442.383 401.5,445.5C 401.17,448.324 400.336,450.991 399,453.5C 384.092,468.971 372.425,486.637 364,506.5C 358.581,515.007 352.914,523.34 347,531.5C 342.191,542.448 335.858,552.448 328,561.5C 320.215,580.222 309.048,596.722 294.5,611C 287.712,614.805 281.212,618.972 275,623.5C 271.837,642.812 262.671,658.812 247.5,671.5C 250.151,673.65 252.651,675.983 255,678.5C 262.506,690.687 269.173,703.354 275,716.5C 275.882,719.789 276.548,723.123 277,726.5C 286.907,733.071 296.241,740.404 305,748.5C 305.49,749.793 305.657,751.127 305.5,752.5C 307.201,752.034 308.701,752.034 310,752.5C 314.978,763.126 319.978,773.792 325,784.5C 330.516,793.344 336.016,802.177 341.5,811C 337.635,818.564 333.635,826.064 329.5,833.5C 334.336,833.638 337.836,831.304 340,826.5C 340.477,831.931 342.144,836.931 345,841.5C 352.401,846.066 358.234,852.066 362.5,859.5 Z M 691.5,724.5 C 692.497,724.47 693.164,724.97 693.5,726C 691.883,729.366 692.55,732.2 695.5,734.5C 693.671,741.824 690.504,748.491 686,754.5C 685.667,756.5 685.333,758.5 685,760.5C 678.928,768.04 675.595,776.707 675,786.5C 671.274,789.561 668.274,793.228 666,797.5C 662.858,818.067 657.525,838.067 650,857.5C 645.764,878.111 640.431,898.444 634,918.5C 632.693,925.301 633.86,931.634 637.5,937.5C 637.016,942.134 635.183,946.134 632,949.5C 633.014,953.692 632.014,957.025 629,959.5C 628.333,961.5 627.667,963.5 627,965.5C 625.899,985.007 622.732,1004.17 617.5,1023C 617.977,1025.89 618.644,1028.72 619.5,1031.5C 616.667,1038.83 613.167,1045.83 609,1052.5C 607.056,1058.38 605.556,1064.38 604.5,1070.5C 601.509,1073.66 598.675,1076.99 596,1080.5C 592.902,1100.88 587.568,1120.88 580,1140.5C 577.675,1155.3 573.842,1169.63 568.5,1183.5C 567.522,1183.02 566.689,1182.36 566,1181.5C 564.59,1168.94 560.59,1157.27 554,1146.5C 547.709,1141.6 540.876,1137.6 533.5,1134.5C 530.624,1129.91 527.624,1125.41 524.5,1121C 527.596,1113.13 526.762,1105.63 522,1098.5C 506.421,1083.99 493.754,1067.32 484,1048.5C 479.259,1043.09 473.926,1038.42 468,1034.5C 471.007,1019.86 466.673,1007.86 455,998.5C 453.25,991.253 449.083,985.92 442.5,982.5C 439.841,976.003 435.174,971.837 428.5,970C 425.98,968.237 423.647,966.237 421.5,964C 426.556,959.95 427.556,955.117 424.5,949.5C 426.003,947.578 428.003,946.412 430.5,946C 439.234,946.296 446.567,943.296 452.5,937C 463.274,936.29 470.941,931.124 475.5,921.5C 488.24,911.932 500.24,901.432 511.5,890C 523.602,881.068 535.269,871.568 546.5,861.5C 545.359,860.575 545.359,859.741 546.5,859C 570.938,839.561 594.438,819.061 617,797.5C 618.217,794.006 619.717,790.673 621.5,787.5C 642.308,773.201 661.808,757.201 680,739.5C 679.983,735.525 679.816,731.525 679.5,727.5C 683.774,727.13 687.774,726.13 691.5,724.5 Z M 362.5,859.5 C 359.347,860.995 356.181,862.662 353,864.5C 352.176,861.118 352.343,857.784 353.5,854.5C 356.752,855.761 359.752,857.428 362.5,859.5 Z"/></g>
<g><path style="opacity:0.984" fill="#FFFFFF" d="M 2344.5,859.5 C 2346.37,858.986 2348.2,858.32 2350,857.5C 2350.77,857.645 2351.44,857.978 2352,858.5C 2355.07,863.851 2357.41,869.518 2359,875.5C 2361.01,878.336 2363.17,881.003 2365.5,883.5C 2376.74,874.091 2388.41,865.257 2400.5,857C 2410.75,852.804 2421.09,848.804 2431.5,845C 2432.25,843.266 2432.75,841.433 2433,839.5C 2437.59,834.312 2440.59,828.312 2442,821.5C 2444.37,818.794 2447.04,816.461 2450,814.5C 2453.28,807.554 2458.28,802.221 2465,798.5C 2472.48,786.341 2483.32,781.008 2497.5,782.5C 2500.41,777.002 2503.58,771.668 2507,766.5C 2518.97,756.202 2530.63,745.535 2542,734.5C 2546.71,728.243 2551.55,722.076 2556.5,716C 2563.04,711.28 2570.38,709.28 2578.5,710C 2582.82,706.679 2586.82,703.012 2590.5,699C 2594.05,679.787 2605.38,668.12 2624.5,664C 2627.5,662.333 2630.5,660.667 2633.5,659C 2640.04,647.876 2649.71,640.876 2662.5,638C 2667.21,628.636 2672.71,619.802 2679,611.5C 2690.41,602.213 2701.91,593.046 2713.5,584C 2731.59,578.059 2749.93,572.893 2768.5,568.5C 2769.48,568.977 2770.31,569.643 2771,570.5C 2771.33,569.833 2771.67,569.167 2772,568.5C 2772.33,569.833 2772.67,571.167 2773,572.5C 2778,577.167 2783,581.833 2788,586.5C 2788.07,591.192 2786.74,595.525 2784,599.5C 2783.92,605.059 2782.26,610.059 2779,614.5C 2775.21,629.774 2771.05,644.941 2766.5,660C 2768.17,668.37 2769.84,676.703 2771.5,685C 2769.11,691.118 2766.44,697.118 2763.5,703C 2765.07,709.568 2763.57,715.402 2759,720.5C 2758.39,728.205 2755.22,734.538 2749.5,739.5C 2749.27,746.539 2748.77,753.539 2748,760.5C 2747.28,758.051 2746.28,755.717 2745,753.5C 2744.09,760.179 2743.26,766.845 2742.5,773.5C 2743.17,774.167 2743.83,774.833 2744.5,775.5C 2743.1,781.311 2741.77,787.144 2740.5,793C 2741.17,793.667 2741.83,794.333 2742.5,795C 2741.58,798.781 2740.08,802.281 2738,805.5C 2738.39,812.347 2736.05,818.014 2731,822.5C 2731.43,830.536 2729.43,837.869 2725,844.5C 2723.9,855.567 2721.23,866.233 2717,876.5C 2716.67,880.833 2716.33,885.167 2716,889.5C 2714.36,892.635 2712.53,895.635 2710.5,898.5C 2711.15,905.273 2710.32,911.94 2708,918.5C 2705.14,926.562 2701.47,934.229 2697,941.5C 2698.22,951.473 2699.22,961.473 2700,971.5C 2698,976.167 2696,980.833 2694,985.5C 2694.79,989.52 2694.46,993.52 2693,997.5C 2689.14,1008.23 2684.47,1018.56 2679,1028.5C 2678.67,1033.5 2678.33,1038.5 2678,1043.5C 2677.67,1043.83 2677.33,1044.17 2677,1044.5C 2676.71,1042.05 2676.04,1039.71 2675,1037.5C 2673.25,1045.45 2672.75,1053.45 2673.5,1061.5C 2672.69,1066.38 2671.69,1071.21 2670.5,1076C 2671.02,1076.95 2671.69,1077.78 2672.5,1078.5C 2669.17,1085.15 2667,1092.15 2666,1099.5C 2665.07,1102.36 2663.4,1104.69 2661,1106.5C 2661.18,1114.44 2659.18,1121.77 2655,1128.5C 2654.17,1139.16 2651.17,1149.16 2646,1158.5C 2646.39,1163.13 2646.39,1167.8 2646,1172.5C 2645.14,1175.37 2643.47,1177.7 2641,1179.5C 2640.9,1198.13 2635.07,1214.63 2623.5,1229C 2624.58,1233.46 2624.75,1237.96 2624,1242.5C 2620.79,1265.88 2615.79,1288.88 2609,1311.5C 2605.43,1314.7 2601.6,1317.53 2597.5,1320C 2593.44,1320.77 2589.44,1320.6 2585.5,1319.5C 2576.57,1320.87 2567.57,1321.7 2558.5,1322C 2554.04,1324.14 2549.38,1324.81 2544.5,1324C 2540.83,1322.17 2537.17,1320.33 2533.5,1318.5C 2529.95,1313.63 2528.95,1308.3 2530.5,1302.5C 2526.22,1291.37 2519.72,1281.71 2511,1273.5C 2506.75,1266.66 2502.75,1259.66 2499,1252.5C 2482.28,1236.73 2473.45,1217.4 2472.5,1194.5C 2468.82,1194.67 2465.15,1194.5 2461.5,1194C 2458.63,1191.46 2456.13,1188.63 2454,1185.5C 2445,1171.17 2436,1156.83 2427,1142.5C 2425.67,1138.5 2424.33,1134.5 2423,1130.5C 2416.75,1127.24 2411.41,1122.91 2407,1117.5C 2391.6,1093.77 2376.6,1069.77 2362,1045.5C 2360.85,1046.46 2359.85,1046.12 2359,1044.5C 2353.41,1035.66 2348.08,1026.66 2343,1017.5C 2339.59,1020.45 2336.09,1023.29 2332.5,1026C 2325.14,1035.36 2316.47,1043.36 2306.5,1050C 2297.5,1061.67 2287.17,1072 2275.5,1081C 2270.5,1084.83 2265.17,1088.17 2259.5,1091C 2251.61,1093.04 2243.94,1095.71 2236.5,1099C 2233.06,1103.06 2230.56,1107.56 2229,1112.5C 2223.11,1118.39 2217.28,1124.22 2211.5,1130C 2203.67,1134.42 2196,1139.08 2188.5,1144C 2177.86,1154.31 2167.52,1164.98 2157.5,1176C 2148.47,1174.83 2139.47,1173.16 2130.5,1171C 2123.95,1154.7 2117.79,1138.2 2112,1121.5C 2112.21,1115.09 2113.21,1108.76 2115,1102.5C 2126.03,1095.3 2137.2,1088.3 2148.5,1081.5C 2151.81,1076.35 2155.98,1072.02 2161,1068.5C 2161.71,1063.96 2163.04,1059.62 2165,1055.5C 2176.46,1044.35 2188.96,1034.52 2202.5,1026C 2206.27,1023.78 2210.27,1022.11 2214.5,1021C 2220.42,1007.13 2228.09,994.461 2237.5,983C 2255.91,972.259 2272.91,959.593 2288.5,945C 2292.69,944.67 2296.69,945.503 2300.5,947.5C 2300.83,947 2301.17,946.5 2301.5,946C 2296.28,937.519 2294.45,928.352 2296,918.5C 2293.38,917.262 2290.71,917.262 2288,918.5C 2286.01,917.182 2284.01,915.848 2282,914.5C 2277.39,907.675 2273.72,900.342 2271,892.5C 2262.82,879.316 2253.49,866.982 2243,855.5C 2238.08,848 2233.42,840.333 2229,832.5C 2226,830.167 2223.33,827.5 2221,824.5C 2215.97,813.101 2208.97,803.101 2200,794.5C 2192.91,784.668 2186.58,774.334 2181,763.5C 2177.43,755.213 2175.76,746.546 2176,737.5C 2173.86,730.365 2169.36,725.532 2162.5,723C 2151.97,712.462 2144.81,699.962 2141,685.5C 2138.67,681.5 2136.33,677.5 2134,673.5C 2125.77,663.608 2117.94,653.441 2110.5,643C 2113.78,634.484 2117.45,626.15 2121.5,618C 2133.13,616.515 2144.8,615.182 2156.5,614C 2160.25,608.865 2165.09,605.032 2171,602.5C 2172.1,590.684 2174.6,579.184 2178.5,568C 2177.81,566.838 2177.65,565.672 2178,564.5C 2194.2,548.289 2208.2,530.289 2220,510.5C 2224.41,510.183 2228.91,510.017 2233.5,510C 2232.38,508.956 2231.04,508.29 2229.5,508C 2236.27,505.194 2242.1,501.028 2247,495.5C 2249.8,487.195 2252.96,479.028 2256.5,471C 2255.2,469.674 2253.87,468.34 2252.5,467C 2255.62,461.546 2259.79,457.046 2265,453.5C 2276.57,433.598 2290.07,415.098 2305.5,398C 2315.01,392.826 2323.67,386.493 2331.5,379C 2330.92,378.107 2330.59,377.107 2330.5,376C 2331.46,372.109 2332.63,368.275 2334,364.5C 2332.53,357.422 2334.53,351.422 2340,346.5C 2339.96,339.586 2342.79,334.253 2348.5,330.5C 2352.22,314.614 2362.22,306.781 2378.5,307C 2377.87,300.428 2378.71,293.928 2381,287.5C 2387.75,276.331 2394.75,265.331 2402,254.5C 2406.82,245.854 2410.82,236.854 2414,227.5C 2415.83,225.667 2417.67,223.833 2419.5,222C 2424.33,220.808 2429,219.308 2433.5,217.5C 2436.04,212.12 2439.21,207.12 2443,202.5C 2440.58,188.153 2444.75,176.319 2455.5,167C 2467.15,162.033 2474.32,153.533 2477,141.5C 2481.98,134.835 2488.31,130.169 2496,127.5C 2498.82,114.556 2501.15,101.556 2503,88.5C 2508.96,84.211 2514.62,79.5443 2520,74.5C 2521.5,71.3159 2523,68.1493 2524.5,65C 2527.71,63.8468 2531.04,63.1802 2534.5,63C 2537.97,59.8543 2541.8,57.3543 2546,55.5C 2553.26,57.5321 2560.43,59.8654 2567.5,62.5C 2568.09,62.2907 2568.59,61.9574 2569,61.5C 2575.43,64.694 2579.76,69.694 2582,76.5C 2588.98,80.4971 2593.32,86.4971 2595,94.5C 2599.14,95.6542 2602.98,97.4876 2606.5,100C 2612.85,106.536 2618.35,113.703 2623,121.5C 2628.7,126.865 2634.03,132.531 2639,138.5C 2644.61,147.112 2650.61,155.446 2657,163.5C 2658.94,167.048 2660.61,170.714 2662,174.5C 2666.49,179.476 2670.49,184.809 2674,190.5C 2679.7,195.865 2685.03,201.531 2690,207.5C 2695.61,216.112 2701.61,224.446 2708,232.5C 2709.86,236.419 2711.53,240.419 2713,244.5C 2718.91,251.317 2724.57,258.317 2730,265.5C 2731.49,270.411 2731.83,275.411 2731,280.5C 2724.39,290.777 2717.39,300.777 2710,310.5C 2707.39,318.898 2702.89,326.064 2696.5,332C 2686.12,337.785 2676.96,336.285 2669,327.5C 2665.91,322.328 2662.58,317.328 2659,312.5C 2649.72,302.552 2640.39,292.552 2631,282.5C 2625.75,275.993 2622.08,268.66 2620,260.5C 2617.28,257.443 2614.94,254.11 2613,250.5C 2609.58,248.208 2606.08,246.041 2602.5,244C 2595.37,238.898 2590.87,232.065 2589,223.5C 2583.11,217.376 2577.94,210.709 2573.5,203.5C 2571.01,201.42 2568.34,199.586 2565.5,198C 2561,192.833 2556.5,187.667 2552,182.5C 2551.67,179.833 2551.33,177.167 2551,174.5C 2548.32,172.322 2545.82,169.989 2543.5,167.5C 2537.82,177.334 2530.82,186.168 2522.5,194C 2517.05,197.375 2511.38,200.375 2505.5,203C 2505.84,207.093 2507.18,211.093 2509.5,215C 2508.21,217.087 2507.04,219.254 2506,221.5C 2495.33,237.5 2484.67,253.5 2474,269.5C 2471.3,272.538 2468.3,275.205 2465,277.5C 2464.87,282.694 2463.87,287.694 2462,292.5C 2446.58,315.673 2430.91,338.673 2415,361.5C 2414.67,363.167 2414.33,364.833 2414,366.5C 2395.84,391.484 2378.17,416.817 2361,442.5C 2360.95,445.861 2359.95,448.861 2358,451.5C 2354.41,454.046 2350.58,456.213 2346.5,458C 2342.55,465.816 2336.22,470.482 2327.5,472C 2324.09,473.739 2321.76,476.406 2320.5,480C 2321.88,482.694 2323.22,485.361 2324.5,488C 2324.09,490.321 2323.26,492.487 2322,494.5C 2318.34,499.16 2314.34,503.493 2310,507.5C 2300.15,521.192 2291.82,535.858 2285,551.5C 2277.02,560.818 2270.68,571.151 2266,582.5C 2257.88,591.741 2251.55,602.074 2247,613.5C 2240.27,625.129 2232.44,635.962 2223.5,646C 2219.3,649.03 2214.97,651.863 2210.5,654.5C 2214.77,658.884 2218.44,663.718 2221.5,669C 2228.56,670.062 2234.06,673.562 2238,679.5C 2247.23,694.287 2254.56,709.953 2260,726.5C 2270.37,733.201 2279.87,741.034 2288.5,750C 2288.04,750.414 2287.71,750.914 2287.5,751.5C 2288.65,752.731 2289.82,752.731 2291,751.5C 2296.95,763.396 2302.95,775.396 2309,787.5C 2314.25,795.079 2319.08,802.912 2323.5,811C 2319.51,818.651 2315.51,826.318 2311.5,834C 2316.78,834.017 2320.45,831.517 2322.5,826.5C 2323.1,830.998 2324.27,835.332 2326,839.5C 2330.67,843.5 2335.33,847.5 2340,851.5C 2342.16,853.817 2343.66,856.484 2344.5,859.5 Z M 2257.5,471.5 C 2260.31,472.901 2261.65,474.901 2261.5,477.5C 2259.17,476.168 2257.83,474.168 2257.5,471.5 Z M 2673.5,724.5 C 2675.74,725.828 2676.08,727.661 2674.5,730C 2677.95,733.043 2678.45,736.543 2676,740.5C 2674.1,744.739 2671.76,748.739 2669,752.5C 2668.08,755.101 2667.41,757.768 2667,760.5C 2664.26,762.984 2662.26,765.984 2661,769.5C 2659.24,775.4 2657.91,781.4 2657,787.5C 2652.95,789.887 2649.95,793.22 2648,797.5C 2645.45,817.147 2640.45,836.147 2633,854.5C 2628.36,876.755 2622.69,898.755 2616,920.5C 2615.33,923.167 2615.33,925.833 2616,928.5C 2620.58,936.22 2619.91,943.554 2614,950.5C 2613.42,952.377 2613.59,954.211 2614.5,956C 2611.54,958.842 2609.71,962.342 2609,966.5C 2608.28,983.479 2605.61,1000.15 2601,1016.5C 2600.25,1021.37 2600.41,1026.21 2601.5,1031C 2598.99,1035.18 2597.49,1039.68 2597,1044.5C 2590.64,1051.89 2587.31,1060.56 2587,1070.5C 2578.72,1076.73 2575.06,1085.06 2576,1095.5C 2572.54,1111.22 2567.87,1126.55 2562,1141.5C 2559.85,1156.1 2556.01,1170.1 2550.5,1183.5C 2548.16,1181 2546.66,1178 2546,1174.5C 2545.21,1153.87 2535.04,1140.54 2515.5,1134.5C 2512.31,1130.12 2509.64,1125.45 2507.5,1120.5C 2509.36,1113.15 2508.53,1106.15 2505,1099.5C 2488.71,1083.54 2475.04,1065.54 2464,1045.5C 2459.31,1041.31 2454.48,1037.31 2449.5,1033.5C 2452.72,1019.67 2448.89,1008.34 2438,999.5C 2435.59,991.757 2430.93,985.757 2424,981.5C 2421.32,975.48 2416.82,971.647 2410.5,970C 2408.67,968.167 2406.83,966.333 2405,964.5C 2406.11,961.59 2407.28,958.59 2408.5,955.5C 2408.33,953.161 2407.66,950.994 2406.5,949C 2408.22,947.473 2410.22,946.473 2412.5,946C 2421.22,946.302 2428.56,943.302 2434.5,937C 2439.85,936.332 2444.85,934.666 2449.5,932C 2453.17,927.667 2456.83,923.333 2460.5,919C 2473.46,908.373 2486.13,897.373 2498.5,886C 2510.81,877.68 2521.81,868.014 2531.5,857C 2553.96,838.207 2576.13,819.04 2598,799.5C 2600.11,795.611 2601.95,791.611 2603.5,787.5C 2607.34,785.079 2611.34,782.912 2615.5,781C 2626.18,771.321 2637.18,761.988 2648.5,753C 2653,748.5 2657.5,744 2662,739.5C 2662.36,735.49 2662.19,731.49 2661.5,727.5C 2665.77,727.13 2669.77,726.13 2673.5,724.5 Z M 2344.5,859.5 C 2341.6,861.535 2338.43,863.201 2335,864.5C 2334.5,861.183 2334.33,857.85 2334.5,854.5C 2338.38,855.109 2341.72,856.776 2344.5,859.5 Z"/></g>
<g><path style="opacity:0.985" fill="#FFFFFF" d="M 1503.5,57.5 C 1504.98,57.238 1506.31,57.5713 1507.5,58.5C 1517.64,75.4101 1525.14,93.4101 1530,112.5C 1534.58,115.08 1538.58,118.413 1542,122.5C 1547.11,130.393 1551.45,138.726 1555,147.5C 1562.09,154.679 1567.43,163.012 1571,172.5C 1577.56,190.063 1582.56,208.063 1586,226.5C 1591.54,235.383 1596.21,244.716 1600,254.5C 1603.46,270.806 1606.79,287.139 1610,303.5C 1611.69,310.258 1613.69,316.925 1616,323.5C 1617.4,326.902 1619.57,329.736 1622.5,332C 1626.95,334.783 1631.12,337.95 1635,341.5C 1637.07,349.381 1639.74,357.048 1643,364.5C 1650.86,378.888 1658.19,393.555 1665,408.5C 1675.73,441.087 1685.06,474.087 1693,507.5C 1694.33,510.833 1695.67,514.167 1697,517.5C 1713,545.505 1730,572.838 1748,599.5C 1750.43,604.898 1751.77,610.565 1752,616.5C 1763.49,638.157 1775.49,659.49 1788,680.5C 1796.23,695.851 1802.89,711.851 1808,728.5C 1814.53,755.099 1822.87,781.099 1833,806.5C 1842.24,824.653 1852.24,842.32 1863,859.5C 1869.04,865.873 1874.71,872.54 1880,879.5C 1886.88,895.013 1892.21,911.013 1896,927.5C 1907.17,943.189 1917.84,959.189 1928,975.5C 1931.33,982.167 1934.67,988.833 1938,995.5C 1938.33,1000.83 1938.67,1006.17 1939,1011.5C 1946.07,1022.39 1952.9,1033.39 1959.5,1044.5C 1961.26,1042.75 1962.59,1040.75 1963.5,1038.5C 1960.88,1035.38 1958.04,1032.38 1955,1029.5C 1952.38,1025.38 1950.88,1020.88 1950.5,1016C 1952.79,1006.97 1954.46,997.808 1955.5,988.5C 1954.92,979.317 1954.59,970.151 1954.5,961C 1954.64,956.79 1955.14,952.624 1956,948.5C 1956.67,907.5 1956.67,866.5 1956,825.5C 1954.72,823.283 1953.72,820.949 1953,818.5C 1952.56,812.112 1951.73,805.779 1950.5,799.5C 1951.05,791.564 1954.38,785.064 1960.5,780C 1953.14,771.623 1948.48,761.956 1946.5,751C 1946.58,747.765 1947.08,744.598 1948,741.5C 1949.05,702.629 1948.55,663.796 1946.5,625C 1946.67,621.5 1946.83,618 1947,614.5C 1949.82,609.357 1951.65,603.857 1952.5,598C 1950.05,588.262 1948.05,578.428 1946.5,568.5C 1947.51,562.44 1948.85,556.44 1950.5,550.5C 1948.53,537.234 1948.03,523.901 1949,510.5C 1952.38,500.802 1955.22,490.969 1957.5,481C 1955.27,476.202 1953.6,471.202 1952.5,466C 1952.96,462.654 1953.96,459.488 1955.5,456.5C 1951.34,451.854 1948.51,446.521 1947,440.5C 1946.89,427.375 1945.55,414.375 1943,401.5C 1942.33,392.5 1942.33,383.5 1943,374.5C 1945.5,365.84 1949.33,357.84 1954.5,350.5C 1951.04,343.271 1949.54,335.604 1950,327.5C 1948.72,325.283 1947.72,322.949 1947,320.5C 1946.67,294.5 1946.33,268.5 1946,242.5C 1942.55,233.091 1944.55,225.091 1952,218.5C 1952.17,216.833 1952.33,215.167 1952.5,213.5C 1950.97,207.433 1949.14,201.433 1947,195.5C 1946.3,188.313 1946.46,181.147 1947.5,174C 1946.59,168.774 1945.42,163.608 1944,158.5C 1937.55,161.426 1930.88,162.093 1924,160.5C 1918.25,164.761 1911.75,166.594 1904.5,166C 1898.48,167.005 1893.81,170.005 1890.5,175C 1885.5,177.644 1880.17,179.144 1874.5,179.5C 1870.54,178.47 1866.54,178.303 1862.5,179C 1857.56,180.819 1852.56,182.486 1847.5,184C 1841.95,188.943 1835.62,192.61 1828.5,195C 1806.6,200.224 1784.94,206.224 1763.5,213C 1753.7,214.598 1749.03,210.432 1749.5,200.5C 1750.03,194.385 1751.19,188.385 1753,182.5C 1753.1,173.583 1753.93,164.749 1755.5,156C 1754.28,151.017 1754.78,146.183 1757,141.5C 1758.58,139.959 1760.41,138.792 1762.5,138C 1768.67,136.586 1774.67,134.586 1780.5,132C 1783.17,131.667 1785.83,131.333 1788.5,131C 1789.3,127.396 1791.3,124.729 1794.5,123C 1803.66,119.752 1813,117.086 1822.5,115C 1825.56,112.277 1828.89,109.944 1832.5,108C 1849.74,101.213 1867.4,95.8798 1885.5,92C 1893.09,89.1361 1900.76,86.4694 1908.5,84C 1913.86,83.043 1919.02,83.543 1924,85.5C 1926.59,84.0183 1928.93,84.3517 1931,86.5C 1931.4,82.3932 1933.9,79.5599 1938.5,78C 1942.83,77.6667 1947.17,77.3333 1951.5,77C 1954.12,74.0082 1957.46,72.3415 1961.5,72C 1964.86,71.6633 1968.19,71.1633 1971.5,70.5C 1975.2,71.5658 1978.86,72.7324 1982.5,74C 1984.03,74.6995 1985.03,75.8662 1985.5,77.5C 1992.51,78.7625 1999.51,78.7625 2006.5,77.5C 2010.95,79.2236 2015.28,81.2236 2019.5,83.5C 2020.33,88.4671 2020.83,93.4671 2021,98.5C 2024.53,103.95 2026.53,109.95 2027,116.5C 2027.37,126.22 2027.04,135.887 2026,145.5C 2028.19,148.554 2029.86,151.888 2031,155.5C 2034.66,169.905 2033.49,183.905 2027.5,197.5C 2028.93,200.668 2029.6,204.001 2029.5,207.5C 2028.04,215.46 2026.71,223.46 2025.5,231.5C 2026.63,248.815 2026.79,266.148 2026,283.5C 2023.96,293.363 2023.12,303.363 2023.5,313.5C 2024.65,330.46 2025.32,347.46 2025.5,364.5C 2025.31,377.612 2024.98,390.612 2024.5,403.5C 2026,416.977 2027.33,430.477 2028.5,444C 2027.36,450.768 2025.02,457.101 2021.5,463C 2026.14,467.11 2028.47,472.276 2028.5,478.5C 2024.64,495.43 2021.97,512.597 2020.5,530C 2021.03,535 2022.2,539.833 2024,544.5C 2024.33,550.5 2024.67,556.5 2025,562.5C 2028.79,573.794 2029.12,585.127 2026,596.5C 2024.03,599.601 2022.2,602.768 2020.5,606C 2022.86,609.614 2023.86,613.614 2023.5,618C 2020.68,636.202 2020.84,654.368 2024,672.5C 2026.49,690.532 2024.16,707.866 2017,724.5C 2016.78,729.553 2016.28,734.553 2015.5,739.5C 2020.2,746.099 2023.03,753.433 2024,761.5C 2024.33,779.5 2024.67,797.5 2025,815.5C 2025.87,820.708 2026.7,825.874 2027.5,831C 2026.77,872.765 2026.6,914.598 2027,956.5C 2025.25,963.408 2023.92,970.408 2023,977.5C 2022.37,990.876 2021.54,1004.21 2020.5,1017.5C 2023.62,1025.89 2025.45,1034.56 2026,1043.5C 2026.33,1058.17 2026.67,1072.83 2027,1087.5C 2029.62,1102.26 2030.12,1117.09 2028.5,1132C 2028.92,1135.92 2029.75,1139.75 2031,1143.5C 2031.23,1185.88 2032.06,1228.21 2033.5,1270.5C 2033.64,1285.9 2033.14,1301.23 2032,1316.5C 2023.73,1318.62 2015.4,1320.62 2007,1322.5C 1991.91,1298.66 1977.58,1274.32 1964,1249.5C 1955.71,1224.24 1944.71,1200.24 1931,1177.5C 1924.78,1163.06 1919.11,1148.39 1914,1133.5C 1906,1123.49 1900.66,1112.15 1898,1099.5C 1895.51,1083.73 1892.51,1068.07 1889,1052.5C 1885.17,1047.5 1881.83,1042.17 1879,1036.5C 1872.28,1030.73 1867.28,1023.73 1864,1015.5C 1856.12,1010.62 1849.12,1004.62 1843,997.5C 1841.03,991.968 1839.53,986.302 1838.5,980.5C 1838.59,978.311 1839.26,976.311 1840.5,974.5C 1837.67,970.167 1834.83,965.833 1832,961.5C 1830.21,955.537 1828.54,949.537 1827,943.5C 1821.73,940.688 1816.73,937.355 1812,933.5C 1809.67,927.833 1807.33,922.167 1805,916.5C 1799.46,891.097 1789.79,867.431 1776,845.5C 1762.72,865.718 1750.72,886.718 1740,908.5C 1734,916.5 1728,924.5 1722,932.5C 1714.2,952.901 1706.2,973.235 1698,993.5C 1690.76,1004.08 1682.76,1014.08 1674,1023.5C 1671,1028.17 1668,1032.83 1665,1037.5C 1655.86,1058.44 1646.2,1079.1 1636,1099.5C 1630.34,1109.17 1623.17,1117.67 1614.5,1125C 1613.22,1125.68 1612.05,1125.52 1611,1124.5C 1606.85,1136.76 1602.85,1149.1 1599,1161.5C 1589.84,1181.49 1581.5,1201.83 1574,1222.5C 1568,1229.83 1561.33,1236.5 1554,1242.5C 1553.67,1245.83 1553.33,1249.17 1553,1252.5C 1546.75,1260.66 1540.75,1268.99 1535,1277.5C 1530.65,1291.56 1525.31,1305.23 1519,1318.5C 1515.01,1324.66 1510.17,1329.99 1504.5,1334.5C 1497.26,1330.96 1490.09,1327.29 1483,1323.5C 1483.01,1295 1483.51,1266.5 1484.5,1238C 1483.5,1215.65 1482.17,1193.31 1480.5,1171C 1480.98,1154.74 1484.31,1139.07 1490.5,1124C 1487.06,1119.57 1484.06,1114.91 1481.5,1110C 1483.13,1101.58 1484.13,1093.08 1484.5,1084.5C 1481.95,1060.04 1481.29,1035.54 1482.5,1011C 1482.11,1008.58 1481.44,1006.25 1480.5,1004C 1481.1,1000.87 1482.1,997.866 1483.5,995C 1479.94,980.536 1477.94,965.869 1477.5,951C 1477.23,937.977 1479.23,925.31 1483.5,913C 1479.77,902.267 1477.1,891.267 1475.5,880C 1476.43,869.99 1477.43,859.99 1478.5,850C 1477.57,844.369 1476.57,838.702 1475.5,833C 1478.55,779.518 1481.22,726.018 1483.5,672.5C 1483.44,662.477 1482.94,652.477 1482,642.5C 1480.18,632.906 1479.01,623.239 1478.5,613.5C 1479.4,602.123 1480.73,590.789 1482.5,579.5C 1480.65,572.115 1478.48,564.781 1476,557.5C 1475.1,549.192 1474.6,540.858 1474.5,532.5C 1475.1,506.315 1476.1,480.148 1477.5,454C 1476.58,438.668 1475.58,423.335 1474.5,408C 1475.54,385.47 1477.04,362.97 1479,340.5C 1480.51,330.441 1482.35,320.441 1484.5,310.5C 1481.62,302.035 1479.46,293.369 1478,284.5C 1477.09,276.861 1476.59,269.194 1476.5,261.5C 1480.09,212.528 1480.42,163.528 1477.5,114.5C 1477.87,96.79 1478.87,79.1234 1480.5,61.5C 1488.38,60.6872 1496.05,59.3539 1503.5,57.5 Z M 1567.5,395.5 C 1573.27,406.6 1578.77,417.934 1584,429.5C 1589.41,446.716 1595.41,463.716 1602,480.5C 1606.12,491.077 1612.45,500.077 1621,507.5C 1620.87,515.45 1622.2,523.117 1625,530.5C 1629.27,537.772 1633.94,544.772 1639,551.5C 1640.53,555.09 1641.86,558.757 1643,562.5C 1645.17,578.215 1648.84,593.549 1654,608.5C 1656.45,612.615 1659.28,616.448 1662.5,620C 1670.34,624.422 1678.34,628.588 1686.5,632.5C 1686.81,642.373 1688.31,652.04 1691,661.5C 1694.92,669.016 1699.59,676.016 1705,682.5C 1707,686.5 1709,690.5 1711,694.5C 1715.97,711.667 1720.3,729.001 1724,746.5C 1726.24,754.233 1729.08,761.733 1732.5,769C 1726.51,779.988 1719.35,790.154 1711,799.5C 1708.08,803.666 1705.42,807.999 1703,812.5C 1699.91,819.626 1699.75,826.792 1702.5,834C 1694.87,848.756 1687.37,863.589 1680,878.5C 1670.43,892.076 1660.09,905.076 1649,917.5C 1640.75,930.333 1632.75,943.333 1625,956.5C 1624.2,964.322 1624.53,971.989 1626,979.5C 1623.31,978.117 1620.47,977.617 1617.5,978C 1614.96,980.906 1612.8,984.073 1611,987.5C 1606.21,998.542 1602.21,1009.88 1599,1021.5C 1594.05,1028.78 1588.72,1035.78 1583,1042.5C 1579.21,1048.97 1577.54,1055.97 1578,1063.5C 1568.27,1070.27 1562.61,1079.6 1561,1091.5C 1559.06,1046.85 1557.73,1002.19 1557,957.5C 1556.69,945.917 1554.02,934.917 1549,924.5C 1548.83,922.167 1548.67,919.833 1548.5,917.5C 1550.22,904.156 1552.06,890.823 1554,877.5C 1554.67,845.5 1554.67,813.5 1554,781.5C 1553.22,775.258 1552.05,769.091 1550.5,763C 1552.95,757.936 1555.78,753.103 1559,748.5C 1561.8,740.753 1563.3,732.753 1563.5,724.5C 1560.89,706.356 1558.56,688.19 1556.5,670C 1558.56,651.387 1559.89,632.72 1560.5,614C 1559.21,560.498 1559.21,506.998 1560.5,453.5C 1560.48,445.537 1559.48,437.704 1557.5,430C 1565.71,419.989 1569.05,408.489 1567.5,395.5 Z"/></g>
<g><path style="opacity:0.983" fill="#FFFFFF" d="M 3531.5,57.5 C 3558.96,67.9374 3586.8,77.9374 3615,87.5C 3617.46,86.0422 3619.63,84.2089 3621.5,82C 3625.2,81.6821 3628.86,81.1821 3632.5,80.5C 3639.74,83.4546 3646.74,86.9546 3653.5,91C 3657.75,92.1256 3662.08,92.7923 3666.5,93C 3671.78,97.2065 3677.78,99.8732 3684.5,101C 3687.65,105.151 3691.65,108.151 3696.5,110C 3706.6,110.818 3716.6,112.318 3726.5,114.5C 3740.54,115.123 3753.54,119.289 3765.5,127C 3768.17,127.333 3770.83,127.667 3773.5,128C 3776.5,130.333 3779.5,132.667 3782.5,135C 3791.69,135.065 3800.03,137.731 3807.5,143C 3814.32,144.052 3820.99,145.719 3827.5,148C 3831.89,150.861 3836.55,153.194 3841.5,155C 3845.14,154.722 3848.81,154.722 3852.5,155C 3855.55,155.882 3857.89,157.716 3859.5,160.5C 3875.55,162.041 3890.55,166.707 3904.5,174.5C 3905.32,177.785 3905.82,181.118 3906,184.5C 3907.44,185.26 3908.94,185.926 3910.5,186.5C 3918.56,181.698 3926.89,181.198 3935.5,185C 3938.95,186.226 3942.29,187.726 3945.5,189.5C 3946.94,188.937 3948.44,188.603 3950,188.5C 3953.48,189.271 3956.98,189.938 3960.5,190.5C 3968.59,189.141 3975.59,191.307 3981.5,197C 3988.02,198.878 3994.35,201.211 4000.5,204C 4004.28,208.029 4005.12,212.529 4003,217.5C 4002.76,227.853 4002.26,238.186 4001.5,248.5C 4003.15,253.053 4003.65,257.72 4003,262.5C 4000.1,267.155 3995.94,268.655 3990.5,267C 3971.27,260.422 3951.61,255.755 3931.5,253C 3928.38,250.458 3925.72,247.458 3923.5,244C 3915.37,244.854 3910.21,241.354 3908,233.5C 3901.31,239.615 3893.48,242.782 3884.5,243C 3861.48,234.328 3838.15,226.662 3814.5,220C 3795.59,211.252 3775.92,204.918 3755.5,201C 3752.22,198.803 3749.89,195.803 3748.5,192C 3738.97,190.205 3729.97,187.038 3721.5,182.5C 3719.08,178.454 3715.41,176.621 3710.5,177C 3706.5,174.333 3702.5,171.667 3698.5,169C 3693.24,167.359 3688.07,165.525 3683,163.5C 3680.93,165.787 3678.43,167.453 3675.5,168.5C 3658.67,163.502 3642,158.002 3625.5,152C 3620.85,152.164 3616.18,152.164 3611.5,152C 3608.08,148.741 3604.08,146.408 3599.5,145C 3594.45,141.073 3591.95,135.906 3592,129.5C 3587.68,126.285 3582.85,125.118 3577.5,126C 3574.94,129.065 3571.94,131.565 3568.5,133.5C 3562.14,131.77 3555.81,129.937 3549.5,128C 3547.74,127.202 3546.07,127.369 3544.5,128.5C 3540.67,133.324 3538.67,138.824 3538.5,145C 3539.19,166.328 3542.53,187.161 3548.5,207.5C 3547.75,210.315 3547.09,213.149 3546.5,216C 3547.53,220.805 3547.69,225.638 3547,230.5C 3543.98,234.544 3541.48,238.877 3539.5,243.5C 3541.98,252.756 3544.15,262.089 3546,271.5C 3548.71,276.432 3551.55,281.265 3554.5,286C 3551.84,292.647 3550,299.48 3549,306.5C 3548.53,307.931 3547.7,309.097 3546.5,310C 3547.8,310.804 3548.47,311.971 3548.5,313.5C 3548,315.5 3547.5,317.5 3547,319.5C 3543.47,327.595 3540.63,335.929 3538.5,344.5C 3541.27,356.185 3544.1,367.852 3547,379.5C 3549.38,383.766 3551.88,387.932 3554.5,392C 3553.22,396.507 3551.55,400.84 3549.5,405C 3550.85,407.294 3551.52,409.794 3551.5,412.5C 3550.64,418.937 3549.31,425.27 3547.5,431.5C 3548.36,436.213 3550.52,440.213 3554,443.5C 3554.96,446.075 3555.46,448.741 3555.5,451.5C 3552.79,461.495 3551.13,471.661 3550.5,482C 3554.44,487.85 3554.44,493.684 3550.5,499.5C 3553.41,503.151 3555.07,507.318 3555.5,512C 3554.65,516.062 3553.65,520.062 3552.5,524C 3553.76,555.82 3554.76,587.653 3555.5,619.5C 3562.49,619.057 3568.32,621.391 3573,626.5C 3581.57,623.861 3588.74,626.027 3594.5,633C 3600.74,631.829 3607.07,631.496 3613.5,632C 3628.42,637.752 3643.76,642.086 3659.5,645C 3669.68,649.061 3680.02,652.728 3690.5,656C 3694.5,658.667 3698.5,661.333 3702.5,664C 3705.86,664.337 3709.19,664.837 3712.5,665.5C 3716.13,664.485 3719.8,664.319 3723.5,665C 3737.15,670.217 3751.15,674.217 3765.5,677C 3777.07,681.286 3788.74,685.286 3800.5,689C 3804.7,690.933 3808.36,693.599 3811.5,697C 3818.8,696.99 3825.47,698.99 3831.5,703C 3838.74,702.365 3843.24,705.532 3845,712.5C 3845.77,724.161 3846.44,735.827 3847,747.5C 3850.08,755.934 3851.08,764.601 3850,773.5C 3846.84,778.492 3842.34,780.325 3836.5,779C 3830.17,776.667 3823.83,774.333 3817.5,772C 3801.5,767.999 3785.5,763.999 3769.5,760C 3763.66,757.489 3758.32,754.156 3753.5,750C 3748.62,748.928 3743.95,747.261 3739.5,745C 3736.19,744.462 3733.02,744.962 3730,746.5C 3721.8,745.84 3714.3,743.34 3707.5,739C 3686.48,734.466 3665.81,728.799 3645.5,722C 3644.17,720.333 3642.83,718.667 3641.5,717C 3636.67,715.39 3632,713.39 3627.5,711C 3620.87,711.495 3614.21,711.495 3607.5,711C 3601.94,709.724 3597.61,706.724 3594.5,702C 3587.05,699.355 3579.39,697.688 3571.5,697C 3569.83,696 3568.17,695 3566.5,694C 3560.83,693.667 3555.17,693.333 3549.5,693C 3547.16,691.972 3544.82,691.306 3542.5,691C 3544.12,693.08 3545.62,695.246 3547,697.5C 3550.51,699.587 3553.84,701.92 3557,704.5C 3557.87,708.956 3557.53,713.289 3556,717.5C 3552,722.167 3548,726.833 3544,731.5C 3543.83,732.667 3543.67,733.833 3543.5,735C 3547.59,754.293 3549.59,773.793 3549.5,793.5C 3553.23,794.013 3556.9,794.846 3560.5,796C 3562.57,796.948 3564.07,798.448 3565,800.5C 3568.74,799.374 3572.58,799.207 3576.5,800C 3580.34,802.084 3584,804.417 3587.5,807C 3593.4,805.878 3599.4,805.545 3605.5,806C 3613.63,808.264 3621.63,810.931 3629.5,814C 3647.59,817.878 3665.26,823.211 3682.5,830C 3686.18,831.841 3689.52,834.174 3692.5,837C 3700.43,837.387 3707.6,839.887 3714,844.5C 3717.39,843.933 3720.89,842.766 3724.5,841C 3727.5,840.333 3730.5,840.333 3733.5,841C 3748.5,849.112 3764.5,854.445 3781.5,857C 3785.99,859.079 3790.33,861.412 3794.5,864C 3802.99,863.141 3810.66,865.141 3817.5,870C 3825.82,870.773 3833.82,872.773 3841.5,876C 3842.19,877.067 3842.69,878.234 3843,879.5C 3844.07,877.717 3845.57,877.217 3847.5,878C 3851.29,880.464 3853.46,883.964 3854,888.5C 3855.7,906.488 3857.2,924.488 3858.5,942.5C 3856.73,958.815 3849.06,962.315 3835.5,953C 3818.98,948.704 3802.31,945.037 3785.5,942C 3783.98,937.329 3783.15,932.495 3783,927.5C 3782.59,927.957 3782.09,928.291 3781.5,928.5C 3780.55,926.955 3780.21,925.288 3780.5,923.5C 3772.55,921.186 3764.55,921.02 3756.5,923C 3744.99,929.269 3733.65,928.935 3722.5,922C 3718.75,921.74 3715.08,921.073 3711.5,920C 3707.63,917.483 3703.63,915.15 3699.5,913C 3683.5,909.001 3667.5,905.001 3651.5,901C 3645.53,898.681 3640.19,895.347 3635.5,891C 3629.51,889.257 3623.68,887.09 3618,884.5C 3605.63,888.053 3595.13,885.219 3586.5,876C 3580.5,873.18 3574.17,871.846 3567.5,872C 3560.37,867.962 3552.7,866.462 3544.5,867.5C 3544.69,873.199 3544.35,878.866 3543.5,884.5C 3544.49,889.961 3545.16,895.461 3545.5,901C 3544.55,909.981 3542.88,918.814 3540.5,927.5C 3540.95,934.889 3541.79,942.222 3543,949.5C 3545.33,952.5 3547.67,955.5 3550,958.5C 3550.35,960.218 3550.85,961.885 3551.5,963.5C 3550.07,969.033 3548.07,974.367 3545.5,979.5C 3546.68,985.319 3546.68,991.152 3545.5,997C 3548.27,1010.11 3547.94,1023.11 3544.5,1036C 3545.14,1038.24 3545.47,1040.58 3545.5,1043C 3544.17,1058.14 3543.33,1073.31 3543,1088.5C 3542.12,1091.66 3540.95,1094.66 3539.5,1097.5C 3541.47,1104.04 3542.8,1110.71 3543.5,1117.5C 3539.57,1134.96 3540.07,1152.29 3545,1169.5C 3546.27,1188.47 3545.43,1207.3 3542.5,1226C 3542.92,1229.92 3543.75,1233.75 3545,1237.5C 3545.5,1241.49 3545.67,1245.49 3545.5,1249.5C 3551.19,1248.89 3555.69,1250.89 3559,1255.5C 3565.69,1251.56 3572.36,1251.56 3579,1255.5C 3580.56,1257.22 3581.39,1259.22 3581.5,1261.5C 3589.44,1260.35 3597.27,1258.69 3605,1256.5C 3606.5,1256.67 3608,1256.83 3609.5,1257C 3610.46,1258.46 3611.79,1259.3 3613.5,1259.5C 3622.15,1256.46 3630.98,1254.13 3640,1252.5C 3650.26,1252.9 3660.43,1254.07 3670.5,1256C 3691.84,1256.51 3713.18,1256.18 3734.5,1255C 3739.32,1253.75 3744.15,1252.59 3749,1251.5C 3757.65,1251.99 3763.99,1255.99 3768,1263.5C 3768.72,1264.06 3769.56,1264.39 3770.5,1264.5C 3773.15,1263.89 3775.81,1263.39 3778.5,1263C 3781.79,1260.52 3785.46,1258.86 3789.5,1258C 3800.85,1256.53 3812.18,1255.03 3823.5,1253.5C 3830.68,1255.09 3837.68,1257.26 3844.5,1260C 3849.68,1260.36 3854.85,1260.86 3860,1261.5C 3866.85,1259.41 3873.68,1257.25 3880.5,1255C 3889.08,1253.04 3894.91,1256.21 3898,1264.5C 3899.74,1262.13 3902.08,1260.8 3905,1260.5C 3912.87,1262.82 3920.87,1263.16 3929,1261.5C 3945.45,1263.42 3961.95,1263.92 3978.5,1263C 3984.47,1260.12 3990.64,1258.96 3997,1259.5C 3998.44,1261.27 3999.44,1263.27 4000,1265.5C 4000.33,1271.17 4000.67,1276.83 4001,1282.5C 4002.04,1290.97 4003.37,1299.31 4005,1307.5C 4003.04,1309.91 4001.21,1312.41 3999.5,1315C 3983.74,1319.01 3967.74,1320.68 3951.5,1320C 3946.46,1319.1 3941.63,1317.6 3937,1315.5C 3932.19,1317.44 3927.19,1318.77 3922,1319.5C 3917.55,1319.28 3914.21,1317.28 3912,1313.5C 3902.72,1321.12 3892.89,1322.12 3882.5,1316.5C 3877.63,1318.23 3872.63,1319.57 3867.5,1320.5C 3864.79,1319.99 3862.29,1318.99 3860,1317.5C 3852.73,1321.3 3845.06,1323.97 3837,1325.5C 3833.73,1325.35 3830.56,1324.69 3827.5,1323.5C 3820.08,1326.27 3812.41,1327.61 3804.5,1327.5C 3793.04,1326.25 3781.54,1325.25 3770,1324.5C 3765.77,1325.91 3761.44,1326.91 3757,1327.5C 3751.56,1324.8 3745.72,1322.96 3739.5,1322C 3738.65,1320.98 3737.65,1320.14 3736.5,1319.5C 3728.73,1321.99 3720.73,1323.16 3712.5,1323C 3703.55,1327.15 3694.22,1329.98 3684.5,1331.5C 3679.58,1330.88 3674.92,1329.38 3670.5,1327C 3660.87,1325.59 3651.2,1325.26 3641.5,1326C 3637.51,1328.67 3633.18,1329.67 3628.5,1329C 3624.63,1325.47 3621.13,1321.63 3618,1317.5C 3610.65,1325.88 3601.81,1328.05 3591.5,1324C 3562.4,1322.71 3533.4,1323.55 3504.5,1326.5C 3498.89,1325.27 3493.23,1324.43 3487.5,1324C 3484.8,1323.31 3482.64,1321.81 3481,1319.5C 3480.07,1314.4 3478.74,1309.4 3477,1304.5C 3476.74,1292.16 3476.74,1279.83 3477,1267.5C 3476.72,1260.09 3475.05,1253.09 3472,1246.5C 3470.91,1239.52 3471.91,1232.85 3475,1226.5C 3478.38,1222.78 3481.38,1218.78 3484,1214.5C 3487.72,1212.36 3491.22,1209.86 3494.5,1207C 3490,1203.92 3485.33,1201.08 3480.5,1198.5C 3481.14,1193.22 3481.48,1187.88 3481.5,1182.5C 3480.06,1164.55 3479.23,1146.55 3479,1128.5C 3477.72,1121.27 3476.56,1113.94 3475.5,1106.5C 3475.71,1099.24 3478.71,1093.41 3484.5,1089C 3480.07,1085.91 3477.24,1081.74 3476,1076.5C 3475.29,1059.78 3474.12,1043.11 3472.5,1026.5C 3473.89,1017.37 3473.23,1008.37 3470.5,999.5C 3470.95,993.596 3473.29,988.596 3477.5,984.5C 3475.6,978.634 3475.1,972.634 3476,966.5C 3479.5,960.502 3482.17,954.169 3484,947.5C 3493.69,939.302 3492.19,935.136 3479.5,935C 3478.02,932.555 3476.19,930.388 3474,928.5C 3474.81,921.236 3475.31,913.903 3475.5,906.5C 3475.68,901.035 3475.01,895.702 3473.5,890.5C 3473.71,889.914 3474.04,889.414 3474.5,889C 3472.62,887.457 3471.12,885.624 3470,883.5C 3469.74,873.602 3468.9,863.768 3467.5,854C 3467.93,846.048 3469.6,838.381 3472.5,831C 3471.86,828.422 3471.53,825.755 3471.5,823C 3472.88,811.879 3473.55,800.712 3473.5,789.5C 3472.12,770.496 3470.96,751.496 3470,732.5C 3471.14,725.732 3473.48,719.399 3477,713.5C 3480.37,703.398 3480.04,693.398 3476,683.5C 3475.69,675.819 3475.19,668.152 3474.5,660.5C 3474.34,654.156 3476.84,649.156 3482,645.5C 3482.5,643.527 3482.66,641.527 3482.5,639.5C 3475.65,638.817 3471.99,634.984 3471.5,628C 3472.99,607.529 3474.16,587.029 3475,566.5C 3475.33,543.833 3475.67,521.167 3476,498.5C 3478.4,491.964 3480.4,485.297 3482,478.5C 3483.15,476.359 3484.65,474.526 3486.5,473C 3485.74,467.872 3485.24,462.705 3485,457.5C 3482.74,453.05 3481.07,448.383 3480,443.5C 3479.33,433.5 3479.33,423.5 3480,413.5C 3480.78,408.869 3481.95,404.369 3483.5,400C 3481.97,396.805 3479.47,394.638 3476,393.5C 3471.77,386.039 3471.44,378.373 3475,370.5C 3475.67,355.833 3475.67,341.167 3475,326.5C 3472.74,318.018 3472.4,309.351 3474,300.5C 3475.2,296.806 3477.03,293.472 3479.5,290.5C 3475.06,286.955 3472.73,282.289 3472.5,276.5C 3474.98,265.33 3475.98,253.996 3475.5,242.5C 3476,231.315 3475,220.315 3472.5,209.5C 3473.28,204.553 3473.78,199.553 3474,194.5C 3476.48,190.01 3478.98,185.51 3481.5,181C 3477.47,174.743 3475.8,167.91 3476.5,160.5C 3477.72,149.858 3478.72,139.192 3479.5,128.5C 3478.59,120.316 3478.59,112.149 3479.5,104C 3475.11,91.8076 3477.44,81.141 3486.5,72C 3490.92,69.2271 3495.59,68.7271 3500.5,70.5C 3507.93,69.8441 3515.26,68.6774 3522.5,67C 3525.7,63.9641 3528.7,60.7974 3531.5,57.5 Z"/></g>
<g><path style="opacity:0.986" fill="#FFFFFF" d="M 4104.5,695.5 C 4102.39,694.532 4100.06,694.198 4097.5,694.5C 4096.88,687.559 4097.88,680.892 4100.5,674.5C 4098.88,650.794 4099.38,627.127 4102,603.5C 4105.5,593.828 4109,584.162 4112.5,574.5C 4109.88,568.382 4107.72,562.049 4106,555.5C 4104.29,554.122 4102.95,552.455 4102,550.5C 4101.67,546.167 4101.33,541.833 4101,537.5C 4097.35,530.482 4096.85,523.316 4099.5,516C 4094.75,503.734 4096.25,492.234 4104,481.5C 4105.21,479.951 4106.71,478.785 4108.5,478C 4105.55,472.481 4103.38,466.648 4102,460.5C 4102.7,435.555 4100.53,410.889 4095.5,386.5C 4095.31,378.214 4098.48,371.547 4105,366.5C 4105.67,360.5 4105.67,354.5 4105,348.5C 4098.85,341.04 4095.02,332.54 4093.5,323C 4094.05,317.457 4094.89,311.957 4096,306.5C 4099.23,300.528 4101.39,294.195 4102.5,287.5C 4097.89,277.703 4097.72,267.703 4102,257.5C 4102.6,254.692 4103.76,252.192 4105.5,250C 4099.81,237.248 4096.14,223.915 4094.5,210C 4096.45,199.936 4096.45,189.936 4094.5,180C 4095.68,169.819 4101.35,163.819 4111.5,162C 4112.52,160.323 4113.52,158.657 4114.5,157C 4103.9,138.034 4100.57,117.867 4104.5,96.5C 4104.07,92.9564 4103.41,89.4564 4102.5,86C 4103.31,81.8502 4105.65,78.8502 4109.5,77C 4122.52,76.7773 4135.52,76.2773 4148.5,75.5C 4156.45,76.7814 4164.29,78.4481 4172,80.5C 4173.84,83.7543 4174.68,87.2543 4174.5,91C 4174.56,111.5 4174.56,132 4174.5,152.5C 4176.25,163.505 4178.92,174.171 4182.5,184.5C 4181.96,189.849 4181.3,195.183 4180.5,200.5C 4183.46,214.894 4184.13,229.394 4182.5,244C 4186.65,262.875 4186.48,281.708 4182,300.5C 4180.36,305.112 4178.19,309.446 4175.5,313.5C 4177.83,317.324 4180.66,320.658 4184,323.5C 4184.33,326.833 4184.67,330.167 4185,333.5C 4184.97,352.031 4185.14,370.531 4185.5,389C 4184.5,393.331 4183.5,397.664 4182.5,402C 4184.45,406.065 4186.28,410.232 4188,414.5C 4188.49,438.167 4188.99,461.834 4189.5,485.5C 4189.48,493.7 4189.14,501.867 4188.5,510C 4188.63,511.059 4189.13,511.892 4190,512.5C 4190.65,527.008 4190.48,541.508 4189.5,556C 4190.2,574.827 4190.7,593.66 4191,612.5C 4193.98,621.932 4192.48,630.599 4186.5,638.5C 4187.75,647.019 4185.25,654.352 4179,660.5C 4177.57,663.002 4177.4,665.502 4178.5,668C 4185.38,670.238 4188.38,675.071 4187.5,682.5C 4183.56,703.174 4183.72,723.841 4188,744.5C 4189.33,781.023 4191.16,817.523 4193.5,854C 4193.75,865.533 4191.91,876.7 4188,887.5C 4181.68,895.291 4180.18,903.958 4183.5,913.5C 4183.87,914.91 4184.7,915.91 4186,916.5C 4188.31,928.067 4188.98,939.733 4188,951.5C 4185.79,958.846 4184.62,966.346 4184.5,974C 4185.63,990.533 4187.13,1007.03 4189,1023.5C 4191.64,1027.13 4195.14,1029.63 4199.5,1031C 4202.5,1033.33 4205.5,1035.67 4208.5,1038C 4219.59,1041.42 4230.59,1045.08 4241.5,1049C 4249.8,1055.63 4257.8,1062.63 4265.5,1070C 4269.89,1070.3 4274.23,1070.97 4278.5,1072C 4278.83,1072.33 4279.17,1072.67 4279.5,1073C 4278.06,1073.22 4276.73,1073.72 4275.5,1074.5C 4278.52,1077.52 4281.85,1080.18 4285.5,1082.5C 4286.62,1078.28 4288.95,1077.44 4292.5,1080C 4295.33,1082.17 4298.17,1084.33 4301,1086.5C 4303.11,1090.28 4305.61,1093.78 4308.5,1097C 4318.11,1097.65 4327.11,1100.32 4335.5,1105C 4341.85,1110.76 4348.18,1116.42 4354.5,1122C 4373.03,1128.93 4390.36,1137.93 4406.5,1149C 4408.87,1151.04 4410.87,1153.37 4412.5,1156C 4413.73,1156.78 4415.06,1157.28 4416.5,1157.5C 4431.54,1155.02 4443.2,1160.18 4451.5,1173C 4459.53,1178.18 4466.53,1184.52 4472.5,1192C 4483.43,1195.13 4492.77,1200.8 4500.5,1209C 4517.34,1216.39 4534.34,1223.39 4551.5,1230C 4556.83,1230.33 4562.17,1230.67 4567.5,1231C 4568.67,1232.17 4569.83,1233.33 4571,1234.5C 4575.33,1241.35 4579.5,1248.35 4583.5,1255.5C 4590.71,1252.59 4597.71,1253.09 4604.5,1257C 4611.83,1263 4618.5,1269.67 4624.5,1277C 4629.44,1279.61 4634.1,1282.61 4638.5,1286C 4650.5,1289.74 4661,1295.91 4670,1304.5C 4669.79,1315.2 4668.96,1325.86 4667.5,1336.5C 4638.49,1335.88 4609.49,1335.38 4580.5,1335C 4572.47,1339.41 4564.3,1339.58 4556,1335.5C 4544.68,1338.1 4533.35,1338.1 4522,1335.5C 4518.73,1335.92 4515.56,1336.76 4512.5,1338C 4497.87,1339.35 4483.54,1338.02 4469.5,1334C 4456.76,1333.35 4444.1,1333.68 4431.5,1335C 4424.23,1333.62 4417.4,1331.12 4411,1327.5C 4407.11,1329.63 4402.94,1330.63 4398.5,1330.5C 4391.76,1329.14 4384.93,1328.14 4378,1327.5C 4373.96,1327.93 4370.13,1329.1 4366.5,1331C 4348.75,1331.9 4331.09,1331.07 4313.5,1328.5C 4307.18,1329.43 4300.85,1329.59 4294.5,1329C 4292.58,1328.64 4290.91,1327.81 4289.5,1326.5C 4282.94,1329.62 4276.11,1330.28 4269,1328.5C 4259.13,1331.81 4249.13,1332.14 4239,1329.5C 4225.47,1330.94 4211.97,1330.61 4198.5,1328.5C 4172.44,1330.08 4146.44,1330.91 4120.5,1331C 4116.1,1324.37 4112.6,1317.21 4110,1309.5C 4109.67,1309.83 4109.33,1310.17 4109,1310.5C 4108.51,1309.21 4108.34,1307.87 4108.5,1306.5C 4110.53,1306.66 4112.53,1306.5 4114.5,1306C 4113.71,1303 4112.54,1300.17 4111,1297.5C 4110,1298.83 4109,1300.17 4108,1301.5C 4106.57,1284.16 4105.07,1266.83 4103.5,1249.5C 4103.74,1239.86 4103.91,1230.2 4104,1220.5C 4106.17,1214.16 4108.34,1207.82 4110.5,1201.5C 4100.8,1185.28 4097.8,1167.78 4101.5,1149C 4099.8,1131.5 4098.63,1114 4098,1096.5C 4099.36,1095.62 4100.86,1095.29 4102.5,1095.5C 4103.15,1090.86 4103.65,1086.2 4104,1081.5C 4104.89,1078.05 4106.56,1075.05 4109,1072.5C 4109.23,1066.63 4109.73,1060.8 4110.5,1055C 4109.47,1052.44 4108.3,1049.94 4107,1047.5C 4106.09,1048.33 4105.42,1049.33 4105,1050.5C 4104.27,1036.99 4104.44,1023.49 4105.5,1010C 4104.62,1005.03 4103.96,1000.03 4103.5,995C 4104.85,982.568 4106.85,970.234 4109.5,958C 4108.19,950.88 4107.19,943.713 4106.5,936.5C 4100.81,930.955 4098.15,924.121 4098.5,916C 4099.12,902.12 4100.29,888.286 4102,874.5C 4102.77,870.863 4103.93,867.363 4105.5,864C 4100.36,852.72 4096.36,841.053 4093.5,829C 4095.19,826.655 4094.69,824.822 4092,823.5C 4091.83,822 4091.67,820.5 4091.5,819C 4094.81,796.652 4096.31,774.152 4096,751.5C 4103.59,746.621 4111.42,742.121 4119.5,738C 4117.26,737.094 4114.92,736.594 4112.5,736.5C 4109.21,736.846 4106.21,737.679 4103.5,739C 4106.68,734.124 4108.68,728.791 4109.5,723C 4107.47,717.241 4105.64,711.408 4104,705.5C 4103.19,701.973 4103.36,698.64 4104.5,695.5 Z M 4104.5,695.5 C 4114.07,693.229 4116.74,696.396 4112.5,705C 4107.96,703.614 4105.3,700.447 4104.5,695.5 Z M 4111.5,1058.5 C 4113.34,1060.85 4114.67,1063.52 4115.5,1066.5C 4112.59,1064.69 4111.26,1062.02 4111.5,1058.5 Z M 4186.5,1105.5 C 4199.18,1108.84 4210.85,1114.34 4221.5,1122C 4224.95,1123.93 4228.61,1125.26 4232.5,1126C 4235.81,1131.47 4240.47,1135.31 4246.5,1137.5C 4252.07,1146.79 4260.07,1152.96 4270.5,1156C 4283.17,1164.67 4295.83,1173.33 4308.5,1182C 4312.59,1182.14 4316.59,1182.31 4320.5,1182.5C 4324.55,1194.21 4332.88,1200.04 4345.5,1200C 4353.37,1203.88 4360.7,1208.54 4367.5,1214C 4377.61,1217.48 4387.61,1221.15 4397.5,1225C 4399.49,1231.48 4403.49,1236.32 4409.5,1239.5C 4403.67,1243.16 4399,1248 4395.5,1254C 4393.17,1254.17 4390.83,1254.33 4388.5,1254.5C 4380.95,1252.87 4373.28,1251.7 4365.5,1251C 4362.83,1249.33 4360.17,1247.67 4357.5,1246C 4355.44,1245.69 4353.44,1245.69 4351.5,1246C 4347.82,1240.41 4342.66,1237.58 4336,1237.5C 4331.95,1239.01 4327.79,1240.34 4323.5,1241.5C 4312.82,1239.77 4302.15,1239.6 4291.5,1241C 4287,1244.17 4283.17,1248 4280,1252.5C 4278.83,1251.11 4277.33,1250.27 4275.5,1250C 4271.15,1249.37 4266.81,1249.03 4262.5,1249C 4268.05,1252.97 4267.22,1254.47 4260,1253.5C 4253.83,1253.03 4247.66,1252.53 4241.5,1252C 4243.16,1250.17 4245.16,1248.84 4247.5,1248C 4233.29,1245.11 4218.96,1244.11 4204.5,1245C 4200.58,1246.54 4197.08,1248.71 4194,1251.5C 4190.55,1246.21 4185.72,1243.21 4179.5,1242.5C 4180.51,1237.2 4180.68,1231.87 4180,1226.5C 4173.67,1207.96 4173,1189.29 4178,1170.5C 4178.33,1160.5 4178.67,1150.5 4179,1140.5C 4184.5,1129.52 4187,1117.86 4186.5,1105.5 Z"/></g>
<g><path style="opacity:0.984" fill="#FFFFFF" d="M 2923.5,78.5 C 2925.99,78.2978 2928.32,78.7978 2930.5,80C 2943.65,89.7456 2957.32,98.7456 2971.5,107C 2977.58,113.317 2981.41,120.817 2983,129.5C 2984.74,131.321 2986.24,133.321 2987.5,135.5C 2990.79,136.997 2994.12,138.497 2997.5,140C 3001.23,143.973 3005.06,147.806 3009,151.5C 3010.67,155.167 3012.33,158.833 3014,162.5C 3017.33,165.833 3020.67,169.167 3024,172.5C 3024.64,176.723 3025.81,180.723 3027.5,184.5C 3036.01,185.501 3043.34,189.001 3049.5,195C 3054.9,195.597 3059.9,197.264 3064.5,200C 3072.81,210.115 3081.48,219.948 3090.5,229.5C 3099.52,235.024 3106.69,242.357 3112,251.5C 3125.05,263.221 3137.39,275.554 3149,288.5C 3149.94,292.762 3151.11,296.928 3152.5,301C 3156.05,303.878 3160.05,305.878 3164.5,307C 3167.32,308.817 3169.82,310.983 3172,313.5C 3178.11,315.306 3183.95,317.806 3189.5,321C 3197.92,332.755 3208.25,342.422 3220.5,350C 3221.33,350.833 3222.17,351.667 3223,352.5C 3223.71,361.496 3224.38,370.496 3225,379.5C 3226.76,378.531 3227.26,377.364 3226.5,376C 3227.93,375.535 3229.1,374.701 3230,373.5C 3231.78,378.297 3234.78,382.297 3239,385.5C 3241.82,391.491 3245.82,396.491 3251,400.5C 3254.37,406.871 3258.87,412.371 3264.5,417C 3278.11,422.441 3288.44,431.608 3295.5,444.5C 3302.9,451.739 3310.4,458.739 3318,465.5C 3319.56,467.957 3320.56,470.624 3321,473.5C 3320.66,478.029 3320.83,482.529 3321.5,487C 3320.85,494.641 3317.18,500.307 3310.5,504C 3303.79,507.104 3297.29,510.604 3291,514.5C 3284.58,512.873 3278.75,510.04 3273.5,506C 3269.03,501.6 3264.03,497.934 3258.5,495C 3252.2,487.368 3244.7,481.202 3236,476.5C 3234.51,477.317 3233.01,478.15 3231.5,479C 3210.94,498.565 3188.94,516.232 3165.5,532C 3163.4,537.037 3160.9,541.871 3158,546.5C 3153.21,550.216 3148.04,553.382 3142.5,556C 3140.81,558.557 3139.64,561.391 3139,564.5C 3136,566.833 3133,569.167 3130,571.5C 3129.61,585.215 3123.44,595.381 3111.5,602C 3099.52,607.319 3088.19,613.653 3077.5,621C 3074.89,622.938 3073.06,625.438 3072,628.5C 3070.24,633.037 3068.91,637.704 3068,642.5C 3060.82,645.338 3053.65,648.171 3046.5,651C 3048.5,651.333 3050.5,651.667 3052.5,652C 3050.91,653.046 3049.41,654.213 3048,655.5C 3042.42,669.058 3032.26,676.558 3017.5,678C 3016,679.5 3014.5,681 3013,682.5C 3010.59,687.659 3007.92,692.659 3005,697.5C 3000,701.833 2995,706.167 2990,710.5C 2989.67,710.167 2989.33,709.833 2989,709.5C 2985.95,713.095 2982.78,716.595 2979.5,720C 2989.62,727.947 2998.95,736.78 3007.5,746.5C 3009.41,747.373 3011.25,748.373 3013,749.5C 3015.2,753.594 3016.7,757.927 3017.5,762.5C 3022.78,765.631 3025.94,770.298 3027,776.5C 3036.29,782.121 3043.95,789.454 3050,798.5C 3055.23,801.79 3059.89,805.79 3064,810.5C 3068.59,817.427 3070.09,824.927 3068.5,833C 3070.39,833.973 3072.39,834.64 3074.5,835C 3077,838.167 3079.5,841.333 3082,844.5C 3082.33,843.833 3082.67,843.167 3083,842.5C 3090.04,849.207 3097.37,855.54 3105,861.5C 3107.73,865.744 3109.23,870.411 3109.5,875.5C 3115.81,875.712 3119.31,879.046 3120,885.5C 3130.35,896.251 3140.68,906.918 3151,917.5C 3151.67,918.167 3151.67,918.833 3151,919.5C 3150.28,918.549 3149.45,918.383 3148.5,919C 3152.02,922.025 3155.69,924.858 3159.5,927.5C 3160.49,931.783 3160.83,936.116 3160.5,940.5C 3164.28,941.429 3167.95,942.762 3171.5,944.5C 3177,949.16 3182.67,953.66 3188.5,958C 3195.36,966.23 3201.86,974.73 3208,983.5C 3219.56,994.305 3230.89,1005.3 3242,1016.5C 3246.16,1021.49 3249.83,1026.82 3253,1032.5C 3261.47,1034.97 3268.31,1039.8 3273.5,1047C 3273.17,1047.33 3272.83,1047.67 3272.5,1048C 3281.12,1051.96 3286.96,1058.46 3290,1067.5C 3299.42,1077.59 3308.09,1088.25 3316,1099.5C 3333.41,1114.24 3350.24,1129.74 3366.5,1146C 3364.42,1154.41 3362.58,1162.91 3361,1171.5C 3345.16,1178.66 3328.99,1185.16 3312.5,1191C 3306.12,1191.1 3299.78,1190.44 3293.5,1189C 3288.88,1183.71 3285.05,1177.87 3282,1171.5C 3277.09,1165.92 3271.59,1161.09 3265.5,1157C 3261.33,1151.5 3256.5,1146.67 3251,1142.5C 3249.06,1137.27 3245.73,1133.27 3241,1130.5C 3238.99,1123.88 3238.32,1117.21 3239,1110.5C 3235.17,1107.33 3231.33,1104.17 3227.5,1101C 3221.48,1099.46 3215.48,1097.79 3209.5,1096C 3203.69,1090.86 3197.36,1086.52 3190.5,1083C 3187.37,1079.25 3184.87,1075.08 3183,1070.5C 3181.11,1069.87 3179.44,1068.87 3178,1067.5C 3170,1052.82 3161,1038.82 3151,1025.5C 3144.79,1020.96 3139.62,1015.46 3135.5,1009C 3132.83,1007.33 3130.17,1005.67 3127.5,1004C 3118.84,992.99 3108.17,984.657 3095.5,979C 3090.45,974.691 3087.78,969.191 3087.5,962.5C 3075.76,959.207 3066.92,952.207 3061,941.5C 3048.36,927.527 3035.03,914.194 3021,901.5C 3016.47,895.773 3012.97,889.44 3010.5,882.5C 3005.08,879.91 3000.74,876.077 2997.5,871C 2987.52,865.843 2978.86,859.009 2971.5,850.5C 2966.81,853.213 2965.31,857.213 2967,862.5C 2968.46,869.889 2970.13,877.222 2972,884.5C 2972.64,889.687 2972.47,894.854 2971.5,900C 2973.15,906.907 2974.15,913.907 2974.5,921C 2973.93,935.178 2973.26,949.345 2972.5,963.5C 2972.17,964.5 2971.83,965.5 2971.5,966.5C 2970.78,963.93 2969.61,961.597 2968,959.5C 2967.35,958.304 2966.85,958.304 2966.5,959.5C 2969.5,969.397 2972.34,979.064 2975,988.5C 2975.67,1004.17 2975.67,1019.83 2975,1035.5C 2974.04,1043.05 2971.87,1050.22 2968.5,1057C 2971.49,1059.99 2973.66,1063.49 2975,1067.5C 2975.44,1073.89 2976.27,1080.22 2977.5,1086.5C 2977.1,1090.38 2976.44,1094.22 2975.5,1098C 2978.13,1113.15 2977.47,1128.15 2973.5,1143C 2975.96,1144.46 2978.13,1146.29 2980,1148.5C 2982.13,1175.77 2983.13,1203.1 2983,1230.5C 2984.11,1244.15 2984.94,1257.81 2985.5,1271.5C 2985.68,1275.53 2985.01,1279.36 2983.5,1283C 2984.72,1284.65 2985.55,1286.48 2986,1288.5C 2987.5,1299.47 2988.16,1310.47 2988,1321.5C 2984.34,1329.98 2977.84,1334.31 2968.5,1334.5C 2951.22,1332.85 2933.89,1331.85 2916.5,1331.5C 2916.71,1329.86 2916.38,1328.36 2915.5,1327C 2910.57,1325.02 2905.73,1322.86 2901,1320.5C 2900.77,1310.98 2900.27,1301.48 2899.5,1292C 2899.91,1286.42 2901.25,1281.09 2903.5,1276C 2902.68,1274.51 2901.85,1273.01 2901,1271.5C 2900.67,1264.83 2900.33,1258.17 2900,1251.5C 2896.55,1242 2897.05,1232.67 2901.5,1223.5C 2900.06,1217.25 2899.23,1210.92 2899,1204.5C 2894.86,1196.09 2894.36,1187.42 2897.5,1178.5C 2895.43,1171.24 2895.09,1163.9 2896.5,1156.5C 2892.17,1141.31 2895.17,1127.81 2905.5,1116C 2904.7,1111.59 2904.2,1107.09 2904,1102.5C 2900.99,1096.48 2898.99,1090.15 2898,1083.5C 2899.11,1072.56 2899.44,1061.56 2899,1050.5C 2897.14,1042.42 2894.97,1034.42 2892.5,1026.5C 2895.82,1019.54 2899.16,1012.54 2902.5,1005.5C 2899.29,1002.42 2897.13,998.75 2896,994.5C 2895.33,984.155 2895.49,973.821 2896.5,963.5C 2895.39,954.532 2894.73,945.532 2894.5,936.5C 2895.31,915.713 2897.14,895.047 2900,874.5C 2901.3,870.268 2902.8,866.102 2904.5,862C 2900.39,858.892 2896.55,855.392 2893,851.5C 2892.03,849.608 2891.36,847.608 2891,845.5C 2889.25,823.169 2887.41,800.835 2885.5,778.5C 2885.91,774.476 2886.07,770.476 2886,766.5C 2881.94,761.442 2878.28,756.108 2875,750.5C 2870.05,747.455 2865.89,743.622 2862.5,739C 2860.83,733.333 2859.17,727.667 2857.5,722C 2860.98,709.867 2866.98,699.2 2875.5,690C 2878.6,688.022 2881.93,686.522 2885.5,685.5C 2886.14,684.354 2886.98,683.354 2888,682.5C 2888.37,676.418 2889.21,670.418 2890.5,664.5C 2889.26,660.777 2888.59,656.944 2888.5,653C 2887.39,641.809 2890.39,631.976 2897.5,623.5C 2895.47,620.779 2893.97,617.779 2893,614.5C 2891.53,587.152 2891.53,559.819 2893,532.5C 2896.18,526.293 2898.68,519.793 2900.5,513C 2894.94,506.88 2893.1,499.713 2895,491.5C 2897.95,483.687 2900.29,475.687 2902,467.5C 2903.7,443.493 2905.37,419.493 2907,395.5C 2907.65,390.923 2908.49,386.423 2909.5,382C 2904.93,377.28 2902.93,371.613 2903.5,365C 2905.7,336.214 2907.36,307.381 2908.5,278.5C 2910.17,278.5 2911.83,278.5 2913.5,278.5C 2912.98,275.432 2912.14,272.432 2911,269.5C 2909.75,271.001 2908.75,272.668 2908,274.5C 2903.2,262.172 2903.7,250.172 2909.5,238.5C 2906.36,233.638 2904.69,228.305 2904.5,222.5C 2905.61,215.542 2906.27,208.542 2906.5,201.5C 2904.37,166.985 2902.03,132.485 2899.5,98C 2899.67,94.8333 2899.83,91.6667 2900,88.5C 2900.25,87.376 2900.75,86.376 2901.5,85.5C 2908.95,83.1458 2916.28,80.8125 2923.5,78.5 Z M 2979.5,219.5 C 2984.03,220.949 2988.7,221.783 2993.5,222C 2997.15,230.64 3002.65,237.807 3010,243.5C 3013.75,250.663 3017.75,257.663 3022,264.5C 3032.44,272.933 3042.27,282.099 3051.5,292C 3055.61,293.801 3059.44,295.968 3063,298.5C 3065.12,308.956 3071.46,314.956 3082,316.5C 3084.74,326.484 3089.91,334.984 3097.5,342C 3107.41,349.205 3117.57,356.038 3128,362.5C 3129.97,371.275 3134.14,378.775 3140.5,385C 3145.64,388.046 3151.14,389.88 3157,390.5C 3158.98,397.087 3160.65,403.754 3162,410.5C 3164.31,413.979 3167.15,416.979 3170.5,419.5C 3165.59,423.915 3160.25,427.748 3154.5,431C 3153.12,432.925 3151.62,434.759 3150,436.5C 3147.13,443.244 3144.63,450.077 3142.5,457C 3135.59,458.854 3129.26,461.854 3123.5,466C 3117.67,471.833 3111.83,477.667 3106,483.5C 3104.5,486.509 3103,489.509 3101.5,492.5C 3094.56,494.942 3089.72,499.608 3087,506.5C 3070.37,522.779 3052.21,537.279 3032.5,550C 3029,554.833 3024.83,559 3020,562.5C 3016.99,566.506 3014.49,570.84 3012.5,575.5C 3008.54,575.942 3004.87,577.109 3001.5,579C 2998.79,582.242 2996.46,585.742 2994.5,589.5C 2989.39,593.11 2984.72,597.277 2980.5,602C 2979.55,602.483 2978.55,602.649 2977.5,602.5C 2977.32,594.4 2976.32,586.4 2974.5,578.5C 2977.6,572.687 2979.6,566.52 2980.5,560C 2979.28,540.814 2977.61,521.648 2975.5,502.5C 2978.16,498.995 2980.66,495.328 2983,491.5C 2983.79,488.529 2984.46,485.529 2985,482.5C 2984.87,472.145 2985.04,461.812 2985.5,451.5C 2983.31,438.15 2983.65,424.816 2986.5,411.5C 2985.87,406.698 2984.7,402.032 2983,397.5C 2983.4,388.462 2981.9,379.795 2978.5,371.5C 2985.89,363.832 2988.55,354.666 2986.5,344C 2986.68,336.41 2986.01,328.91 2984.5,321.5C 2985.03,318.265 2985.7,315.098 2986.5,312C 2985.25,298.947 2983.58,285.947 2981.5,273C 2983.07,264.981 2982.23,257.148 2979,249.5C 2978.61,239.495 2978.78,229.495 2979.5,219.5 Z"/></g>
<g><path style="opacity:0.984" fill="#FFFFFF" d="M 1106.5,79.5 C 1115.12,80.5519 1123.79,81.3853 1132.5,82C 1135.05,82.0674 1137.21,82.9007 1139,84.5C 1144.54,105.646 1150.54,126.646 1157,147.5C 1157.76,152.707 1157.59,157.874 1156.5,163C 1158.78,166.495 1160.28,170.328 1161,174.5C 1164.58,197.344 1168.58,220.011 1173,242.5C 1171.13,240.291 1168.96,238.458 1166.5,237C 1165.36,236.251 1164.36,236.417 1163.5,237.5C 1168.08,242.987 1172.41,248.653 1176.5,254.5C 1175.16,259.179 1176.66,262.846 1181,265.5C 1183.9,277.424 1187.56,289.091 1192,300.5C 1193.8,305.684 1194.63,311.017 1194.5,316.5C 1193.99,322.874 1193.49,329.207 1193,335.5C 1195.85,337.598 1198.52,339.931 1201,342.5C 1202.36,351.641 1204.36,360.641 1207,369.5C 1211.33,380.5 1215.67,391.5 1220,402.5C 1222.08,411.541 1221.91,420.541 1219.5,429.5C 1221.34,438.509 1224.84,446.842 1230,454.5C 1234.29,466.106 1236.79,477.939 1237.5,490C 1240.5,494.333 1243.5,498.667 1246.5,503C 1245.4,507.309 1243.74,511.309 1241.5,515C 1245.64,518.416 1245.48,521.583 1241,524.5C 1240.39,527.43 1239.56,530.263 1238.5,533C 1240.41,534.413 1241.75,536.247 1242.5,538.5C 1241.41,541.773 1241.25,545.106 1242,548.5C 1243.38,551.428 1244.88,554.262 1246.5,557C 1246.24,558.261 1245.57,559.261 1244.5,560C 1246.23,559.591 1247.89,559.758 1249.5,560.5C 1257.03,575.333 1258.36,590.667 1253.5,606.5C 1254.21,609.458 1255.21,612.291 1256.5,615C 1255.83,615.333 1255.17,615.667 1254.5,616C 1257.33,619.5 1260.17,623 1263,626.5C 1263.6,638.227 1263.27,649.894 1262,661.5C 1264.29,662.79 1266.29,664.457 1268,666.5C 1271.28,675.999 1273.94,685.665 1276,695.5C 1276.2,708.529 1276.87,721.529 1278,734.5C 1281.67,754.167 1285.33,773.833 1289,793.5C 1290.06,803.805 1290.73,814.139 1291,824.5C 1298.75,830.91 1304.08,838.91 1307,848.5C 1309.32,859.061 1310.99,869.728 1312,880.5C 1318.52,895.58 1321.68,911.58 1321.5,928.5C 1320.87,937.501 1320.7,946.501 1321,955.5C 1321.33,956.833 1321.67,958.167 1322,959.5C 1324.18,960.928 1326.18,962.595 1328,964.5C 1330.15,972.119 1332.15,979.785 1334,987.5C 1338.89,997.277 1343.22,1007.28 1347,1017.5C 1347.85,1021.47 1348.52,1025.47 1349,1029.5C 1349.33,1045.83 1349.67,1062.17 1350,1078.5C 1350.83,1083.14 1351.5,1087.81 1352,1092.5C 1361.13,1110.03 1364.79,1128.7 1363,1148.5C 1364.7,1158.31 1366.87,1167.97 1369.5,1177.5C 1369.2,1182.1 1368.53,1186.6 1367.5,1191C 1382.48,1222.47 1385.98,1254.97 1378,1288.5C 1374.53,1290.63 1371.7,1293.47 1369.5,1297C 1352.3,1300.59 1336.63,1297.26 1322.5,1287C 1317.53,1283.03 1312.87,1278.7 1308.5,1274C 1300.06,1272.07 1291.72,1269.74 1283.5,1267C 1280.28,1260.57 1278.45,1253.74 1278,1246.5C 1257.89,1232.92 1241.89,1215.58 1230,1194.5C 1227.83,1192.33 1225.67,1190.17 1223.5,1188C 1216.74,1183.58 1210.24,1178.75 1204,1173.5C 1203.17,1170.21 1202.67,1166.87 1202.5,1163.5C 1196.83,1164.08 1191.17,1164.24 1185.5,1164C 1156.94,1133.44 1127.11,1104.27 1096,1076.5C 1095.1,1072.89 1093.93,1069.39 1092.5,1066C 1088.12,1065.4 1083.78,1064.56 1079.5,1063.5C 1072.06,1045.89 1059.89,1032.56 1043,1023.5C 1039.91,1018.99 1037.08,1014.32 1034.5,1009.5C 1028.83,1007.5 1023.17,1005.5 1017.5,1003.5C 1016.26,1000.68 1014.76,998.014 1013,995.5C 1004.33,987.5 995.667,979.5 987,971.5C 983.606,967.102 980.606,962.435 978,957.5C 975.025,964.426 972.858,971.593 971.5,979C 975.853,992.715 975.02,1006.22 969,1019.5C 962.638,1032.59 957.471,1046.09 953.5,1060C 954.925,1061.71 954.592,1063.05 952.5,1064C 954.888,1066.05 956.888,1068.38 958.5,1071C 956.278,1077.39 954.444,1083.89 953,1090.5C 949.48,1111.81 946.147,1133.14 943,1154.5C 941.801,1159.26 940.301,1163.93 938.5,1168.5C 939.816,1176.83 939.649,1185.17 938,1193.5C 933.967,1210.56 927.967,1226.9 920,1242.5C 919.659,1255.22 918.659,1267.89 917,1280.5C 913.87,1282.63 911.037,1285.13 908.5,1288C 908.931,1291.5 907.598,1294.5 904.5,1297C 892.446,1304.56 879.446,1306.56 865.5,1303C 860.49,1301.3 855.99,1298.8 852,1295.5C 850.69,1292.53 848.69,1290.19 846,1288.5C 845.383,1287.55 845.549,1286.72 846.5,1286C 843.124,1281.42 840.124,1276.58 837.5,1271.5C 839.856,1268.98 842.023,1266.31 844,1263.5C 846.065,1255.8 848.232,1248.14 850.5,1240.5C 848.533,1234.99 848.033,1229.32 849,1223.5C 850.773,1217.29 853.106,1211.29 856,1205.5C 854.692,1191.76 858.358,1179.43 867,1168.5C 869.004,1163.99 870.504,1159.32 871.5,1154.5C 869.313,1152.15 866.813,1150.15 864,1148.5C 863.616,1133.13 864.283,1117.79 866,1102.5C 867.732,1087.36 874.398,1075.03 886,1065.5C 888.78,1059.92 887.78,1055.26 883,1051.5C 882.219,1050.27 881.719,1048.94 881.5,1047.5C 885.138,1035.4 889.471,1023.56 894.5,1012C 892.226,1010.23 890.559,1008.07 889.5,1005.5C 890.62,993.055 892.453,980.722 895,968.5C 896.222,965.107 898.389,962.44 901.5,960.5C 904.772,954.955 907.772,949.288 910.5,943.5C 909.031,939.094 907.364,934.761 905.5,930.5C 907.113,913.49 910.446,896.823 915.5,880.5C 905.732,867.896 894.232,857.23 881,848.5C 877.975,843.459 875.808,838.126 874.5,832.5C 871.482,832.665 868.482,832.498 865.5,832C 859,824.833 852.5,817.667 846,810.5C 846.04,802.846 846.374,795.179 847,787.5C 855.499,777.657 865.165,769.324 876,762.5C 883.516,764.254 891.016,766.087 898.5,768C 902.264,776.2 907.264,783.534 913.5,790C 919.316,792.83 925.149,795.663 931,798.5C 931.887,785.611 935.554,773.611 942,762.5C 943.378,760.787 945.045,759.453 947,758.5C 947.725,756.051 948.725,753.717 950,751.5C 952.374,749.461 954.374,747.128 956,744.5C 959.511,732.121 963.178,719.788 967,707.5C 968.96,704.415 970.793,701.248 972.5,698C 965.731,686.669 965.898,675.502 973,664.5C 974,655.5 975,646.5 976,637.5C 976.798,634.107 977.798,630.774 979,627.5C 986.503,620.167 991.17,611.167 993,600.5C 995.746,589.433 995.746,578.433 993,567.5C 992.333,563.167 992.333,558.833 993,554.5C 996.122,545.689 998.788,536.689 1001,527.5C 1006.11,524.028 1010.94,520.194 1015.5,516C 1017.31,516.046 1018.98,515.88 1020.5,515.5C 1015.02,508.852 1009.35,502.352 1003.5,496C 1008.57,481.86 1012.73,467.694 1016,453.5C 1018.81,446.53 1022.64,440.196 1027.5,434.5C 1026.21,432.12 1025.21,429.62 1024.5,427C 1026.17,424 1027.83,421 1029.5,418C 1028.71,416.374 1027.71,414.874 1026.5,413.5C 1032.15,391.884 1037.65,370.217 1043,348.5C 1046.62,339.599 1049.95,330.599 1053,321.5C 1054.49,292.555 1061.15,264.888 1073,238.5C 1077.68,217.097 1082.68,195.763 1088,174.5C 1089.09,168.218 1089.76,161.884 1090,155.5C 1092.07,149.689 1094.41,144.022 1097,138.5C 1099.95,118.787 1103.12,99.1204 1106.5,79.5 Z M 1246.5,913.5 C 1244.31,914.536 1244.31,916.036 1246.5,918C 1249.68,918.18 1251.01,919.846 1250.5,923C 1249.42,928.153 1248.42,933.319 1247.5,938.5C 1247.81,941.532 1248.31,944.532 1249,947.5C 1252.72,957.281 1256.72,966.948 1261,976.5C 1261.95,986.481 1262.61,996.481 1263,1006.5C 1263.41,1014.06 1264.91,1021.4 1267.5,1028.5C 1268.99,1029.24 1270.49,1029.91 1272,1030.5C 1275.07,1038.36 1277.73,1046.36 1280,1054.5C 1280.15,1064.91 1280.99,1075.24 1282.5,1085.5C 1283.68,1085.28 1284.68,1085.61 1285.5,1086.5C 1289.68,1092.5 1293.18,1098.83 1296,1105.5C 1296.29,1113.03 1295.79,1120.53 1294.5,1128C 1295.39,1136.95 1297.72,1145.45 1301.5,1153.5C 1301,1154.52 1300.33,1154.69 1299.5,1154C 1275.14,1129.3 1250.47,1104.97 1225.5,1081C 1202.79,1061.95 1179.79,1043.29 1156.5,1025C 1153.6,1016.38 1149.77,1008.21 1145,1000.5C 1138.12,994.307 1130.62,988.974 1122.5,984.5C 1117.28,973.114 1109.95,963.281 1100.5,955C 1087.83,946.667 1075.17,938.333 1062.5,930C 1057.12,923.423 1052.62,916.256 1049,908.5C 1042.46,901.315 1034.29,897.481 1024.5,897C 1017.08,890.253 1010.42,882.92 1004.5,875C 1005.77,869.572 1006.6,864.072 1007,858.5C 1018.3,846.728 1019.46,833.895 1010.5,820C 1014.6,815.554 1017.44,810.388 1019,804.5C 1019.93,793.445 1021.26,782.445 1023,771.5C 1034.81,756.112 1039.15,738.778 1036,719.5C 1040.97,711.697 1046.14,704.03 1051.5,696.5C 1050.12,692.854 1048.45,689.354 1046.5,686C 1048.89,684.048 1050.39,681.548 1051,678.5C 1057.14,652.268 1062.81,625.935 1068,599.5C 1080.7,595.769 1085.37,587.436 1082,574.5C 1079.47,570.972 1076.63,567.806 1073.5,565C 1076.67,559.828 1079.17,554.328 1081,548.5C 1081.46,536.453 1081.13,524.453 1080,512.5C 1085.49,492.21 1090.82,471.876 1096,451.5C 1097.58,434.6 1100.41,417.933 1104.5,401.5C 1103.58,396.517 1103.41,391.517 1104,386.5C 1108.08,378.009 1112.41,369.676 1117,361.5C 1117.75,356.511 1118.42,351.511 1119,346.5C 1122.49,359.963 1127.99,372.463 1135.5,384C 1131.81,391.428 1130.65,399.261 1132,407.5C 1135,414.167 1138,420.833 1141,427.5C 1143.21,437.456 1145.21,447.456 1147,457.5C 1147.48,460.933 1148.65,464.1 1150.5,467C 1149.35,470.306 1147.68,473.306 1145.5,476C 1150.04,497.146 1154.54,518.313 1159,539.5C 1160.97,543.922 1163.8,547.755 1167.5,551C 1159.95,577.509 1161.95,603.342 1173.5,628.5C 1176.09,630.043 1178.59,631.709 1181,633.5C 1179.58,655.052 1182.25,676.052 1189,696.5C 1190.79,699.295 1192.96,701.795 1195.5,704C 1195.04,704.414 1194.71,704.914 1194.5,705.5C 1200.81,716.83 1201.64,728.497 1197,740.5C 1195.23,747.828 1196.9,754.161 1202,759.5C 1205.35,769.599 1207.69,779.932 1209,790.5C 1212.4,791.527 1215.57,792.86 1218.5,794.5C 1216.65,800.714 1216.15,807.047 1217,813.5C 1222.14,833.837 1225.14,854.504 1226,875.5C 1229.58,880.328 1232.91,885.328 1236,890.5C 1236.33,895.167 1236.67,899.833 1237,904.5C 1240.15,907.632 1243.31,910.632 1246.5,913.5 Z M 1042.5,675.5 C 1045.52,677.716 1046.69,680.716 1046,684.5C 1044.73,681.516 1043.56,678.516 1042.5,675.5 Z M 1246.5,913.5 C 1247.83,914.167 1248.83,915.167 1249.5,916.5C 1247.5,916.5 1246.5,915.5 1246.5,913.5 Z"/></g>
</svg>
