<?xml version="1.0" standalone="no"?>
<!DOCTYPE svg PUBLIC "-//W3C//DTD SVG 20010904//EN"
 "http://www.w3.org/TR/2001/REC-SVG-20010904/DTD/svg10.dtd">
<svg version="1.0" xmlns="http://www.w3.org/2000/svg"
 width="3008.000000pt" height="1066.000000pt" viewBox="0 0 3008.000000 1066.000000"
 preserveAspectRatio="xMidYMid meet">

<g transform="translate(0.000000,1066.000000) scale(0.100000,-0.100000)"
fill="#FFF" stroke="none">
<path d="M700 9950 l0 -90 13636 2 13636 3 44 80 c24 44 44 83 44 88 0 4
-5571 7 -12381 7 l-12381 0 -64 -56 -64 -56 -162 17 c-115 12 -286 19 -583 22
l-420 5 -39 34 -40 34 -613 0 -613 0 0 -90z"/>
<path d="M28376 10028 c-9 -29 -36 -148 -36 -158 0 -15 872 -9 877 6 2 6 -45
45 -105 87 l-109 77 -312 0 c-241 0 -312 -3 -315 -12z"/>
<path d="M28070 9093 c-37 -10 -134 -16 -298 -20 l-243 -6 -57 -70 -57 -70
-14 71 -13 72 -827 0 -826 0 51 -34 c105 -71 178 -182 211 -324 17 -73 18
-172 18 -1772 0 -1600 -1 -1699 -18 -1772 -34 -143 -116 -267 -216 -326 l-46
-27 677 -3 c373 -1 982 -1 1354 0 l676 3 149 420 c81 230 147 420 146 421 -1
2 -41 -22 -87 -53 -206 -135 -474 -233 -759 -278 -284 -44 -772 -33 -1136 25
-33 6 -63 10 -67 10 -5 0 -8 345 -8 766 l0 766 378 -5 c404 -4 435 -8 555 -61
31 -13 76 -43 100 -65 24 -23 47 -41 51 -41 3 0 6 153 6 340 0 265 -3 340 -12
340 -7 0 -35 -7 -62 -15 -41 -12 -133 -15 -533 -15 l-483 0 0 595 0 595 23 5
c129 29 745 47 912 25 205 -25 322 -76 484 -208 l41 -34 0 381 c0 210 -3 381
-7 380 -5 -1 -33 -8 -63 -16z"/>
<path d="M22775 9080 c-121 -4 -438 -8 -705 -9 l-485 -1 51 -34 c105 -71 178
-182 211 -324 17 -73 18 -172 18 -1772 0 -1600 -1 -1699 -18 -1772 -33 -142
-106 -253 -211 -324 l-51 -34 620 0 619 0 -45 29 c-157 101 -222 239 -239 509
-12 183 -14 3272 -2 3272 4 0 45 7 92 15 477 82 811 -6 1001 -265 172 -233
172 -599 -1 -858 l-50 -75 16 -59 c8 -33 14 -61 12 -63 -2 -1 -35 2 -74 7
l-72 9 -48 -34 c-73 -51 -167 -100 -274 -142 -93 -37 -381 -115 -424 -115 -13
0 -25 -3 -29 -6 -6 -7 120 -216 283 -469 417 -649 994 -1368 1285 -1602 95
-76 209 -135 320 -165 66 -17 110 -21 255 -22 175 -1 544 21 568 33 8 5 -20
27 -75 59 -351 209 -704 544 -1160 1101 -241 294 -716 911 -708 919 2 2 55 21
118 42 236 79 421 193 592 365 156 156 238 285 292 462 25 81 27 102 27 258 1
147 -2 181 -22 254 -92 337 -358 604 -723 725 -244 81 -485 103 -964 86z"/>
<path d="M16286 9070 l-339 -5 51 -33 c68 -44 117 -102 158 -187 74 -152 69
-27 69 -1905 0 -1880 5 -1755 -69 -1905 -43 -87 -90 -143 -158 -186 l-53 -34
323 -3 c178 -1 465 -1 639 0 l315 3 -66 48 c-131 96 -201 204 -239 370 -21 91
-21 102 -24 1713 l-4 1622 23 5 c156 38 499 53 653 28 371 -60 620 -275 685
-591 34 -164 24 -321 -29 -477 -76 -222 -291 -447 -534 -557 -144 -66 -346
-122 -542 -151 l-50 -8 44 -19 c24 -11 87 -31 140 -46 89 -24 112 -26 306 -26
181 0 225 3 315 23 298 64 529 184 737 385 162 156 252 291 312 471 41 124 55
232 48 383 -10 264 -112 479 -326 692 -232 232 -520 353 -926 390 -110 10
-813 10 -1459 0z"/>
<path d="M1345 8996 c136 -138 176 -209 301 -530 30 -76 288 -769 574 -1540
555 -1498 572 -1543 658 -1711 49 -95 69 -123 152 -206 52 -52 138 -127 190
-166 170 -126 321 -226 329 -217 5 5 394 1004 866 2219 471 1216 859 2213 862
2218 2 4 -220 7 -494 7 l-498 0 45 -26 c68 -38 125 -100 157 -168 26 -57 28
-70 27 -181 0 -97 -6 -141 -28 -230 -34 -133 -105 -346 -184 -554 l-60 -155
39 -63 c27 -44 35 -65 27 -68 -7 -3 -40 -13 -72 -22 l-59 -18 -376 -987 c-207
-543 -379 -989 -382 -992 -7 -8 -1113 3012 -1156 3158 -24 83 -37 150 -40 214
l-6 92 -473 0 -473 0 74 -74z"/>
<path d="M6311 9041 c63 -40 124 -112 139 -166 14 -51 8 -127 -16 -215 -24
-83 -1236 -3102 -1313 -3270 -37 -80 -89 -183 -116 -230 -59 -100 -177 -222
-284 -295 l-73 -50 302 -3 c166 -1 435 -1 598 0 l297 3 -47 28 c-61 36 -139
114 -164 163 -28 56 -24 182 10 295 13 47 110 314 215 595 l189 509 818 0 817
0 199 -515 c308 -799 314 -823 253 -912 -27 -37 -90 -92 -175 -150 -24 -16 12
-17 648 -17 369 -1 672 1 672 3 0 1 -33 25 -72 51 -96 64 -218 183 -277 271
-50 74 -149 263 -197 374 -15 36 -343 850 -729 1810 l-701 1745 -520 2 -519 3
46 -29z m878 -1371 l319 -825 -645 -3 c-356 -1 -648 -1 -649 1 -3 2 606 1566
636 1636 6 13 13 22 15 19 2 -2 148 -375 324 -828z"/>
<path d="M10090 9065 c0 -3 33 -36 73 -75 131 -124 157 -202 133 -406 -24
-203 -405 -2970 -421 -3057 -57 -305 -135 -482 -300 -684 l-26 -33 530 0 c292
0 531 3 531 8 -1 4 -28 27 -62 52 -165 123 -210 258 -178 540 28 256 396 2988
401 2982 3 -4 288 -675 633 -1492 345 -817 661 -1552 701 -1635 53 -108 93
-174 142 -235 67 -82 300 -303 312 -296 3 2 328 826 721 1830 393 1004 717
1826 720 1826 4 0 299 -2359 351 -2810 10 -85 18 -203 19 -261 0 -218 -72
-380 -205 -461 -30 -18 -55 -36 -55 -40 0 -5 279 -8 620 -8 341 0 620 2 620 5
0 3 -37 42 -83 87 -130 131 -176 240 -227 537 -10 64 -112 780 -226 1591 -230
1643 -233 1670 -187 1816 27 86 70 147 128 182 25 15 45 30 45 35 0 4 -252 7
-559 7 l-560 0 -6 -47 c-11 -84 -44 -208 -89 -335 -40 -113 -1064 -2739 -1070
-2745 -1 -2 -225 519 -496 1157 l-494 1160 -85 0 -85 0 31 33 c24 24 35 47 44
97 l12 66 -97 227 c-93 219 -126 315 -126 364 l0 23 -565 0 c-311 0 -565 -2
-565 -5z"/>
<path d="M19560 9063 c0 -5 20 -20 44 -36 90 -57 164 -163 200 -288 32 -108
36 -303 36 -1799 0 -1496 -4 -1691 -36 -1799 -35 -123 -111 -232 -199 -288
-25 -15 -45 -31 -45 -35 0 -5 275 -8 610 -8 336 0 610 3 610 8 0 4 -16 16 -35
26 -57 31 -130 111 -169 185 -54 103 -67 170 -73 388 -6 191 -6 192 -29 197
-19 5 -24 13 -24 40 0 31 -3 34 -51 47 l-51 14 76 81 75 81 4 1389 c3 1271 4
1394 20 1452 35 130 105 237 197 301 33 23 60 44 60 47 0 2 -274 4 -610 4
-335 0 -610 -3 -610 -7z"/>
<path d="M778 3969 l-78 -39 0 -45 0 -45 2362 0 2362 0 74 52 75 51 217 -19
216 -19 190 52 189 51 -2765 1 -2765 0 -77 -40z"/>
<path d="M6861 4006 c2 -2 53 -40 114 -85 l109 -81 8315 0 c4716 0 8311 4
8306 9 -6 4 -94 43 -197 85 l-186 76 -8233 0 c-4528 0 -8230 -2 -8228 -4z"/>
<path d="M24025 3925 l-130 -85 2663 0 2662 0 0 85 0 85 -1447 0 -1448 0 -355
-57 -355 -56 -139 56 -139 57 -591 0 -591 0 -130 -85z"/>
<path d="M15422 2719 c-256 -33 -381 -335 -247 -599 30 -60 77 -118 127 -157
l41 -33 -112 0 c-119 0 -143 6 -177 47 l-21 25 -28 -36 c-31 -41 -45 -119 -26
-153 l10 -21 43 22 c61 30 256 36 308 9 68 -35 97 -116 69 -189 -5 -16 -13
-157 -16 -324 -8 -416 -7 -534 6 -620 15 -96 60 -301 71 -320 13 -22 26 18 62
194 29 137 31 167 31 331 -1 402 -10 711 -22 752 -21 74 9 145 72 174 54 24
222 26 282 3 73 -29 80 -26 83 34 2 40 -2 62 -19 92 -24 43 -39 49 -60 24 -29
-35 -66 -44 -180 -44 l-112 0 42 30 c54 39 124 136 151 208 64 168 42 323 -60
435 -85 93 -192 132 -318 116z m174 -185 c37 -23 56 -44 79 -89 27 -52 30 -68
30 -150 0 -82 -3 -97 -33 -157 -30 -62 -109 -148 -135 -148 -19 0 0 150 22
181 l21 28 -29 21 c-16 11 -40 37 -52 57 -21 34 -24 35 -33 17 -6 -10 -30 -38
-52 -60 l-42 -42 21 -21 c18 -18 23 -36 26 -103 l3 -81 -33 19 c-45 26 -105
107 -126 169 -39 110 -14 255 55 329 69 74 187 86 278 30z"/>
<path d="M12088 2538 c-46 -95 -128 -267 -184 -383 -56 -115 -99 -213 -97
-217 2 -5 31 -8 64 -8 l60 0 99 208 c55 114 110 229 123 256 l23 49 116 -254
116 -254 96 -3 c53 -1 96 1 96 6 0 4 -78 179 -174 388 l-173 379 -42 3 -41 3
-82 -173z"/>
<path d="M13732 2699 c-199 -34 -280 -221 -147 -338 19 -16 90 -60 160 -97 70
-38 135 -80 145 -94 63 -89 7 -169 -112 -158 -61 6 -94 29 -120 83 l-22 45
-67 0 -68 0 8 -28 c23 -77 68 -128 146 -163 40 -19 68 -23 145 -23 89 -1 101
2 164 33 85 42 126 98 126 173 0 93 -49 145 -220 234 -166 86 -209 135 -178
201 20 42 72 65 133 59 62 -7 93 -29 125 -89 l25 -47 58 0 c68 0 73 12 28 82
-67 105 -188 152 -329 127z"/>
<path d="M21832 2331 c-100 -210 -182 -385 -182 -391 0 -6 26 -10 60 -10 51 0
62 3 74 23 7 12 62 124 121 250 60 125 111 227 115 227 3 0 57 -112 120 -250
l114 -250 93 0 c68 0 93 3 93 13 0 6 -78 181 -173 387 l-172 375 -41 3 -41 3
-181 -380z"/>
<path d="M4367 2683 c-4 -3 -7 -19 -7 -35 l0 -28 130 0 130 0 0 -345 0 -345
95 0 95 0 0 345 0 345 130 0 130 0 0 35 0 35 -348 0 c-192 0 -352 -3 -355 -7z"/>
<path d="M6040 2310 l0 -380 95 0 95 0 0 180 0 180 145 0 145 0 2 -177 3 -178
93 -3 92 -3 0 381 0 381 -92 -3 -93 -3 -3 -162 -2 -163 -145 0 -145 0 0 165 0
165 -95 0 -95 0 0 -380z"/>
<path d="M7735 2678 c-3 -7 -4 -177 -3 -378 l3 -365 280 0 280 0 3 43 3 42
-190 0 -191 0 0 145 0 145 155 0 155 0 0 35 0 35 -155 0 -155 0 0 120 0 120
191 0 190 0 -3 33 -3 32 -278 3 c-217 2 -279 0 -282 -10z"/>
<path d="M10005 2677 c-3 -6 -4 -176 -3 -377 l3 -365 60 0 60 0 5 231 5 232
119 -234 120 -234 36 0 35 0 115 230 115 231 5 -228 5 -228 95 0 95 0 0 375 0
375 -90 3 -90 3 -126 -253 -126 -252 -128 252 -127 252 -89 0 c-63 0 -91 -4
-94 -13z"/>
<path d="M16890 2418 c1 -199 4 -283 14 -310 23 -63 72 -115 144 -150 64 -32
71 -33 187 -33 144 0 198 19 268 94 69 74 72 89 72 396 l0 270 -60 0 -60 0 -5
-275 c-6 -312 -10 -330 -83 -378 -33 -22 -52 -27 -101 -27 -75 0 -121 26 -156
87 -25 42 -25 49 -30 318 l-5 275 -92 3 -93 3 0 -273z"/>
<path d="M18600 2310 l0 -380 280 0 280 0 0 45 0 45 -185 0 -185 0 0 145 0
145 155 0 155 0 0 35 0 35 -155 0 -155 0 0 120 0 120 185 0 185 0 0 35 0 35
-280 0 -280 0 0 -380z"/>
<path d="M20155 2677 c-3 -6 -4 -176 -3 -377 l3 -365 93 -3 92 -3 0 341 0 340
46 0 c89 0 144 -51 144 -132 0 -70 -60 -128 -132 -128 -22 0 -38 -4 -36 -9 2
-4 57 -96 123 -204 l120 -197 103 0 c56 0 102 2 102 5 0 2 -50 84 -112 181
-62 98 -108 179 -103 181 30 10 76 46 101 79 25 32 29 47 29 100 0 69 -14 96
-76 145 -55 45 -131 59 -321 59 -126 0 -170 -3 -173 -13z"/>
<path d="M23385 2677 c-3 -6 -4 -176 -3 -377 l3 -365 195 0 c226 0 293 13 388
74 69 45 107 88 141 161 22 47 26 68 26 150 -1 84 -4 101 -28 148 -56 107
-157 176 -303 207 -91 19 -412 21 -419 2z m390 -96 c124 -58 183 -231 132
-386 -38 -112 -113 -166 -244 -173 l-83 -5 0 292 0 291 78 0 c54 0 89 -6 117
-19z"/>
<path d="M25130 2310 l0 -380 283 2 282 3 3 43 3 42 -190 0 -191 0 0 145 0
145 155 0 155 0 0 35 0 35 -155 0 -155 0 0 120 0 120 191 0 190 0 -3 33 -3 32
-282 3 -283 2 0 -380z"/>
</g>
</svg>
