<?xml version="1.0" standalone="no"?>
<!DOCTYPE svg PUBLIC "-//W3C//DTD SVG 20010904//EN"
 "http://www.w3.org/TR/2001/REC-SVG-20010904/DTD/svg10.dtd">
<svg version="1.0" xmlns="http://www.w3.org/2000/svg"
 width="2462.000000pt" height="651.000000pt" viewBox="0 0 2462.000000 651.000000"
 preserveAspectRatio="xMidYMid meet">

<g transform="translate(0.000000,651.000000) scale(0.100000,-0.100000)"
fill="#FFFFFF" stroke="none">
<path d="M10810 6504 c-143 -9 -308 -26 -337 -35 -47 -15 -98 -79 -117 -148
-21 -76 -41 -85 -191 -86 -110 0 -111 0 -152 -33 -23 -18 -79 -72 -124 -120
-451 -481 -763 -1218 -819 -1932 -7 -92 -8 -220 -1 -405 12 -330 18 -354 122
-505 40 -57 82 -128 93 -159 19 -47 31 -62 79 -94 66 -45 71 -65 25 -104 -18
-16 -50 -44 -72 -64 l-40 -36 39 -109 c240 -682 546 -1042 1005 -1184 161 -50
259 -62 560 -67 l275 -5 325 137 c179 75 334 141 345 145 15 6 37 -3 84 -31
81 -49 198 -94 321 -125 110 -27 210 -41 210 -28 0 5 -31 83 -70 174 l-70 165
60 209 59 208 -69 522 c-39 286 -71 528 -73 536 -1 8 -23 -16 -47 -55 -263
-415 -476 -700 -665 -891 -101 -102 -234 -208 -309 -246 -23 -11 -51 -29 -63
-41 l-22 -20 -10 25 c-11 31 -29 38 -87 38 -126 0 -320 77 -432 172 -116 98
-206 245 -262 427 -77 251 -83 421 -41 1182 17 306 31 558 31 562 0 3 -52 40
-116 81 l-115 76 43 54 c24 30 68 85 99 122 l55 69 12 120 c20 205 77 370 176
509 48 68 150 168 218 213 63 43 193 113 209 113 8 -1 30 -14 49 -30 19 -17
40 -30 46 -30 6 0 24 16 39 35 26 34 28 35 78 29 114 -13 296 -129 452 -288
100 -103 192 -228 275 -373 44 -77 61 -98 85 -106 53 -17 65 -35 65 -97 0 -55
1 -57 81 -156 44 -54 102 -127 127 -162 l47 -62 3 340 2 340 -25 50 -25 50 25
50 25 49 0 471 0 471 -37 -6 c-101 -17 -196 -59 -310 -136 -40 -27 -75 -49
-78 -49 -3 0 -32 17 -63 39 -156 106 -393 190 -617 220 -91 12 -304 20 -385
15z"/>
<path d="M19795 6494 c-126 -7 -237 -13 -246 -13 -9 -1 -28 -19 -43 -41 l-26
-40 -67 41 c-64 39 -67 40 -111 29 -32 -8 -288 -11 -866 -11 -452 -1 -904 -4
-1006 -7 l-185 -7 3 -55 c4 -76 -3 -97 -36 -105 -25 -5 -34 -21 -94 -163 l-67
-157 -11 -475 -11 -475 -55 -280 c-30 -154 -58 -288 -61 -299 -5 -17 0 -18 68
-11 41 4 79 12 86 18 12 12 235 515 292 660 24 61 31 93 31 148 l0 71 54 51
c39 38 75 90 131 192 42 77 97 173 122 213 l44 72 220 0 219 0 0 -62 c0 -35
12 -155 26 -267 l27 -204 -28 -134 c-34 -165 -31 -193 35 -333 27 -58 52 -121
55 -140 7 -36 -23 -236 -51 -343 -8 -33 -27 -83 -41 -111 l-26 -51 -24 -630
c-29 -752 -27 -870 16 -1089 47 -238 51 -290 31 -345 -10 -25 -20 -73 -24
-105 -4 -33 -15 -73 -26 -90 -37 -60 -127 -135 -335 -281 -115 -81 -214 -151
-218 -155 -5 -4 8 -33 28 -64 l38 -56 806 -2 806 -3 46 44 47 43 45 -41 44
-41 166 0 165 0 31 55 c17 30 31 56 31 58 0 2 -46 32 -102 66 -296 178 -470
341 -531 494 -18 47 -20 70 -18 227 1 96 10 292 20 435 17 262 15 339 -13 394
-11 22 -10 54 5 201 10 96 21 315 25 486 l7 311 -71 44 c-40 24 -72 46 -72 49
1 3 32 29 70 59 l70 54 0 763 0 764 233 0 234 0 26 -67 c42 -106 132 -260 202
-348 36 -44 74 -99 85 -122 19 -41 22 -43 66 -43 l46 0 -6 -37 c-28 -183 -28
-197 -2 -244 14 -24 52 -118 85 -209 33 -91 76 -203 95 -250 l34 -85 46 -3 46
-3 0 678 0 679 -35 34 c-19 19 -35 39 -35 44 0 6 16 21 36 34 l36 23 -4 167
c-3 121 -9 181 -21 219 -17 51 -18 52 -47 41 -17 -5 -48 -30 -69 -54 l-39 -44
-34 47 c-19 27 -59 83 -88 126 -45 64 -58 77 -79 76 -14 -1 -129 -8 -256 -15z"/>
<path d="M22606 6493 c-25 -13 -54 -14 -205 -8 -97 4 -272 8 -389 9 -207 2
-213 2 -217 -18 -3 -12 -10 -41 -16 -66 -24 -101 -25 -96 22 -126 24 -15 82
-37 129 -49 76 -19 85 -24 84 -44 -1 -16 13 -34 47 -60 26 -20 48 -40 48 -44
1 -5 -13 -29 -31 -53 -29 -41 -31 -46 -20 -81 11 -35 -18 -159 -378 -1658
-215 -891 -398 -1644 -407 -1673 -16 -52 -15 -54 5 -82 29 -39 28 -47 -10 -70
-27 -16 -38 -34 -62 -102 -123 -349 -402 -684 -727 -873 -46 -26 -74 -50 -88
-76 l-21 -37 27 -6 c16 -2 118 -8 228 -11 181 -6 218 -4 383 19 251 35 318 34
438 -6 l94 -33 49 18 c40 14 84 17 243 17 l194 0 22 45 c12 25 22 47 22 50 0
2 -21 19 -47 36 -27 18 -107 91 -180 162 l-132 130 5 46 c11 92 77 413 145
706 39 165 73 315 76 333 l6 32 149 0 c146 0 150 1 209 30 l60 31 10 -31 11
-30 199 0 c109 0 199 -4 199 -8 0 -47 47 -250 71 -303 40 -92 51 -156 38 -221
-10 -49 -7 -64 35 -208 44 -153 76 -298 76 -347 0 -30 -91 -144 -182 -228 -63
-59 -171 -135 -192 -135 -31 -1 -37 -17 -20 -53 l17 -35 166 -4 c129 -2 172
-7 195 -19 27 -15 32 -15 80 4 43 16 67 18 158 14 l107 -6 17 51 16 50 62 -60
61 -60 185 -16 c102 -9 302 -32 445 -51 469 -61 462 -61 485 -40 35 32 20 99
-42 178 -45 58 -46 59 -110 52 l-57 -6 -10 38 c-6 21 -11 55 -11 75 0 33 -8
43 -92 120 -51 46 -117 103 -147 128 -29 25 -61 61 -72 81 -28 56 -86 254
-125 433 -33 146 -39 164 -69 196 l-34 35 19 40 c18 40 18 41 -13 216 l-32
176 -77 114 c-93 137 -172 290 -187 359 -18 85 -14 221 9 274 15 36 16 46 6
46 -32 0 -36 96 -7 163 l19 44 -38 165 c-21 91 -66 300 -101 464 -187 907
-207 995 -232 1033 -23 34 -25 41 -18 116 11 112 -3 201 -50 334 -22 64 -57
166 -77 226 -19 61 -36 111 -37 112 0 1 -55 7 -120 13 -66 6 -150 18 -187 26
-79 17 -66 17 -102 -3z m-135 -2003 c40 -229 49 -266 68 -280 12 -8 32 -23 44
-32 l22 -17 -32 -33 -33 -34 40 -224 c22 -123 40 -228 40 -232 0 -4 -28 -9
-62 -9 -102 -2 -123 -9 -123 -43 0 -16 -5 -31 -12 -33 -7 -3 -47 7 -89 22 -63
22 -85 25 -132 19 l-55 -7 6 79 c10 124 97 544 198 949 38 152 36 147 56 143
14 -3 25 -49 64 -268z"/>
<path d="M160 6397 l0 -83 61 -59 c110 -108 248 -276 281 -343 l33 -66 -3
-181 c-3 -178 -3 -182 31 -310 l34 -130 -28 -340 c-35 -422 -36 -458 -9 -485
11 -11 27 -20 35 -20 19 0 19 -11 -1 -146 -8 -60 -15 -144 -15 -186 1 -81 27
-249 59 -383 l19 -80 -60 -354 c-55 -322 -59 -354 -44 -363 21 -11 22 -34 3
-45 -13 -7 -15 -74 -18 -423 -3 -470 0 -450 -86 -534 -26 -25 -96 -85 -157
-133 -70 -56 -135 -120 -180 -176 -39 -48 -81 -94 -93 -103 -16 -11 -22 -25
-22 -55 l0 -39 164 0 164 0 38 47 38 46 40 -47 41 -46 307 0 307 0 66 36 65
36 44 -36 44 -36 346 0 346 0 0 22 c0 12 -27 52 -62 92 -133 151 -249 273
-296 310 l-49 38 -17 117 c-22 157 -57 310 -107 467 l-42 131 39 63 39 63 6
216 c5 136 13 244 23 291 12 55 16 130 16 283 l0 207 204 0 c183 0 215 -3 310
-25 130 -31 133 -31 308 0 78 14 148 25 155 25 10 0 13 -63 14 -297 l0 -298
33 -70 32 -70 -33 -78 -33 -79 0 -433 0 -432 -72 -93 c-87 -112 -202 -228
-235 -236 -22 -6 -24 -11 -21 -52 l3 -46 94 -38 c105 -43 233 -78 282 -78 27
0 45 11 95 61 l61 61 71 -61 70 -61 494 0 494 0 26 27 c28 31 68 104 68 126 0
14 -231 227 -282 261 -79 52 -137 344 -213 1066 -21 208 -29 317 -22 321 5 4
27 10 48 13 72 12 69 -24 69 789 0 609 -2 739 -15 813 -16 87 -55 234 -94 345
l-19 57 30 28 c43 42 77 114 88 191 5 37 10 173 10 302 l0 234 240 236 c132
130 240 243 240 251 0 8 -7 24 -16 35 -15 20 -28 20 -963 23 l-947 2 -14 -25
c-13 -25 -11 -29 88 -128 l102 -103 71 4 c66 4 71 3 66 -14 -3 -11 -8 -45 -12
-77 l-7 -58 61 -74 61 -73 0 -491 0 -491 35 -49 36 -49 -36 -64 -35 -65 0
-211 c0 -117 -2 -212 -5 -212 -3 0 -23 9 -44 20 -32 16 -96 24 -345 46 l-305
26 -82 -75 -82 -75 -118 42 -119 41 0 75 c0 41 7 130 16 197 9 70 13 150 10
186 -3 34 -5 80 -3 102 6 99 1 397 -10 570 l-11 189 54 144 54 144 175 239
c96 130 177 244 180 251 4 9 -8 20 -31 31 -31 15 -82 19 -365 24 l-329 6 -26
-60 -26 -61 -95 59 -94 59 -210 0 c-187 0 -214 -2 -247 -19 -38 -19 -38 -19
-50 0 -11 17 -25 19 -147 19 l-135 0 0 -83z"/>
<path d="M4850 6437 l0 -42 247 -235 246 -234 -6 -548 c-8 -678 -4 -730 73
-795 22 -19 45 -44 51 -55 16 -29 -11 -63 -79 -97 -77 -39 -92 -58 -103 -132
-19 -130 -28 -540 -26 -1097 l3 -572 32 -33 c18 -18 32 -37 32 -42 0 -5 -15
-24 -32 -43 l-33 -33 -5 -277 -5 -278 -143 -139 c-141 -136 -243 -258 -283
-336 l-20 -40 22 -39 c28 -49 -14 -47 484 -15 547 35 724 40 829 25 l88 -12
44 31 c25 17 49 31 54 31 5 0 18 -13 30 -30 l21 -30 331 0 c304 0 332 1 356
18 15 10 32 22 39 26 6 3 27 -6 45 -22 18 -16 42 -33 53 -39 13 -6 164 -5 434
3 447 13 495 20 506 67 18 82 35 213 35 272 0 39 -18 396 -40 794 l-39 723 20
39 c15 30 17 44 9 59 -12 23 -29 185 -30 282 0 83 -9 82 -81 -6 -96 -118 -197
-353 -279 -653 l-39 -143 19 -42 c10 -24 22 -71 25 -104 l7 -61 -98 -19 c-110
-21 -149 -42 -181 -99 -12 -22 -53 -129 -90 -238 -37 -109 -73 -206 -80 -215
-12 -15 -19 -11 -72 45 l-58 63 -82 -49 c-92 -56 -176 -87 -286 -106 -67 -11
-89 -11 -210 8 l-135 21 0 838 0 838 153 0 153 0 308 -350 c170 -193 311 -349
314 -346 3 3 11 36 18 73 23 121 -2 291 -71 493 -23 68 -38 132 -42 181 -5 73
-4 80 35 165 38 84 41 97 51 235 6 81 11 222 11 313 l0 166 -39 0 c-46 0 -211
-68 -349 -143 -90 -50 -159 -103 -179 -140 -9 -17 -12 -17 -58 3 -41 18 -65
21 -140 18 -58 -2 -103 -10 -127 -21 l-38 -17 0 775 0 775 405 0 405 0 41 -52
c52 -66 89 -125 175 -273 45 -78 77 -123 96 -134 20 -11 27 -21 23 -33 -3 -10
-7 -26 -11 -36 -3 -11 8 -34 29 -62 19 -25 124 -220 233 -435 108 -214 198
-391 199 -392 1 -2 20 5 43 14 25 9 42 22 42 32 0 9 -9 75 -20 146 -18 120
-20 188 -20 908 0 771 0 778 21 819 19 36 19 42 5 50 -8 5 -18 24 -22 43 l-6
35 -487 0 c-269 0 -517 -5 -556 -10 -84 -12 -166 -50 -185 -86 -16 -30 2 -30
-230 10 -288 49 -441 54 -686 20 l-111 -16 -29 30 c-47 46 -109 52 -557 52
l-397 0 0 -43z"/>
<path d="M14235 6427 c-33 -79 -43 -332 -19 -469 5 -30 -31 -165 -196 -734
l-202 -696 47 -48 47 -48 -58 -34 -57 -33 -133 -545 c-110 -448 -131 -548
-121 -561 6 -10 34 -42 61 -73 27 -31 47 -58 45 -60 -2 -2 -39 -26 -81 -54
-42 -29 -79 -60 -82 -69 -20 -71 -107 -534 -121 -643 -25 -205 -42 -299 -91
-490 -56 -223 -63 -264 -124 -740 -28 -217 -66 -492 -85 -610 -40 -245 -50
-369 -38 -455 l9 -60 47 80 c26 44 110 207 187 362 l140 281 0 94 0 93 76 95
c91 114 96 123 130 237 18 61 27 121 31 199 5 106 7 111 32 125 14 9 41 44 60
80 18 35 49 78 67 96 23 21 34 41 34 60 0 51 39 192 131 471 73 223 189 613
189 636 0 3 43 7 96 8 l96 3 17 43 17 44 43 -56 c33 -45 46 -55 64 -51 12 2
130 21 262 40 132 19 252 38 266 41 l26 5 22 -128 c47 -274 106 -454 165 -501
47 -36 31 -76 -42 -108 -2 -1 11 -53 27 -115 17 -63 34 -154 39 -204 l9 -90
-53 -65 c-116 -144 -271 -290 -349 -329 -41 -20 -45 -26 -45 -58 l0 -35 108 8
c180 15 312 11 350 -9 31 -17 33 -17 65 0 28 16 75 19 427 24 418 7 457 11
571 61 l50 21 15 -21 c23 -34 161 -69 361 -92 108 -12 136 -5 152 40 13 39 7
51 -56 112 -71 68 -364 318 -394 336 -83 49 -162 303 -274 878 -42 213 -63
299 -80 329 -14 22 -36 89 -50 149 -19 80 -39 134 -80 210 l-55 103 0 100 c0
65 -6 116 -16 147 -15 42 -22 50 -67 70 l-51 22 47 33 47 32 0 67 c0 48 -10
99 -35 182 -57 185 -213 827 -365 1500 -78 344 -150 664 -161 713 l-21 87
-100 0 -100 0 -45 -37 -45 -37 -32 37 -31 37 -353 0 -353 0 -14 -33z m553
-2227 c62 -335 100 -560 95 -569 -5 -7 -34 -31 -65 -53 l-57 -40 -25 28 -24
29 -172 -1 -172 -1 7 51 c4 28 18 103 31 166 27 127 231 927 240 942 3 5 13 8
22 6 14 -3 35 -101 120 -558z"/>
</g>
</svg>
