<?xml version="1.0" standalone="no"?>
<!DOCTYPE svg PUBLIC "-//W3C//DTD SVG 20010904//EN"
 "http://www.w3.org/TR/2001/REC-SVG-20010904/DTD/svg10.dtd">
<svg version="1.0" xmlns="http://www.w3.org/2000/svg"
 width="4800.000000pt" height="1350.000000pt" viewBox="0 0 4800.000000 1350.000000"
 preserveAspectRatio="xMidYMid meet">

<g transform="translate(0.000000,1350.000000) scale(0.100000,-0.100000)"
fill="#FFFFFF" stroke="none">
<path d="M10424 13218 l-19 -23 23 19 c21 18 27 26 19 26 -2 0 -12 -10 -23
-22z"/>
<path d="M22800 13207 c0 -7 -24 -17 -59 -24 -110 -20 -221 -84 -221 -125 0
-10 -5 -18 -11 -18 -6 0 -44 -27 -84 -60 -129 -105 -235 -243 -306 -395 -30
-66 -49 -93 -94 -131 -133 -115 -283 -306 -546 -695 -302 -446 -442 -625 -609
-774 -66 -59 -180 -145 -193 -145 -3 0 -1 17 4 38 14 59 9 82 -7 32 -8 -25
-12 -60 -9 -77 9 -50 -12 -42 -75 28 l-56 62 -1 -104 c0 -64 -13 -178 -31
-294 -17 -104 -34 -223 -38 -263 -5 -60 -11 -76 -28 -86 -11 -7 -70 -42 -131
-77 -99 -58 -245 -177 -245 -201 0 -5 26 -6 63 -3 l62 7 -35 -22 c-47 -30 -99
-79 -116 -112 -21 -41 -17 -79 14 -129 36 -56 78 -94 227 -201 160 -117 162
-118 170 -156 4 -21 15 -36 28 -42 77 -29 108 -45 127 -65 17 -18 29 -22 55
-18 l33 5 6 -243 c3 -134 10 -487 16 -784 6 -297 22 -920 35 -1385 53 -1860
54 -1983 5 -2725 -33 -514 -34 -581 -11 -745 30 -203 36 -313 22 -394 -14 -79
-47 -158 -86 -204 -30 -36 -31 -24 8 -202 27 -123 52 -308 92 -700 29 -278 56
-457 91 -610 90 -387 246 -650 476 -803 31 -20 58 -37 61 -37 2 0 7 38 10 84
l7 84 -54 113 c-106 222 -172 457 -197 711 l-12 117 39 48 c114 140 237 239
609 487 529 353 606 408 641 463 18 28 37 54 43 57 7 5 7 14 -1 31 -8 18 -8
28 1 39 10 12 1 40 -49 149 -59 131 -61 137 -54 194 10 93 -11 128 -179 301
-183 187 -202 222 -202 367 -1 55 -6 109 -12 120 -23 42 -44 170 -44 270 0
127 23 204 112 375 100 191 205 334 259 352 9 3 15 53 21 178 72 1489 76 2398
14 3225 -27 356 -108 1008 -135 1089 l-10 29 107 -6 c60 -3 171 -15 248 -26
182 -27 337 -27 438 -2 97 25 129 42 196 103 30 27 79 62 110 78 35 18 65 43
81 66 25 38 124 118 160 129 17 5 20 16 20 63 1 78 23 121 119 233 87 101 121
158 121 204 0 16 18 63 39 105 48 94 127 292 137 344 5 29 23 56 72 107 l64
69 -48 22 c-39 18 -72 23 -168 26 -212 7 -422 -30 -1051 -186 -376 -94 -599
-141 -610 -131 -9 9 -25 225 -25 329 1 58 5 125 10 150 6 29 6 63 -1 95 -9 41
-7 68 10 149 26 125 26 150 -1 186 -13 18 -18 33 -12 38 5 5 49 18 98 30 97
23 190 63 262 113 57 39 49 42 225 -87 153 -112 246 -164 293 -164 19 0 55
-10 82 -22 148 -65 320 -65 464 -1 56 25 160 130 222 224 33 50 61 80 90 96
57 33 76 50 108 100 15 24 54 62 86 86 71 53 102 87 137 149 15 25 51 68 80
95 31 27 70 77 92 116 21 38 49 82 63 99 32 37 95 67 141 68 21 0 43 8 57 21
14 13 45 23 88 30 51 7 76 16 105 39 47 38 124 68 197 76 l57 7 -24 20 c-32
26 -143 81 -226 112 -95 36 -225 68 -473 115 -392 74 -447 92 -780 247 -383
179 -538 234 -713 252 -56 5 -94 14 -106 25 -21 19 -51 21 -51 3z m-609 -1787
c23 -13 24 -28 2 -52 -25 -27 -33 -22 -33 22 0 43 2 45 31 30z m48 -8569 c11
-7 9 -11 -9 -21 -25 -13 -35 -8 -27 15 7 17 16 19 36 6z m107 -73 c3 -5 0 -15
-6 -23 -7 -8 -10 -26 -7 -40 5 -32 -26 -54 -49 -34 -19 16 -18 39 2 39 14 0
15 2 3 17 -11 13 -11 17 -1 20 6 3 12 13 12 23 0 13 5 17 20 13 11 -3 23 -10
26 -15z"/>
<path d="M10315 13118 c-108 -81 -309 -159 -527 -202 -282 -57 -526 -76 -1238
-96 -531 -16 -746 -35 -940 -86 -125 -33 -209 -73 -269 -129 -71 -67 -94 -126
-95 -245 -2 -162 50 -269 249 -521 117 -148 166 -224 280 -439 42 -80 104
-187 138 -237 52 -79 66 -94 94 -99 45 -9 60 -28 46 -64 -9 -24 -8 -32 5 -42
34 -28 162 -190 195 -247 47 -78 82 -178 98 -276 18 -102 16 -949 -2 -1910
-20 -993 -18 -2076 4 -2645 19 -472 18 -585 -8 -870 -28 -306 -73 -480 -123
-480 -9 0 -26 10 -39 22 -17 16 -34 22 -58 19 -29 -2 -42 5 -86 46 -57 53
-155 194 -185 267 -15 35 -26 48 -51 57 -105 34 -217 264 -308 631 -74 304
-107 527 -125 848 -35 612 -126 1065 -379 1885 -120 390 -181 591 -375 1250
-165 561 -208 703 -414 1365 -165 528 -211 652 -355 934 -94 185 -215 371
-284 438 -26 26 -147 110 -268 189 -121 78 -238 156 -260 174 -52 42 -100 55
-200 55 -124 -1 -177 -32 -195 -115 -6 -30 -7 -30 -71 -28 -43 1 -131 21 -275
62 -345 99 -363 99 -691 27 -90 -20 -198 -41 -240 -47 -134 -19 -380 3 -856
76 -426 65 -529 76 -762 81 -190 5 -213 4 -245 -13 -78 -40 -39 -106 159 -267
161 -132 159 -130 126 -152 -20 -13 -39 -16 -90 -11 -41 4 -65 3 -65 -4 0 -17
361 -372 490 -482 69 -58 240 -199 380 -313 508 -413 722 -623 828 -814 152
-273 207 -635 183 -1220 -24 -593 -30 -1008 -31 -2115 -1 -1049 0 -1194 19
-1520 62 -1095 51 -1627 -39 -1884 -22 -60 -64 -121 -85 -121 -18 0 -47 -29
-40 -41 3 -5 49 -39 101 -75 117 -82 131 -99 111 -146 -8 -18 -38 -60 -65 -93
l-50 -60 47 -20 c78 -33 85 -39 77 -69 -4 -18 -22 -35 -56 -54 -35 -19 -50
-33 -50 -48 0 -39 -107 -124 -300 -237 -134 -78 -400 -210 -511 -253 l-94 -37
-135 6 c-279 12 -707 110 -944 216 -37 17 -69 31 -70 31 0 0 31 -33 70 -74 39
-40 145 -165 235 -277 249 -311 355 -411 924 -870 160 -129 358 -292 440 -363
351 -302 510 -392 711 -403 105 -6 170 6 259 48 134 62 188 143 230 341 43
201 82 275 168 317 l44 21 6 243 c6 254 20 400 42 454 14 32 13 33 -21 49
-198 94 -289 676 -255 1629 12 332 41 824 67 1145 12 143 17 477 25 1475 8
1114 7 1329 -6 1578 -25 468 -18 705 26 874 30 119 26 119 119 7 180 -216 288
-412 490 -884 134 -313 219 -487 306 -625 77 -122 122 -215 149 -305 72 -242
274 -1212 364 -1756 41 -247 45 -274 34 -274 -5 0 -35 23 -66 51 l-57 51 19
-44 c10 -24 53 -116 95 -205 142 -307 205 -492 221 -653 7 -66 14 -85 57 -157
99 -164 197 -417 278 -711 22 -79 78 -311 125 -515 101 -437 139 -581 204
-777 101 -303 262 -611 623 -1192 128 -207 128 -207 212 -268 148 -106 157
-129 106 -257 -17 -42 -29 -78 -26 -80 2 -3 21 11 43 29 111 98 184 142 479
292 360 182 485 272 630 453 43 54 128 157 189 228 358 419 495 643 495 807 0
45 -2 49 -39 67 -73 38 -108 95 -136 228 -9 43 -24 102 -33 131 -17 57 -74
132 -100 132 -51 0 -159 121 -219 246 l-34 71 16 64 c20 88 29 261 17 335 -10
60 -30 112 -54 146 -16 22 11 192 78 483 210 924 199 653 154 3845 -5 360 -10
948 -11 1306 l-2 652 57 108 c119 224 295 468 423 583 87 79 143 106 215 106
48 0 61 -4 85 -27 16 -16 33 -28 37 -28 5 0 46 35 91 78 86 84 243 211 338
276 31 22 57 44 57 49 0 6 -21 7 -54 3 -84 -9 -88 -5 -61 62 12 31 44 123 70
203 l48 146 -32 46 c-41 60 -57 108 -75 217 -17 108 -38 152 -95 207 -34 33
-62 48 -113 63 -114 35 -335 88 -452 111 -61 11 -118 23 -126 25 -8 3 20 20
62 38 175 76 334 206 500 406 76 92 308 400 300 399 -4 0 -25 -14 -47 -31z"/>
<path d="M40375 13084 c-20 -65 -41 -90 -102 -119 -36 -17 -89 -56 -125 -91
-43 -41 -76 -65 -105 -73 -53 -15 -90 -58 -99 -116 -3 -26 -12 -45 -19 -45
-37 0 -178 -85 -240 -145 -36 -36 -72 -65 -79 -65 -29 0 -126 -84 -193 -166
-88 -109 -126 -146 -178 -173 l-41 -21 -39 20 c-51 26 -71 25 -90 -4 -9 -14
-55 -57 -103 -97 l-86 -71 79 3 78 4 23 -70 c42 -124 54 -146 76 -134 26 14
38 3 38 -32 0 -19 -8 -38 -22 -51 l-23 -19 32 5 31 5 7 -117 c15 -230 -11
-846 -41 -984 -5 -23 -9 -26 -24 -18 -10 6 -29 10 -43 10 -23 0 -23 -2 -19
-55 l4 -55 -43 0 c-74 0 -422 -19 -465 -26 l-41 -6 24 -66 c27 -75 22 -86 -39
-77 -31 4 -43 0 -72 -25 l-34 -31 -45 32 c-50 35 -129 49 -165 30 -22 -12 -42
-66 -42 -116 0 -28 26 -91 51 -126 10 -13 7 -22 -11 -47 -30 -40 -21 -76 26
-104 28 -17 33 -24 27 -42 -10 -27 -10 -113 0 -146 7 -23 4 -28 -30 -45 l-38
-19 38 -10 c40 -10 47 -26 21 -47 -8 -7 -24 -30 -35 -52 -23 -44 -22 -45 48
-83 33 -19 46 -46 37 -80 -4 -17 2 -22 33 -32 22 -6 57 -27 80 -47 23 -19 44
-35 47 -35 15 0 4 70 -15 94 -20 25 -20 28 -5 45 9 10 16 26 16 35 0 16 -6 17
-52 11 -48 -7 -51 -6 -39 9 12 14 11 19 -4 36 -18 20 -17 20 13 20 23 0 36 7
48 25 l16 25 40 -50 c43 -54 118 -191 118 -216 0 -10 7 -13 24 -8 33 8 57 -6
29 -17 -19 -7 -20 -14 -15 -166 2 -87 6 -160 8 -162 1 -1 52 9 112 23 125 30
133 31 126 12 -3 -8 7 -18 25 -26 25 -10 29 -15 21 -30 -18 -34 -12 -66 15
-78 14 -7 32 -12 40 -12 8 0 33 -8 56 -17 42 -16 42 -16 21 -34 -26 -20 -28
-29 -7 -29 32 0 81 -118 104 -247 10 -55 33 -232 51 -388 17 -146 22 -424 14
-712 -9 -316 -15 -321 -30 -23 l-8 165 -22 -305 c-12 -168 -29 -408 -39 -535
-16 -207 -16 -317 -9 -1110 15 -1520 7 -2628 -22 -2908 -5 -51 -11 -62 -49
-101 -72 -71 -161 -80 -251 -25 l-31 19 -33 -46 c-30 -42 -36 -46 -65 -41 -26
4 -38 0 -56 -19 -19 -20 -32 -24 -80 -24 -38 0 -61 -5 -69 -15 -7 -8 -20 -15
-30 -15 -21 0 -86 43 -110 72 -16 21 -17 19 -12 -35 2 -31 1 -57 -3 -57 -4 0
-42 27 -83 61 -42 33 -78 56 -80 51 -5 -15 66 -236 122 -379 29 -76 109 -264
176 -418 141 -323 185 -431 241 -593 33 -97 38 -120 28 -138 -9 -18 -7 -31 15
-77 15 -30 30 -81 33 -113 3 -33 13 -69 21 -81 8 -13 11 -30 8 -39 -11 -28 16
-74 44 -75 17 -1 19 -3 8 -6 -20 -5 -24 -28 -8 -38 17 -10 11 -25 -10 -25 -27
0 -25 -14 10 -117 17 -47 30 -102 31 -122 0 -20 3 -29 6 -21 3 8 14 30 25 48
20 32 21 33 35 13 8 -12 17 -21 21 -21 5 0 21 26 36 57 15 32 41 74 56 93 15
19 33 53 40 75 7 22 23 59 37 83 21 37 26 41 45 31 17 -9 24 -6 52 27 63 78
161 180 239 251 76 69 139 103 190 103 11 0 35 16 54 35 47 49 106 76 175 83
51 4 62 9 90 40 37 43 87 145 95 198 4 21 15 45 25 54 14 11 28 59 53 180 43
204 115 461 127 454 5 -4 18 -20 28 -36 l18 -30 70 210 70 210 -19 31 c-19 32
-19 32 7 82 34 68 64 189 64 261 0 55 1 58 25 58 29 0 29 0 13 34 -9 21 -8 29
5 44 21 22 22 43 3 36 -15 -6 -46 21 -46 41 0 7 7 26 15 41 8 16 15 54 15 85
0 40 5 63 19 80 18 23 18 23 -13 38 -22 12 -32 24 -34 45 -4 29 22 111 38 121
5 3 30 -16 57 -41 l48 -47 4 -318 3 -317 -32 -29 c-29 -26 -31 -32 -21 -51 13
-24 47 -46 55 -34 16 26 38 313 40 507 2 367 -16 1036 -29 1080 -10 35 -9 44
7 70 22 37 23 86 2 131 -15 31 -15 35 5 63 26 37 27 51 1 51 -11 0 -20 2 -20
3 0 2 9 38 19 80 45 173 48 347 14 752 -21 249 -21 466 1 760 23 304 18 600
-12 718 -17 68 -17 77 -4 77 12 0 11 5 -6 20 -24 23 -30 68 -9 76 8 3 11 18 9
42 -2 23 3 45 12 57 15 19 15 19 16 -10 1 -16 7 -43 14 -60 l13 -30 8 39 c10
50 0 264 -13 296 -7 17 -11 19 -11 8 -1 -9 -8 -24 -17 -32 -14 -14 -14 -18 0
-38 21 -30 20 -81 -2 -109 -24 -29 -55 -20 -47 13 2 13 9 67 15 122 6 54 13
102 15 106 3 4 -1 10 -9 13 -8 3 -12 15 -9 30 3 15 -3 39 -13 57 -18 29 -18
32 -2 61 16 27 16 32 2 54 -29 44 -35 141 -19 316 19 217 19 293 0 313 -15 14
-45 87 -45 108 0 5 5 6 10 3 6 -4 17 -1 25 5 13 10 13 16 0 40 -14 27 -13 28
10 34 32 8 32 29 1 53 -18 15 -23 26 -19 46 4 23 2 27 -16 27 -21 0 -21 1 -7
22 9 12 16 33 16 45 0 19 5 23 34 23 24 0 38 7 49 23 14 21 15 16 22 -77 10
-134 -1 -852 -15 -950 -10 -74 -10 -80 9 -97 18 -17 19 -21 6 -46 -19 -36 -19
-43 2 -73 l17 -24 7 28 c17 63 21 291 9 591 -12 331 -6 497 24 657 14 75 21
83 74 93 19 4 72 20 118 36 69 26 86 36 103 65 11 19 32 39 46 46 19 9 25 19
25 43 0 55 19 95 45 95 13 0 36 11 52 24 l27 24 -60 17 c-54 15 -61 20 -72 53
l-12 37 60 57 c33 32 60 65 60 74 0 19 -57 141 -77 165 -11 14 -11 18 2 29 8
7 15 27 15 45 0 29 4 34 31 40 30 7 99 59 99 75 0 4 -34 -3 -75 -16 -42 -13
-80 -24 -85 -24 -5 0 2 24 15 53 38 83 55 164 55 262 0 51 -3 94 -6 98 -4 3
-20 -1 -35 -9 -28 -14 -30 -13 -54 13 -23 27 -23 29 -7 53 32 50 51 93 62 145
9 44 17 56 54 82 65 46 131 173 151 291 6 35 17 52 68 100 143 133 227 216
227 225 0 5 -13 7 -29 4 -28 -6 -30 -4 -33 26 -3 24 4 40 27 66 30 33 30 33 5
26 -51 -15 -130 -61 -320 -184 -222 -145 -281 -179 -363 -209 -61 -23 -127
-29 -127 -12 0 6 5 10 10 10 18 0 10 19 -34 84 -85 125 -112 238 -103 445 6
151 24 259 99 591 72 322 88 418 95 570 7 156 -10 265 -56 365 -16 33 -36 91
-45 129 -15 65 -59 149 -91 176 -12 10 -25 5 -65 -25 -56 -41 -58 -41 -134 10
-45 30 -52 39 -48 60 3 18 0 25 -11 25 -9 0 -23 10 -31 22 -15 21 -16 21 -21
2z m-1795 -3554 c7 -17 10 -33 6 -37 -10 -10 -46 28 -46 49 0 29 26 21 40 -12z
m639 -5420 c-7 -449 -5 -532 15 -605 17 -67 18 -75 2 -171 -20 -128 -20 -193
0 -245 38 -93 -22 -437 -87 -508 -34 -36 -38 -13 -29 154 5 83 9 317 10 520 0
204 3 387 7 409 4 27 14 43 34 55 l29 18 -25 23 c-29 27 -31 42 -10 60 14 12
14 15 -4 34 -23 25 -36 70 -25 87 5 9 10 8 19 -5 16 -21 20 6 36 249 17 232
32 191 28 -75z m1291 -160 c0 -27 -22 -46 -41 -34 -13 7 -11 48 2 61 18 18 39
3 39 -27z m-80 10 c0 -5 -14 -7 -32 -3 -46 8 -48 13 -5 13 21 0 37 -4 37 -10z
m120 -114 c0 -12 -5 -28 -10 -36 -8 -13 -11 -12 -24 5 -19 24 -20 57 -4 73 10
10 15 9 25 -5 7 -9 13 -26 13 -37z m20 -184 c0 -5 -6 -17 -14 -28 -11 -15 -17
-16 -27 -7 -16 16 -4 43 21 43 11 0 20 -4 20 -8z m-70 -54 c21 -35 18 -48 -11
-48 -20 0 -23 4 -33 53 -9 39 19 36 44 -5z m-42 -73 c3 -2 -1 -11 -8 -20 -11
-13 -6 -15 43 -15 67 0 87 -7 87 -29 0 -12 -9 -16 -32 -16 -25 0 -36 -6 -43
-22 -13 -31 -32 -29 -70 8 -28 28 -31 36 -25 65 5 22 4 34 -4 37 -6 3 2 3 18
1 16 -2 32 -6 34 -9z m122 -135 c0 -5 -4 -10 -10 -10 -5 0 -10 5 -10 10 0 6 5
10 10 10 6 0 10 -4 10 -10z m-180 -25 c0 -8 -4 -15 -10 -15 -5 0 -10 7 -10 15
0 8 5 15 10 15 6 0 10 -7 10 -15z m-1120 -255 c0 -16 -4 -30 -10 -30 -5 0 -10
14 -10 30 0 17 5 30 10 30 6 0 10 -13 10 -30z m-10 -320 c0 -5 -7 -10 -15 -10
-8 0 -15 5 -15 10 0 6 7 10 15 10 8 0 15 -4 15 -10z m-401 -1869 c17 -11 7
-41 -13 -41 -19 0 -28 14 -20 34 7 18 13 19 33 7z"/>
<path d="M39157 3353 c-11 -10 -8 -51 3 -58 6 -4 10 8 10 29 0 37 -2 41 -13
29z"/>
<path d="M39856 12670 c-32 -49 -33 -55 -3 -35 20 13 47 54 47 70 0 16 -21 -1
-44 -35z"/>
<path d="M32875 10934 c-11 -2 -45 -9 -75 -15 -122 -25 -214 -77 -465 -264
-104 -78 -221 -160 -258 -183 -192 -115 -386 -134 -589 -58 l-92 35 -80 -76
c-44 -41 -89 -80 -101 -85 -12 -6 -58 -82 -118 -199 -76 -147 -104 -192 -127
-204 -23 -12 -33 -30 -55 -97 -34 -102 -53 -140 -65 -133 -20 13 -9 -31 24
-91 30 -53 33 -64 21 -74 -24 -20 -45 -4 -45 32 0 38 -24 78 -46 78 -8 0 -51
-46 -97 -102 -77 -97 -374 -408 -388 -408 -3 0 -9 25 -13 54 -13 118 -97 299
-205 443 -32 43 -102 121 -157 173 -54 53 -137 146 -183 207 -72 96 -87 110
-103 102 -16 -8 -18 -6 -18 20 0 22 -12 42 -47 78 -27 27 -76 96 -110 154 -70
119 -122 173 -183 189 -69 19 -84 12 -90 -40 -5 -40 -9 -46 -48 -65 -23 -11
-45 -29 -48 -40 -17 -55 -171 -369 -226 -462 -53 -89 -80 -121 -173 -207 -147
-136 -197 -189 -225 -237 l-23 -41 42 4 c22 2 41 2 41 0 0 -1 -15 -16 -34 -33
-52 -45 -80 -110 -72 -166 9 -67 42 -116 166 -250 87 -93 113 -127 122 -162 9
-36 17 -46 47 -58 54 -22 71 -42 71 -80 0 -23 -8 -42 -25 -59 -20 -20 -23 -29
-15 -49 6 -17 17 -25 33 -25 27 0 63 -23 77 -50 16 -30 92 -1317 125 -2110 38
-919 41 -2075 6 -2150 -9 -19 -16 -51 -16 -70 0 -32 -4 -37 -45 -57 -71 -35
-218 -80 -300 -92 -74 -10 -76 -10 -148 24 -41 19 -109 59 -153 90 l-80 55 7
-48 c3 -26 15 -67 25 -91 11 -24 17 -46 15 -49 -3 -2 -57 46 -121 108 -92 91
-115 109 -115 91 0 -12 5 -32 11 -44 18 -34 -55 37 -109 108 -26 33 -70 105
-98 160 -39 77 -57 101 -74 103 -20 3 -22 1 -15 -25 4 -15 13 -63 20 -107 22
-137 113 -293 355 -606 233 -302 327 -461 354 -595 8 -38 22 -155 31 -260 18
-207 34 -294 65 -355 l20 -40 111 0 c104 0 113 -2 141 -25 43 -36 95 -49 144
-36 22 6 87 44 145 85 74 53 105 70 107 60 3 -12 7 -13 18 -3 19 16 18 45 -3
54 -17 6 -16 7 2 17 11 6 61 51 110 99 50 49 100 95 111 104 21 14 21 14 16
-32 -3 -32 -2 -44 6 -39 17 11 407 533 530 711 105 152 263 407 313 505 l22
45 -12 256 c-21 421 7 588 118 708 26 28 44 60 54 99 57 206 59 722 6 1512
-30 448 -30 448 -83 575 -136 329 -189 786 -121 1051 45 174 153 287 288 301
47 4 58 1 112 -31 33 -20 68 -35 78 -32 12 3 17 -2 17 -16 0 -14 5 -18 19 -13
10 3 23 -1 30 -8 8 -11 5 -16 -16 -26 -22 -10 -24 -14 -12 -22 7 -5 21 -9 29
-9 8 0 28 -20 43 -44 62 -98 166 -162 279 -173 l65 -6 6 57 c6 60 28 106 51
106 7 0 32 -15 56 -32 135 -103 155 -112 202 -87 20 11 20 11 -7 29 l-28 18
44 12 c46 13 134 54 142 67 3 5 -29 8 -72 8 -42 0 -85 4 -96 9 -19 8 -19 9 5
16 48 15 129 10 186 -11 31 -12 96 -49 145 -83 132 -90 192 -126 211 -126 10
0 51 31 91 69 57 55 87 94 136 183 35 62 83 138 106 168 l42 55 -5 76 c-5 88
7 120 93 235 71 95 96 146 102 213 3 31 10 65 16 76 34 66 26 143 -22 198 -23
26 -29 45 -34 97 -3 43 -19 99 -46 166 -23 56 -41 115 -41 131 0 22 -7 36 -25
47 -14 9 -38 40 -55 69 -36 63 -40 130 -11 209 10 29 21 83 25 119 5 72 49
194 71 203 23 8 127 155 214 300 45 74 81 137 81 140 0 6 -22 6 -55 0z m-1876
-1126 c-16 -29 -28 -20 -16 12 7 18 14 25 18 18 4 -7 3 -20 -2 -30z m-1365
-6830 c-33 -56 -36 -59 -53 -45 -9 8 -22 16 -30 19 -9 2 -1 10 20 21 41 20 73
22 63 5z m-380 -359 c-21 -23 -44 -25 -44 -4 0 16 39 36 53 28 5 -3 1 -14 -9
-24z"/>
<path d="M13135 10730 c-82 -26 -280 -93 -440 -149 -487 -171 -599 -200 -1072
-276 -628 -100 -885 -180 -1092 -338 l-53 -41 6 -58 6 -57 -70 -108 c-67 -102
-92 -152 -51 -102 l19 24 22 -20 c38 -34 81 -134 105 -244 43 -196 50 -298 49
-751 0 -451 -9 -631 -65 -1288 -38 -457 -46 -606 -60 -1197 -10 -386 -10 -571
-1 -865 11 -336 30 -671 47 -817 l6 -53 -39 0 c-32 0 -43 -5 -57 -26 -9 -14
-32 -43 -52 -64 l-35 -39 12 -58 c29 -139 129 -347 255 -528 272 -390 749
-859 1204 -1185 l115 -81 12 41 c32 109 107 129 334 90 63 -11 143 -20 176
-20 57 0 62 -2 68 -24 3 -14 14 -27 24 -30 26 -9 156 27 307 83 160 60 251 81
348 81 64 0 97 8 248 59 96 33 224 78 284 101 104 40 114 47 186 119 41 42
101 110 132 151 l56 75 -44 5 c-56 7 -61 13 -47 53 16 46 15 65 -7 95 -40 58
-54 121 -54 252 0 201 42 394 193 895 102 339 148 514 159 613 8 75 11 82 116
252 255 413 365 664 365 837 0 50 -1 52 -49 87 -27 20 -70 45 -95 57 -44 19
-46 22 -46 60 0 67 29 175 96 357 36 94 71 202 80 239 30 130 15 293 -36 393
-16 32 -20 59 -20 147 0 59 -3 160 -7 223 l-8 115 -10 -190 c-9 -159 -13 -186
-22 -163 -41 94 -43 471 -4 585 25 75 28 190 6 254 -9 24 -23 91 -31 149 -9
67 -24 123 -40 153 -13 27 -24 61 -24 75 0 34 -35 110 -63 140 -44 47 -165 92
-247 92 -18 0 -41 11 -62 31 -44 41 -255 143 -348 169 -41 11 -94 20 -118 20
-107 0 -272 101 -453 278 -93 90 -128 118 -133 107 -3 -8 -11 -14 -17 -13 -7
2 -16 -11 -20 -28 -16 -56 -32 -59 -72 -15 -102 113 -90 303 49 744 4 13 -18
2 -70 -34 -41 -29 -78 -51 -80 -48 -3 3 15 31 40 62 37 47 43 61 34 76 -5 11
-10 33 -10 50 0 36 -4 37 -70 12 l-50 -19 15 21 c8 12 15 33 15 47 0 20 27 47
138 137 182 148 287 252 271 267 -2 2 -71 -18 -154 -44z m-169 -2045 c65 -132
84 -276 104 -795 7 -164 16 -280 26 -325 24 -105 27 -332 10 -719 -9 -189 -16
-404 -16 -478 0 -78 -8 -193 -19 -274 -11 -76 -33 -267 -50 -424 -76 -697
-106 -933 -148 -1168 l-17 -95 -80 -37 c-138 -64 -364 -147 -526 -193 -162
-47 -367 -94 -375 -86 -7 8 24 198 51 303 14 56 41 142 60 192 32 86 33 96 33
225 0 151 7 206 56 469 19 102 40 232 46 290 19 187 -7 446 -119 1150 l-28
175 -39 5 c-37 5 -39 7 -50 58 -14 62 -38 118 -78 184 -21 36 -30 68 -39 140
-11 98 -5 383 11 543 6 50 15 168 21 262 l11 173 -23 32 c-16 24 -23 48 -25
87 -1 45 -5 56 -21 62 -21 8 -42 38 -42 58 0 14 44 14 88 2 28 -8 38 -6 69 14
41 28 57 24 48 -12 -6 -25 -6 -25 42 -18 77 11 338 80 458 120 149 51 316 123
395 172 l65 40 33 -31 c18 -17 49 -62 68 -101z m1543 -2 c17 -66 8 -63 -23 7
-31 73 -32 78 -7 56 10 -10 24 -38 30 -63z"/>
<path d="M33192 10729 c-27 -8 -32 -14 -26 -27 4 -9 22 -55 40 -102 32 -83 33
-85 76 -96 24 -6 53 -16 65 -22 27 -15 45 -66 37 -108 l-6 -32 -41 13 c-23 7
-60 15 -82 19 l-40 8 40 -27 c42 -28 115 -95 115 -105 0 -3 -19 -10 -42 -16
-24 -5 -43 -13 -42 -19 0 -5 34 -37 74 -70 l74 -61 38 -146 c20 -80 47 -178
60 -216 24 -70 24 -72 7 -116 -33 -83 -51 -199 -45 -288 3 -46 9 -153 13 -238
5 -96 13 -164 21 -178 11 -19 11 -33 1 -72 -9 -34 -9 -58 -3 -82 9 -30 13 -33
45 -30 l34 2 0 -49 c0 -28 5 -55 12 -62 18 -18 110 -13 147 9 33 19 34 19 87
1 30 -10 82 -18 117 -19 52 0 62 -3 62 -17 0 -15 10 -18 51 -20 28 0 72 -9 97
-18 42 -17 44 -19 26 -32 -11 -8 -30 -11 -46 -7 -26 5 -28 3 -29 -25 -1 -17
-2 -36 -3 -43 -2 -23 76 -51 181 -64 104 -14 180 -39 216 -72 16 -14 40 -17
146 -17 88 0 133 -4 150 -14 68 -38 179 17 327 164 161 159 344 403 569 758
55 86 103 157 106 157 12 0 19 -43 31 -185 11 -141 11 -141 -15 -205 -68 -171
-96 -461 -78 -807 10 -198 31 -457 46 -581 3 -29 1 -44 -8 -46 -6 -2 -82 -18
-167 -36 -85 -18 -196 -41 -246 -52 -87 -19 -95 -19 -154 -4 -76 20 -104 39
-200 136 -44 44 -152 130 -260 207 -102 73 -199 148 -217 167 -21 25 -40 36
-58 36 -15 0 -136 25 -269 56 -337 78 -325 77 -433 19 -87 -47 -201 -122 -257
-168 l-29 -24 -51 20 c-53 20 -145 26 -207 14 l-37 -7 -7 -86 c-6 -80 -5 -87
15 -109 16 -17 22 -37 24 -72 l1 -49 -68 -49 -69 -50 6 -55 c13 -118 36 -499
47 -780 13 -332 7 -1331 -10 -1650 -19 -343 -42 -689 -61 -928 -19 -233 -19
-233 -49 -267 -36 -42 -46 -110 -45 -305 3 -407 174 -768 423 -895 67 -34 158
-55 235 -55 63 0 66 1 56 19 -7 15 -6 23 6 35 23 24 51 19 75 -13 19 -26 28
-29 87 -33 49 -3 74 0 101 14 41 21 81 22 131 4 32 -11 40 -10 97 18 58 28 62
32 69 70 9 57 21 76 47 76 26 0 87 35 105 61 7 11 19 19 25 19 24 0 142 62
184 96 l42 34 -6 70 -6 70 32 0 c25 0 31 -4 31 -22 0 -20 1 -21 20 -3 11 10
20 26 20 37 0 13 7 18 25 18 20 0 28 8 41 40 9 22 30 52 48 66 17 15 35 41 41
58 8 25 17 32 48 37 30 5 52 21 107 78 130 134 223 156 443 105 63 -15 162
-29 226 -33 l114 -6 49 -90 c54 -100 95 -144 136 -146 39 -2 85 1 104 7 12 4
20 -7 32 -44 12 -35 34 -65 82 -112 36 -36 126 -135 198 -220 203 -237 308
-327 435 -373 80 -28 190 -32 276 -10 l70 18 30 62 c18 38 36 63 46 63 22 0
69 38 69 55 0 8 -7 11 -19 8 -10 -3 -29 1 -42 7 l-22 12 29 13 c16 6 35 20 43
29 13 15 13 19 0 27 -8 5 -25 9 -38 9 -23 0 -24 1 -6 20 11 12 31 20 50 20 29
0 31 2 27 30 -3 19 3 43 17 65 l20 35 -24 0 c-15 0 -31 10 -41 25 -9 14 -15
27 -13 28 2 2 17 8 32 15 15 7 34 26 41 42 l12 30 24 -25 24 -26 8 22 c5 13 6
41 2 64 -6 41 -5 42 60 100 67 58 87 94 67 118 -6 8 -8 29 -4 50 5 33 15 44
83 91 138 97 347 324 481 522 l52 77 -39 33 c-109 92 -219 137 -421 175 -84
15 -180 36 -214 45 l-62 17 7 301 c3 166 10 337 15 381 8 70 6 85 -10 117 -25
48 -25 94 0 107 16 9 18 16 9 56 -7 31 -5 105 6 242 26 327 38 657 39 1053 l1
375 -47 95 c-104 213 -115 429 -48 941 17 123 35 271 42 328 15 137 7 436 -15
514 -12 45 -13 62 -4 76 9 15 9 31 0 71 -15 63 -15 100 -2 100 12 0 -22 71
-42 87 -7 6 -31 16 -54 22 -85 23 -141 75 -286 266 -55 72 -121 140 -160 162
-15 10 -31 25 -34 35 -8 27 -89 93 -149 122 -76 36 -182 61 -385 90 -96 15
-197 31 -225 37 -73 17 -152 56 -174 88 -20 27 -24 28 -126 34 -89 4 -110 8
-128 25 -45 43 -148 81 -250 93 -83 11 -140 10 -354 -6 -148 -10 -287 -15
-332 -11 -129 11 -228 47 -299 110 -24 21 -67 42 -122 60 -47 15 -152 59 -235
98 -336 158 -514 238 -597 267 -158 55 -287 72 -366 50z m1088 -2214 c7 -9 10
-18 7 -22 -8 -7 -37 15 -37 28 0 14 16 11 30 -6z m1523 -2622 c-4 -802 -2
-1318 6 -1587 6 -219 9 -401 6 -405 -11 -10 -165 49 -310 118 -216 104 -443
247 -605 382 -32 27 -64 49 -70 49 -6 0 -34 10 -61 21 -44 19 -55 31 -100 106
-89 146 -109 234 -64 278 19 20 34 25 74 25 l51 0 45 93 c86 177 108 367 98
830 -9 428 12 591 98 766 79 161 168 226 494 360 83 34 186 81 230 105 44 24
88 44 97 45 16 1 17 -71 11 -1186z m1827 -2577 c0 -16 -19 -25 -37 -18 -23 8
-14 32 12 32 15 0 25 -6 25 -14z m-2786 -81 c4 -11 -1 -15 -19 -15 -16 0 -25
6 -25 15 0 8 9 15 19 15 10 0 21 -7 25 -15z m-657 -512 c-3 -3 -15 -2 -27 2
l-22 7 23 12 c19 10 25 9 27 -2 2 -7 1 -16 -1 -19z m-67 -32 c0 -5 -3 -17 -6
-25 -5 -13 -9 -14 -20 -5 -21 17 -17 39 6 39 11 0 20 -4 20 -9z"/>
<path d="M19236 10435 c-49 -17 -65 -32 -155 -149 -42 -54 -83 -107 -91 -117
-13 -16 -180 -69 -217 -69 -8 0 -13 13 -13 30 0 28 -2 30 -41 30 -32 0 -49 -7
-76 -30 -66 -58 -167 -100 -292 -121 -87 -14 -351 -11 -585 7 -197 15 -386 15
-443 -2 -15 -4 -23 -14 -23 -29 0 -29 21 -51 66 -70 35 -15 43 -32 22 -53 -7
-7 -13 -39 -13 -72 0 -56 6 -72 19 -51 3 5 16 11 28 14 21 6 22 5 5 -8 -15
-11 -16 -17 -8 -34 14 -25 14 -33 -2 -54 -11 -16 -18 -15 -90 23 -43 22 -87
40 -98 40 -17 0 -19 7 -19 59 0 52 -2 59 -22 65 -37 9 -48 7 -48 -11 0 -15 -2
-15 -14 2 -12 17 -18 18 -56 6 -33 -10 -49 -10 -71 -1 -24 10 -33 9 -62 -9
-37 -22 -133 -120 -161 -163 -10 -16 -27 -28 -38 -28 -22 0 -98 -52 -140 -97
-15 -15 -50 -71 -78 -123 -129 -236 -310 -442 -831 -945 -188 -182 -227 -231
-209 -266 18 -32 7 -77 -46 -192 -63 -137 -70 -210 -28 -286 30 -53 47 -60 52
-22 2 15 0 21 -7 17 -7 -5 -11 3 -11 20 0 26 1 27 20 9 42 -38 76 38 40 88
l-22 29 23 -7 c38 -12 59 -36 59 -67 l0 -29 34 26 c19 14 37 22 40 16 9 -13
46 -237 46 -274 0 -46 10 -77 25 -77 14 0 69 -60 61 -67 -2 -2 -40 14 -85 36
-44 23 -83 41 -86 41 -20 0 10 -162 57 -303 31 -94 35 -100 88 -139 91 -69
207 -177 222 -208 12 -24 48 -47 194 -119 334 -168 533 -310 686 -493 50 -59
148 -118 195 -118 30 0 72 -21 97 -49 l19 -21 31 24 31 23 18 -23 c26 -35 73
-56 106 -49 16 3 41 19 56 35 35 37 41 37 50 3 7 -30 32 -63 48 -63 5 0 6 12
3 26 -4 14 -4 35 0 47 6 18 9 15 28 -24 l21 -44 63 4 c35 2 83 -2 107 -9 l43
-12 6 -162 c3 -88 7 -352 8 -586 3 -424 3 -425 -18 -428 -16 -2 -25 7 -39 38
-24 53 -88 108 -141 122 -34 9 -45 20 -68 60 -15 27 -50 71 -77 98 -27 27 -49
56 -49 65 0 25 -118 85 -202 102 -27 5 -28 4 -28 -34 0 -35 4 -41 33 -54 36
-16 49 -52 21 -63 -25 -10 -64 21 -83 64 -16 37 -17 38 -81 43 -36 4 -114 8
-175 11 -60 2 -135 11 -165 19 -36 10 -99 14 -182 14 l-127 -1 -6 -27 c-4 -15
-12 -32 -18 -37 -20 -15 -236 -46 -322 -46 -70 0 -91 4 -170 38 -195 83 -317
111 -441 103 -267 -18 -291 -19 -331 -8 -23 6 -56 23 -73 37 -16 14 -30 23
-30 20 0 -3 5 -28 11 -56 10 -48 14 -53 55 -70 24 -11 70 -37 102 -59 62 -43
182 -162 182 -182 0 -7 17 -28 38 -48 33 -30 51 -66 111 -219 66 -167 80 -194
162 -306 49 -68 108 -141 131 -162 79 -71 448 -554 610 -798 55 -82 121 -174
148 -204 26 -30 62 -80 78 -111 29 -54 29 -59 25 -167 -5 -104 6 -230 29 -337
7 -34 20 -57 44 -80 19 -17 44 -46 56 -65 l21 -34 106 5 c97 4 139 14 234 52
13 6 17 2 17 -18 0 -47 22 -43 73 14 66 72 189 236 224 299 15 27 34 50 41 50
8 0 27 9 43 21 17 11 56 26 89 32 50 10 60 15 65 37 13 50 76 175 131 255 97
145 255 305 444 449 119 91 357 256 369 256 5 0 32 -16 61 -35 29 -19 58 -35
65 -35 24 0 150 42 200 67 96 48 165 97 165 118 0 14 13 25 43 38 23 9 60 31
81 48 l38 32 -41 41 c-64 65 -50 116 31 116 20 0 21 -1 3 -20 -18 -19 -17 -20
1 -20 11 0 25 -5 32 -12 6 -6 13 -10 16 -7 2 2 18 90 36 194 18 105 41 210 51
234 15 33 19 68 19 146 0 100 1 104 35 161 77 128 97 279 56 428 -12 42 -21
104 -21 139 0 158 -48 460 -131 822 -71 309 -66 295 -91 295 -28 0 -97 71
-104 108 -4 18 -14 32 -25 35 -10 3 -19 13 -19 23 0 40 -45 105 -145 208 -124
128 -171 206 -124 206 5 0 27 11 49 25 l39 25 7 -60 7 -60 27 43 c15 24 40 53
55 65 26 21 28 28 31 102 1 58 -2 82 -11 88 -8 4 -11 17 -8 34 4 22 16 31 67
51 75 31 160 47 239 47 58 0 59 0 54 26 -4 23 -2 25 21 19 57 -14 196 -6 265
15 37 11 67 25 67 29 0 12 -135 47 -270 70 -178 30 -308 40 -655 51 -176 5
-363 12 -415 16 -88 6 -97 8 -120 34 -23 27 -40 31 -250 70 -860 156 -1264
258 -1510 378 -124 60 -184 118 -194 186 -7 46 -6 50 26 83 18 19 65 55 105
79 59 38 75 43 92 35 47 -25 101 2 80 40 -8 15 -7 24 2 35 10 13 10 17 -1 24
-11 7 -10 16 4 54 24 62 49 80 87 61 15 -8 36 -29 47 -47 34 -55 82 -152 82
-164 0 -7 8 -10 20 -7 11 3 27 0 35 -7 14 -12 13 -16 -8 -39 -29 -31 -47 -64
-47 -85 0 -12 11 -16 50 -16 28 0 50 -3 50 -6 0 -3 -9 -17 -20 -31 -11 -14
-20 -32 -20 -39 0 -20 35 -35 68 -28 19 4 42 -1 68 -14 44 -23 118 -98 129
-131 3 -12 18 -24 33 -27 120 -27 220 -56 432 -126 290 -94 407 -124 553 -140
123 -13 247 -2 348 32 32 11 85 20 118 20 50 0 72 6 123 34 35 19 80 39 100
45 20 7 54 28 74 47 51 46 110 73 189 87 39 7 65 16 65 23 0 7 21 43 46 79 25
37 44 69 41 71 -2 2 -19 -1 -38 -6 -66 -19 -66 -7 2 68 27 32 66 90 86 130
l36 72 5 204 c3 132 1 226 -7 271 -13 71 -42 140 -62 147 -9 3 -9 9 -2 23 7
14 7 40 0 82 -9 57 -12 62 -31 57 -11 -3 -30 1 -40 9 -19 14 -19 15 2 38 13
13 27 40 33 61 12 46 8 450 -5 459 -4 4 -2 32 6 63 9 39 12 78 7 124 -4 37 -5
71 -2 75 3 5 25 21 49 37 l43 27 -22 20 c-62 54 -105 67 -161 48z m-1461 -585
c3 -5 13 -6 22 -3 13 5 15 2 10 -11 -4 -10 -7 -20 -7 -22 0 -2 -14 -4 -31 -4
-22 0 -32 -5 -36 -20 -6 -24 -19 -26 -27 -4 -10 26 -7 62 7 67 21 9 56 7 62
-3z m1184 -406 c-25 -31 -71 -46 -121 -42 -48 5 -67 13 -56 23 8 8 128 33 162
34 25 1 27 -1 15 -15z m-1940 -316 c1 -43 -9 -48 -32 -15 -15 21 -16 20 -16
-31 l-1 -53 -30 16 c-30 16 -30 16 -14 48 9 18 31 52 47 77 30 44 31 44 38 20
4 -14 7 -42 8 -62z m291 -4030 c18 -13 40 -33 48 -45 13 -21 13 -23 -2 -23 -9
0 -16 5 -16 10 0 6 -18 10 -40 10 -35 0 -40 3 -40 23 0 13 -5 28 -12 35 -22
22 27 14 62 -10z m1900 -948 c0 -5 -9 -10 -21 -10 -11 0 -17 5 -14 10 3 6 13
10 21 10 8 0 14 -4 14 -10z m-2175 -350 c5 -8 -24 -30 -39 -30 -3 0 -6 14 -6
30 0 27 2 30 19 20 11 -5 23 -14 26 -20z m405 -636 c-6 -14 -10 -39 -10 -55 0
-22 -5 -29 -19 -29 -17 0 -17 4 -8 48 10 44 21 61 39 62 4 0 3 -12 -2 -26z"/>
<path d="M42343 10378 c-6 -7 -13 -32 -16 -55 -7 -58 -37 -95 -126 -158 -74
-53 -172 -155 -298 -315 -33 -41 -81 -94 -106 -118 -31 -27 -47 -51 -47 -66 0
-14 -10 -30 -25 -40 -66 -44 21 -189 131 -218 41 -11 44 -14 44 -48 1 -55 18
-70 84 -70 72 0 120 -20 146 -62 18 -28 21 -44 17 -103 -3 -38 -8 -78 -12 -87
-5 -14 8 -24 67 -54 40 -20 74 -38 76 -39 2 -2 -8 -41 -22 -86 -128 -422 -173
-982 -163 -2008 5 -517 1 -474 82 -1056 83 -603 88 -659 89 -990 1 -334 -7
-405 -66 -583 -23 -69 -42 -107 -71 -141 -137 -157 -193 -500 -111 -669 37
-76 83 -104 183 -111 73 -6 81 -9 135 -50 58 -45 166 -157 166 -173 0 -4 16
-15 36 -23 20 -8 55 -36 78 -62 22 -25 59 -58 82 -73 39 -24 41 -27 23 -38
-26 -16 -24 -25 11 -60 17 -17 30 -41 30 -55 0 -22 5 -25 48 -31 53 -7 140
-46 166 -74 15 -18 14 -18 -12 -14 -17 2 -33 -2 -41 -12 -11 -13 -9 -20 8 -44
37 -53 48 -57 72 -30 l22 24 59 -23 c32 -13 75 -35 95 -49 49 -33 125 -54 192
-54 l56 1 -35 18 c-19 11 -44 28 -54 40 l-19 21 63 0 c66 0 67 1 46 51 -5 11
5 24 32 42 47 34 62 34 62 2 0 -14 9 -30 19 -37 19 -11 18 -13 -10 -30 -29
-18 -62 -75 -53 -90 9 -14 68 -8 104 10 28 14 36 24 42 57 3 22 4 56 1 76 -4
32 0 44 36 92 46 61 66 69 207 87 47 6 91 19 117 34 23 13 71 36 107 51 35 15
86 46 111 69 53 48 156 105 238 131 43 14 67 31 118 86 57 60 146 129 168 129
4 0 5 -24 3 -54 -8 -94 -93 -180 -265 -269 -94 -48 -314 -132 -426 -163 -78
-22 -105 -51 -87 -98 l9 -25 83 26 c337 102 504 188 633 324 46 49 71 69 83
65 12 -4 22 4 34 24 23 40 34 38 41 -8 14 -83 64 -113 237 -141 143 -23 205
-50 239 -103 19 -29 31 -38 53 -38 16 0 54 -9 84 -20 51 -17 55 -18 49 -2 -4
9 -9 32 -12 49 -5 30 -3 33 18 33 34 0 47 11 51 44 4 35 24 45 33 17 4 -13 15
-21 28 -21 47 0 103 -24 133 -55 17 -19 49 -38 71 -44 71 -19 77 -34 70 -170
l-6 -120 37 -12 c20 -6 41 -15 46 -20 6 -5 24 2 44 17 63 49 164 63 224 33 20
-11 32 7 42 63 7 41 24 51 72 42 46 -8 38 10 -27 59 -53 42 -54 43 -38 115 13
62 65 126 117 143 31 10 159 66 171 75 2 2 -3 14 -12 28 -15 22 -15 25 -1 37
30 25 68 116 116 279 27 91 51 173 54 182 4 11 0 20 -10 23 -9 3 -22 7 -30 9
-11 4 -10 17 10 71 29 81 30 107 2 165 -12 26 -22 67 -23 99 -1 51 -13 72 -47
83 -4 2 -11 26 -14 55 -6 48 -9 52 -48 69 -72 31 -149 84 -209 142 l-58 57 38
33 c27 23 34 34 25 40 -7 4 -54 30 -104 57 -123 68 -191 130 -209 192 -19 67
-17 362 4 588 21 223 25 555 13 1220 l-8 510 -26 27 c-25 27 -25 28 -8 66 12
27 17 60 15 108 -1 50 4 84 19 126 51 135 64 378 42 775 -8 150 -11 166 -33
195 -33 44 -57 93 -57 115 0 10 21 36 47 59 l47 41 -27 60 c-15 34 -30 89 -34
124 -6 56 -4 62 11 56 31 -12 29 21 -8 113 -20 50 -36 93 -36 98 0 4 24 19 53
35 62 32 129 85 122 97 -3 4 -25 11 -50 14 -26 4 -45 13 -45 20 0 25 29 51 60
52 17 1 32 3 34 5 1 2 36 62 76 134 58 101 73 137 71 164 -1 25 5 41 24 61 46
48 51 124 11 169 -14 15 -14 22 0 66 28 94 36 184 24 272 l-12 81 -51 23 c-29
12 -81 27 -117 33 -41 8 -83 23 -114 44 -27 17 -72 39 -100 48 -28 9 -84 30
-125 47 -67 27 -80 29 -155 24 -114 -8 -243 -37 -531 -117 -138 -38 -262 -70
-275 -70 -14 0 -59 6 -100 14 -41 8 -150 18 -241 22 -146 6 -169 5 -190 -10
-13 -9 -31 -16 -41 -16 -10 0 -18 -5 -18 -11 0 -6 18 -73 40 -149 22 -76 40
-145 40 -154 0 -8 -18 -25 -40 -37 -56 -32 -50 -53 19 -59 44 -4 59 -11 88
-40 56 -58 114 -200 81 -200 -8 0 -48 11 -88 25 -103 35 -110 34 -110 -15 0
-89 67 -233 231 -497 113 -182 173 -293 198 -365 10 -30 30 -125 43 -209 21
-143 23 -183 23 -554 -1 -430 -3 -468 -71 -1108 -33 -312 -35 -340 -20 -356
15 -17 15 -19 1 -31 -41 -34 -83 -161 -110 -331 -48 -302 -73 -999 -59 -1648
l9 -414 -27 -28 c-27 -26 -38 -69 -19 -69 5 0 19 12 30 26 21 27 21 27 21 4 0
-23 -73 -130 -88 -130 -4 0 -28 20 -52 45 -30 30 -65 53 -109 70 -37 14 -100
42 -141 64 -83 42 -134 99 -231 257 -43 69 -56 83 -88 93 -32 9 -40 17 -50 53
-7 23 -26 55 -42 71 -27 27 -35 29 -79 25 -28 -3 -73 -18 -102 -33 -112 -59
-162 -84 -165 -81 -2 1 7 29 19 62 15 43 23 89 26 169 3 92 8 119 29 163 21
43 25 67 25 133 0 68 4 90 28 142 45 96 62 172 67 302 5 110 3 124 -16 155
-24 40 -28 121 -11 211 17 85 15 191 -3 228 -14 29 -15 37 -3 65 48 116 65
290 75 778 9 395 8 403 -11 425 l-20 22 20 26 c12 15 24 50 28 81 8 66 -9 210
-35 292 -15 49 -16 64 -6 83 10 20 7 42 -22 144 -93 332 -124 621 -89 823 14
83 15 96 1 115 -22 32 -19 51 19 95 27 33 39 64 65 167 48 194 88 309 127 366
35 52 35 52 32 153 l-3 101 -18 -55 c-26 -81 -34 -90 -46 -57 -6 16 -11 34
-11 42 0 7 -23 47 -51 89 -41 60 -53 87 -57 126 -4 46 -9 54 -61 99 -120 103
-255 181 -314 181 -16 0 -36 4 -46 10 -10 5 -49 14 -86 20 -68 11 -115 29
-148 58 -16 15 -16 17 5 39 12 12 19 25 16 28 -14 15 -542 115 -604 115 -12 0
-26 -6 -31 -12z m2742 -2056 c-14 -45 -13 -52 4 -88 46 -95 53 -293 16 -452
l-17 -74 -29 28 c-24 23 -28 34 -23 57 4 20 1 34 -12 48 -18 20 -18 58 5 369
11 142 16 160 47 160 23 0 23 0 9 -48z m21 -849 c-8 -234 -26 -489 -66 -933
-17 -179 -30 -332 -31 -340 0 -8 -8 10 -18 40 -10 30 -28 75 -40 99 l-23 44
21 161 c11 88 33 224 48 301 21 104 27 159 23 215 -10 186 -5 271 24 360 15
48 30 121 33 168 5 64 9 82 21 82 13 0 14 -25 8 -197z m-1579 -1201 c9 -6 10
-17 2 -46 -12 -42 -32 -44 -37 -2 -6 47 8 65 35 48z m18 -403 c8 -23 1 -34
-14 -24 -13 8 -15 45 -2 45 5 0 13 -9 16 -21z m43 -408 c5 -30 -15 -52 -28
-31 -5 8 -10 25 -10 38 0 32 34 25 38 -7z m-24 -262 l27 -31 -43 -28 c-24 -15
-44 -27 -44 -26 -6 4 20 116 26 116 5 0 20 -14 34 -31z m1800 -2075 c24 -23
19 -36 -10 -32 -33 4 -55 48 -24 48 10 0 26 -7 34 -16z m-2694 -73 c0 -12 -20
-25 -27 -18 -7 7 6 27 18 27 5 0 9 -4 9 -9z m3404 -251 c30 -11 33 -28 11 -56
-15 -19 -15 -19 -35 5 -21 24 -27 61 -11 61 5 0 21 -4 35 -10z m-2488 -121 c8
-14 -18 -31 -30 -19 -9 9 0 30 14 30 5 0 12 -5 16 -11z"/>
<path d="M26650 10309 c-86 -5 -250 -17 -365 -28 -116 -11 -325 -32 -465 -45
-404 -39 -611 -49 -860 -42 -124 3 -238 9 -253 12 l-29 7 26 -26 c30 -30 32
-49 10 -114 -35 -104 -227 -353 -370 -481 -73 -65 -131 -144 -229 -317 -85
-149 -103 -177 -157 -233 -48 -51 -94 -82 -121 -82 -10 0 -29 12 -42 26 -22
24 -25 25 -25 8 -2 -187 -26 -910 -47 -1439 -20 -523 -27 -815 -27 -1265 -1
-563 0 -596 27 -880 15 -162 32 -396 38 -520 l12 -225 -29 -145 c-31 -159 -38
-339 -16 -417 9 -30 9 -49 1 -70 -6 -15 -15 -52 -20 -82 -9 -48 -8 -55 9 -67
11 -7 29 -33 40 -57 16 -34 43 -59 129 -122 176 -128 346 -260 405 -314 42
-38 64 -51 86 -51 23 0 35 -7 48 -29 12 -20 28 -31 51 -36 37 -7 48 -22 58
-80 10 -57 29 -82 71 -91 32 -8 46 -23 128 -144 84 -124 94 -135 125 -138 21
-2 71 -29 135 -71 130 -87 213 -132 306 -167 67 -25 88 -28 195 -28 146 0 196
15 445 135 91 44 230 105 309 135 389 148 579 262 632 377 19 43 23 74 13 100
-5 13 -18 12 -97 -9 -51 -14 -102 -23 -113 -20 -28 7 -84 71 -84 95 0 26 74
98 113 110 65 20 66 20 92 -42 13 -33 26 -61 29 -64 12 -13 85 -6 108 9 15 10
31 33 38 53 11 33 9 40 -31 109 l-43 73 -32 -33 c-32 -34 -64 -45 -64 -21 0
22 29 56 52 59 19 2 24 12 31 53 4 28 26 106 49 175 37 115 40 131 35 205 -3
44 -8 89 -12 101 -5 17 -1 23 24 34 58 24 57 34 -3 96 l-56 56 6 67 c4 40 0
111 -10 181 -35 252 -6 576 75 824 43 130 146 332 239 466 44 63 107 169 141
235 34 66 77 144 96 174 27 42 32 56 21 62 -17 11 -23 11 -95 -6 -85 -20 -224
-91 -363 -186 -98 -67 -124 -90 -169 -154 -105 -146 -278 -297 -591 -515 -213
-148 -314 -227 -468 -366 -337 -303 -402 -359 -494 -430 -235 -181 -471 -292
-713 -337 -75 -14 -78 -14 -55 1 239 161 405 323 480 471 33 66 212 247 275
278 22 11 81 35 130 53 50 18 94 36 99 40 5 5 4 22 -2 39 l-11 31 29 -15 c26
-14 34 -14 65 -1 32 14 35 18 29 43 -11 43 -32 100 -60 164 -24 54 -28 58 -48
47 -11 -6 -26 -18 -31 -25 -9 -12 -14 -11 -30 7 -16 17 -17 24 -7 38 42 59 52
81 52 120 0 34 3 42 18 42 32 0 108 56 125 93 24 49 22 59 -10 51 -16 -4 -36
-11 -45 -15 -30 -16 -28 -10 13 54 28 43 46 61 58 59 10 -2 45 9 76 23 52 23
60 24 75 10 9 -8 31 -18 48 -21 28 -6 37 -2 67 30 41 44 82 162 92 268 5 64 8
69 20 52 14 -19 15 -19 29 1 8 10 20 34 26 52 7 18 18 33 26 33 7 0 26 7 41
15 23 11 30 24 35 57 9 57 46 136 85 180 l31 36 -23 16 -22 16 37 33 c21 19
52 38 69 43 26 8 33 18 52 75 24 71 65 139 83 139 13 0 24 23 24 50 0 33 45
75 95 88 25 7 51 10 56 6 24 -15 68 14 171 112 67 64 121 107 137 110 27 6 27
7 18 43 -13 48 -4 70 32 84 l29 11 -5 132 -6 132 30 16 c38 19 112 102 118
130 2 12 9 50 15 85 15 82 74 252 110 317 23 41 27 58 23 97 l-6 46 38 -6 c36
-6 39 -4 151 108 112 112 113 114 107 151 -5 36 -2 42 44 91 147 155 302 482
328 687 6 53 5 56 -19 69 -14 8 -29 26 -35 41 -12 36 -99 70 -175 70 -44 0
-60 5 -91 30 -72 57 -142 83 -237 88 -77 4 -90 2 -114 -17 -30 -23 -50 -26
-90 -11 l-27 11 32 33 c38 39 32 49 -50 69 l-54 14 35 22 c19 11 50 24 68 27
17 3 32 11 32 18 0 21 -29 53 -60 66 l-30 12 25 30 c51 60 25 122 -71 171 -83
41 -271 97 -322 96 -26 -1 -117 -6 -202 -10z m-957 -1738 c84 -36 155 -44 417
-46 187 -2 270 -7 313 -18 32 -8 60 -17 63 -20 3 -3 -12 -40 -34 -83 -22 -44
-86 -182 -142 -309 -126 -283 -222 -482 -290 -600 -59 -101 -402 -608 -493
-729 -90 -118 -188 -220 -198 -204 -14 22 -10 290 6 415 9 65 36 228 61 362
66 360 77 472 71 691 -4 141 -10 208 -27 280 -25 107 -35 207 -26 244 7 28 23
32 153 34 60 2 93 -3 126 -17z m667 -1696 c0 -34 -5 -47 -20 -55 -29 -15 -40
-5 -40 39 0 40 14 61 42 61 15 0 18 -8 18 -45z m-835 -1505 c19 -20 14 -55 -7
-48 -13 5 -30 68 -18 68 4 0 15 -9 25 -20z m1183 -1489 c-2 -9 -11 -17 -21
-19 -12 -3 -17 3 -17 21 0 20 4 24 20 20 12 -3 20 -12 18 -22z m-1060 -598
c-2 -10 -13 -19 -26 -21 -26 -4 -28 6 -4 24 24 18 34 17 30 -3z m772 -33 c-6
-11 -15 -20 -20 -20 -6 0 -10 9 -10 20 0 13 7 20 20 20 18 0 19 -3 10 -20z
m-240 -20 c0 -16 -48 -42 -72 -38 -31 4 -25 21 15 35 41 15 57 16 57 3z"/>
<path d="M23763 9095 c0 -33 2 -45 4 -27 2 18 2 45 0 60 -2 15 -4 0 -4 -33z"/>
<path d="M33960 8536 c0 -10 9 -16 21 -16 24 0 21 23 -4 28 -10 2 -17 -3 -17
-12z"/>
<path d="M30766 8511 c-7 -11 22 -23 35 -15 5 3 7 10 4 15 -8 12 -32 12 -39 0z"/>
<path d="M30852 8498 c-18 -18 -15 -28 7 -28 26 0 34 15 18 29 -10 8 -17 7
-25 -1z"/>
<path d="M14652 8030 c0 -19 2 -27 5 -17 2 9 2 25 0 35 -3 9 -5 1 -5 -18z"/>
<path d="M15266 7672 c-10 -10 -6 -48 6 -60 14 -14 68 -16 68 -3 0 5 11 22 24
38 l24 28 -58 2 c-32 0 -61 -2 -64 -5z"/>
<path d="M26540 6926 c0 -28 3 -34 16 -29 18 7 16 54 -3 61 -9 2 -13 -8 -13
-32z"/>
<path d="M26535 6810 c3 -5 10 -10 16 -10 5 0 9 5 9 10 0 6 -7 10 -16 10 -8 0
-12 -4 -9 -10z"/>
<path d="M26470 6679 c0 -15 5 -20 23 -17 27 4 26 19 -2 30 -17 6 -21 3 -21
-13z"/>
<path d="M26206 6343 c-3 -3 -6 -17 -6 -30 0 -19 5 -23 31 -23 24 0 30 3 25
16 -3 9 -6 17 -6 19 0 9 -38 24 -44 18z"/>
<path d="M26076 6251 c-6 -10 31 -61 44 -61 15 0 22 40 10 55 -14 17 -46 20
-54 6z"/>
<path d="M26067 6163 c-17 -17 -5 -33 25 -33 30 0 31 0 13 20 -19 21 -28 24
-38 13z"/>
<path d="M25804 5905 c-16 -13 -17 -16 -4 -25 23 -15 45 -7 48 18 4 26 -15 29
-44 7z"/>
<path d="M25974 5812 c-25 -16 -34 -49 -23 -81 6 -17 15 -31 20 -31 17 0 42
67 35 94 -7 27 -13 31 -32 18z"/>
<path d="M25613 5663 c-14 -5 -18 -33 -5 -32 4 0 15 4 25 8 16 6 16 9 5 18 -7
6 -19 8 -25 6z"/>
<path d="M25546 5624 c-3 -9 -6 -29 -6 -45 0 -31 16 -37 51 -19 24 14 24 35
-1 60 -24 24 -36 25 -44 4z"/>
<path d="M29411 2691 c-22 -22 -28 -51 -11 -51 11 0 44 59 37 67 -3 2 -15 -5
-26 -16z"/>
<path d="M29315 2560 c-17 -18 -17 -20 -1 -20 9 0 19 7 23 15 9 25 -2 27 -22
5z"/>
<path d="M40246 1839 c-7 -57 -36 -182 -52 -223 -6 -17 -4 -18 22 -12 52 13
54 19 54 162 0 140 -12 178 -24 73z"/>
<path d="M40265 1558 c-7 -27 8 -68 26 -68 9 0 4 33 -11 75 -7 18 -8 18 -15
-7z"/>
</g>
</svg>
