<?xml version="1.0" standalone="no"?>
<!DOCTYPE svg PUBLIC "-//W3C//DTD SVG 20010904//EN"
 "http://www.w3.org/TR/2001/REC-SVG-20010904/DTD/svg10.dtd">
<svg version="1.0" xmlns="http://www.w3.org/2000/svg"
 width="4800.000000pt" height="1200.000000pt" viewBox="0 0 4800.000000 1200.000000"
 preserveAspectRatio="xMidYMid meet">

<g transform="translate(0.000000,1200.000000) scale(0.100000,-0.100000)"
fill="#FFFFFF" stroke="none">
<path d="M7790 5992 l0 -4442 420 0 420 0 0 2238 c0 2469 -5 2288 63 2388 88
131 229 123 337 -20 22 -29 564 -1077 1204 -2327 l1163 -2274 472 -3 472 -2
-74 142 c-195 374 -1989 3890 -1986 3892 2 2 49 22 104 45 596 252 1081 779
1288 1401 93 276 122 488 114 806 -10 364 -71 620 -228 943 -229 474 -596 842
-1071 1076 -236 116 -509 197 -760 224 -140 16 -418 13 -555 -4 -340 -44 -683
-170 -979 -362 -21 -14 -26 -5 -204 344 -101 197 -186 362 -191 368 -5 5 -9
-1901 -9 -4433z m1930 3244 c210 -37 440 -134 614 -257 473 -337 710 -937 595
-1503 -102 -501 -457 -922 -932 -1102 -59 -23 -101 -34 -106 -28 -5 5 -307
591 -671 1303 -540 1057 -659 1296 -648 1306 34 33 163 111 253 155 155 75
339 126 520 144 73 7 289 -3 375 -18z"/>
<path d="M36380 5992 l0 -4442 420 0 420 0 0 2243 c0 2460 -4 2297 59 2384 41
57 85 85 141 91 87 8 167 -53 244 -184 22 -39 554 -1075 1181 -2302 l1140
-2231 469 -1 c442 0 468 1 461 18 -3 9 -465 914 -1026 2011 -560 1096 -1019
1997 -1019 2000 0 4 26 18 58 31 562 229 1036 694 1266 1242 138 330 194 629
183 987 -10 362 -94 684 -258 999 -360 691 -1044 1159 -1819 1243 -158 17
-486 6 -640 -21 -294 -52 -592 -166 -834 -320 -33 -21 -64 -36 -68 -32 -3 4
-88 167 -188 362 -100 195 -183 357 -186 359 -2 2 -4 -1994 -4 -4437z m1825
3258 c257 -30 480 -111 687 -251 125 -84 315 -275 397 -398 276 -415 333 -915
156 -1373 -148 -383 -459 -695 -844 -848 -57 -23 -109 -39 -116 -36 -6 2 -310
588 -674 1300 -535 1047 -661 1299 -651 1311 6 8 46 36 88 63 289 185 634 269
957 232z"/>
<path d="M1060 9810 l0 -480 634 0 c377 0 655 -4 687 -10 78 -14 203 -79 284
-147 139 -117 273 -320 322 -488 17 -57 18 -260 21 -3597 l2 -3538 480 0 480
0 2 3543 3 3542 24 70 c54 162 135 291 261 415 90 89 156 134 262 179 l63 26
663 3 662 3 0 479 0 480 -2425 0 -2425 0 0 -480z"/>
<path d="M14280 5920 l0 -4370 2035 0 2035 0 0 480 0 480 -1257 2 -1258 3 -69
33 c-186 88 -344 252 -446 463 -76 158 -75 140 -75 989 0 849 -1 831 75 989
102 210 261 376 446 463 l69 33 1258 3 1257 2 0 480 0 480 -1208 0 c-821 0
-1227 3 -1267 11 -259 48 -543 356 -618 671 -9 40 -12 232 -12 763 0 704 0
711 22 787 47 160 130 301 250 422 121 122 239 193 358 215 40 8 446 11 1267
11 l1208 0 0 480 0 480 -2035 0 -2035 0 0 -4370z"/>
<path d="M30130 5920 l0 -4370 2035 0 2035 0 0 480 0 480 -1257 2 -1258 3 -75
36 c-183 88 -344 257 -441 464 -77 163 -74 128 -74 985 0 857 -3 822 74 985
98 209 261 379 447 467 l69 33 1258 3 1257 2 0 480 0 480 -1242 2 -1243 3 -59
22 c-93 36 -162 81 -259 173 -140 133 -233 280 -279 447 -22 77 -22 86 -22
793 0 705 0 716 21 793 48 168 142 318 286 453 92 86 161 132 253 167 l59 22
1243 3 1242 2 0 480 0 480 -2035 0 -2035 0 0 -4370z"/>
<path d="M42870 5920 l0 -4370 2035 0 2035 0 0 480 0 480 -1240 0 c-1232 0
-1241 0 -1303 21 -92 31 -172 83 -270 178 -133 128 -229 283 -274 442 -17 59
-18 119 -18 844 0 844 -2 817 55 957 48 118 117 216 229 329 93 93 118 112
205 155 l99 49 1259 3 1258 2 0 480 0 480 -1214 0 c-761 0 -1233 4 -1267 10
-237 44 -517 335 -601 625 l-23 80 0 725 0 725 23 80 c66 227 256 465 454 570
126 67 75 65 1416 65 l1212 0 0 480 0 480 -2035 0 -2035 0 0 -4370z"/>
<path d="M20600 5837 l0 -4277 420 0 420 0 0 3099 0 3098 23 33 c37 55 70 74
140 78 49 2 68 -1 92 -16 17 -11 1439 -1407 3160 -3102 l3130 -3082 3 2106 c1
1158 1 3053 0 4211 l-3 2104 -1854 -1795 c-1020 -987 -1857 -1793 -1861 -1792
-7 3 -2797 2748 -3402 3347 l-268 265 0 -4277z m6425 2042 c55 -16 92 -44 115
-89 20 -39 20 -66 20 -1882 0 -1215 -4 -1855 -10 -1880 -20 -71 -129 -139
-199 -123 -15 3 -43 16 -63 28 -20 12 -308 290 -640 617 -331 327 -777 767
-991 977 l-387 382 937 907 c516 499 970 938 1009 976 41 40 87 75 110 83 48
17 50 17 99 4z"/>
</g>
</svg>
