<?xml version="1.0" encoding="UTF-8"?>
<!DOCTYPE svg PUBLIC "-//W3C//DTD SVG 1.1//EN" "http://www.w3.org/Graphics/SVG/1.1/DTD/svg11.dtd">
<svg xmlns="http://www.w3.org/2000/svg" version="1.1" width="4800px" height="750px" style="shape-rendering:geometricPrecision; text-rendering:geometricPrecision; image-rendering:optimizeQuality; fill-rule:evenodd; clip-rule:evenodd" xmlns:xlink="http://www.w3.org/1999/xlink">
<g><path style="opacity:1" fill="#FFFFFF" d="M 1049.5,685.5 C 990.331,685.832 931.331,685.499 872.5,684.5C 901.495,673.181 918.661,652.181 924,621.5C 924.667,444.833 924.667,268.167 924,91.5C 917.954,60.5728 900.12,39.7395 870.5,29C 930.166,28.5 989.832,28.3333 1049.5,28.5C 1049.5,247.5 1049.5,466.5 1049.5,685.5 Z"/></g>
<g><path style="opacity:1" fill="#FFFFFF" d="M 3098.5,685.5 C 3039.33,685.832 2980.33,685.499 2921.5,684.5C 2950.14,673.356 2967.31,652.69 2973,622.5C 2973.67,445.5 2973.67,268.5 2973,91.5C 2967.12,60.948 2949.62,40.1146 2920.5,29C 2979.83,28.5 3039.17,28.3333 3098.5,28.5C 3098.5,247.5 3098.5,466.5 3098.5,685.5 Z"/></g>
<g><path style="opacity:1" fill="#FFFFFF" d="M 3588.5,29.5 C 3647.66,28.5009 3707,28.1676 3766.5,28.5C 3766.33,173.834 3766.5,319.167 3767,464.5C 3770.86,518.753 3788.19,568.087 3819,612.5C 3856.6,660.231 3905.76,688.231 3966.5,696.5C 3938.51,697.667 3910.51,697.833 3882.5,697C 3832.4,691.301 3784.74,677.301 3739.5,655C 3710.04,636.232 3687.87,611.065 3673,579.5C 3656.57,545.307 3646.57,509.307 3643,471.5C 3641.7,344.51 3641.04,217.51 3641,90.5C 3634.78,60.4479 3617.28,40.1146 3588.5,29.5 Z"/></g>
<g><path style="opacity:1" fill="#FFFFFF" d="M 4411.5,685.5 C 4352,685.832 4292.66,685.499 4233.5,684.5C 4264.22,672.607 4281.72,650.274 4286,617.5C 4286.17,530.333 4286.33,443.167 4286.5,356C 4286.66,266.474 4286.16,176.974 4285,87.5C 4277.75,58.8362 4260.25,39.3362 4232.5,29C 4292.17,28.5 4351.83,28.3333 4411.5,28.5C 4411.5,247.5 4411.5,466.5 4411.5,685.5 Z"/></g>
<g><path style="opacity:1" fill="#FFFFFF" d="M 354.5,31.5 C 270.833,30.1667 187.167,30.1667 103.5,31.5C 101.146,31.162 98.8127,30.662 96.5,30C 183.833,29.3333 271.167,29.3333 358.5,30C 357.099,30.4101 355.766,30.9101 354.5,31.5 Z"/></g>
<g><path style="opacity:1" fill="#FFFFFF" d="M 2583.5,684.5 C 2506.83,685.833 2430.17,685.833 2353.5,684.5C 2382.54,673.286 2399.71,652.286 2405,621.5C 2405.5,424.167 2405.67,226.834 2405.5,29.5C 2447.5,29.5 2489.5,29.5 2531.5,29.5C 2531.33,226.5 2531.5,423.5 2532,620.5C 2537.05,651.611 2554.22,672.945 2583.5,684.5 Z"/></g>
<g><path style="opacity:1" fill="#FFFFFF" d="M 3480.5,684.5 C 3440.67,685.499 3400.67,685.832 3360.5,685.5C 3302.95,569.072 3245.95,452.406 3189.5,335.5C 3239.27,334.208 3278.1,313.208 3306,272.5C 3327.06,232.204 3331.06,190.204 3318,146.5C 3298.62,88.7857 3260.12,49.9524 3202.5,30C 3234.24,29.5156 3265.91,30.8489 3297.5,34C 3328.92,37.3619 3358.58,46.3619 3386.5,61C 3423.76,85.3095 3444.93,119.809 3450,164.5C 3462.26,267.065 3418.42,330.398 3318.5,354.5C 3372.51,464.526 3426.51,574.526 3480.5,684.5 Z"/></g>
<g><path style="opacity:1" fill="#FFFFFF" d="M 103.5,31.5 C 187.167,30.1667 270.833,30.1667 354.5,31.5C 329.076,40.0832 316.909,57.7498 318,84.5C 335.729,134.29 355.396,183.29 377,231.5C 427.617,347.402 478.784,463.069 530.5,578.5C 507.651,625.531 484.817,672.531 462,719.5C 378,533.5 294,347.5 210,161.5C 198.438,135.489 186.104,109.822 173,84.5C 158.658,55.3318 135.491,37.6651 103.5,31.5 Z"/></g>
<g><path style="opacity:1" fill="#FFFFFF" d="M 634.5,31.5 C 681.33,30.5012 728.33,30.1679 775.5,30.5C 751.345,80.1448 727.178,129.811 703,179.5C 704.116,170.899 705.116,162.233 706,153.5C 709.07,128.361 706.07,104.028 697,80.5C 684.349,53.7547 663.515,37.4214 634.5,31.5 Z"/></g>
<g><path style="opacity:1" fill="#FFFFFF" d="M 1200.5,31.5 C 1238.66,30.5015 1277,30.1681 1315.5,30.5C 1323.83,30.5 1332.17,30.5 1340.5,30.5C 1340.17,45.3428 1340.5,60.0095 1341.5,74.5C 1341.5,97.5 1341.5,120.5 1341.5,143.5C 1341.83,155.345 1341.49,167.012 1340.5,178.5C 1327.85,133.337 1304.18,95.1707 1269.5,64C 1249.27,47.5217 1226.27,36.6884 1200.5,31.5 Z"/></g>
<g><path style="opacity:1" fill="#FFFFFF" d="M 1446.5,31.5 C 1513.33,30.5008 1580.33,30.1675 1647.5,30.5C 1776.98,196.098 1906.48,361.764 2036,527.5C 2036.67,583.833 2036.67,640.167 2036,696.5C 1858.86,486.204 1682.19,275.537 1506,64.5C 1489.21,48.186 1469.38,37.186 1446.5,31.5 Z"/></g>
<g><path style="opacity:1" fill="#FFFFFF" d="M 1892.5,31.5 C 1926.33,30.5017 1960.33,30.1683 1994.5,30.5C 2007.83,30.5 2021.17,30.5 2034.5,30.5C 2034.5,63.8333 2034.5,97.1667 2034.5,130.5C 2034.83,146.009 2034.5,161.342 2033.5,176.5C 2021.21,133.738 1998.87,97.2377 1966.5,67C 1945.13,48.4831 1920.46,36.6498 1892.5,31.5 Z"/></g>
<g><path style="opacity:1" fill="#FFFFFF" d="M 2189.5,30.5 C 2236.67,30.1679 2283.67,30.5012 2330.5,31.5C 2295.38,38.8064 2265.88,55.8064 2242,82.5C 2217.79,110.569 2200.63,142.569 2190.5,178.5C 2189.5,150.672 2189.17,122.672 2189.5,94.5C 2189.5,73.1667 2189.5,51.8333 2189.5,30.5 Z"/></g>
<g><path style="opacity:1" fill="#FFFFFF" d="M 2617.5,31.5 C 2651.66,30.5017 2686,30.1683 2720.5,30.5C 2732.83,30.5 2745.17,30.5 2757.5,30.5C 2757.17,63.3376 2757.5,96.0043 2758.5,128.5C 2758.67,145.503 2758.5,162.503 2758,179.5C 2744.52,132.319 2719.35,92.8191 2682.5,61C 2663.09,46.2963 2641.42,36.463 2617.5,31.5 Z"/></g>
<g><path style="opacity:1" fill="#FFFFFF" d="M 3990.5,31.5 C 4037.66,30.5012 4085,30.1679 4132.5,30.5C 4132.5,54.1667 4132.5,77.8333 4132.5,101.5C 4132.83,127.005 4132.5,152.339 4131.5,177.5C 4119,131.965 4095,93.7987 4059.5,63C 4039.25,46.6308 4016.25,36.1308 3990.5,31.5 Z"/></g>
<g><path style="opacity:1" fill="#FFFFFF" d="M 4561.5,31.5 C 4596,30.5016 4630.66,30.1683 4665.5,30.5C 4677.83,30.5 4690.17,30.5 4702.5,30.5C 4702.17,65.0041 4702.5,99.3374 4703.5,133.5C 4703.67,148.837 4703.5,164.17 4703,179.5C 4690.38,135.074 4667.21,97.2407 4633.5,66C 4612.52,48.3448 4588.52,36.8448 4561.5,31.5 Z"/></g>
<g><path style="opacity:1" fill="#FFFFFF" d="M 1315.5,30.5 C 1315.5,30.1667 1315.5,29.8333 1315.5,29.5C 1324.17,29.5 1332.83,29.5 1341.5,29.5C 1341.5,44.5 1341.5,59.5 1341.5,74.5C 1340.5,60.0095 1340.17,45.3428 1340.5,30.5C 1332.17,30.5 1323.83,30.5 1315.5,30.5 Z"/></g>
<g><path style="opacity:1" fill="#FFFFFF" d="M 4655.5,236.5 C 4656.67,307.665 4656.83,378.999 4656,450.5C 4626.69,387.234 4577.19,351.734 4507.5,344C 4567.7,337.048 4613.86,308.215 4646,257.5C 4649.73,250.705 4652.9,243.705 4655.5,236.5 Z"/></g>
<g><path style="opacity:1" fill="#FFFFFF" d="M 1293.5,237.5 C 1294.83,308.167 1294.83,378.833 1293.5,449.5C 1273.58,404.498 1240.58,372.998 1194.5,355C 1178.68,349.036 1162.34,345.369 1145.5,344C 1207.2,336.933 1254.03,307.099 1286,254.5C 1289.06,249.047 1291.56,243.38 1293.5,237.5 Z"/></g>
<g><path style="opacity:1" fill="#FFFFFF" d="M 1341.5,625.5 C 1340.5,644.659 1340.17,663.993 1340.5,683.5C 1330.17,683.5 1319.83,683.5 1309.5,683.5C 1273,683.832 1236.66,683.498 1200.5,682.5C 1235.64,675.182 1265.14,658.182 1289,631.5C 1313.08,603.357 1330.41,571.357 1341,535.5C 1341.5,565.498 1341.67,595.498 1341.5,625.5 Z"/></g>
<g><path style="opacity:1" fill="#FFFFFF" d="M 1499.5,537.5 C 1511.77,580.546 1534.1,617.38 1566.5,648C 1587.17,665.668 1610.84,677.501 1637.5,683.5C 1600.5,684.167 1563.5,684.833 1526.5,685.5C 1517.17,685.5 1507.83,685.5 1498.5,685.5C 1498.5,652.5 1498.5,619.5 1498.5,586.5C 1498.17,569.991 1498.5,553.658 1499.5,537.5 Z"/></g>
<g><path style="opacity:1" fill="#FFFFFF" d="M 4682.5,684.5 C 4642.5,683.833 4602.5,683.167 4562.5,682.5C 4605.7,672.779 4639.87,649.779 4665,613.5C 4682.21,588.746 4694.87,561.746 4703,532.5C 4703.5,583.166 4703.67,633.832 4703.5,684.5C 4696.5,684.5 4689.5,684.5 4682.5,684.5 Z"/></g>
</svg>
